G04 #@! TF.GenerationSoftware,KiCad,Pcbnew,(5.0.1-3-g963ef8bb5)*
G04 #@! TF.CreationDate,2019-02-22T11:05:41+01:00*
G04 #@! TF.ProjectId,unicorn_pcb,756E69636F726E5F7063622E6B696361,rev?*
G04 #@! TF.SameCoordinates,Original*
G04 #@! TF.FileFunction,Legend,Bot*
G04 #@! TF.FilePolarity,Positive*
%FSLAX46Y46*%
G04 Gerber Fmt 4.6, Leading zero omitted, Abs format (unit mm)*
G04 Created by KiCad (PCBNEW (5.0.1-3-g963ef8bb5)) date 2019 February 22, Friday 11:05:41*
%MOMM*%
%LPD*%
G01*
G04 APERTURE LIST*
%ADD10C,0.250000*%
%ADD11C,0.300000*%
%ADD12C,0.120000*%
%ADD13C,0.254000*%
%ADD14C,0.010000*%
%ADD15C,0.150000*%
%ADD16C,0.101600*%
G04 APERTURE END LIST*
D10*
X215466584Y-80926707D02*
X215299917Y-81215382D01*
X215908937Y-81731957D02*
X216147032Y-81319564D01*
X214847994Y-80569564D01*
X214609899Y-80981957D01*
X215656602Y-82026157D02*
X215647032Y-82185589D01*
X215527985Y-82391786D01*
X215418507Y-82438550D01*
X215332838Y-82444075D01*
X215185311Y-82413886D01*
X215061593Y-82342457D01*
X214961685Y-82229790D01*
X214923635Y-82152836D01*
X214909395Y-82034643D01*
X214942774Y-81833972D01*
X214928534Y-81715779D01*
X214890485Y-81638825D01*
X214790577Y-81526157D01*
X214666859Y-81454729D01*
X214519331Y-81424539D01*
X214433663Y-81430064D01*
X214324185Y-81476829D01*
X214205137Y-81683025D01*
X214195567Y-81842457D01*
X215218461Y-82927897D02*
X213919423Y-82177897D01*
X213728947Y-82507811D01*
X213743187Y-82626004D01*
X213781236Y-82702958D01*
X213881144Y-82815626D01*
X214066721Y-82922768D01*
X214214249Y-82952958D01*
X214299917Y-82947433D01*
X214409395Y-82900668D01*
X214599871Y-82570754D01*
X213467042Y-82961444D02*
X213157518Y-83497555D01*
X213819056Y-83494594D01*
X213747628Y-83618312D01*
X213761868Y-83736505D01*
X213799917Y-83813458D01*
X213899826Y-83926126D01*
X214209120Y-84104697D01*
X214356648Y-84134887D01*
X214442316Y-84129362D01*
X214551794Y-84082597D01*
X214694651Y-83835162D01*
X214680411Y-83716969D01*
X214642362Y-83640015D01*
X213090760Y-83898898D02*
X213005091Y-83904423D01*
X212895613Y-83951187D01*
X212776566Y-84157383D01*
X212790806Y-84275576D01*
X212828855Y-84352530D01*
X212928763Y-84465198D01*
X213052481Y-84536626D01*
X213261868Y-84602530D01*
X214289890Y-84536230D01*
X213980366Y-85072341D01*
X214008846Y-85308726D02*
X213627893Y-85968555D01*
X212086089Y-85353323D02*
X213137692Y-85960466D01*
X213237600Y-86073134D01*
X213275650Y-86150088D01*
X213289890Y-86268281D01*
X213194651Y-86433238D01*
X213085173Y-86480002D01*
X212999505Y-86485527D01*
X212851977Y-86455338D01*
X211800375Y-85848195D01*
X212823269Y-86933634D02*
X212813699Y-87093067D01*
X212694651Y-87299263D01*
X212585173Y-87346027D01*
X212499505Y-87351553D01*
X212351977Y-87321363D01*
X212228260Y-87249935D01*
X212128351Y-87137267D01*
X212090302Y-87060313D01*
X212076062Y-86942120D01*
X212109441Y-86741449D01*
X212095201Y-86623256D01*
X212057152Y-86546302D01*
X211957243Y-86433634D01*
X211833525Y-86362206D01*
X211685998Y-86332017D01*
X211600329Y-86337542D01*
X211490851Y-86384306D01*
X211371804Y-86590502D01*
X211362234Y-86749935D01*
X211538012Y-87731192D02*
X211528443Y-87890624D01*
X211566492Y-87967578D01*
X211666401Y-88080246D01*
X211851977Y-88187389D01*
X211999505Y-88217578D01*
X212085173Y-88212053D01*
X212194651Y-88165289D01*
X212385128Y-87835374D01*
X211086089Y-87085374D01*
X210919423Y-87374049D01*
X210933663Y-87492242D01*
X210971712Y-87569196D01*
X211071621Y-87681864D01*
X211195338Y-87753292D01*
X211342866Y-87783481D01*
X211428534Y-87777956D01*
X211538012Y-87731192D01*
X211704679Y-87442517D01*
X217910357Y-81265398D02*
X219209395Y-82015398D01*
X217972216Y-81301112D02*
X217862738Y-81347876D01*
X217767500Y-81512833D01*
X217781739Y-81631026D01*
X217819789Y-81707980D01*
X217919697Y-81820648D01*
X218290851Y-82034933D01*
X218438378Y-82065123D01*
X218524047Y-82059598D01*
X218633525Y-82012833D01*
X218728763Y-81847876D01*
X218714523Y-81729683D01*
X218252573Y-82672662D02*
X218238333Y-82554469D01*
X218200283Y-82477516D01*
X218100375Y-82364848D01*
X217729221Y-82150562D01*
X217581694Y-82120373D01*
X217496025Y-82125898D01*
X217386547Y-82172662D01*
X217315119Y-82296380D01*
X217329358Y-82414573D01*
X217367408Y-82491527D01*
X217467316Y-82604194D01*
X217838470Y-82818480D01*
X217985997Y-82848669D01*
X218071666Y-82843144D01*
X218181144Y-82796380D01*
X218252573Y-82672662D01*
X217053214Y-82750012D02*
X217824001Y-83414970D01*
X217110173Y-83222784D01*
X217633525Y-83744884D01*
X216672261Y-83409841D01*
X217095475Y-84533956D02*
X217204954Y-84487192D01*
X217300192Y-84322234D01*
X217285952Y-84204042D01*
X217186043Y-84091374D01*
X216691172Y-83805659D01*
X216543644Y-83775470D01*
X216434166Y-83822234D01*
X216338928Y-83987192D01*
X216353168Y-84105385D01*
X216453076Y-84218052D01*
X216576794Y-84289481D01*
X216938607Y-83948516D01*
X216919239Y-84982063D02*
X216053214Y-84482063D01*
X216300650Y-84624920D02*
X216153122Y-84594731D01*
X216067454Y-84600256D01*
X215957976Y-84647021D01*
X215910357Y-84729499D01*
X215733891Y-85892289D02*
X215352939Y-86552118D01*
X216038287Y-86507918D02*
X215048544Y-85936489D01*
X215014477Y-88281208D02*
X213715439Y-87531208D01*
X214952618Y-88245493D02*
X215062096Y-88198729D01*
X215157334Y-88033772D01*
X215143095Y-87915579D01*
X215105045Y-87838625D01*
X215005137Y-87725957D01*
X214633983Y-87511672D01*
X214486456Y-87481483D01*
X214400787Y-87487008D01*
X214291309Y-87533772D01*
X214196071Y-87698729D01*
X214210311Y-87816922D01*
X214562096Y-89064754D02*
X213881648Y-88671897D01*
X213781739Y-88559229D01*
X213767500Y-88441037D01*
X213862738Y-88276079D01*
X213972216Y-88229315D01*
X214500237Y-89029040D02*
X214609715Y-88982276D01*
X214728763Y-88776079D01*
X214714523Y-88657886D01*
X214614615Y-88545219D01*
X214490897Y-88473790D01*
X214343369Y-88443601D01*
X214233891Y-88490365D01*
X214114844Y-88696562D01*
X214005366Y-88743326D01*
X213529404Y-88853430D02*
X213338928Y-89183344D01*
X213024963Y-88727148D02*
X214138424Y-89370005D01*
X214238333Y-89482673D01*
X214252573Y-89600865D01*
X214204954Y-89683344D01*
X213824001Y-90343173D02*
X213143553Y-89950316D01*
X213043644Y-89837648D01*
X213029404Y-89719455D01*
X213124642Y-89554498D01*
X213234120Y-89507733D01*
X213762142Y-90307459D02*
X213871620Y-90260694D01*
X213990668Y-90054498D01*
X213976428Y-89936305D01*
X213876519Y-89823637D01*
X213752802Y-89752208D01*
X213605274Y-89722019D01*
X213495796Y-89768784D01*
X213376749Y-89974980D01*
X213267271Y-90021744D01*
X188961433Y-78975171D02*
X188947193Y-78856978D01*
X189018621Y-78733260D01*
X189151909Y-78645256D01*
X189323246Y-78634206D01*
X189470773Y-78664395D01*
X189742019Y-78766013D01*
X189927596Y-78873156D01*
X190151222Y-79057253D01*
X190251130Y-79169920D01*
X190327229Y-79323828D01*
X190317660Y-79483260D01*
X190270041Y-79565738D01*
X190136753Y-79653742D01*
X190051085Y-79659267D01*
X189618072Y-79409267D01*
X189713310Y-79244310D01*
X189960517Y-80101849D02*
X188661479Y-79351849D01*
X189674802Y-80596721D01*
X188375764Y-79846721D01*
X189436707Y-81009114D02*
X188137669Y-80259114D01*
X188018621Y-80465311D01*
X188009052Y-80624743D01*
X188085151Y-80778650D01*
X188185059Y-80891318D01*
X188408685Y-81075414D01*
X188594262Y-81182557D01*
X188865508Y-81284175D01*
X189013035Y-81314364D01*
X189184372Y-81303314D01*
X189317660Y-81215311D01*
X189436707Y-81009114D01*
X191653860Y-79838303D02*
X192786231Y-80876978D01*
X191320526Y-80415653D01*
X192176753Y-81789767D02*
X192286231Y-81743003D01*
X192381469Y-81578046D01*
X192367229Y-81459853D01*
X192329180Y-81382899D01*
X192229271Y-81270232D01*
X191858118Y-81055946D01*
X191710590Y-81025757D01*
X191624922Y-81031282D01*
X191515444Y-81078046D01*
X191420206Y-81243003D01*
X191434446Y-81361196D01*
X191748182Y-82532075D02*
X191857660Y-82485311D01*
X191952898Y-82320353D01*
X191938658Y-82202161D01*
X191900608Y-82125207D01*
X191800700Y-82012539D01*
X191429546Y-81798253D01*
X191282019Y-81768064D01*
X191196350Y-81773589D01*
X191086872Y-81820353D01*
X190991634Y-81985311D01*
X191005874Y-82103504D01*
D11*
X193714285Y-76092857D02*
X193214285Y-76092857D01*
X193000000Y-76878571D02*
X193714285Y-76878571D01*
X193714285Y-75378571D01*
X193000000Y-75378571D01*
X192428571Y-76807142D02*
X192214285Y-76878571D01*
X191857142Y-76878571D01*
X191714285Y-76807142D01*
X191642857Y-76735714D01*
X191571428Y-76592857D01*
X191571428Y-76450000D01*
X191642857Y-76307142D01*
X191714285Y-76235714D01*
X191857142Y-76164285D01*
X192142857Y-76092857D01*
X192285714Y-76021428D01*
X192357142Y-75950000D01*
X192428571Y-75807142D01*
X192428571Y-75664285D01*
X192357142Y-75521428D01*
X192285714Y-75450000D01*
X192142857Y-75378571D01*
X191785714Y-75378571D01*
X191571428Y-75450000D01*
X190928571Y-76878571D02*
X190928571Y-75378571D01*
X190357142Y-75378571D01*
X190214285Y-75450000D01*
X190142857Y-75521428D01*
X190071428Y-75664285D01*
X190071428Y-75878571D01*
X190142857Y-76021428D01*
X190214285Y-76092857D01*
X190357142Y-76164285D01*
X190928571Y-76164285D01*
X189571428Y-75378571D02*
X188642857Y-75378571D01*
X189142857Y-75950000D01*
X188928571Y-75950000D01*
X188785714Y-76021428D01*
X188714285Y-76092857D01*
X188642857Y-76235714D01*
X188642857Y-76592857D01*
X188714285Y-76735714D01*
X188785714Y-76807142D01*
X188928571Y-76878571D01*
X189357142Y-76878571D01*
X189500000Y-76807142D01*
X189571428Y-76735714D01*
X188071428Y-75521428D02*
X188000000Y-75450000D01*
X187857142Y-75378571D01*
X187500000Y-75378571D01*
X187357142Y-75450000D01*
X187285714Y-75521428D01*
X187214285Y-75664285D01*
X187214285Y-75807142D01*
X187285714Y-76021428D01*
X188142857Y-76878571D01*
X187214285Y-76878571D01*
D12*
G04 #@! TO.C,J1*
X184646972Y-55244282D02*
X183316972Y-57547910D01*
X206747940Y-68004282D02*
X205417940Y-70307910D01*
X185126965Y-58592910D02*
X188210015Y-60372910D01*
X189526374Y-61132910D02*
X192609424Y-62912910D01*
X193925783Y-63672910D02*
X197008833Y-65452910D01*
X198325192Y-66212910D02*
X201408243Y-67992910D01*
X202724601Y-68752910D02*
X205417940Y-70307910D01*
X184646972Y-55244282D02*
X187340311Y-56799282D01*
X183810606Y-57832910D02*
X183050606Y-59149268D01*
X183316972Y-57547910D02*
X183810606Y-57832910D01*
X206254306Y-67719282D02*
X206747940Y-68004282D01*
X188656669Y-57559282D02*
X191739720Y-59339282D01*
X193056079Y-60099282D02*
X196139129Y-61879282D01*
X197455488Y-62639282D02*
X200538538Y-64419282D01*
X201854897Y-65179282D02*
X204937947Y-66959282D01*
G04 #@! TO.C,D7*
X197596000Y-96230000D02*
X195596000Y-96230000D01*
X195596000Y-96230000D02*
X195596000Y-92330000D01*
X197596000Y-96230000D02*
X197596000Y-92330000D01*
G04 #@! TO.C,J2*
X173146972Y-75162866D02*
X171816972Y-77466494D01*
X195247940Y-87922866D02*
X193917940Y-90226494D01*
X171816972Y-77466494D02*
X174510311Y-79021494D01*
X173640606Y-75447866D02*
X174400606Y-74131508D01*
X173146972Y-75162866D02*
X173640606Y-75447866D01*
X193424306Y-89941494D02*
X193917940Y-90226494D01*
X175826669Y-79781494D02*
X178909720Y-81561494D01*
X180226079Y-82321494D02*
X183309129Y-84101494D01*
X184625488Y-84861494D02*
X187708538Y-86641494D01*
X189024897Y-87401494D02*
X192107947Y-89181494D01*
X174956965Y-76207866D02*
X178040015Y-77987866D01*
X179356374Y-78747866D02*
X182439424Y-80527866D01*
X183755783Y-81287866D02*
X186838833Y-83067866D01*
X188155192Y-83827866D02*
X191238243Y-85607866D01*
X192554601Y-86367866D02*
X195247940Y-87922866D01*
G04 #@! TO.C,C2*
X188627936Y-66400000D02*
X189832064Y-66400000D01*
X188627936Y-68220000D02*
X189832064Y-68220000D01*
G04 #@! TO.C,C1*
X205634000Y-94074064D02*
X205634000Y-92869936D01*
X203814000Y-94074064D02*
X203814000Y-92869936D01*
D13*
G04 #@! TO.C,Grove1*
X231140000Y-75902820D02*
X231140000Y-74823320D01*
X231140000Y-64876680D02*
X231140000Y-63797180D01*
X236603540Y-75948540D02*
X231338120Y-75948540D01*
X236603540Y-63751460D02*
X231239060Y-63751460D01*
X231239060Y-64851280D02*
X229641400Y-64851280D01*
X229641400Y-64851280D02*
X229641400Y-74848720D01*
X229641400Y-74848720D02*
X231338120Y-74848720D01*
X240339880Y-75849480D02*
X240339880Y-73248520D01*
X240339880Y-73248520D02*
X239339120Y-73248520D01*
X239339120Y-73248520D02*
X239339120Y-66451480D01*
X239339120Y-66451480D02*
X240339880Y-66451480D01*
X240339880Y-66451480D02*
X240339880Y-63850520D01*
D12*
G04 #@! TO.C,D8*
X205216000Y-84038000D02*
X203216000Y-84038000D01*
X203216000Y-84038000D02*
X203216000Y-80138000D01*
X205216000Y-84038000D02*
X205216000Y-80138000D01*
G04 #@! TO.C,R3*
X210006000Y-81541252D02*
X210006000Y-81018748D01*
X208586000Y-81541252D02*
X208586000Y-81018748D01*
G04 #@! TO.C,R2*
X168350000Y-73413252D02*
X168350000Y-72890748D01*
X166930000Y-73413252D02*
X166930000Y-72890748D01*
G04 #@! TO.C,R1*
X201370000Y-94241252D02*
X201370000Y-93718748D01*
X199950000Y-94241252D02*
X199950000Y-93718748D01*
D14*
G04 #@! TO.C,REF\002A\002A*
G36*
X231860122Y-82139776D02*
X231754388Y-82140355D01*
X231677868Y-82141922D01*
X231625628Y-82144972D01*
X231592737Y-82149996D01*
X231574263Y-82157489D01*
X231565273Y-82167944D01*
X231560837Y-82181853D01*
X231560406Y-82183654D01*
X231553667Y-82216145D01*
X231541192Y-82280252D01*
X231524281Y-82369151D01*
X231504229Y-82476019D01*
X231482336Y-82594033D01*
X231481571Y-82598178D01*
X231459641Y-82713831D01*
X231439123Y-82816014D01*
X231421341Y-82898598D01*
X231407619Y-82955456D01*
X231399282Y-82980458D01*
X231398884Y-82980901D01*
X231374323Y-82993110D01*
X231323685Y-83013456D01*
X231257905Y-83037545D01*
X231257539Y-83037674D01*
X231174683Y-83068818D01*
X231077000Y-83108491D01*
X230984923Y-83148381D01*
X230980566Y-83150353D01*
X230830593Y-83218420D01*
X230498502Y-82991639D01*
X230396626Y-82922504D01*
X230304343Y-82860697D01*
X230226997Y-82809733D01*
X230169936Y-82773127D01*
X230138505Y-82754394D01*
X230135521Y-82753004D01*
X230112679Y-82759190D01*
X230070018Y-82789035D01*
X230005872Y-82843947D01*
X229918579Y-82925334D01*
X229829465Y-83011922D01*
X229743559Y-83097247D01*
X229666673Y-83175108D01*
X229603436Y-83240697D01*
X229558477Y-83289205D01*
X229536424Y-83315825D01*
X229535604Y-83317195D01*
X229533166Y-83335463D01*
X229542350Y-83365295D01*
X229565426Y-83410721D01*
X229604663Y-83475770D01*
X229662330Y-83564470D01*
X229739205Y-83678657D01*
X229807430Y-83779162D01*
X229868418Y-83869303D01*
X229918644Y-83943849D01*
X229954584Y-83997565D01*
X229972713Y-84025218D01*
X229973854Y-84027095D01*
X229971641Y-84053590D01*
X229954862Y-84105086D01*
X229926858Y-84171851D01*
X229916878Y-84193172D01*
X229873328Y-84288159D01*
X229826866Y-84395937D01*
X229789123Y-84489192D01*
X229761927Y-84558406D01*
X229740325Y-84611006D01*
X229727842Y-84638497D01*
X229726291Y-84640616D01*
X229703332Y-84644124D01*
X229649214Y-84653738D01*
X229571132Y-84668089D01*
X229476281Y-84685807D01*
X229371857Y-84705525D01*
X229265056Y-84725874D01*
X229163074Y-84745486D01*
X229073106Y-84762991D01*
X229002347Y-84777022D01*
X228957994Y-84786209D01*
X228947115Y-84788807D01*
X228935878Y-84795218D01*
X228927395Y-84809697D01*
X228921286Y-84837133D01*
X228917168Y-84882411D01*
X228914659Y-84950420D01*
X228913379Y-85046047D01*
X228912946Y-85174180D01*
X228912923Y-85226701D01*
X228912923Y-85653845D01*
X229015500Y-85674091D01*
X229072569Y-85685070D01*
X229157731Y-85701095D01*
X229260628Y-85720233D01*
X229370904Y-85740551D01*
X229401385Y-85746132D01*
X229503145Y-85765917D01*
X229591795Y-85785373D01*
X229659892Y-85802697D01*
X229699996Y-85816088D01*
X229706677Y-85820079D01*
X229723081Y-85848342D01*
X229746601Y-85903109D01*
X229772684Y-85973588D01*
X229777858Y-85988769D01*
X229812044Y-86082896D01*
X229854477Y-86189101D01*
X229896003Y-86284473D01*
X229896208Y-86284916D01*
X229965360Y-86434525D01*
X229510488Y-87103617D01*
X229802500Y-87396116D01*
X229890820Y-87483170D01*
X229971375Y-87559909D01*
X230039640Y-87622237D01*
X230091092Y-87666056D01*
X230121206Y-87687270D01*
X230125526Y-87688616D01*
X230150889Y-87678016D01*
X230202642Y-87648547D01*
X230275132Y-87603705D01*
X230362706Y-87546984D01*
X230457388Y-87483462D01*
X230553484Y-87418668D01*
X230639163Y-87362287D01*
X230708984Y-87317788D01*
X230757506Y-87288639D01*
X230779218Y-87278308D01*
X230805707Y-87287050D01*
X230855938Y-87310087D01*
X230919549Y-87342631D01*
X230926292Y-87346249D01*
X231011954Y-87389210D01*
X231070694Y-87410279D01*
X231107228Y-87410503D01*
X231126269Y-87390928D01*
X231126380Y-87390654D01*
X231135898Y-87367472D01*
X231158597Y-87312441D01*
X231192718Y-87229822D01*
X231236500Y-87123872D01*
X231288184Y-86998852D01*
X231346008Y-86859020D01*
X231402009Y-86723637D01*
X231463553Y-86574234D01*
X231520061Y-86435832D01*
X231569839Y-86312673D01*
X231611194Y-86209002D01*
X231642432Y-86129059D01*
X231661859Y-86077088D01*
X231667846Y-86057692D01*
X231652832Y-86035443D01*
X231613561Y-85999982D01*
X231561193Y-85960887D01*
X231412059Y-85837245D01*
X231295489Y-85695522D01*
X231212882Y-85538704D01*
X231165634Y-85369775D01*
X231155143Y-85191722D01*
X231162769Y-85109539D01*
X231204318Y-84939031D01*
X231275877Y-84788459D01*
X231373005Y-84659309D01*
X231491266Y-84553064D01*
X231626220Y-84471210D01*
X231773429Y-84415232D01*
X231928456Y-84386615D01*
X232086861Y-84386844D01*
X232244206Y-84417405D01*
X232396054Y-84479782D01*
X232537965Y-84575460D01*
X232597197Y-84629572D01*
X232710797Y-84768520D01*
X232789894Y-84920361D01*
X232835014Y-85080667D01*
X232846684Y-85245012D01*
X232825431Y-85408971D01*
X232771780Y-85568118D01*
X232686260Y-85718025D01*
X232569395Y-85854267D01*
X232438807Y-85960887D01*
X232384412Y-86001642D01*
X232345986Y-86036718D01*
X232332154Y-86057726D01*
X232339397Y-86080635D01*
X232359995Y-86135365D01*
X232392254Y-86217672D01*
X232434479Y-86323315D01*
X232484977Y-86448050D01*
X232542052Y-86587636D01*
X232598146Y-86723670D01*
X232660033Y-86873201D01*
X232717356Y-87011767D01*
X232768356Y-87135107D01*
X232811273Y-87238964D01*
X232844347Y-87319080D01*
X232865819Y-87371195D01*
X232873775Y-87390654D01*
X232892571Y-87410423D01*
X232928926Y-87410365D01*
X232987521Y-87389441D01*
X233073032Y-87346613D01*
X233073708Y-87346249D01*
X233138093Y-87313012D01*
X233190139Y-87288802D01*
X233219488Y-87278404D01*
X233220783Y-87278308D01*
X233242876Y-87288855D01*
X233291652Y-87318184D01*
X233361669Y-87362827D01*
X233447486Y-87419314D01*
X233542612Y-87483462D01*
X233639460Y-87548411D01*
X233726747Y-87604896D01*
X233798819Y-87649421D01*
X233850023Y-87678490D01*
X233874474Y-87688616D01*
X233896990Y-87675307D01*
X233942258Y-87638112D01*
X234005756Y-87581128D01*
X234082961Y-87508449D01*
X234169349Y-87424171D01*
X234197601Y-87396016D01*
X234489713Y-87103416D01*
X234267369Y-86777104D01*
X234199798Y-86676897D01*
X234140493Y-86586963D01*
X234092783Y-86512510D01*
X234059993Y-86458751D01*
X234045452Y-86430894D01*
X234045026Y-86428912D01*
X234052692Y-86402655D01*
X234073311Y-86349837D01*
X234103315Y-86279310D01*
X234124375Y-86232093D01*
X234163752Y-86141694D01*
X234200835Y-86050366D01*
X234229585Y-85973200D01*
X234237395Y-85949692D01*
X234259583Y-85886916D01*
X234281273Y-85838411D01*
X234293187Y-85820079D01*
X234319477Y-85808859D01*
X234376858Y-85792954D01*
X234457882Y-85774167D01*
X234555105Y-85754299D01*
X234598615Y-85746132D01*
X234709104Y-85725829D01*
X234815084Y-85706170D01*
X234906199Y-85689088D01*
X234972092Y-85676518D01*
X234984500Y-85674091D01*
X235087077Y-85653845D01*
X235087077Y-85226701D01*
X235086847Y-85086246D01*
X235085901Y-84979979D01*
X235083859Y-84903013D01*
X235080338Y-84850460D01*
X235074957Y-84817433D01*
X235067334Y-84799045D01*
X235057088Y-84790408D01*
X235052885Y-84788807D01*
X235027530Y-84783127D01*
X234971516Y-84771795D01*
X234892036Y-84756179D01*
X234796288Y-84737647D01*
X234691467Y-84717569D01*
X234584768Y-84697312D01*
X234483387Y-84678246D01*
X234394521Y-84661739D01*
X234325363Y-84649159D01*
X234283111Y-84641875D01*
X234273710Y-84640616D01*
X234265193Y-84623763D01*
X234246340Y-84578870D01*
X234220676Y-84514430D01*
X234210877Y-84489192D01*
X234171352Y-84391686D01*
X234124808Y-84283959D01*
X234083123Y-84193172D01*
X234052450Y-84123753D01*
X234032044Y-84066710D01*
X234025232Y-84031777D01*
X234026318Y-84027095D01*
X234040715Y-84004991D01*
X234073588Y-83955831D01*
X234121410Y-83884848D01*
X234180652Y-83797278D01*
X234247785Y-83698357D01*
X234261059Y-83678830D01*
X234338954Y-83563140D01*
X234396213Y-83475044D01*
X234435119Y-83410486D01*
X234457956Y-83365411D01*
X234467006Y-83335763D01*
X234464552Y-83317485D01*
X234464489Y-83317369D01*
X234445173Y-83293361D01*
X234402449Y-83246947D01*
X234340949Y-83182937D01*
X234265302Y-83106145D01*
X234180139Y-83021382D01*
X234170535Y-83011922D01*
X234063210Y-82907989D01*
X233980385Y-82831675D01*
X233920395Y-82781571D01*
X233881577Y-82756270D01*
X233864480Y-82753004D01*
X233839527Y-82767250D01*
X233787745Y-82800156D01*
X233714480Y-82848208D01*
X233625080Y-82907890D01*
X233524889Y-82975688D01*
X233501499Y-82991639D01*
X233169407Y-83218420D01*
X233019435Y-83150353D01*
X232928230Y-83110685D01*
X232830331Y-83070791D01*
X232746169Y-83038983D01*
X232742462Y-83037674D01*
X232676631Y-83013576D01*
X232625884Y-82993200D01*
X232601158Y-82980936D01*
X232601116Y-82980901D01*
X232593271Y-82958734D01*
X232579934Y-82904217D01*
X232562430Y-82823480D01*
X232542083Y-82722650D01*
X232520218Y-82607856D01*
X232518429Y-82598178D01*
X232496496Y-82479904D01*
X232476360Y-82372542D01*
X232459320Y-82282917D01*
X232446672Y-82217851D01*
X232439716Y-82184168D01*
X232439594Y-82183654D01*
X232435361Y-82169325D01*
X232427129Y-82158507D01*
X232409967Y-82150706D01*
X232378942Y-82145429D01*
X232329122Y-82142182D01*
X232255576Y-82140472D01*
X232153371Y-82139807D01*
X232017575Y-82139693D01*
X232000000Y-82139692D01*
X231860122Y-82139776D01*
X231860122Y-82139776D01*
G37*
X231860122Y-82139776D02*
X231754388Y-82140355D01*
X231677868Y-82141922D01*
X231625628Y-82144972D01*
X231592737Y-82149996D01*
X231574263Y-82157489D01*
X231565273Y-82167944D01*
X231560837Y-82181853D01*
X231560406Y-82183654D01*
X231553667Y-82216145D01*
X231541192Y-82280252D01*
X231524281Y-82369151D01*
X231504229Y-82476019D01*
X231482336Y-82594033D01*
X231481571Y-82598178D01*
X231459641Y-82713831D01*
X231439123Y-82816014D01*
X231421341Y-82898598D01*
X231407619Y-82955456D01*
X231399282Y-82980458D01*
X231398884Y-82980901D01*
X231374323Y-82993110D01*
X231323685Y-83013456D01*
X231257905Y-83037545D01*
X231257539Y-83037674D01*
X231174683Y-83068818D01*
X231077000Y-83108491D01*
X230984923Y-83148381D01*
X230980566Y-83150353D01*
X230830593Y-83218420D01*
X230498502Y-82991639D01*
X230396626Y-82922504D01*
X230304343Y-82860697D01*
X230226997Y-82809733D01*
X230169936Y-82773127D01*
X230138505Y-82754394D01*
X230135521Y-82753004D01*
X230112679Y-82759190D01*
X230070018Y-82789035D01*
X230005872Y-82843947D01*
X229918579Y-82925334D01*
X229829465Y-83011922D01*
X229743559Y-83097247D01*
X229666673Y-83175108D01*
X229603436Y-83240697D01*
X229558477Y-83289205D01*
X229536424Y-83315825D01*
X229535604Y-83317195D01*
X229533166Y-83335463D01*
X229542350Y-83365295D01*
X229565426Y-83410721D01*
X229604663Y-83475770D01*
X229662330Y-83564470D01*
X229739205Y-83678657D01*
X229807430Y-83779162D01*
X229868418Y-83869303D01*
X229918644Y-83943849D01*
X229954584Y-83997565D01*
X229972713Y-84025218D01*
X229973854Y-84027095D01*
X229971641Y-84053590D01*
X229954862Y-84105086D01*
X229926858Y-84171851D01*
X229916878Y-84193172D01*
X229873328Y-84288159D01*
X229826866Y-84395937D01*
X229789123Y-84489192D01*
X229761927Y-84558406D01*
X229740325Y-84611006D01*
X229727842Y-84638497D01*
X229726291Y-84640616D01*
X229703332Y-84644124D01*
X229649214Y-84653738D01*
X229571132Y-84668089D01*
X229476281Y-84685807D01*
X229371857Y-84705525D01*
X229265056Y-84725874D01*
X229163074Y-84745486D01*
X229073106Y-84762991D01*
X229002347Y-84777022D01*
X228957994Y-84786209D01*
X228947115Y-84788807D01*
X228935878Y-84795218D01*
X228927395Y-84809697D01*
X228921286Y-84837133D01*
X228917168Y-84882411D01*
X228914659Y-84950420D01*
X228913379Y-85046047D01*
X228912946Y-85174180D01*
X228912923Y-85226701D01*
X228912923Y-85653845D01*
X229015500Y-85674091D01*
X229072569Y-85685070D01*
X229157731Y-85701095D01*
X229260628Y-85720233D01*
X229370904Y-85740551D01*
X229401385Y-85746132D01*
X229503145Y-85765917D01*
X229591795Y-85785373D01*
X229659892Y-85802697D01*
X229699996Y-85816088D01*
X229706677Y-85820079D01*
X229723081Y-85848342D01*
X229746601Y-85903109D01*
X229772684Y-85973588D01*
X229777858Y-85988769D01*
X229812044Y-86082896D01*
X229854477Y-86189101D01*
X229896003Y-86284473D01*
X229896208Y-86284916D01*
X229965360Y-86434525D01*
X229510488Y-87103617D01*
X229802500Y-87396116D01*
X229890820Y-87483170D01*
X229971375Y-87559909D01*
X230039640Y-87622237D01*
X230091092Y-87666056D01*
X230121206Y-87687270D01*
X230125526Y-87688616D01*
X230150889Y-87678016D01*
X230202642Y-87648547D01*
X230275132Y-87603705D01*
X230362706Y-87546984D01*
X230457388Y-87483462D01*
X230553484Y-87418668D01*
X230639163Y-87362287D01*
X230708984Y-87317788D01*
X230757506Y-87288639D01*
X230779218Y-87278308D01*
X230805707Y-87287050D01*
X230855938Y-87310087D01*
X230919549Y-87342631D01*
X230926292Y-87346249D01*
X231011954Y-87389210D01*
X231070694Y-87410279D01*
X231107228Y-87410503D01*
X231126269Y-87390928D01*
X231126380Y-87390654D01*
X231135898Y-87367472D01*
X231158597Y-87312441D01*
X231192718Y-87229822D01*
X231236500Y-87123872D01*
X231288184Y-86998852D01*
X231346008Y-86859020D01*
X231402009Y-86723637D01*
X231463553Y-86574234D01*
X231520061Y-86435832D01*
X231569839Y-86312673D01*
X231611194Y-86209002D01*
X231642432Y-86129059D01*
X231661859Y-86077088D01*
X231667846Y-86057692D01*
X231652832Y-86035443D01*
X231613561Y-85999982D01*
X231561193Y-85960887D01*
X231412059Y-85837245D01*
X231295489Y-85695522D01*
X231212882Y-85538704D01*
X231165634Y-85369775D01*
X231155143Y-85191722D01*
X231162769Y-85109539D01*
X231204318Y-84939031D01*
X231275877Y-84788459D01*
X231373005Y-84659309D01*
X231491266Y-84553064D01*
X231626220Y-84471210D01*
X231773429Y-84415232D01*
X231928456Y-84386615D01*
X232086861Y-84386844D01*
X232244206Y-84417405D01*
X232396054Y-84479782D01*
X232537965Y-84575460D01*
X232597197Y-84629572D01*
X232710797Y-84768520D01*
X232789894Y-84920361D01*
X232835014Y-85080667D01*
X232846684Y-85245012D01*
X232825431Y-85408971D01*
X232771780Y-85568118D01*
X232686260Y-85718025D01*
X232569395Y-85854267D01*
X232438807Y-85960887D01*
X232384412Y-86001642D01*
X232345986Y-86036718D01*
X232332154Y-86057726D01*
X232339397Y-86080635D01*
X232359995Y-86135365D01*
X232392254Y-86217672D01*
X232434479Y-86323315D01*
X232484977Y-86448050D01*
X232542052Y-86587636D01*
X232598146Y-86723670D01*
X232660033Y-86873201D01*
X232717356Y-87011767D01*
X232768356Y-87135107D01*
X232811273Y-87238964D01*
X232844347Y-87319080D01*
X232865819Y-87371195D01*
X232873775Y-87390654D01*
X232892571Y-87410423D01*
X232928926Y-87410365D01*
X232987521Y-87389441D01*
X233073032Y-87346613D01*
X233073708Y-87346249D01*
X233138093Y-87313012D01*
X233190139Y-87288802D01*
X233219488Y-87278404D01*
X233220783Y-87278308D01*
X233242876Y-87288855D01*
X233291652Y-87318184D01*
X233361669Y-87362827D01*
X233447486Y-87419314D01*
X233542612Y-87483462D01*
X233639460Y-87548411D01*
X233726747Y-87604896D01*
X233798819Y-87649421D01*
X233850023Y-87678490D01*
X233874474Y-87688616D01*
X233896990Y-87675307D01*
X233942258Y-87638112D01*
X234005756Y-87581128D01*
X234082961Y-87508449D01*
X234169349Y-87424171D01*
X234197601Y-87396016D01*
X234489713Y-87103416D01*
X234267369Y-86777104D01*
X234199798Y-86676897D01*
X234140493Y-86586963D01*
X234092783Y-86512510D01*
X234059993Y-86458751D01*
X234045452Y-86430894D01*
X234045026Y-86428912D01*
X234052692Y-86402655D01*
X234073311Y-86349837D01*
X234103315Y-86279310D01*
X234124375Y-86232093D01*
X234163752Y-86141694D01*
X234200835Y-86050366D01*
X234229585Y-85973200D01*
X234237395Y-85949692D01*
X234259583Y-85886916D01*
X234281273Y-85838411D01*
X234293187Y-85820079D01*
X234319477Y-85808859D01*
X234376858Y-85792954D01*
X234457882Y-85774167D01*
X234555105Y-85754299D01*
X234598615Y-85746132D01*
X234709104Y-85725829D01*
X234815084Y-85706170D01*
X234906199Y-85689088D01*
X234972092Y-85676518D01*
X234984500Y-85674091D01*
X235087077Y-85653845D01*
X235087077Y-85226701D01*
X235086847Y-85086246D01*
X235085901Y-84979979D01*
X235083859Y-84903013D01*
X235080338Y-84850460D01*
X235074957Y-84817433D01*
X235067334Y-84799045D01*
X235057088Y-84790408D01*
X235052885Y-84788807D01*
X235027530Y-84783127D01*
X234971516Y-84771795D01*
X234892036Y-84756179D01*
X234796288Y-84737647D01*
X234691467Y-84717569D01*
X234584768Y-84697312D01*
X234483387Y-84678246D01*
X234394521Y-84661739D01*
X234325363Y-84649159D01*
X234283111Y-84641875D01*
X234273710Y-84640616D01*
X234265193Y-84623763D01*
X234246340Y-84578870D01*
X234220676Y-84514430D01*
X234210877Y-84489192D01*
X234171352Y-84391686D01*
X234124808Y-84283959D01*
X234083123Y-84193172D01*
X234052450Y-84123753D01*
X234032044Y-84066710D01*
X234025232Y-84031777D01*
X234026318Y-84027095D01*
X234040715Y-84004991D01*
X234073588Y-83955831D01*
X234121410Y-83884848D01*
X234180652Y-83797278D01*
X234247785Y-83698357D01*
X234261059Y-83678830D01*
X234338954Y-83563140D01*
X234396213Y-83475044D01*
X234435119Y-83410486D01*
X234457956Y-83365411D01*
X234467006Y-83335763D01*
X234464552Y-83317485D01*
X234464489Y-83317369D01*
X234445173Y-83293361D01*
X234402449Y-83246947D01*
X234340949Y-83182937D01*
X234265302Y-83106145D01*
X234180139Y-83021382D01*
X234170535Y-83011922D01*
X234063210Y-82907989D01*
X233980385Y-82831675D01*
X233920395Y-82781571D01*
X233881577Y-82756270D01*
X233864480Y-82753004D01*
X233839527Y-82767250D01*
X233787745Y-82800156D01*
X233714480Y-82848208D01*
X233625080Y-82907890D01*
X233524889Y-82975688D01*
X233501499Y-82991639D01*
X233169407Y-83218420D01*
X233019435Y-83150353D01*
X232928230Y-83110685D01*
X232830331Y-83070791D01*
X232746169Y-83038983D01*
X232742462Y-83037674D01*
X232676631Y-83013576D01*
X232625884Y-82993200D01*
X232601158Y-82980936D01*
X232601116Y-82980901D01*
X232593271Y-82958734D01*
X232579934Y-82904217D01*
X232562430Y-82823480D01*
X232542083Y-82722650D01*
X232520218Y-82607856D01*
X232518429Y-82598178D01*
X232496496Y-82479904D01*
X232476360Y-82372542D01*
X232459320Y-82282917D01*
X232446672Y-82217851D01*
X232439716Y-82184168D01*
X232439594Y-82183654D01*
X232435361Y-82169325D01*
X232427129Y-82158507D01*
X232409967Y-82150706D01*
X232378942Y-82145429D01*
X232329122Y-82142182D01*
X232255576Y-82140472D01*
X232153371Y-82139807D01*
X232017575Y-82139693D01*
X232000000Y-82139692D01*
X231860122Y-82139776D01*
G36*
X227754776Y-88499838D02*
X227677472Y-88550361D01*
X227640186Y-88595590D01*
X227610647Y-88677663D01*
X227608301Y-88742607D01*
X227613615Y-88829445D01*
X227813885Y-88917103D01*
X227911261Y-88961887D01*
X227974887Y-88997913D01*
X228007971Y-89029117D01*
X228013720Y-89059436D01*
X227995342Y-89092805D01*
X227975077Y-89114923D01*
X227916111Y-89150393D01*
X227851976Y-89152879D01*
X227793074Y-89125235D01*
X227749803Y-89070320D01*
X227742064Y-89050928D01*
X227704994Y-88990364D01*
X227662346Y-88964552D01*
X227603846Y-88942471D01*
X227603846Y-89026184D01*
X227609018Y-89083150D01*
X227629277Y-89131189D01*
X227671738Y-89186346D01*
X227678049Y-89193514D01*
X227725280Y-89242585D01*
X227765879Y-89268920D01*
X227816672Y-89281035D01*
X227858780Y-89285003D01*
X227934098Y-89285991D01*
X227987714Y-89273466D01*
X228021162Y-89254869D01*
X228073732Y-89213975D01*
X228110121Y-89169748D01*
X228133150Y-89114126D01*
X228145641Y-89039047D01*
X228150413Y-88936449D01*
X228150794Y-88884376D01*
X228149499Y-88821948D01*
X228031529Y-88821948D01*
X228030161Y-88855438D01*
X228026751Y-88860923D01*
X228004247Y-88853472D01*
X227955818Y-88833753D01*
X227891092Y-88805718D01*
X227877557Y-88799692D01*
X227795756Y-88758096D01*
X227750688Y-88721538D01*
X227740783Y-88687296D01*
X227764474Y-88652648D01*
X227784040Y-88637339D01*
X227854640Y-88606721D01*
X227920720Y-88611780D01*
X227976041Y-88649151D01*
X228014364Y-88715473D01*
X228026651Y-88768116D01*
X228031529Y-88821948D01*
X228149499Y-88821948D01*
X228148270Y-88762720D01*
X228138968Y-88672710D01*
X228120540Y-88607167D01*
X228090640Y-88558912D01*
X228046920Y-88520767D01*
X228027859Y-88508440D01*
X227941274Y-88476336D01*
X227846478Y-88474316D01*
X227754776Y-88499838D01*
X227754776Y-88499838D01*
G37*
X227754776Y-88499838D02*
X227677472Y-88550361D01*
X227640186Y-88595590D01*
X227610647Y-88677663D01*
X227608301Y-88742607D01*
X227613615Y-88829445D01*
X227813885Y-88917103D01*
X227911261Y-88961887D01*
X227974887Y-88997913D01*
X228007971Y-89029117D01*
X228013720Y-89059436D01*
X227995342Y-89092805D01*
X227975077Y-89114923D01*
X227916111Y-89150393D01*
X227851976Y-89152879D01*
X227793074Y-89125235D01*
X227749803Y-89070320D01*
X227742064Y-89050928D01*
X227704994Y-88990364D01*
X227662346Y-88964552D01*
X227603846Y-88942471D01*
X227603846Y-89026184D01*
X227609018Y-89083150D01*
X227629277Y-89131189D01*
X227671738Y-89186346D01*
X227678049Y-89193514D01*
X227725280Y-89242585D01*
X227765879Y-89268920D01*
X227816672Y-89281035D01*
X227858780Y-89285003D01*
X227934098Y-89285991D01*
X227987714Y-89273466D01*
X228021162Y-89254869D01*
X228073732Y-89213975D01*
X228110121Y-89169748D01*
X228133150Y-89114126D01*
X228145641Y-89039047D01*
X228150413Y-88936449D01*
X228150794Y-88884376D01*
X228149499Y-88821948D01*
X228031529Y-88821948D01*
X228030161Y-88855438D01*
X228026751Y-88860923D01*
X228004247Y-88853472D01*
X227955818Y-88833753D01*
X227891092Y-88805718D01*
X227877557Y-88799692D01*
X227795756Y-88758096D01*
X227750688Y-88721538D01*
X227740783Y-88687296D01*
X227764474Y-88652648D01*
X227784040Y-88637339D01*
X227854640Y-88606721D01*
X227920720Y-88611780D01*
X227976041Y-88649151D01*
X228014364Y-88715473D01*
X228026651Y-88768116D01*
X228031529Y-88821948D01*
X228149499Y-88821948D01*
X228148270Y-88762720D01*
X228138968Y-88672710D01*
X228120540Y-88607167D01*
X228090640Y-88558912D01*
X228046920Y-88520767D01*
X228027859Y-88508440D01*
X227941274Y-88476336D01*
X227846478Y-88474316D01*
X227754776Y-88499838D01*
G36*
X228429193Y-88488782D02*
X228405839Y-88498988D01*
X228350098Y-88543134D01*
X228302431Y-88606967D01*
X228272952Y-88675087D01*
X228268154Y-88708670D01*
X228284240Y-88755556D01*
X228319525Y-88780365D01*
X228357356Y-88795387D01*
X228374679Y-88798155D01*
X228383114Y-88778066D01*
X228399770Y-88734351D01*
X228407077Y-88714598D01*
X228448052Y-88646271D01*
X228507378Y-88612191D01*
X228583448Y-88613239D01*
X228589082Y-88614581D01*
X228629695Y-88633836D01*
X228659552Y-88671375D01*
X228679945Y-88731809D01*
X228692164Y-88819751D01*
X228697500Y-88939813D01*
X228698000Y-89003698D01*
X228698248Y-89104403D01*
X228699874Y-89173054D01*
X228704199Y-89216673D01*
X228712546Y-89242282D01*
X228726235Y-89256903D01*
X228746589Y-89267558D01*
X228747766Y-89268095D01*
X228786962Y-89284667D01*
X228806381Y-89290769D01*
X228809365Y-89272319D01*
X228811919Y-89221323D01*
X228813860Y-89144308D01*
X228815003Y-89047805D01*
X228815231Y-88977184D01*
X228814068Y-88840525D01*
X228809521Y-88736851D01*
X228800001Y-88660108D01*
X228783919Y-88604246D01*
X228759687Y-88563212D01*
X228725714Y-88530954D01*
X228692167Y-88508440D01*
X228611501Y-88478476D01*
X228517619Y-88471718D01*
X228429193Y-88488782D01*
X228429193Y-88488782D01*
G37*
X228429193Y-88488782D02*
X228405839Y-88498988D01*
X228350098Y-88543134D01*
X228302431Y-88606967D01*
X228272952Y-88675087D01*
X228268154Y-88708670D01*
X228284240Y-88755556D01*
X228319525Y-88780365D01*
X228357356Y-88795387D01*
X228374679Y-88798155D01*
X228383114Y-88778066D01*
X228399770Y-88734351D01*
X228407077Y-88714598D01*
X228448052Y-88646271D01*
X228507378Y-88612191D01*
X228583448Y-88613239D01*
X228589082Y-88614581D01*
X228629695Y-88633836D01*
X228659552Y-88671375D01*
X228679945Y-88731809D01*
X228692164Y-88819751D01*
X228697500Y-88939813D01*
X228698000Y-89003698D01*
X228698248Y-89104403D01*
X228699874Y-89173054D01*
X228704199Y-89216673D01*
X228712546Y-89242282D01*
X228726235Y-89256903D01*
X228746589Y-89267558D01*
X228747766Y-89268095D01*
X228786962Y-89284667D01*
X228806381Y-89290769D01*
X228809365Y-89272319D01*
X228811919Y-89221323D01*
X228813860Y-89144308D01*
X228815003Y-89047805D01*
X228815231Y-88977184D01*
X228814068Y-88840525D01*
X228809521Y-88736851D01*
X228800001Y-88660108D01*
X228783919Y-88604246D01*
X228759687Y-88563212D01*
X228725714Y-88530954D01*
X228692167Y-88508440D01*
X228611501Y-88478476D01*
X228517619Y-88471718D01*
X228429193Y-88488782D01*
G36*
X229112667Y-88485528D02*
X229056410Y-88511117D01*
X229012253Y-88542124D01*
X228979899Y-88576795D01*
X228957562Y-88621520D01*
X228943454Y-88682692D01*
X228935789Y-88766701D01*
X228932780Y-88879940D01*
X228932462Y-88954509D01*
X228932462Y-89245420D01*
X228982227Y-89268095D01*
X229021424Y-89284667D01*
X229040843Y-89290769D01*
X229044558Y-89272610D01*
X229047505Y-89223648D01*
X229049309Y-89152153D01*
X229049692Y-89095385D01*
X229051339Y-89013371D01*
X229055778Y-88948309D01*
X229062260Y-88908467D01*
X229067410Y-88900000D01*
X229102023Y-88908646D01*
X229156360Y-88930823D01*
X229219278Y-88960886D01*
X229279632Y-88993192D01*
X229326279Y-89022098D01*
X229348074Y-89041961D01*
X229348161Y-89042175D01*
X229346286Y-89078935D01*
X229329475Y-89114026D01*
X229299961Y-89142528D01*
X229256884Y-89152061D01*
X229220068Y-89150950D01*
X229167926Y-89150133D01*
X229140556Y-89162349D01*
X229124118Y-89194624D01*
X229122045Y-89200710D01*
X229114919Y-89246739D01*
X229133976Y-89274687D01*
X229183647Y-89288007D01*
X229237303Y-89290470D01*
X229333858Y-89272210D01*
X229383841Y-89246131D01*
X229445571Y-89184868D01*
X229478310Y-89109670D01*
X229481247Y-89030211D01*
X229453576Y-88956167D01*
X229411953Y-88909769D01*
X229370396Y-88883793D01*
X229305078Y-88850907D01*
X229228962Y-88817557D01*
X229216274Y-88812461D01*
X229132667Y-88775565D01*
X229084470Y-88743046D01*
X229068970Y-88710718D01*
X229083450Y-88674394D01*
X229108308Y-88646000D01*
X229167061Y-88611039D01*
X229231707Y-88608417D01*
X229290992Y-88635358D01*
X229333661Y-88689088D01*
X229339261Y-88702950D01*
X229371867Y-88753936D01*
X229419470Y-88791787D01*
X229479539Y-88822850D01*
X229479539Y-88734768D01*
X229476003Y-88680951D01*
X229460844Y-88638534D01*
X229427232Y-88593279D01*
X229394965Y-88558420D01*
X229344791Y-88509062D01*
X229305807Y-88482547D01*
X229263936Y-88471911D01*
X229216540Y-88470154D01*
X229112667Y-88485528D01*
X229112667Y-88485528D01*
G37*
X229112667Y-88485528D02*
X229056410Y-88511117D01*
X229012253Y-88542124D01*
X228979899Y-88576795D01*
X228957562Y-88621520D01*
X228943454Y-88682692D01*
X228935789Y-88766701D01*
X228932780Y-88879940D01*
X228932462Y-88954509D01*
X228932462Y-89245420D01*
X228982227Y-89268095D01*
X229021424Y-89284667D01*
X229040843Y-89290769D01*
X229044558Y-89272610D01*
X229047505Y-89223648D01*
X229049309Y-89152153D01*
X229049692Y-89095385D01*
X229051339Y-89013371D01*
X229055778Y-88948309D01*
X229062260Y-88908467D01*
X229067410Y-88900000D01*
X229102023Y-88908646D01*
X229156360Y-88930823D01*
X229219278Y-88960886D01*
X229279632Y-88993192D01*
X229326279Y-89022098D01*
X229348074Y-89041961D01*
X229348161Y-89042175D01*
X229346286Y-89078935D01*
X229329475Y-89114026D01*
X229299961Y-89142528D01*
X229256884Y-89152061D01*
X229220068Y-89150950D01*
X229167926Y-89150133D01*
X229140556Y-89162349D01*
X229124118Y-89194624D01*
X229122045Y-89200710D01*
X229114919Y-89246739D01*
X229133976Y-89274687D01*
X229183647Y-89288007D01*
X229237303Y-89290470D01*
X229333858Y-89272210D01*
X229383841Y-89246131D01*
X229445571Y-89184868D01*
X229478310Y-89109670D01*
X229481247Y-89030211D01*
X229453576Y-88956167D01*
X229411953Y-88909769D01*
X229370396Y-88883793D01*
X229305078Y-88850907D01*
X229228962Y-88817557D01*
X229216274Y-88812461D01*
X229132667Y-88775565D01*
X229084470Y-88743046D01*
X229068970Y-88710718D01*
X229083450Y-88674394D01*
X229108308Y-88646000D01*
X229167061Y-88611039D01*
X229231707Y-88608417D01*
X229290992Y-88635358D01*
X229333661Y-88689088D01*
X229339261Y-88702950D01*
X229371867Y-88753936D01*
X229419470Y-88791787D01*
X229479539Y-88822850D01*
X229479539Y-88734768D01*
X229476003Y-88680951D01*
X229460844Y-88638534D01*
X229427232Y-88593279D01*
X229394965Y-88558420D01*
X229344791Y-88509062D01*
X229305807Y-88482547D01*
X229263936Y-88471911D01*
X229216540Y-88470154D01*
X229112667Y-88485528D01*
G36*
X229604071Y-88488662D02*
X229601089Y-88540068D01*
X229598753Y-88618192D01*
X229597251Y-88716857D01*
X229596769Y-88820343D01*
X229596769Y-89170533D01*
X229658599Y-89232363D01*
X229701207Y-89270462D01*
X229738610Y-89285895D01*
X229789730Y-89284918D01*
X229810022Y-89282433D01*
X229873446Y-89275200D01*
X229925905Y-89271055D01*
X229938692Y-89270672D01*
X229981801Y-89273176D01*
X230043456Y-89279462D01*
X230067362Y-89282433D01*
X230126078Y-89287028D01*
X230165536Y-89277046D01*
X230204662Y-89246228D01*
X230218785Y-89232363D01*
X230280615Y-89170533D01*
X230280615Y-88515503D01*
X230230850Y-88492829D01*
X230187998Y-88476034D01*
X230162927Y-88470154D01*
X230156499Y-88488736D01*
X230150491Y-88540655D01*
X230145303Y-88620172D01*
X230141336Y-88721546D01*
X230139423Y-88807192D01*
X230134077Y-89144231D01*
X230087440Y-89150825D01*
X230045024Y-89146214D01*
X230024240Y-89131287D01*
X230018430Y-89103377D01*
X230013470Y-89043925D01*
X230009754Y-88960466D01*
X230007676Y-88860532D01*
X230007376Y-88809104D01*
X230007077Y-88513054D01*
X229945546Y-88491604D01*
X229901996Y-88477020D01*
X229878306Y-88470219D01*
X229877623Y-88470154D01*
X229875246Y-88488642D01*
X229872634Y-88539906D01*
X229870005Y-88617649D01*
X229867579Y-88715574D01*
X229865885Y-88807192D01*
X229860539Y-89144231D01*
X229743308Y-89144231D01*
X229737928Y-88836746D01*
X229732549Y-88529261D01*
X229675399Y-88499707D01*
X229633203Y-88479413D01*
X229608230Y-88470204D01*
X229607509Y-88470154D01*
X229604071Y-88488662D01*
X229604071Y-88488662D01*
G37*
X229604071Y-88488662D02*
X229601089Y-88540068D01*
X229598753Y-88618192D01*
X229597251Y-88716857D01*
X229596769Y-88820343D01*
X229596769Y-89170533D01*
X229658599Y-89232363D01*
X229701207Y-89270462D01*
X229738610Y-89285895D01*
X229789730Y-89284918D01*
X229810022Y-89282433D01*
X229873446Y-89275200D01*
X229925905Y-89271055D01*
X229938692Y-89270672D01*
X229981801Y-89273176D01*
X230043456Y-89279462D01*
X230067362Y-89282433D01*
X230126078Y-89287028D01*
X230165536Y-89277046D01*
X230204662Y-89246228D01*
X230218785Y-89232363D01*
X230280615Y-89170533D01*
X230280615Y-88515503D01*
X230230850Y-88492829D01*
X230187998Y-88476034D01*
X230162927Y-88470154D01*
X230156499Y-88488736D01*
X230150491Y-88540655D01*
X230145303Y-88620172D01*
X230141336Y-88721546D01*
X230139423Y-88807192D01*
X230134077Y-89144231D01*
X230087440Y-89150825D01*
X230045024Y-89146214D01*
X230024240Y-89131287D01*
X230018430Y-89103377D01*
X230013470Y-89043925D01*
X230009754Y-88960466D01*
X230007676Y-88860532D01*
X230007376Y-88809104D01*
X230007077Y-88513054D01*
X229945546Y-88491604D01*
X229901996Y-88477020D01*
X229878306Y-88470219D01*
X229877623Y-88470154D01*
X229875246Y-88488642D01*
X229872634Y-88539906D01*
X229870005Y-88617649D01*
X229867579Y-88715574D01*
X229865885Y-88807192D01*
X229860539Y-89144231D01*
X229743308Y-89144231D01*
X229737928Y-88836746D01*
X229732549Y-88529261D01*
X229675399Y-88499707D01*
X229633203Y-88479413D01*
X229608230Y-88470204D01*
X229607509Y-88470154D01*
X229604071Y-88488662D01*
G36*
X230397919Y-88632289D02*
X230398167Y-88778320D01*
X230399128Y-88890655D01*
X230401206Y-88974678D01*
X230404807Y-89035769D01*
X230410335Y-89079309D01*
X230418196Y-89110679D01*
X230428793Y-89135262D01*
X230436818Y-89149294D01*
X230503272Y-89225388D01*
X230587530Y-89273084D01*
X230680751Y-89290199D01*
X230774100Y-89274546D01*
X230829688Y-89246418D01*
X230888043Y-89197760D01*
X230927814Y-89138333D01*
X230951810Y-89060507D01*
X230962839Y-88956652D01*
X230964401Y-88880462D01*
X230964191Y-88874986D01*
X230827692Y-88874986D01*
X230826859Y-88962355D01*
X230823039Y-89020192D01*
X230814254Y-89058029D01*
X230798526Y-89085398D01*
X230779734Y-89106042D01*
X230716625Y-89145890D01*
X230648863Y-89149295D01*
X230584821Y-89116025D01*
X230579836Y-89111517D01*
X230558561Y-89088067D01*
X230545221Y-89060166D01*
X230537999Y-89018641D01*
X230535077Y-88954316D01*
X230534615Y-88883200D01*
X230535617Y-88793858D01*
X230539762Y-88734258D01*
X230548764Y-88695089D01*
X230564333Y-88667040D01*
X230577098Y-88652144D01*
X230636400Y-88614575D01*
X230704699Y-88610057D01*
X230769890Y-88638753D01*
X230782472Y-88649406D01*
X230803889Y-88673063D01*
X230817256Y-88701251D01*
X230824434Y-88743245D01*
X230827281Y-88808319D01*
X230827692Y-88874986D01*
X230964191Y-88874986D01*
X230959678Y-88757765D01*
X230943638Y-88665577D01*
X230913472Y-88596269D01*
X230866371Y-88542211D01*
X230829688Y-88514505D01*
X230763010Y-88484572D01*
X230685728Y-88470678D01*
X230613890Y-88474397D01*
X230573692Y-88489400D01*
X230557918Y-88493670D01*
X230547450Y-88477750D01*
X230540144Y-88435089D01*
X230534615Y-88370106D01*
X230528563Y-88297732D01*
X230520156Y-88254187D01*
X230504859Y-88229287D01*
X230478136Y-88212845D01*
X230461346Y-88205564D01*
X230397846Y-88178963D01*
X230397919Y-88632289D01*
X230397919Y-88632289D01*
G37*
X230397919Y-88632289D02*
X230398167Y-88778320D01*
X230399128Y-88890655D01*
X230401206Y-88974678D01*
X230404807Y-89035769D01*
X230410335Y-89079309D01*
X230418196Y-89110679D01*
X230428793Y-89135262D01*
X230436818Y-89149294D01*
X230503272Y-89225388D01*
X230587530Y-89273084D01*
X230680751Y-89290199D01*
X230774100Y-89274546D01*
X230829688Y-89246418D01*
X230888043Y-89197760D01*
X230927814Y-89138333D01*
X230951810Y-89060507D01*
X230962839Y-88956652D01*
X230964401Y-88880462D01*
X230964191Y-88874986D01*
X230827692Y-88874986D01*
X230826859Y-88962355D01*
X230823039Y-89020192D01*
X230814254Y-89058029D01*
X230798526Y-89085398D01*
X230779734Y-89106042D01*
X230716625Y-89145890D01*
X230648863Y-89149295D01*
X230584821Y-89116025D01*
X230579836Y-89111517D01*
X230558561Y-89088067D01*
X230545221Y-89060166D01*
X230537999Y-89018641D01*
X230535077Y-88954316D01*
X230534615Y-88883200D01*
X230535617Y-88793858D01*
X230539762Y-88734258D01*
X230548764Y-88695089D01*
X230564333Y-88667040D01*
X230577098Y-88652144D01*
X230636400Y-88614575D01*
X230704699Y-88610057D01*
X230769890Y-88638753D01*
X230782472Y-88649406D01*
X230803889Y-88673063D01*
X230817256Y-88701251D01*
X230824434Y-88743245D01*
X230827281Y-88808319D01*
X230827692Y-88874986D01*
X230964191Y-88874986D01*
X230959678Y-88757765D01*
X230943638Y-88665577D01*
X230913472Y-88596269D01*
X230866371Y-88542211D01*
X230829688Y-88514505D01*
X230763010Y-88484572D01*
X230685728Y-88470678D01*
X230613890Y-88474397D01*
X230573692Y-88489400D01*
X230557918Y-88493670D01*
X230547450Y-88477750D01*
X230540144Y-88435089D01*
X230534615Y-88370106D01*
X230528563Y-88297732D01*
X230520156Y-88254187D01*
X230504859Y-88229287D01*
X230478136Y-88212845D01*
X230461346Y-88205564D01*
X230397846Y-88178963D01*
X230397919Y-88632289D01*
G36*
X231286638Y-88476670D02*
X231197883Y-88509421D01*
X231125978Y-88567350D01*
X231097856Y-88608128D01*
X231067198Y-88682954D01*
X231067835Y-88737058D01*
X231100013Y-88773446D01*
X231111919Y-88779633D01*
X231163325Y-88798925D01*
X231189578Y-88793982D01*
X231198470Y-88761587D01*
X231198923Y-88743692D01*
X231215203Y-88677859D01*
X231257635Y-88631807D01*
X231316612Y-88609564D01*
X231382525Y-88615161D01*
X231436105Y-88644229D01*
X231454202Y-88660810D01*
X231467029Y-88680925D01*
X231475694Y-88711332D01*
X231481304Y-88758788D01*
X231484965Y-88830050D01*
X231487785Y-88931875D01*
X231488516Y-88964115D01*
X231491180Y-89074410D01*
X231494208Y-89152036D01*
X231498750Y-89203396D01*
X231505954Y-89234890D01*
X231516967Y-89252920D01*
X231532940Y-89263888D01*
X231543166Y-89268733D01*
X231586594Y-89285301D01*
X231612158Y-89290769D01*
X231620605Y-89272507D01*
X231625761Y-89217296D01*
X231627654Y-89124499D01*
X231626311Y-88993478D01*
X231625893Y-88973269D01*
X231622942Y-88853733D01*
X231619452Y-88766449D01*
X231614486Y-88704591D01*
X231607107Y-88661336D01*
X231596376Y-88629860D01*
X231581355Y-88603339D01*
X231573498Y-88591975D01*
X231528447Y-88541692D01*
X231478060Y-88502581D01*
X231471892Y-88499167D01*
X231381542Y-88472212D01*
X231286638Y-88476670D01*
X231286638Y-88476670D01*
G37*
X231286638Y-88476670D02*
X231197883Y-88509421D01*
X231125978Y-88567350D01*
X231097856Y-88608128D01*
X231067198Y-88682954D01*
X231067835Y-88737058D01*
X231100013Y-88773446D01*
X231111919Y-88779633D01*
X231163325Y-88798925D01*
X231189578Y-88793982D01*
X231198470Y-88761587D01*
X231198923Y-88743692D01*
X231215203Y-88677859D01*
X231257635Y-88631807D01*
X231316612Y-88609564D01*
X231382525Y-88615161D01*
X231436105Y-88644229D01*
X231454202Y-88660810D01*
X231467029Y-88680925D01*
X231475694Y-88711332D01*
X231481304Y-88758788D01*
X231484965Y-88830050D01*
X231487785Y-88931875D01*
X231488516Y-88964115D01*
X231491180Y-89074410D01*
X231494208Y-89152036D01*
X231498750Y-89203396D01*
X231505954Y-89234890D01*
X231516967Y-89252920D01*
X231532940Y-89263888D01*
X231543166Y-89268733D01*
X231586594Y-89285301D01*
X231612158Y-89290769D01*
X231620605Y-89272507D01*
X231625761Y-89217296D01*
X231627654Y-89124499D01*
X231626311Y-88993478D01*
X231625893Y-88973269D01*
X231622942Y-88853733D01*
X231619452Y-88766449D01*
X231614486Y-88704591D01*
X231607107Y-88661336D01*
X231596376Y-88629860D01*
X231581355Y-88603339D01*
X231573498Y-88591975D01*
X231528447Y-88541692D01*
X231478060Y-88502581D01*
X231471892Y-88499167D01*
X231381542Y-88472212D01*
X231286638Y-88476670D01*
G36*
X231946499Y-88478303D02*
X231869940Y-88506733D01*
X231869064Y-88507279D01*
X231821715Y-88542127D01*
X231786759Y-88582852D01*
X231762175Y-88635925D01*
X231745938Y-88707814D01*
X231736025Y-88804992D01*
X231730414Y-88933928D01*
X231729923Y-88952298D01*
X231722859Y-89229287D01*
X231782305Y-89260028D01*
X231825319Y-89280802D01*
X231851290Y-89290646D01*
X231852491Y-89290769D01*
X231856986Y-89272606D01*
X231860556Y-89223612D01*
X231862752Y-89152031D01*
X231863231Y-89094068D01*
X231863242Y-89000170D01*
X231867534Y-88941203D01*
X231882497Y-88913079D01*
X231914518Y-88911706D01*
X231969986Y-88932998D01*
X232053731Y-88972136D01*
X232115311Y-89004643D01*
X232146983Y-89032845D01*
X232156294Y-89063582D01*
X232156308Y-89065104D01*
X232140943Y-89118054D01*
X232095453Y-89146660D01*
X232025834Y-89150803D01*
X231975687Y-89150084D01*
X231949246Y-89164527D01*
X231932757Y-89199218D01*
X231923267Y-89243416D01*
X231936943Y-89268493D01*
X231942093Y-89272082D01*
X231990575Y-89286496D01*
X232058469Y-89288537D01*
X232128388Y-89278983D01*
X232177932Y-89261522D01*
X232246430Y-89203364D01*
X232285366Y-89122408D01*
X232293077Y-89059160D01*
X232287193Y-89002111D01*
X232265899Y-88955542D01*
X232223735Y-88914181D01*
X232155241Y-88872755D01*
X232054956Y-88825993D01*
X232048846Y-88823350D01*
X231958510Y-88781617D01*
X231902765Y-88747391D01*
X231878871Y-88716635D01*
X231884087Y-88685311D01*
X231915672Y-88649383D01*
X231925117Y-88641116D01*
X231988383Y-88609058D01*
X232053936Y-88610407D01*
X232111028Y-88641838D01*
X232148907Y-88700024D01*
X232152426Y-88711446D01*
X232186700Y-88766837D01*
X232230191Y-88793518D01*
X232293077Y-88819960D01*
X232293077Y-88751548D01*
X232273948Y-88652110D01*
X232217169Y-88560902D01*
X232187622Y-88530389D01*
X232120458Y-88491228D01*
X232035044Y-88473500D01*
X231946499Y-88478303D01*
X231946499Y-88478303D01*
G37*
X231946499Y-88478303D02*
X231869940Y-88506733D01*
X231869064Y-88507279D01*
X231821715Y-88542127D01*
X231786759Y-88582852D01*
X231762175Y-88635925D01*
X231745938Y-88707814D01*
X231736025Y-88804992D01*
X231730414Y-88933928D01*
X231729923Y-88952298D01*
X231722859Y-89229287D01*
X231782305Y-89260028D01*
X231825319Y-89280802D01*
X231851290Y-89290646D01*
X231852491Y-89290769D01*
X231856986Y-89272606D01*
X231860556Y-89223612D01*
X231862752Y-89152031D01*
X231863231Y-89094068D01*
X231863242Y-89000170D01*
X231867534Y-88941203D01*
X231882497Y-88913079D01*
X231914518Y-88911706D01*
X231969986Y-88932998D01*
X232053731Y-88972136D01*
X232115311Y-89004643D01*
X232146983Y-89032845D01*
X232156294Y-89063582D01*
X232156308Y-89065104D01*
X232140943Y-89118054D01*
X232095453Y-89146660D01*
X232025834Y-89150803D01*
X231975687Y-89150084D01*
X231949246Y-89164527D01*
X231932757Y-89199218D01*
X231923267Y-89243416D01*
X231936943Y-89268493D01*
X231942093Y-89272082D01*
X231990575Y-89286496D01*
X232058469Y-89288537D01*
X232128388Y-89278983D01*
X232177932Y-89261522D01*
X232246430Y-89203364D01*
X232285366Y-89122408D01*
X232293077Y-89059160D01*
X232287193Y-89002111D01*
X232265899Y-88955542D01*
X232223735Y-88914181D01*
X232155241Y-88872755D01*
X232054956Y-88825993D01*
X232048846Y-88823350D01*
X231958510Y-88781617D01*
X231902765Y-88747391D01*
X231878871Y-88716635D01*
X231884087Y-88685311D01*
X231915672Y-88649383D01*
X231925117Y-88641116D01*
X231988383Y-88609058D01*
X232053936Y-88610407D01*
X232111028Y-88641838D01*
X232148907Y-88700024D01*
X232152426Y-88711446D01*
X232186700Y-88766837D01*
X232230191Y-88793518D01*
X232293077Y-88819960D01*
X232293077Y-88751548D01*
X232273948Y-88652110D01*
X232217169Y-88560902D01*
X232187622Y-88530389D01*
X232120458Y-88491228D01*
X232035044Y-88473500D01*
X231946499Y-88478303D01*
G36*
X232840154Y-88344120D02*
X232834428Y-88423980D01*
X232827851Y-88471039D01*
X232818738Y-88491566D01*
X232805402Y-88491829D01*
X232801077Y-88489378D01*
X232743556Y-88471636D01*
X232668732Y-88472672D01*
X232592661Y-88490910D01*
X232545082Y-88514505D01*
X232496298Y-88552198D01*
X232460636Y-88594855D01*
X232436155Y-88649057D01*
X232420913Y-88721384D01*
X232412970Y-88818419D01*
X232410384Y-88946742D01*
X232410338Y-88971358D01*
X232410308Y-89247870D01*
X232471839Y-89269320D01*
X232515541Y-89283912D01*
X232539518Y-89290706D01*
X232540223Y-89290769D01*
X232542585Y-89272345D01*
X232544594Y-89221526D01*
X232546099Y-89144993D01*
X232546947Y-89049430D01*
X232547077Y-88991329D01*
X232547349Y-88876771D01*
X232548748Y-88794667D01*
X232552151Y-88738393D01*
X232558433Y-88701326D01*
X232568471Y-88676844D01*
X232583139Y-88658325D01*
X232592298Y-88649406D01*
X232655211Y-88613466D01*
X232723864Y-88610775D01*
X232786152Y-88641170D01*
X232797671Y-88652144D01*
X232814567Y-88672779D01*
X232826286Y-88697256D01*
X232833767Y-88732647D01*
X232837946Y-88786026D01*
X232839763Y-88864466D01*
X232840154Y-88972617D01*
X232840154Y-89247870D01*
X232901685Y-89269320D01*
X232945387Y-89283912D01*
X232969364Y-89290706D01*
X232970070Y-89290769D01*
X232971874Y-89272069D01*
X232973500Y-89219322D01*
X232974883Y-89137557D01*
X232975958Y-89031805D01*
X232976660Y-88907094D01*
X232976923Y-88768455D01*
X232976923Y-88233806D01*
X232849923Y-88180236D01*
X232840154Y-88344120D01*
X232840154Y-88344120D01*
G37*
X232840154Y-88344120D02*
X232834428Y-88423980D01*
X232827851Y-88471039D01*
X232818738Y-88491566D01*
X232805402Y-88491829D01*
X232801077Y-88489378D01*
X232743556Y-88471636D01*
X232668732Y-88472672D01*
X232592661Y-88490910D01*
X232545082Y-88514505D01*
X232496298Y-88552198D01*
X232460636Y-88594855D01*
X232436155Y-88649057D01*
X232420913Y-88721384D01*
X232412970Y-88818419D01*
X232410384Y-88946742D01*
X232410338Y-88971358D01*
X232410308Y-89247870D01*
X232471839Y-89269320D01*
X232515541Y-89283912D01*
X232539518Y-89290706D01*
X232540223Y-89290769D01*
X232542585Y-89272345D01*
X232544594Y-89221526D01*
X232546099Y-89144993D01*
X232546947Y-89049430D01*
X232547077Y-88991329D01*
X232547349Y-88876771D01*
X232548748Y-88794667D01*
X232552151Y-88738393D01*
X232558433Y-88701326D01*
X232568471Y-88676844D01*
X232583139Y-88658325D01*
X232592298Y-88649406D01*
X232655211Y-88613466D01*
X232723864Y-88610775D01*
X232786152Y-88641170D01*
X232797671Y-88652144D01*
X232814567Y-88672779D01*
X232826286Y-88697256D01*
X232833767Y-88732647D01*
X232837946Y-88786026D01*
X232839763Y-88864466D01*
X232840154Y-88972617D01*
X232840154Y-89247870D01*
X232901685Y-89269320D01*
X232945387Y-89283912D01*
X232969364Y-89290706D01*
X232970070Y-89290769D01*
X232971874Y-89272069D01*
X232973500Y-89219322D01*
X232974883Y-89137557D01*
X232975958Y-89031805D01*
X232976660Y-88907094D01*
X232976923Y-88768455D01*
X232976923Y-88233806D01*
X232849923Y-88180236D01*
X232840154Y-88344120D01*
G36*
X234465746Y-88451745D02*
X234388714Y-88503567D01*
X234329184Y-88578412D01*
X234293622Y-88673654D01*
X234286429Y-88743756D01*
X234287246Y-88773009D01*
X234294086Y-88795407D01*
X234312888Y-88815474D01*
X234349592Y-88837733D01*
X234410138Y-88866709D01*
X234500466Y-88906927D01*
X234500923Y-88907129D01*
X234584067Y-88945210D01*
X234652247Y-88979025D01*
X234698495Y-89004933D01*
X234715842Y-89019295D01*
X234715846Y-89019411D01*
X234700557Y-89050685D01*
X234664804Y-89085157D01*
X234623758Y-89109990D01*
X234602963Y-89114923D01*
X234546230Y-89097862D01*
X234497373Y-89055133D01*
X234473535Y-89008155D01*
X234450603Y-88973522D01*
X234405682Y-88934081D01*
X234352877Y-88900009D01*
X234306290Y-88881480D01*
X234296548Y-88880462D01*
X234285582Y-88897215D01*
X234284921Y-88940039D01*
X234292980Y-88997781D01*
X234308173Y-89059289D01*
X234328914Y-89113409D01*
X234329962Y-89115510D01*
X234392379Y-89202660D01*
X234473274Y-89261939D01*
X234565144Y-89291034D01*
X234660487Y-89287634D01*
X234751802Y-89249428D01*
X234755862Y-89246741D01*
X234827694Y-89181642D01*
X234874927Y-89096705D01*
X234901066Y-88985021D01*
X234904574Y-88953643D01*
X234910787Y-88805536D01*
X234903339Y-88736468D01*
X234715846Y-88736468D01*
X234713410Y-88779552D01*
X234700086Y-88792126D01*
X234666868Y-88782719D01*
X234614506Y-88760483D01*
X234555976Y-88732610D01*
X234554521Y-88731872D01*
X234504911Y-88705777D01*
X234485000Y-88688363D01*
X234489910Y-88670107D01*
X234510584Y-88646120D01*
X234563181Y-88611406D01*
X234619823Y-88608856D01*
X234670631Y-88634119D01*
X234705724Y-88682847D01*
X234715846Y-88736468D01*
X234903339Y-88736468D01*
X234898008Y-88687036D01*
X234865222Y-88593055D01*
X234819579Y-88527215D01*
X234737198Y-88460681D01*
X234646454Y-88427676D01*
X234553815Y-88425573D01*
X234465746Y-88451745D01*
X234465746Y-88451745D01*
G37*
X234465746Y-88451745D02*
X234388714Y-88503567D01*
X234329184Y-88578412D01*
X234293622Y-88673654D01*
X234286429Y-88743756D01*
X234287246Y-88773009D01*
X234294086Y-88795407D01*
X234312888Y-88815474D01*
X234349592Y-88837733D01*
X234410138Y-88866709D01*
X234500466Y-88906927D01*
X234500923Y-88907129D01*
X234584067Y-88945210D01*
X234652247Y-88979025D01*
X234698495Y-89004933D01*
X234715842Y-89019295D01*
X234715846Y-89019411D01*
X234700557Y-89050685D01*
X234664804Y-89085157D01*
X234623758Y-89109990D01*
X234602963Y-89114923D01*
X234546230Y-89097862D01*
X234497373Y-89055133D01*
X234473535Y-89008155D01*
X234450603Y-88973522D01*
X234405682Y-88934081D01*
X234352877Y-88900009D01*
X234306290Y-88881480D01*
X234296548Y-88880462D01*
X234285582Y-88897215D01*
X234284921Y-88940039D01*
X234292980Y-88997781D01*
X234308173Y-89059289D01*
X234328914Y-89113409D01*
X234329962Y-89115510D01*
X234392379Y-89202660D01*
X234473274Y-89261939D01*
X234565144Y-89291034D01*
X234660487Y-89287634D01*
X234751802Y-89249428D01*
X234755862Y-89246741D01*
X234827694Y-89181642D01*
X234874927Y-89096705D01*
X234901066Y-88985021D01*
X234904574Y-88953643D01*
X234910787Y-88805536D01*
X234903339Y-88736468D01*
X234715846Y-88736468D01*
X234713410Y-88779552D01*
X234700086Y-88792126D01*
X234666868Y-88782719D01*
X234614506Y-88760483D01*
X234555976Y-88732610D01*
X234554521Y-88731872D01*
X234504911Y-88705777D01*
X234485000Y-88688363D01*
X234489910Y-88670107D01*
X234510584Y-88646120D01*
X234563181Y-88611406D01*
X234619823Y-88608856D01*
X234670631Y-88634119D01*
X234705724Y-88682847D01*
X234715846Y-88736468D01*
X234903339Y-88736468D01*
X234898008Y-88687036D01*
X234865222Y-88593055D01*
X234819579Y-88527215D01*
X234737198Y-88460681D01*
X234646454Y-88427676D01*
X234553815Y-88425573D01*
X234465746Y-88451745D01*
G36*
X235983114Y-88439256D02*
X235891536Y-88487409D01*
X235823951Y-88564905D01*
X235799943Y-88614727D01*
X235781262Y-88689533D01*
X235771699Y-88784052D01*
X235770792Y-88887210D01*
X235778079Y-88987935D01*
X235793097Y-89075153D01*
X235815385Y-89137791D01*
X235822235Y-89148579D01*
X235903368Y-89229105D01*
X235999734Y-89277336D01*
X236104299Y-89291450D01*
X236210032Y-89269629D01*
X236239457Y-89256547D01*
X236296759Y-89216231D01*
X236347050Y-89162775D01*
X236351803Y-89155995D01*
X236371122Y-89123321D01*
X236383892Y-89088394D01*
X236391436Y-89042414D01*
X236395076Y-88976584D01*
X236396135Y-88882105D01*
X236396154Y-88860923D01*
X236396106Y-88854182D01*
X236200769Y-88854182D01*
X236199632Y-88943349D01*
X236195159Y-89002520D01*
X236185754Y-89040741D01*
X236169824Y-89067053D01*
X236161692Y-89075846D01*
X236114942Y-89109261D01*
X236069553Y-89107737D01*
X236023660Y-89078752D01*
X235996288Y-89047809D01*
X235980077Y-89002643D01*
X235970974Y-88931420D01*
X235970349Y-88923114D01*
X235968796Y-88794037D01*
X235985035Y-88698172D01*
X236018848Y-88636107D01*
X236070016Y-88608432D01*
X236088280Y-88606923D01*
X236136240Y-88614513D01*
X236169047Y-88640808D01*
X236189105Y-88691095D01*
X236198822Y-88770664D01*
X236200769Y-88854182D01*
X236396106Y-88854182D01*
X236395426Y-88760249D01*
X236392371Y-88689906D01*
X236385678Y-88641163D01*
X236374040Y-88605288D01*
X236356147Y-88573548D01*
X236352192Y-88567648D01*
X236285733Y-88488104D01*
X236213315Y-88441929D01*
X236125151Y-88423599D01*
X236095213Y-88422703D01*
X235983114Y-88439256D01*
X235983114Y-88439256D01*
G37*
X235983114Y-88439256D02*
X235891536Y-88487409D01*
X235823951Y-88564905D01*
X235799943Y-88614727D01*
X235781262Y-88689533D01*
X235771699Y-88784052D01*
X235770792Y-88887210D01*
X235778079Y-88987935D01*
X235793097Y-89075153D01*
X235815385Y-89137791D01*
X235822235Y-89148579D01*
X235903368Y-89229105D01*
X235999734Y-89277336D01*
X236104299Y-89291450D01*
X236210032Y-89269629D01*
X236239457Y-89256547D01*
X236296759Y-89216231D01*
X236347050Y-89162775D01*
X236351803Y-89155995D01*
X236371122Y-89123321D01*
X236383892Y-89088394D01*
X236391436Y-89042414D01*
X236395076Y-88976584D01*
X236396135Y-88882105D01*
X236396154Y-88860923D01*
X236396106Y-88854182D01*
X236200769Y-88854182D01*
X236199632Y-88943349D01*
X236195159Y-89002520D01*
X236185754Y-89040741D01*
X236169824Y-89067053D01*
X236161692Y-89075846D01*
X236114942Y-89109261D01*
X236069553Y-89107737D01*
X236023660Y-89078752D01*
X235996288Y-89047809D01*
X235980077Y-89002643D01*
X235970974Y-88931420D01*
X235970349Y-88923114D01*
X235968796Y-88794037D01*
X235985035Y-88698172D01*
X236018848Y-88636107D01*
X236070016Y-88608432D01*
X236088280Y-88606923D01*
X236136240Y-88614513D01*
X236169047Y-88640808D01*
X236189105Y-88691095D01*
X236198822Y-88770664D01*
X236200769Y-88854182D01*
X236396106Y-88854182D01*
X236395426Y-88760249D01*
X236392371Y-88689906D01*
X236385678Y-88641163D01*
X236374040Y-88605288D01*
X236356147Y-88573548D01*
X236352192Y-88567648D01*
X236285733Y-88488104D01*
X236213315Y-88441929D01*
X236125151Y-88423599D01*
X236095213Y-88422703D01*
X235983114Y-88439256D01*
G36*
X233728336Y-88447089D02*
X233665633Y-88483358D01*
X233622039Y-88519358D01*
X233590155Y-88557075D01*
X233568190Y-88603199D01*
X233554351Y-88664421D01*
X233546847Y-88747431D01*
X233543883Y-88858919D01*
X233543539Y-88939062D01*
X233543539Y-89234065D01*
X233709615Y-89308515D01*
X233719385Y-88985402D01*
X233723421Y-88864729D01*
X233727656Y-88777141D01*
X233732903Y-88716650D01*
X233739975Y-88677268D01*
X233749689Y-88653007D01*
X233762856Y-88637880D01*
X233767081Y-88634606D01*
X233831091Y-88609034D01*
X233895792Y-88619153D01*
X233934308Y-88646000D01*
X233949975Y-88665024D01*
X233960820Y-88689988D01*
X233967712Y-88727834D01*
X233971521Y-88785502D01*
X233973117Y-88869935D01*
X233973385Y-88957928D01*
X233973437Y-89068323D01*
X233975328Y-89146463D01*
X233981655Y-89199165D01*
X233995017Y-89233242D01*
X234018015Y-89255511D01*
X234053246Y-89272787D01*
X234100303Y-89290738D01*
X234151697Y-89310278D01*
X234145579Y-88963485D01*
X234143116Y-88838468D01*
X234140233Y-88746082D01*
X234136102Y-88679881D01*
X234129893Y-88633420D01*
X234120774Y-88600256D01*
X234107917Y-88573944D01*
X234092416Y-88550729D01*
X234017629Y-88476569D01*
X233926372Y-88433684D01*
X233827117Y-88423412D01*
X233728336Y-88447089D01*
X233728336Y-88447089D01*
G37*
X233728336Y-88447089D02*
X233665633Y-88483358D01*
X233622039Y-88519358D01*
X233590155Y-88557075D01*
X233568190Y-88603199D01*
X233554351Y-88664421D01*
X233546847Y-88747431D01*
X233543883Y-88858919D01*
X233543539Y-88939062D01*
X233543539Y-89234065D01*
X233709615Y-89308515D01*
X233719385Y-88985402D01*
X233723421Y-88864729D01*
X233727656Y-88777141D01*
X233732903Y-88716650D01*
X233739975Y-88677268D01*
X233749689Y-88653007D01*
X233762856Y-88637880D01*
X233767081Y-88634606D01*
X233831091Y-88609034D01*
X233895792Y-88619153D01*
X233934308Y-88646000D01*
X233949975Y-88665024D01*
X233960820Y-88689988D01*
X233967712Y-88727834D01*
X233971521Y-88785502D01*
X233973117Y-88869935D01*
X233973385Y-88957928D01*
X233973437Y-89068323D01*
X233975328Y-89146463D01*
X233981655Y-89199165D01*
X233995017Y-89233242D01*
X234018015Y-89255511D01*
X234053246Y-89272787D01*
X234100303Y-89290738D01*
X234151697Y-89310278D01*
X234145579Y-88963485D01*
X234143116Y-88838468D01*
X234140233Y-88746082D01*
X234136102Y-88679881D01*
X234129893Y-88633420D01*
X234120774Y-88600256D01*
X234107917Y-88573944D01*
X234092416Y-88550729D01*
X234017629Y-88476569D01*
X233926372Y-88433684D01*
X233827117Y-88423412D01*
X233728336Y-88447089D01*
G36*
X235231114Y-88436505D02*
X235156461Y-88473727D01*
X235090569Y-88542261D01*
X235072423Y-88567648D01*
X235052655Y-88600866D01*
X235039828Y-88636945D01*
X235032490Y-88685098D01*
X235029187Y-88754536D01*
X235028462Y-88846206D01*
X235031737Y-88971830D01*
X235043123Y-89066154D01*
X235064959Y-89136523D01*
X235099581Y-89190286D01*
X235149330Y-89234788D01*
X235152986Y-89237423D01*
X235202015Y-89264377D01*
X235261055Y-89277712D01*
X235336141Y-89281000D01*
X235458205Y-89281000D01*
X235458256Y-89399497D01*
X235459392Y-89465492D01*
X235466314Y-89504202D01*
X235484402Y-89527419D01*
X235519038Y-89546933D01*
X235527355Y-89550920D01*
X235566280Y-89569603D01*
X235596417Y-89581403D01*
X235618826Y-89582422D01*
X235634567Y-89568761D01*
X235644698Y-89536522D01*
X235650277Y-89481804D01*
X235652365Y-89400711D01*
X235652019Y-89289344D01*
X235650300Y-89143802D01*
X235649763Y-89100269D01*
X235647828Y-88950205D01*
X235646096Y-88852042D01*
X235458308Y-88852042D01*
X235457252Y-88935364D01*
X235452562Y-88989880D01*
X235441949Y-89025837D01*
X235423128Y-89053482D01*
X235410350Y-89066965D01*
X235358110Y-89106417D01*
X235311858Y-89109628D01*
X235264133Y-89077049D01*
X235262923Y-89075846D01*
X235243506Y-89050668D01*
X235231693Y-89016447D01*
X235225735Y-88963748D01*
X235223880Y-88883131D01*
X235223846Y-88865271D01*
X235228330Y-88754175D01*
X235242926Y-88677161D01*
X235269350Y-88630147D01*
X235309317Y-88609050D01*
X235332416Y-88606923D01*
X235387238Y-88616900D01*
X235424842Y-88649752D01*
X235447477Y-88709857D01*
X235457394Y-88801598D01*
X235458308Y-88852042D01*
X235646096Y-88852042D01*
X235645778Y-88834060D01*
X235643127Y-88746679D01*
X235639394Y-88682905D01*
X235634093Y-88637582D01*
X235626742Y-88605555D01*
X235616857Y-88581668D01*
X235603954Y-88560764D01*
X235598421Y-88552898D01*
X235525031Y-88478595D01*
X235432240Y-88436467D01*
X235324904Y-88424722D01*
X235231114Y-88436505D01*
X235231114Y-88436505D01*
G37*
X235231114Y-88436505D02*
X235156461Y-88473727D01*
X235090569Y-88542261D01*
X235072423Y-88567648D01*
X235052655Y-88600866D01*
X235039828Y-88636945D01*
X235032490Y-88685098D01*
X235029187Y-88754536D01*
X235028462Y-88846206D01*
X235031737Y-88971830D01*
X235043123Y-89066154D01*
X235064959Y-89136523D01*
X235099581Y-89190286D01*
X235149330Y-89234788D01*
X235152986Y-89237423D01*
X235202015Y-89264377D01*
X235261055Y-89277712D01*
X235336141Y-89281000D01*
X235458205Y-89281000D01*
X235458256Y-89399497D01*
X235459392Y-89465492D01*
X235466314Y-89504202D01*
X235484402Y-89527419D01*
X235519038Y-89546933D01*
X235527355Y-89550920D01*
X235566280Y-89569603D01*
X235596417Y-89581403D01*
X235618826Y-89582422D01*
X235634567Y-89568761D01*
X235644698Y-89536522D01*
X235650277Y-89481804D01*
X235652365Y-89400711D01*
X235652019Y-89289344D01*
X235650300Y-89143802D01*
X235649763Y-89100269D01*
X235647828Y-88950205D01*
X235646096Y-88852042D01*
X235458308Y-88852042D01*
X235457252Y-88935364D01*
X235452562Y-88989880D01*
X235441949Y-89025837D01*
X235423128Y-89053482D01*
X235410350Y-89066965D01*
X235358110Y-89106417D01*
X235311858Y-89109628D01*
X235264133Y-89077049D01*
X235262923Y-89075846D01*
X235243506Y-89050668D01*
X235231693Y-89016447D01*
X235225735Y-88963748D01*
X235223880Y-88883131D01*
X235223846Y-88865271D01*
X235228330Y-88754175D01*
X235242926Y-88677161D01*
X235269350Y-88630147D01*
X235309317Y-88609050D01*
X235332416Y-88606923D01*
X235387238Y-88616900D01*
X235424842Y-88649752D01*
X235447477Y-88709857D01*
X235457394Y-88801598D01*
X235458308Y-88852042D01*
X235646096Y-88852042D01*
X235645778Y-88834060D01*
X235643127Y-88746679D01*
X235639394Y-88682905D01*
X235634093Y-88637582D01*
X235626742Y-88605555D01*
X235616857Y-88581668D01*
X235603954Y-88560764D01*
X235598421Y-88552898D01*
X235525031Y-88478595D01*
X235432240Y-88436467D01*
X235324904Y-88424722D01*
X235231114Y-88436505D01*
G04 #@! TO.C,G\002A\002A\002A*
G36*
X171257667Y-36383269D02*
X171364574Y-36544427D01*
X171529917Y-36771503D01*
X171542096Y-36787667D01*
X171718727Y-37019140D01*
X171849506Y-37185858D01*
X171907248Y-37253195D01*
X171907696Y-37253334D01*
X171970205Y-37201671D01*
X172061970Y-37113078D01*
X172125945Y-37031076D01*
X172115970Y-36952492D01*
X172010814Y-36846837D01*
X171789244Y-36683625D01*
X171737686Y-36647411D01*
X171497112Y-36482887D01*
X171315118Y-36365875D01*
X171231831Y-36322000D01*
X171257667Y-36383269D01*
X171257667Y-36383269D01*
G37*
X171257667Y-36383269D02*
X171364574Y-36544427D01*
X171529917Y-36771503D01*
X171542096Y-36787667D01*
X171718727Y-37019140D01*
X171849506Y-37185858D01*
X171907248Y-37253195D01*
X171907696Y-37253334D01*
X171970205Y-37201671D01*
X172061970Y-37113078D01*
X172125945Y-37031076D01*
X172115970Y-36952492D01*
X172010814Y-36846837D01*
X171789244Y-36683625D01*
X171737686Y-36647411D01*
X171497112Y-36482887D01*
X171315118Y-36365875D01*
X171231831Y-36322000D01*
X171257667Y-36383269D01*
G36*
X166638250Y-36030091D02*
X166483428Y-36055568D01*
X166413818Y-36120405D01*
X166387371Y-36242909D01*
X166385543Y-36258500D01*
X166336930Y-36427398D01*
X166207361Y-36486993D01*
X166110376Y-36491334D01*
X165943411Y-36508436D01*
X165874933Y-36593890D01*
X165862000Y-36787667D01*
X165847840Y-36986762D01*
X165776020Y-37068422D01*
X165608000Y-37084000D01*
X165428092Y-37104979D01*
X165361781Y-37203940D01*
X165354000Y-37338000D01*
X165333021Y-37517908D01*
X165234060Y-37584219D01*
X165100000Y-37592000D01*
X164846000Y-37592000D01*
X164846000Y-38608000D01*
X165862000Y-38608000D01*
X165862000Y-38862000D01*
X165841021Y-39041908D01*
X165742060Y-39108219D01*
X165608000Y-39116000D01*
X165428092Y-39136979D01*
X165361781Y-39235940D01*
X165354000Y-39370000D01*
X165333021Y-39549908D01*
X165234060Y-39616219D01*
X165100000Y-39624000D01*
X164929347Y-39640520D01*
X164859352Y-39724310D01*
X164846000Y-39920334D01*
X164860159Y-40119428D01*
X164931979Y-40201089D01*
X165100000Y-40216667D01*
X165279908Y-40195688D01*
X165346218Y-40096727D01*
X165354000Y-39962667D01*
X165374979Y-39782759D01*
X165473940Y-39716448D01*
X165608000Y-39708667D01*
X165787908Y-39729646D01*
X165854218Y-39828607D01*
X165862000Y-39962667D01*
X165882979Y-40142575D01*
X165981940Y-40208885D01*
X166116000Y-40216667D01*
X166295908Y-40195688D01*
X166362218Y-40096727D01*
X166370000Y-39962667D01*
X166370000Y-39708667D01*
X167470666Y-39708667D01*
X167470666Y-39962667D01*
X167491646Y-40142575D01*
X167590606Y-40208885D01*
X167724666Y-40216667D01*
X167904575Y-40195688D01*
X167970885Y-40096727D01*
X167978666Y-39962667D01*
X167999646Y-39782759D01*
X168098606Y-39716448D01*
X168232666Y-39708667D01*
X168412575Y-39729646D01*
X168478885Y-39828607D01*
X168486666Y-39962667D01*
X168507646Y-40142575D01*
X168606606Y-40208885D01*
X168740666Y-40216667D01*
X168911319Y-40200147D01*
X168981314Y-40116357D01*
X168994666Y-39920334D01*
X168980507Y-39721239D01*
X168908687Y-39639578D01*
X168740666Y-39624000D01*
X168560758Y-39603021D01*
X168494448Y-39504060D01*
X168486666Y-39370000D01*
X167978666Y-39370000D01*
X167957687Y-39549908D01*
X167858727Y-39616219D01*
X167724666Y-39624000D01*
X167544758Y-39603021D01*
X167478448Y-39504060D01*
X167470666Y-39370000D01*
X167470666Y-39116000D01*
X166370000Y-39116000D01*
X166370000Y-39370000D01*
X166349021Y-39549908D01*
X166250060Y-39616219D01*
X166116000Y-39624000D01*
X165936092Y-39603021D01*
X165869781Y-39504060D01*
X165862000Y-39370000D01*
X165882979Y-39190092D01*
X165981940Y-39123782D01*
X166116000Y-39116000D01*
X166295908Y-39095021D01*
X166362218Y-38996060D01*
X166370000Y-38862000D01*
X166370000Y-38608000D01*
X167470666Y-38608000D01*
X167470666Y-38862000D01*
X167491646Y-39041908D01*
X167590606Y-39108219D01*
X167724666Y-39116000D01*
X167904575Y-39136979D01*
X167970885Y-39235940D01*
X167978666Y-39370000D01*
X168486666Y-39370000D01*
X168465687Y-39190092D01*
X168366727Y-39123782D01*
X168232666Y-39116000D01*
X168052758Y-39095021D01*
X167986448Y-38996060D01*
X167978666Y-38862000D01*
X167978666Y-38608000D01*
X168994666Y-38608000D01*
X168994666Y-37846000D01*
X167978666Y-37846000D01*
X167957687Y-38025908D01*
X167858727Y-38092219D01*
X167724666Y-38100000D01*
X167544758Y-38079021D01*
X167478448Y-37980060D01*
X167470666Y-37846000D01*
X166370000Y-37846000D01*
X166349021Y-38025908D01*
X166250060Y-38092219D01*
X166116000Y-38100000D01*
X165936092Y-38079021D01*
X165869781Y-37980060D01*
X165862000Y-37846000D01*
X165882979Y-37666092D01*
X165981940Y-37599782D01*
X166116000Y-37592000D01*
X166295908Y-37612979D01*
X166362218Y-37711940D01*
X166370000Y-37846000D01*
X167470666Y-37846000D01*
X167491646Y-37666092D01*
X167590606Y-37599782D01*
X167724666Y-37592000D01*
X167904575Y-37612979D01*
X167970885Y-37711940D01*
X167978666Y-37846000D01*
X168994666Y-37846000D01*
X168994666Y-37592000D01*
X168740666Y-37592000D01*
X168560758Y-37571021D01*
X168494448Y-37472060D01*
X168486666Y-37338000D01*
X168465687Y-37158092D01*
X168366727Y-37091782D01*
X168232666Y-37084000D01*
X168062014Y-37067481D01*
X167992019Y-36983691D01*
X167978666Y-36787667D01*
X167964332Y-36588464D01*
X167892707Y-36506764D01*
X167730290Y-36491334D01*
X167546971Y-36463981D01*
X167470161Y-36348948D01*
X167455124Y-36258500D01*
X167430622Y-36129445D01*
X167367025Y-36059829D01*
X167222285Y-36031343D01*
X166954351Y-36025682D01*
X166920333Y-36025667D01*
X166638250Y-36030091D01*
X166638250Y-36030091D01*
G37*
X166638250Y-36030091D02*
X166483428Y-36055568D01*
X166413818Y-36120405D01*
X166387371Y-36242909D01*
X166385543Y-36258500D01*
X166336930Y-36427398D01*
X166207361Y-36486993D01*
X166110376Y-36491334D01*
X165943411Y-36508436D01*
X165874933Y-36593890D01*
X165862000Y-36787667D01*
X165847840Y-36986762D01*
X165776020Y-37068422D01*
X165608000Y-37084000D01*
X165428092Y-37104979D01*
X165361781Y-37203940D01*
X165354000Y-37338000D01*
X165333021Y-37517908D01*
X165234060Y-37584219D01*
X165100000Y-37592000D01*
X164846000Y-37592000D01*
X164846000Y-38608000D01*
X165862000Y-38608000D01*
X165862000Y-38862000D01*
X165841021Y-39041908D01*
X165742060Y-39108219D01*
X165608000Y-39116000D01*
X165428092Y-39136979D01*
X165361781Y-39235940D01*
X165354000Y-39370000D01*
X165333021Y-39549908D01*
X165234060Y-39616219D01*
X165100000Y-39624000D01*
X164929347Y-39640520D01*
X164859352Y-39724310D01*
X164846000Y-39920334D01*
X164860159Y-40119428D01*
X164931979Y-40201089D01*
X165100000Y-40216667D01*
X165279908Y-40195688D01*
X165346218Y-40096727D01*
X165354000Y-39962667D01*
X165374979Y-39782759D01*
X165473940Y-39716448D01*
X165608000Y-39708667D01*
X165787908Y-39729646D01*
X165854218Y-39828607D01*
X165862000Y-39962667D01*
X165882979Y-40142575D01*
X165981940Y-40208885D01*
X166116000Y-40216667D01*
X166295908Y-40195688D01*
X166362218Y-40096727D01*
X166370000Y-39962667D01*
X166370000Y-39708667D01*
X167470666Y-39708667D01*
X167470666Y-39962667D01*
X167491646Y-40142575D01*
X167590606Y-40208885D01*
X167724666Y-40216667D01*
X167904575Y-40195688D01*
X167970885Y-40096727D01*
X167978666Y-39962667D01*
X167999646Y-39782759D01*
X168098606Y-39716448D01*
X168232666Y-39708667D01*
X168412575Y-39729646D01*
X168478885Y-39828607D01*
X168486666Y-39962667D01*
X168507646Y-40142575D01*
X168606606Y-40208885D01*
X168740666Y-40216667D01*
X168911319Y-40200147D01*
X168981314Y-40116357D01*
X168994666Y-39920334D01*
X168980507Y-39721239D01*
X168908687Y-39639578D01*
X168740666Y-39624000D01*
X168560758Y-39603021D01*
X168494448Y-39504060D01*
X168486666Y-39370000D01*
X167978666Y-39370000D01*
X167957687Y-39549908D01*
X167858727Y-39616219D01*
X167724666Y-39624000D01*
X167544758Y-39603021D01*
X167478448Y-39504060D01*
X167470666Y-39370000D01*
X167470666Y-39116000D01*
X166370000Y-39116000D01*
X166370000Y-39370000D01*
X166349021Y-39549908D01*
X166250060Y-39616219D01*
X166116000Y-39624000D01*
X165936092Y-39603021D01*
X165869781Y-39504060D01*
X165862000Y-39370000D01*
X165882979Y-39190092D01*
X165981940Y-39123782D01*
X166116000Y-39116000D01*
X166295908Y-39095021D01*
X166362218Y-38996060D01*
X166370000Y-38862000D01*
X166370000Y-38608000D01*
X167470666Y-38608000D01*
X167470666Y-38862000D01*
X167491646Y-39041908D01*
X167590606Y-39108219D01*
X167724666Y-39116000D01*
X167904575Y-39136979D01*
X167970885Y-39235940D01*
X167978666Y-39370000D01*
X168486666Y-39370000D01*
X168465687Y-39190092D01*
X168366727Y-39123782D01*
X168232666Y-39116000D01*
X168052758Y-39095021D01*
X167986448Y-38996060D01*
X167978666Y-38862000D01*
X167978666Y-38608000D01*
X168994666Y-38608000D01*
X168994666Y-37846000D01*
X167978666Y-37846000D01*
X167957687Y-38025908D01*
X167858727Y-38092219D01*
X167724666Y-38100000D01*
X167544758Y-38079021D01*
X167478448Y-37980060D01*
X167470666Y-37846000D01*
X166370000Y-37846000D01*
X166349021Y-38025908D01*
X166250060Y-38092219D01*
X166116000Y-38100000D01*
X165936092Y-38079021D01*
X165869781Y-37980060D01*
X165862000Y-37846000D01*
X165882979Y-37666092D01*
X165981940Y-37599782D01*
X166116000Y-37592000D01*
X166295908Y-37612979D01*
X166362218Y-37711940D01*
X166370000Y-37846000D01*
X167470666Y-37846000D01*
X167491646Y-37666092D01*
X167590606Y-37599782D01*
X167724666Y-37592000D01*
X167904575Y-37612979D01*
X167970885Y-37711940D01*
X167978666Y-37846000D01*
X168994666Y-37846000D01*
X168994666Y-37592000D01*
X168740666Y-37592000D01*
X168560758Y-37571021D01*
X168494448Y-37472060D01*
X168486666Y-37338000D01*
X168465687Y-37158092D01*
X168366727Y-37091782D01*
X168232666Y-37084000D01*
X168062014Y-37067481D01*
X167992019Y-36983691D01*
X167978666Y-36787667D01*
X167964332Y-36588464D01*
X167892707Y-36506764D01*
X167730290Y-36491334D01*
X167546971Y-36463981D01*
X167470161Y-36348948D01*
X167455124Y-36258500D01*
X167430622Y-36129445D01*
X167367025Y-36059829D01*
X167222285Y-36031343D01*
X166954351Y-36025682D01*
X166920333Y-36025667D01*
X166638250Y-36030091D01*
G36*
X178560680Y-35999853D02*
X178490686Y-36083643D01*
X178477333Y-36279667D01*
X178491493Y-36478762D01*
X178563313Y-36560422D01*
X178731333Y-36576000D01*
X178911241Y-36596979D01*
X178977552Y-36695940D01*
X178985333Y-36830000D01*
X178964354Y-37009908D01*
X178865393Y-37076219D01*
X178731333Y-37084000D01*
X178551425Y-37104979D01*
X178485115Y-37203940D01*
X178477333Y-37338000D01*
X178460814Y-37508653D01*
X178377024Y-37578648D01*
X178181000Y-37592000D01*
X177981905Y-37606160D01*
X177900244Y-37677980D01*
X177884666Y-37846000D01*
X177864084Y-38025153D01*
X177766429Y-38091800D01*
X177627489Y-38100000D01*
X177370312Y-38100000D01*
X177419000Y-39666334D01*
X177673000Y-39666334D01*
X177811751Y-39659300D01*
X177889955Y-39612170D01*
X177928213Y-39485897D01*
X177947127Y-39241437D01*
X177952207Y-39137167D01*
X177969422Y-38848781D01*
X177999689Y-38690526D01*
X178063313Y-38623358D01*
X178180598Y-38608229D01*
X178227373Y-38608000D01*
X178477333Y-38608000D01*
X178477333Y-39708667D01*
X178731333Y-39708667D01*
X178911241Y-39729646D01*
X178977552Y-39828607D01*
X178985333Y-39962667D01*
X178985333Y-40216667D01*
X180001333Y-40216667D01*
X180001333Y-39624000D01*
X178985333Y-39624000D01*
X178985333Y-39116000D01*
X181610000Y-39116000D01*
X181610000Y-39624000D01*
X180594000Y-39624000D01*
X180594000Y-40216667D01*
X181610000Y-40216667D01*
X181610000Y-39962667D01*
X181630979Y-39782759D01*
X181729940Y-39716448D01*
X181864000Y-39708667D01*
X182118000Y-39708667D01*
X182118000Y-38608000D01*
X182367960Y-38608000D01*
X182504534Y-38615363D01*
X182581580Y-38663480D01*
X182619402Y-38791400D01*
X182638303Y-39038167D01*
X182643126Y-39137167D01*
X182660239Y-39425534D01*
X182690399Y-39583781D01*
X182754210Y-39650955D01*
X182872272Y-39666099D01*
X182922333Y-39666334D01*
X183176333Y-39666334D01*
X183225021Y-38100000D01*
X182967844Y-38100000D01*
X182786450Y-38079672D01*
X182718969Y-37983223D01*
X182710666Y-37846000D01*
X181610000Y-37846000D01*
X181589021Y-38025908D01*
X181490060Y-38092219D01*
X181356000Y-38100000D01*
X181176092Y-38079021D01*
X181109781Y-37980060D01*
X181102000Y-37846000D01*
X179493333Y-37846000D01*
X179472354Y-38025908D01*
X179373393Y-38092219D01*
X179239333Y-38100000D01*
X179059425Y-38079021D01*
X178993115Y-37980060D01*
X178985333Y-37846000D01*
X179006312Y-37666092D01*
X179105273Y-37599782D01*
X179239333Y-37592000D01*
X179419241Y-37612979D01*
X179485552Y-37711940D01*
X179493333Y-37846000D01*
X181102000Y-37846000D01*
X181122979Y-37666092D01*
X181221940Y-37599782D01*
X181356000Y-37592000D01*
X181535908Y-37612979D01*
X181602218Y-37711940D01*
X181610000Y-37846000D01*
X182710666Y-37846000D01*
X182694147Y-37675347D01*
X182610357Y-37605353D01*
X182414333Y-37592000D01*
X182215238Y-37577841D01*
X182133578Y-37506021D01*
X182118000Y-37338000D01*
X182097021Y-37158092D01*
X181998060Y-37091782D01*
X181864000Y-37084000D01*
X181684092Y-37063021D01*
X181617781Y-36964060D01*
X181610000Y-36830000D01*
X181630979Y-36650092D01*
X181729940Y-36583782D01*
X181864000Y-36576000D01*
X182034653Y-36559481D01*
X182104647Y-36475691D01*
X182118000Y-36279667D01*
X182103840Y-36080572D01*
X182032020Y-35998911D01*
X181864000Y-35983334D01*
X181684092Y-36004313D01*
X181617781Y-36103273D01*
X181610000Y-36237334D01*
X181589021Y-36417242D01*
X181490060Y-36483552D01*
X181356000Y-36491334D01*
X181185347Y-36507853D01*
X181115352Y-36591643D01*
X181102000Y-36787667D01*
X181102000Y-37084000D01*
X179493333Y-37084000D01*
X179493333Y-36787667D01*
X179479174Y-36588572D01*
X179407354Y-36506911D01*
X179239333Y-36491334D01*
X179059425Y-36470354D01*
X178993115Y-36371394D01*
X178985333Y-36237334D01*
X178964354Y-36057425D01*
X178865393Y-35991115D01*
X178731333Y-35983334D01*
X178560680Y-35999853D01*
X178560680Y-35999853D01*
G37*
X178560680Y-35999853D02*
X178490686Y-36083643D01*
X178477333Y-36279667D01*
X178491493Y-36478762D01*
X178563313Y-36560422D01*
X178731333Y-36576000D01*
X178911241Y-36596979D01*
X178977552Y-36695940D01*
X178985333Y-36830000D01*
X178964354Y-37009908D01*
X178865393Y-37076219D01*
X178731333Y-37084000D01*
X178551425Y-37104979D01*
X178485115Y-37203940D01*
X178477333Y-37338000D01*
X178460814Y-37508653D01*
X178377024Y-37578648D01*
X178181000Y-37592000D01*
X177981905Y-37606160D01*
X177900244Y-37677980D01*
X177884666Y-37846000D01*
X177864084Y-38025153D01*
X177766429Y-38091800D01*
X177627489Y-38100000D01*
X177370312Y-38100000D01*
X177419000Y-39666334D01*
X177673000Y-39666334D01*
X177811751Y-39659300D01*
X177889955Y-39612170D01*
X177928213Y-39485897D01*
X177947127Y-39241437D01*
X177952207Y-39137167D01*
X177969422Y-38848781D01*
X177999689Y-38690526D01*
X178063313Y-38623358D01*
X178180598Y-38608229D01*
X178227373Y-38608000D01*
X178477333Y-38608000D01*
X178477333Y-39708667D01*
X178731333Y-39708667D01*
X178911241Y-39729646D01*
X178977552Y-39828607D01*
X178985333Y-39962667D01*
X178985333Y-40216667D01*
X180001333Y-40216667D01*
X180001333Y-39624000D01*
X178985333Y-39624000D01*
X178985333Y-39116000D01*
X181610000Y-39116000D01*
X181610000Y-39624000D01*
X180594000Y-39624000D01*
X180594000Y-40216667D01*
X181610000Y-40216667D01*
X181610000Y-39962667D01*
X181630979Y-39782759D01*
X181729940Y-39716448D01*
X181864000Y-39708667D01*
X182118000Y-39708667D01*
X182118000Y-38608000D01*
X182367960Y-38608000D01*
X182504534Y-38615363D01*
X182581580Y-38663480D01*
X182619402Y-38791400D01*
X182638303Y-39038167D01*
X182643126Y-39137167D01*
X182660239Y-39425534D01*
X182690399Y-39583781D01*
X182754210Y-39650955D01*
X182872272Y-39666099D01*
X182922333Y-39666334D01*
X183176333Y-39666334D01*
X183225021Y-38100000D01*
X182967844Y-38100000D01*
X182786450Y-38079672D01*
X182718969Y-37983223D01*
X182710666Y-37846000D01*
X181610000Y-37846000D01*
X181589021Y-38025908D01*
X181490060Y-38092219D01*
X181356000Y-38100000D01*
X181176092Y-38079021D01*
X181109781Y-37980060D01*
X181102000Y-37846000D01*
X179493333Y-37846000D01*
X179472354Y-38025908D01*
X179373393Y-38092219D01*
X179239333Y-38100000D01*
X179059425Y-38079021D01*
X178993115Y-37980060D01*
X178985333Y-37846000D01*
X179006312Y-37666092D01*
X179105273Y-37599782D01*
X179239333Y-37592000D01*
X179419241Y-37612979D01*
X179485552Y-37711940D01*
X179493333Y-37846000D01*
X181102000Y-37846000D01*
X181122979Y-37666092D01*
X181221940Y-37599782D01*
X181356000Y-37592000D01*
X181535908Y-37612979D01*
X181602218Y-37711940D01*
X181610000Y-37846000D01*
X182710666Y-37846000D01*
X182694147Y-37675347D01*
X182610357Y-37605353D01*
X182414333Y-37592000D01*
X182215238Y-37577841D01*
X182133578Y-37506021D01*
X182118000Y-37338000D01*
X182097021Y-37158092D01*
X181998060Y-37091782D01*
X181864000Y-37084000D01*
X181684092Y-37063021D01*
X181617781Y-36964060D01*
X181610000Y-36830000D01*
X181630979Y-36650092D01*
X181729940Y-36583782D01*
X181864000Y-36576000D01*
X182034653Y-36559481D01*
X182104647Y-36475691D01*
X182118000Y-36279667D01*
X182103840Y-36080572D01*
X182032020Y-35998911D01*
X181864000Y-35983334D01*
X181684092Y-36004313D01*
X181617781Y-36103273D01*
X181610000Y-36237334D01*
X181589021Y-36417242D01*
X181490060Y-36483552D01*
X181356000Y-36491334D01*
X181185347Y-36507853D01*
X181115352Y-36591643D01*
X181102000Y-36787667D01*
X181102000Y-37084000D01*
X179493333Y-37084000D01*
X179493333Y-36787667D01*
X179479174Y-36588572D01*
X179407354Y-36506911D01*
X179239333Y-36491334D01*
X179059425Y-36470354D01*
X178993115Y-36371394D01*
X178985333Y-36237334D01*
X178964354Y-36057425D01*
X178865393Y-35991115D01*
X178731333Y-35983334D01*
X178560680Y-35999853D01*
G36*
X172477365Y-36604498D02*
X172467296Y-36839683D01*
X172368045Y-37039971D01*
X172241588Y-37187526D01*
X172066649Y-37407719D01*
X171947478Y-37621339D01*
X171929197Y-37676667D01*
X171848435Y-37847973D01*
X171686833Y-38087695D01*
X171495120Y-38325328D01*
X171267762Y-38604969D01*
X171149139Y-38822485D01*
X171121492Y-39028327D01*
X171164697Y-39264167D01*
X171234218Y-39394730D01*
X171383317Y-39448022D01*
X171531419Y-39454667D01*
X171849354Y-39394195D01*
X172000333Y-39285334D01*
X172191526Y-39155394D01*
X172357688Y-39116000D01*
X172704480Y-39037276D01*
X173009203Y-38822360D01*
X173069119Y-38754050D01*
X173166806Y-38645493D01*
X173238832Y-38651203D01*
X173338888Y-38783947D01*
X173365452Y-38824513D01*
X173463266Y-39038935D01*
X173513003Y-39331942D01*
X173524333Y-39663386D01*
X173529379Y-39977815D01*
X173551366Y-40160628D01*
X173600573Y-40249413D01*
X173687277Y-40281756D01*
X173693666Y-40282690D01*
X173855456Y-40245217D01*
X174074067Y-40123224D01*
X174185399Y-40039655D01*
X174389600Y-39844562D01*
X174644733Y-39564052D01*
X174903603Y-39250713D01*
X174966501Y-39169298D01*
X175182449Y-38879499D01*
X175305880Y-38691692D01*
X175350067Y-38575651D01*
X175328286Y-38501150D01*
X175279515Y-38456490D01*
X175183654Y-38361171D01*
X175229131Y-38289364D01*
X175257543Y-38270852D01*
X175312224Y-38205243D01*
X175230096Y-38136144D01*
X175130131Y-38091536D01*
X174977555Y-38016449D01*
X174975959Y-37970454D01*
X175027166Y-37953466D01*
X175160862Y-37888223D01*
X175139044Y-37807826D01*
X174971883Y-37732088D01*
X174904953Y-37715402D01*
X174732053Y-37667633D01*
X174704633Y-37616780D01*
X174776637Y-37552137D01*
X174869835Y-37438770D01*
X174805231Y-37363301D01*
X174610889Y-37338000D01*
X174458656Y-37307143D01*
X174413333Y-37253334D01*
X174477762Y-37171127D01*
X174498000Y-37168667D01*
X174580206Y-37104238D01*
X174582666Y-37084000D01*
X174507317Y-37032036D01*
X174318066Y-37002161D01*
X174227067Y-36999334D01*
X174011119Y-36989153D01*
X173940484Y-36952440D01*
X173973066Y-36897733D01*
X174061140Y-36779717D01*
X174027576Y-36706876D01*
X173856510Y-36670205D01*
X173555493Y-36660667D01*
X173165501Y-36635194D01*
X172872387Y-36548962D01*
X172743680Y-36479805D01*
X172451039Y-36298943D01*
X172477365Y-36604498D01*
X172477365Y-36604498D01*
G37*
X172477365Y-36604498D02*
X172467296Y-36839683D01*
X172368045Y-37039971D01*
X172241588Y-37187526D01*
X172066649Y-37407719D01*
X171947478Y-37621339D01*
X171929197Y-37676667D01*
X171848435Y-37847973D01*
X171686833Y-38087695D01*
X171495120Y-38325328D01*
X171267762Y-38604969D01*
X171149139Y-38822485D01*
X171121492Y-39028327D01*
X171164697Y-39264167D01*
X171234218Y-39394730D01*
X171383317Y-39448022D01*
X171531419Y-39454667D01*
X171849354Y-39394195D01*
X172000333Y-39285334D01*
X172191526Y-39155394D01*
X172357688Y-39116000D01*
X172704480Y-39037276D01*
X173009203Y-38822360D01*
X173069119Y-38754050D01*
X173166806Y-38645493D01*
X173238832Y-38651203D01*
X173338888Y-38783947D01*
X173365452Y-38824513D01*
X173463266Y-39038935D01*
X173513003Y-39331942D01*
X173524333Y-39663386D01*
X173529379Y-39977815D01*
X173551366Y-40160628D01*
X173600573Y-40249413D01*
X173687277Y-40281756D01*
X173693666Y-40282690D01*
X173855456Y-40245217D01*
X174074067Y-40123224D01*
X174185399Y-40039655D01*
X174389600Y-39844562D01*
X174644733Y-39564052D01*
X174903603Y-39250713D01*
X174966501Y-39169298D01*
X175182449Y-38879499D01*
X175305880Y-38691692D01*
X175350067Y-38575651D01*
X175328286Y-38501150D01*
X175279515Y-38456490D01*
X175183654Y-38361171D01*
X175229131Y-38289364D01*
X175257543Y-38270852D01*
X175312224Y-38205243D01*
X175230096Y-38136144D01*
X175130131Y-38091536D01*
X174977555Y-38016449D01*
X174975959Y-37970454D01*
X175027166Y-37953466D01*
X175160862Y-37888223D01*
X175139044Y-37807826D01*
X174971883Y-37732088D01*
X174904953Y-37715402D01*
X174732053Y-37667633D01*
X174704633Y-37616780D01*
X174776637Y-37552137D01*
X174869835Y-37438770D01*
X174805231Y-37363301D01*
X174610889Y-37338000D01*
X174458656Y-37307143D01*
X174413333Y-37253334D01*
X174477762Y-37171127D01*
X174498000Y-37168667D01*
X174580206Y-37104238D01*
X174582666Y-37084000D01*
X174507317Y-37032036D01*
X174318066Y-37002161D01*
X174227067Y-36999334D01*
X174011119Y-36989153D01*
X173940484Y-36952440D01*
X173973066Y-36897733D01*
X174061140Y-36779717D01*
X174027576Y-36706876D01*
X173856510Y-36670205D01*
X173555493Y-36660667D01*
X173165501Y-36635194D01*
X172872387Y-36548962D01*
X172743680Y-36479805D01*
X172451039Y-36298943D01*
X172477365Y-36604498D01*
G36*
X163271976Y-41582521D02*
X163061899Y-41612504D01*
X162983333Y-41655918D01*
X162983333Y-41656000D01*
X163059480Y-41704298D01*
X163254175Y-41734953D01*
X163406666Y-41740667D01*
X163657911Y-41747529D01*
X163783250Y-41782552D01*
X163825990Y-41867387D01*
X163830000Y-41952334D01*
X163811515Y-42088707D01*
X163724325Y-42149320D01*
X163520826Y-42163925D01*
X163491333Y-42164000D01*
X163279259Y-42182778D01*
X163161302Y-42229688D01*
X163152666Y-42248667D01*
X163227779Y-42301685D01*
X163415418Y-42331175D01*
X163491333Y-42333334D01*
X163712901Y-42347534D01*
X163810826Y-42404928D01*
X163830000Y-42502667D01*
X163807712Y-42604234D01*
X163713109Y-42654889D01*
X163504583Y-42671276D01*
X163406666Y-42672000D01*
X163165179Y-42687230D01*
X163011902Y-42726169D01*
X162983333Y-42756667D01*
X163061643Y-42800099D01*
X163271529Y-42830110D01*
X163575425Y-42841333D01*
X163576000Y-42841334D01*
X164168666Y-42841334D01*
X164168666Y-41571334D01*
X163576000Y-41571334D01*
X163271976Y-41582521D01*
X163271976Y-41582521D01*
G37*
X163271976Y-41582521D02*
X163061899Y-41612504D01*
X162983333Y-41655918D01*
X162983333Y-41656000D01*
X163059480Y-41704298D01*
X163254175Y-41734953D01*
X163406666Y-41740667D01*
X163657911Y-41747529D01*
X163783250Y-41782552D01*
X163825990Y-41867387D01*
X163830000Y-41952334D01*
X163811515Y-42088707D01*
X163724325Y-42149320D01*
X163520826Y-42163925D01*
X163491333Y-42164000D01*
X163279259Y-42182778D01*
X163161302Y-42229688D01*
X163152666Y-42248667D01*
X163227779Y-42301685D01*
X163415418Y-42331175D01*
X163491333Y-42333334D01*
X163712901Y-42347534D01*
X163810826Y-42404928D01*
X163830000Y-42502667D01*
X163807712Y-42604234D01*
X163713109Y-42654889D01*
X163504583Y-42671276D01*
X163406666Y-42672000D01*
X163165179Y-42687230D01*
X163011902Y-42726169D01*
X162983333Y-42756667D01*
X163061643Y-42800099D01*
X163271529Y-42830110D01*
X163575425Y-42841333D01*
X163576000Y-42841334D01*
X164168666Y-42841334D01*
X164168666Y-41571334D01*
X163576000Y-41571334D01*
X163271976Y-41582521D01*
G36*
X164756495Y-41604518D02*
X164554872Y-41683671D01*
X164418883Y-41786985D01*
X164381652Y-41889954D01*
X164463916Y-41963633D01*
X164640208Y-41953258D01*
X164724375Y-41874635D01*
X164897847Y-41763079D01*
X165029631Y-41755045D01*
X165147705Y-41790264D01*
X165206380Y-41882794D01*
X165225751Y-42078576D01*
X165227000Y-42206334D01*
X165219944Y-42458567D01*
X165182759Y-42588024D01*
X165091420Y-42641149D01*
X164994166Y-42656457D01*
X164826252Y-42647879D01*
X164761333Y-42592957D01*
X164688449Y-42526888D01*
X164533702Y-42502667D01*
X164306070Y-42502667D01*
X164487828Y-42672000D01*
X164725254Y-42796401D01*
X165031046Y-42838198D01*
X165324469Y-42793115D01*
X165459833Y-42723474D01*
X165565097Y-42568217D01*
X165606500Y-42293270D01*
X165608000Y-42206334D01*
X165570293Y-41877762D01*
X165441164Y-41679935D01*
X165196604Y-41588263D01*
X164990626Y-41574026D01*
X164756495Y-41604518D01*
X164756495Y-41604518D01*
G37*
X164756495Y-41604518D02*
X164554872Y-41683671D01*
X164418883Y-41786985D01*
X164381652Y-41889954D01*
X164463916Y-41963633D01*
X164640208Y-41953258D01*
X164724375Y-41874635D01*
X164897847Y-41763079D01*
X165029631Y-41755045D01*
X165147705Y-41790264D01*
X165206380Y-41882794D01*
X165225751Y-42078576D01*
X165227000Y-42206334D01*
X165219944Y-42458567D01*
X165182759Y-42588024D01*
X165091420Y-42641149D01*
X164994166Y-42656457D01*
X164826252Y-42647879D01*
X164761333Y-42592957D01*
X164688449Y-42526888D01*
X164533702Y-42502667D01*
X164306070Y-42502667D01*
X164487828Y-42672000D01*
X164725254Y-42796401D01*
X165031046Y-42838198D01*
X165324469Y-42793115D01*
X165459833Y-42723474D01*
X165565097Y-42568217D01*
X165606500Y-42293270D01*
X165608000Y-42206334D01*
X165570293Y-41877762D01*
X165441164Y-41679935D01*
X165196604Y-41588263D01*
X164990626Y-41574026D01*
X164756495Y-41604518D01*
G36*
X166233987Y-41598244D02*
X166045346Y-41724816D01*
X165949803Y-41937420D01*
X165946666Y-41988619D01*
X165912309Y-42129450D01*
X165862000Y-42164000D01*
X165808981Y-42239112D01*
X165779492Y-42426752D01*
X165777333Y-42502667D01*
X165791533Y-42724235D01*
X165848928Y-42822159D01*
X165946666Y-42841334D01*
X166088171Y-42781465D01*
X166116000Y-42672000D01*
X166155916Y-42548053D01*
X166304433Y-42504414D01*
X166370000Y-42502667D01*
X166555920Y-42529277D01*
X166621379Y-42628289D01*
X166624000Y-42672000D01*
X166683868Y-42813504D01*
X166793333Y-42841334D01*
X166904117Y-42812933D01*
X166953079Y-42698144D01*
X166962666Y-42502667D01*
X166943888Y-42290593D01*
X166896979Y-42172636D01*
X166878000Y-42164000D01*
X166624000Y-42164000D01*
X166584084Y-42287947D01*
X166435567Y-42331587D01*
X166370000Y-42333334D01*
X166184080Y-42306723D01*
X166118620Y-42207712D01*
X166116000Y-42164000D01*
X166151456Y-42026420D01*
X166200666Y-41994667D01*
X166275781Y-41926090D01*
X166285333Y-41867667D01*
X166331051Y-41754995D01*
X166370000Y-41740667D01*
X166445114Y-41809243D01*
X166454666Y-41867667D01*
X166500384Y-41980339D01*
X166539333Y-41994667D01*
X166608123Y-42065579D01*
X166624000Y-42164000D01*
X166878000Y-42164000D01*
X166810012Y-42092831D01*
X166793333Y-41988619D01*
X166736817Y-41783866D01*
X166672381Y-41692286D01*
X166461180Y-41579976D01*
X166233987Y-41598244D01*
X166233987Y-41598244D01*
G37*
X166233987Y-41598244D02*
X166045346Y-41724816D01*
X165949803Y-41937420D01*
X165946666Y-41988619D01*
X165912309Y-42129450D01*
X165862000Y-42164000D01*
X165808981Y-42239112D01*
X165779492Y-42426752D01*
X165777333Y-42502667D01*
X165791533Y-42724235D01*
X165848928Y-42822159D01*
X165946666Y-42841334D01*
X166088171Y-42781465D01*
X166116000Y-42672000D01*
X166155916Y-42548053D01*
X166304433Y-42504414D01*
X166370000Y-42502667D01*
X166555920Y-42529277D01*
X166621379Y-42628289D01*
X166624000Y-42672000D01*
X166683868Y-42813504D01*
X166793333Y-42841334D01*
X166904117Y-42812933D01*
X166953079Y-42698144D01*
X166962666Y-42502667D01*
X166943888Y-42290593D01*
X166896979Y-42172636D01*
X166878000Y-42164000D01*
X166624000Y-42164000D01*
X166584084Y-42287947D01*
X166435567Y-42331587D01*
X166370000Y-42333334D01*
X166184080Y-42306723D01*
X166118620Y-42207712D01*
X166116000Y-42164000D01*
X166151456Y-42026420D01*
X166200666Y-41994667D01*
X166275781Y-41926090D01*
X166285333Y-41867667D01*
X166331051Y-41754995D01*
X166370000Y-41740667D01*
X166445114Y-41809243D01*
X166454666Y-41867667D01*
X166500384Y-41980339D01*
X166539333Y-41994667D01*
X166608123Y-42065579D01*
X166624000Y-42164000D01*
X166878000Y-42164000D01*
X166810012Y-42092831D01*
X166793333Y-41988619D01*
X166736817Y-41783866D01*
X166672381Y-41692286D01*
X166461180Y-41579976D01*
X166233987Y-41598244D01*
G36*
X167420643Y-41582521D02*
X167210565Y-41612504D01*
X167132000Y-41655918D01*
X167132000Y-41656000D01*
X167208147Y-41704298D01*
X167402842Y-41734953D01*
X167555333Y-41740667D01*
X167806577Y-41747529D01*
X167931917Y-41782552D01*
X167974656Y-41867387D01*
X167978666Y-41952334D01*
X167960182Y-42088707D01*
X167872991Y-42149320D01*
X167669493Y-42163925D01*
X167640000Y-42164000D01*
X167427926Y-42182778D01*
X167309969Y-42229688D01*
X167301333Y-42248667D01*
X167376445Y-42301685D01*
X167564085Y-42331175D01*
X167640000Y-42333334D01*
X167861568Y-42347534D01*
X167959492Y-42404928D01*
X167978666Y-42502667D01*
X167956378Y-42604234D01*
X167861776Y-42654889D01*
X167653250Y-42671276D01*
X167555333Y-42672000D01*
X167313846Y-42687230D01*
X167160568Y-42726169D01*
X167132000Y-42756667D01*
X167210310Y-42800099D01*
X167420195Y-42830110D01*
X167724091Y-42841333D01*
X167724666Y-42841334D01*
X168317333Y-42841334D01*
X168317333Y-41571334D01*
X167724666Y-41571334D01*
X167420643Y-41582521D01*
X167420643Y-41582521D01*
G37*
X167420643Y-41582521D02*
X167210565Y-41612504D01*
X167132000Y-41655918D01*
X167132000Y-41656000D01*
X167208147Y-41704298D01*
X167402842Y-41734953D01*
X167555333Y-41740667D01*
X167806577Y-41747529D01*
X167931917Y-41782552D01*
X167974656Y-41867387D01*
X167978666Y-41952334D01*
X167960182Y-42088707D01*
X167872991Y-42149320D01*
X167669493Y-42163925D01*
X167640000Y-42164000D01*
X167427926Y-42182778D01*
X167309969Y-42229688D01*
X167301333Y-42248667D01*
X167376445Y-42301685D01*
X167564085Y-42331175D01*
X167640000Y-42333334D01*
X167861568Y-42347534D01*
X167959492Y-42404928D01*
X167978666Y-42502667D01*
X167956378Y-42604234D01*
X167861776Y-42654889D01*
X167653250Y-42671276D01*
X167555333Y-42672000D01*
X167313846Y-42687230D01*
X167160568Y-42726169D01*
X167132000Y-42756667D01*
X167210310Y-42800099D01*
X167420195Y-42830110D01*
X167724091Y-42841333D01*
X167724666Y-42841334D01*
X168317333Y-42841334D01*
X168317333Y-41571334D01*
X167724666Y-41571334D01*
X167420643Y-41582521D01*
G36*
X168920359Y-41601196D02*
X168694912Y-41699898D01*
X168587663Y-41881107D01*
X168571333Y-42037000D01*
X168636908Y-42301232D01*
X168831730Y-42457083D01*
X169115619Y-42502667D01*
X169322388Y-42520793D01*
X169407080Y-42591951D01*
X169418000Y-42672000D01*
X169477868Y-42813504D01*
X169587333Y-42841334D01*
X169673911Y-42826336D01*
X169724710Y-42757948D01*
X169749087Y-42601079D01*
X169756401Y-42320638D01*
X169756666Y-42206334D01*
X169756666Y-42037000D01*
X169418000Y-42037000D01*
X169403840Y-42236095D01*
X169332020Y-42317756D01*
X169164000Y-42333334D01*
X168993347Y-42316814D01*
X168923352Y-42233024D01*
X168910000Y-42037000D01*
X168924159Y-41837905D01*
X168995979Y-41756245D01*
X169164000Y-41740667D01*
X169334653Y-41757186D01*
X169404647Y-41840976D01*
X169418000Y-42037000D01*
X169756666Y-42037000D01*
X169756666Y-41571334D01*
X169284952Y-41571334D01*
X168920359Y-41601196D01*
X168920359Y-41601196D01*
G37*
X168920359Y-41601196D02*
X168694912Y-41699898D01*
X168587663Y-41881107D01*
X168571333Y-42037000D01*
X168636908Y-42301232D01*
X168831730Y-42457083D01*
X169115619Y-42502667D01*
X169322388Y-42520793D01*
X169407080Y-42591951D01*
X169418000Y-42672000D01*
X169477868Y-42813504D01*
X169587333Y-42841334D01*
X169673911Y-42826336D01*
X169724710Y-42757948D01*
X169749087Y-42601079D01*
X169756401Y-42320638D01*
X169756666Y-42206334D01*
X169756666Y-42037000D01*
X169418000Y-42037000D01*
X169403840Y-42236095D01*
X169332020Y-42317756D01*
X169164000Y-42333334D01*
X168993347Y-42316814D01*
X168923352Y-42233024D01*
X168910000Y-42037000D01*
X168924159Y-41837905D01*
X168995979Y-41756245D01*
X169164000Y-41740667D01*
X169334653Y-41757186D01*
X169404647Y-41840976D01*
X169418000Y-42037000D01*
X169756666Y-42037000D01*
X169756666Y-41571334D01*
X169284952Y-41571334D01*
X168920359Y-41601196D01*
G36*
X171363422Y-41586331D02*
X171312623Y-41654719D01*
X171288246Y-41811588D01*
X171280932Y-42092029D01*
X171280666Y-42206334D01*
X171295827Y-42577897D01*
X171348057Y-42789876D01*
X171447479Y-42849864D01*
X171604215Y-42765451D01*
X171788666Y-42587334D01*
X171969316Y-42405011D01*
X172069955Y-42350186D01*
X172119899Y-42421046D01*
X172142876Y-42565443D01*
X172215084Y-42747548D01*
X172346676Y-42834457D01*
X172485820Y-42793090D01*
X172491295Y-42787816D01*
X172522146Y-42677969D01*
X172543613Y-42450588D01*
X172550666Y-42189565D01*
X172528636Y-41827321D01*
X172459022Y-41625797D01*
X172336537Y-41581744D01*
X172155897Y-41691916D01*
X171999259Y-41850893D01*
X171806094Y-42044019D01*
X171688379Y-42092330D01*
X171631298Y-41994278D01*
X171619333Y-41811222D01*
X171589126Y-41631706D01*
X171479056Y-41572427D01*
X171450000Y-41571334D01*
X171363422Y-41586331D01*
X171363422Y-41586331D01*
G37*
X171363422Y-41586331D02*
X171312623Y-41654719D01*
X171288246Y-41811588D01*
X171280932Y-42092029D01*
X171280666Y-42206334D01*
X171295827Y-42577897D01*
X171348057Y-42789876D01*
X171447479Y-42849864D01*
X171604215Y-42765451D01*
X171788666Y-42587334D01*
X171969316Y-42405011D01*
X172069955Y-42350186D01*
X172119899Y-42421046D01*
X172142876Y-42565443D01*
X172215084Y-42747548D01*
X172346676Y-42834457D01*
X172485820Y-42793090D01*
X172491295Y-42787816D01*
X172522146Y-42677969D01*
X172543613Y-42450588D01*
X172550666Y-42189565D01*
X172528636Y-41827321D01*
X172459022Y-41625797D01*
X172336537Y-41581744D01*
X172155897Y-41691916D01*
X171999259Y-41850893D01*
X171806094Y-42044019D01*
X171688379Y-42092330D01*
X171631298Y-41994278D01*
X171619333Y-41811222D01*
X171589126Y-41631706D01*
X171479056Y-41572427D01*
X171450000Y-41571334D01*
X171363422Y-41586331D01*
G36*
X173037424Y-41592048D02*
X172899280Y-41648920D01*
X172910890Y-41734040D01*
X172974000Y-41783000D01*
X173025737Y-41892815D01*
X173055685Y-42107054D01*
X173058666Y-42206334D01*
X173040903Y-42444021D01*
X172996236Y-42602860D01*
X172974000Y-42629667D01*
X172885415Y-42725613D01*
X172952703Y-42797137D01*
X173163211Y-42836328D01*
X173312666Y-42841334D01*
X173554154Y-42826104D01*
X173707431Y-42787165D01*
X173736000Y-42756667D01*
X173671571Y-42674460D01*
X173651333Y-42672000D01*
X173604967Y-42595448D01*
X173574214Y-42397976D01*
X173566666Y-42206334D01*
X173580585Y-41951319D01*
X173616489Y-41782177D01*
X173651333Y-41740667D01*
X173733540Y-41676238D01*
X173736000Y-41656000D01*
X173659853Y-41607703D01*
X173465158Y-41577047D01*
X173312666Y-41571334D01*
X173037424Y-41592048D01*
X173037424Y-41592048D01*
G37*
X173037424Y-41592048D02*
X172899280Y-41648920D01*
X172910890Y-41734040D01*
X172974000Y-41783000D01*
X173025737Y-41892815D01*
X173055685Y-42107054D01*
X173058666Y-42206334D01*
X173040903Y-42444021D01*
X172996236Y-42602860D01*
X172974000Y-42629667D01*
X172885415Y-42725613D01*
X172952703Y-42797137D01*
X173163211Y-42836328D01*
X173312666Y-42841334D01*
X173554154Y-42826104D01*
X173707431Y-42787165D01*
X173736000Y-42756667D01*
X173671571Y-42674460D01*
X173651333Y-42672000D01*
X173604967Y-42595448D01*
X173574214Y-42397976D01*
X173566666Y-42206334D01*
X173580585Y-41951319D01*
X173616489Y-41782177D01*
X173651333Y-41740667D01*
X173733540Y-41676238D01*
X173736000Y-41656000D01*
X173659853Y-41607703D01*
X173465158Y-41577047D01*
X173312666Y-41571334D01*
X173037424Y-41592048D01*
G36*
X175617957Y-41601442D02*
X175509429Y-41634915D01*
X175529694Y-41675991D01*
X175694480Y-41717011D01*
X175852666Y-41736800D01*
X176124262Y-41772974D01*
X176265489Y-41824111D01*
X176315285Y-41908232D01*
X176318333Y-41952334D01*
X176287480Y-42063619D01*
X176166671Y-42122114D01*
X175956570Y-42147796D01*
X175725240Y-42186326D01*
X175650359Y-42243242D01*
X175723530Y-42298210D01*
X175936355Y-42330899D01*
X176033205Y-42333334D01*
X176252306Y-42346615D01*
X176341556Y-42398575D01*
X176344915Y-42481500D01*
X176285878Y-42575343D01*
X176128966Y-42629360D01*
X175870825Y-42655335D01*
X175598479Y-42686035D01*
X175482368Y-42730343D01*
X175511123Y-42777745D01*
X175673374Y-42817729D01*
X175957750Y-42839781D01*
X176071987Y-42841334D01*
X176413891Y-42826876D01*
X176606913Y-42781144D01*
X176664231Y-42726020D01*
X176684120Y-42582732D01*
X176689437Y-42332582D01*
X176682740Y-42112187D01*
X176657000Y-41613667D01*
X176158480Y-41587926D01*
X175839551Y-41583226D01*
X175617957Y-41601442D01*
X175617957Y-41601442D01*
G37*
X175617957Y-41601442D02*
X175509429Y-41634915D01*
X175529694Y-41675991D01*
X175694480Y-41717011D01*
X175852666Y-41736800D01*
X176124262Y-41772974D01*
X176265489Y-41824111D01*
X176315285Y-41908232D01*
X176318333Y-41952334D01*
X176287480Y-42063619D01*
X176166671Y-42122114D01*
X175956570Y-42147796D01*
X175725240Y-42186326D01*
X175650359Y-42243242D01*
X175723530Y-42298210D01*
X175936355Y-42330899D01*
X176033205Y-42333334D01*
X176252306Y-42346615D01*
X176341556Y-42398575D01*
X176344915Y-42481500D01*
X176285878Y-42575343D01*
X176128966Y-42629360D01*
X175870825Y-42655335D01*
X175598479Y-42686035D01*
X175482368Y-42730343D01*
X175511123Y-42777745D01*
X175673374Y-42817729D01*
X175957750Y-42839781D01*
X176071987Y-42841334D01*
X176413891Y-42826876D01*
X176606913Y-42781144D01*
X176664231Y-42726020D01*
X176684120Y-42582732D01*
X176689437Y-42332582D01*
X176682740Y-42112187D01*
X176657000Y-41613667D01*
X176158480Y-41587926D01*
X175839551Y-41583226D01*
X175617957Y-41601442D01*
G36*
X176870631Y-42185167D02*
X176875186Y-42522706D01*
X176895675Y-42723206D01*
X176938586Y-42818694D01*
X177003593Y-42841334D01*
X177131901Y-42770255D01*
X177182801Y-42672000D01*
X177249816Y-42534745D01*
X177301875Y-42502667D01*
X177362669Y-42573666D01*
X177376666Y-42672000D01*
X177412123Y-42809581D01*
X177461333Y-42841334D01*
X177530123Y-42770421D01*
X177546000Y-42672000D01*
X177581456Y-42534420D01*
X177630666Y-42502667D01*
X177699457Y-42573579D01*
X177715333Y-42672000D01*
X177775202Y-42813504D01*
X177884666Y-42841334D01*
X177971245Y-42826336D01*
X178022043Y-42757948D01*
X178046421Y-42601079D01*
X178053734Y-42320638D01*
X178054000Y-42206334D01*
X178048075Y-41902790D01*
X178032404Y-41678252D01*
X178010139Y-41574102D01*
X178005619Y-41571334D01*
X177906744Y-41628374D01*
X177785711Y-41749055D01*
X177716638Y-41857715D01*
X177715333Y-41867667D01*
X177662368Y-41964588D01*
X177586779Y-42050650D01*
X177498872Y-42112788D01*
X177405249Y-42089882D01*
X177265790Y-41963218D01*
X177165410Y-41854102D01*
X176872595Y-41529000D01*
X176870631Y-42185167D01*
X176870631Y-42185167D01*
G37*
X176870631Y-42185167D02*
X176875186Y-42522706D01*
X176895675Y-42723206D01*
X176938586Y-42818694D01*
X177003593Y-42841334D01*
X177131901Y-42770255D01*
X177182801Y-42672000D01*
X177249816Y-42534745D01*
X177301875Y-42502667D01*
X177362669Y-42573666D01*
X177376666Y-42672000D01*
X177412123Y-42809581D01*
X177461333Y-42841334D01*
X177530123Y-42770421D01*
X177546000Y-42672000D01*
X177581456Y-42534420D01*
X177630666Y-42502667D01*
X177699457Y-42573579D01*
X177715333Y-42672000D01*
X177775202Y-42813504D01*
X177884666Y-42841334D01*
X177971245Y-42826336D01*
X178022043Y-42757948D01*
X178046421Y-42601079D01*
X178053734Y-42320638D01*
X178054000Y-42206334D01*
X178048075Y-41902790D01*
X178032404Y-41678252D01*
X178010139Y-41574102D01*
X178005619Y-41571334D01*
X177906744Y-41628374D01*
X177785711Y-41749055D01*
X177716638Y-41857715D01*
X177715333Y-41867667D01*
X177662368Y-41964588D01*
X177586779Y-42050650D01*
X177498872Y-42112788D01*
X177405249Y-42089882D01*
X177265790Y-41963218D01*
X177165410Y-41854102D01*
X176872595Y-41529000D01*
X176870631Y-42185167D01*
G36*
X178506813Y-41609403D02*
X178321124Y-41740083D01*
X178235871Y-41988082D01*
X178223333Y-42206334D01*
X178249909Y-42487473D01*
X178319030Y-42687618D01*
X178344286Y-42720381D01*
X178517506Y-42802342D01*
X178775152Y-42834940D01*
X179044557Y-42818607D01*
X179253054Y-42753774D01*
X179302833Y-42714686D01*
X179376775Y-42536864D01*
X179405790Y-42271090D01*
X179402005Y-42199212D01*
X179070000Y-42199212D01*
X179070000Y-42206334D01*
X179065735Y-42472548D01*
X179037783Y-42611110D01*
X178963411Y-42663701D01*
X178819884Y-42672000D01*
X178816000Y-42672000D01*
X178670792Y-42664181D01*
X178595212Y-42612936D01*
X178566527Y-42476587D01*
X178562000Y-42213455D01*
X178562000Y-42206334D01*
X178566265Y-41940119D01*
X178594216Y-41801557D01*
X178668589Y-41748966D01*
X178812116Y-41740667D01*
X178816000Y-41740667D01*
X178961207Y-41748486D01*
X179036787Y-41799731D01*
X179065473Y-41936080D01*
X179070000Y-42199212D01*
X179402005Y-42199212D01*
X179390943Y-41989207D01*
X179333294Y-41763058D01*
X179287714Y-41692286D01*
X179129664Y-41615207D01*
X178886835Y-41573665D01*
X178816000Y-41571334D01*
X178506813Y-41609403D01*
X178506813Y-41609403D01*
G37*
X178506813Y-41609403D02*
X178321124Y-41740083D01*
X178235871Y-41988082D01*
X178223333Y-42206334D01*
X178249909Y-42487473D01*
X178319030Y-42687618D01*
X178344286Y-42720381D01*
X178517506Y-42802342D01*
X178775152Y-42834940D01*
X179044557Y-42818607D01*
X179253054Y-42753774D01*
X179302833Y-42714686D01*
X179376775Y-42536864D01*
X179405790Y-42271090D01*
X179402005Y-42199212D01*
X179070000Y-42199212D01*
X179070000Y-42206334D01*
X179065735Y-42472548D01*
X179037783Y-42611110D01*
X178963411Y-42663701D01*
X178819884Y-42672000D01*
X178816000Y-42672000D01*
X178670792Y-42664181D01*
X178595212Y-42612936D01*
X178566527Y-42476587D01*
X178562000Y-42213455D01*
X178562000Y-42206334D01*
X178566265Y-41940119D01*
X178594216Y-41801557D01*
X178668589Y-41748966D01*
X178812116Y-41740667D01*
X178816000Y-41740667D01*
X178961207Y-41748486D01*
X179036787Y-41799731D01*
X179065473Y-41936080D01*
X179070000Y-42199212D01*
X179402005Y-42199212D01*
X179390943Y-41989207D01*
X179333294Y-41763058D01*
X179287714Y-41692286D01*
X179129664Y-41615207D01*
X178886835Y-41573665D01*
X178816000Y-41571334D01*
X178506813Y-41609403D01*
G36*
X179891246Y-41623837D02*
X179706597Y-41738902D01*
X179606709Y-41864829D01*
X179624536Y-41927683D01*
X179697543Y-41961188D01*
X179865310Y-41945220D01*
X179946645Y-41870245D01*
X180121751Y-41759996D01*
X180260077Y-41753793D01*
X180383572Y-41788005D01*
X180444971Y-41875916D01*
X180465467Y-42063875D01*
X180467000Y-42206334D01*
X180458510Y-42460590D01*
X180419420Y-42591895D01*
X180329300Y-42646324D01*
X180266735Y-42658002D01*
X180073492Y-42644878D01*
X179974635Y-42594502D01*
X179816883Y-42516163D01*
X179717278Y-42502667D01*
X179605840Y-42511965D01*
X179615832Y-42568497D01*
X179705000Y-42672000D01*
X179916602Y-42799009D01*
X180201292Y-42845741D01*
X180486752Y-42811150D01*
X180700663Y-42694191D01*
X180707878Y-42686500D01*
X180815822Y-42467014D01*
X180847707Y-42181264D01*
X180804648Y-41903183D01*
X180693166Y-41711456D01*
X180465807Y-41599695D01*
X180173742Y-41571178D01*
X179891246Y-41623837D01*
X179891246Y-41623837D01*
G37*
X179891246Y-41623837D02*
X179706597Y-41738902D01*
X179606709Y-41864829D01*
X179624536Y-41927683D01*
X179697543Y-41961188D01*
X179865310Y-41945220D01*
X179946645Y-41870245D01*
X180121751Y-41759996D01*
X180260077Y-41753793D01*
X180383572Y-41788005D01*
X180444971Y-41875916D01*
X180465467Y-42063875D01*
X180467000Y-42206334D01*
X180458510Y-42460590D01*
X180419420Y-42591895D01*
X180329300Y-42646324D01*
X180266735Y-42658002D01*
X180073492Y-42644878D01*
X179974635Y-42594502D01*
X179816883Y-42516163D01*
X179717278Y-42502667D01*
X179605840Y-42511965D01*
X179615832Y-42568497D01*
X179705000Y-42672000D01*
X179916602Y-42799009D01*
X180201292Y-42845741D01*
X180486752Y-42811150D01*
X180700663Y-42694191D01*
X180707878Y-42686500D01*
X180815822Y-42467014D01*
X180847707Y-42181264D01*
X180804648Y-41903183D01*
X180693166Y-41711456D01*
X180465807Y-41599695D01*
X180173742Y-41571178D01*
X179891246Y-41623837D01*
G36*
X182660643Y-41582521D02*
X182450565Y-41612504D01*
X182372000Y-41655918D01*
X182372000Y-41656000D01*
X182448147Y-41704298D01*
X182642842Y-41734953D01*
X182795333Y-41740667D01*
X183046577Y-41747529D01*
X183171917Y-41782552D01*
X183214656Y-41867387D01*
X183218666Y-41952334D01*
X183200182Y-42088707D01*
X183112991Y-42149320D01*
X182909493Y-42163925D01*
X182880000Y-42164000D01*
X182667926Y-42182778D01*
X182549969Y-42229688D01*
X182541333Y-42248667D01*
X182616445Y-42301685D01*
X182804085Y-42331175D01*
X182880000Y-42333334D01*
X183101568Y-42347534D01*
X183199492Y-42404928D01*
X183218666Y-42502667D01*
X183196378Y-42604234D01*
X183101776Y-42654889D01*
X182893250Y-42671276D01*
X182795333Y-42672000D01*
X182553846Y-42687230D01*
X182400568Y-42726169D01*
X182372000Y-42756667D01*
X182450310Y-42800099D01*
X182660195Y-42830110D01*
X182964091Y-42841333D01*
X182964666Y-42841334D01*
X183557333Y-42841334D01*
X183557333Y-41571334D01*
X182964666Y-41571334D01*
X182660643Y-41582521D01*
X182660643Y-41582521D01*
G37*
X182660643Y-41582521D02*
X182450565Y-41612504D01*
X182372000Y-41655918D01*
X182372000Y-41656000D01*
X182448147Y-41704298D01*
X182642842Y-41734953D01*
X182795333Y-41740667D01*
X183046577Y-41747529D01*
X183171917Y-41782552D01*
X183214656Y-41867387D01*
X183218666Y-41952334D01*
X183200182Y-42088707D01*
X183112991Y-42149320D01*
X182909493Y-42163925D01*
X182880000Y-42164000D01*
X182667926Y-42182778D01*
X182549969Y-42229688D01*
X182541333Y-42248667D01*
X182616445Y-42301685D01*
X182804085Y-42331175D01*
X182880000Y-42333334D01*
X183101568Y-42347534D01*
X183199492Y-42404928D01*
X183218666Y-42502667D01*
X183196378Y-42604234D01*
X183101776Y-42654889D01*
X182893250Y-42671276D01*
X182795333Y-42672000D01*
X182553846Y-42687230D01*
X182400568Y-42726169D01*
X182372000Y-42756667D01*
X182450310Y-42800099D01*
X182660195Y-42830110D01*
X182964091Y-42841333D01*
X182964666Y-42841334D01*
X183557333Y-42841334D01*
X183557333Y-41571334D01*
X182964666Y-41571334D01*
X182660643Y-41582521D01*
G36*
X183911422Y-41588092D02*
X183807970Y-41682387D01*
X183745732Y-41872475D01*
X183735641Y-42087541D01*
X183788629Y-42256776D01*
X183805166Y-42276366D01*
X183877830Y-42428329D01*
X183896000Y-42564591D01*
X183956620Y-42753429D01*
X184105150Y-42821221D01*
X184291591Y-42745183D01*
X184291847Y-42744972D01*
X184409974Y-42675453D01*
X184467140Y-42735449D01*
X184467157Y-42735500D01*
X184570882Y-42830873D01*
X184721510Y-42819980D01*
X184770889Y-42784889D01*
X184816915Y-42662479D01*
X184827333Y-42547822D01*
X184867215Y-42358623D01*
X184918167Y-42276366D01*
X184984662Y-42120227D01*
X184983718Y-41907074D01*
X184926832Y-41707665D01*
X184825500Y-41592757D01*
X184806166Y-41586985D01*
X184698833Y-41606103D01*
X184659846Y-41743780D01*
X184658000Y-41814129D01*
X184632512Y-42011964D01*
X184573333Y-42121667D01*
X184513065Y-42088925D01*
X184488681Y-41925230D01*
X184488666Y-41919994D01*
X184462600Y-41706204D01*
X184403467Y-41621578D01*
X184339868Y-41677725D01*
X184303651Y-41844893D01*
X184253754Y-42058283D01*
X184179786Y-42111231D01*
X184110468Y-42004186D01*
X184080755Y-41841398D01*
X184037719Y-41644697D01*
X183947805Y-41584608D01*
X183911422Y-41588092D01*
X183911422Y-41588092D01*
G37*
X183911422Y-41588092D02*
X183807970Y-41682387D01*
X183745732Y-41872475D01*
X183735641Y-42087541D01*
X183788629Y-42256776D01*
X183805166Y-42276366D01*
X183877830Y-42428329D01*
X183896000Y-42564591D01*
X183956620Y-42753429D01*
X184105150Y-42821221D01*
X184291591Y-42745183D01*
X184291847Y-42744972D01*
X184409974Y-42675453D01*
X184467140Y-42735449D01*
X184467157Y-42735500D01*
X184570882Y-42830873D01*
X184721510Y-42819980D01*
X184770889Y-42784889D01*
X184816915Y-42662479D01*
X184827333Y-42547822D01*
X184867215Y-42358623D01*
X184918167Y-42276366D01*
X184984662Y-42120227D01*
X184983718Y-41907074D01*
X184926832Y-41707665D01*
X184825500Y-41592757D01*
X184806166Y-41586985D01*
X184698833Y-41606103D01*
X184659846Y-41743780D01*
X184658000Y-41814129D01*
X184632512Y-42011964D01*
X184573333Y-42121667D01*
X184513065Y-42088925D01*
X184488681Y-41925230D01*
X184488666Y-41919994D01*
X184462600Y-41706204D01*
X184403467Y-41621578D01*
X184339868Y-41677725D01*
X184303651Y-41844893D01*
X184253754Y-42058283D01*
X184179786Y-42111231D01*
X184110468Y-42004186D01*
X184080755Y-41841398D01*
X184037719Y-41644697D01*
X183947805Y-41584608D01*
X183911422Y-41588092D01*
G04 #@! TO.C,J1*
D15*
X182808360Y-55333611D02*
X183426950Y-55690754D01*
X183574477Y-55720943D01*
X183704575Y-55686083D01*
X183817243Y-55586175D01*
X183864862Y-55503696D01*
X183174386Y-56699636D02*
X183460100Y-56204765D01*
X183317243Y-56452200D02*
X182451217Y-55952200D01*
X182622554Y-55941150D01*
X182752652Y-55906291D01*
X182841510Y-55847622D01*
G04 #@! TO.C,D7*
X199048380Y-93241904D02*
X198048380Y-93241904D01*
X198048380Y-93480000D01*
X198096000Y-93622857D01*
X198191238Y-93718095D01*
X198286476Y-93765714D01*
X198476952Y-93813333D01*
X198619809Y-93813333D01*
X198810285Y-93765714D01*
X198905523Y-93718095D01*
X199000761Y-93622857D01*
X199048380Y-93480000D01*
X199048380Y-93241904D01*
X198048380Y-94146666D02*
X198048380Y-94813333D01*
X199048380Y-94384761D01*
G04 #@! TO.C,J2*
X171308360Y-75252195D02*
X171926950Y-75609338D01*
X172074477Y-75639527D01*
X172204575Y-75604667D01*
X172317243Y-75504759D01*
X172364862Y-75422280D01*
X171176553Y-75670968D02*
X171111504Y-75688397D01*
X171022646Y-75747067D01*
X170903598Y-75953263D01*
X170897219Y-76059551D01*
X170914648Y-76124600D01*
X170973317Y-76213458D01*
X171055796Y-76261077D01*
X171203323Y-76291267D01*
X171983909Y-76082109D01*
X171674386Y-76618220D01*
G04 #@! TO.C,C2*
X189396666Y-69487142D02*
X189444285Y-69534761D01*
X189587142Y-69582380D01*
X189682380Y-69582380D01*
X189825238Y-69534761D01*
X189920476Y-69439523D01*
X189968095Y-69344285D01*
X190015714Y-69153809D01*
X190015714Y-69010952D01*
X189968095Y-68820476D01*
X189920476Y-68725238D01*
X189825238Y-68630000D01*
X189682380Y-68582380D01*
X189587142Y-68582380D01*
X189444285Y-68630000D01*
X189396666Y-68677619D01*
X189015714Y-68677619D02*
X188968095Y-68630000D01*
X188872857Y-68582380D01*
X188634761Y-68582380D01*
X188539523Y-68630000D01*
X188491904Y-68677619D01*
X188444285Y-68772857D01*
X188444285Y-68868095D01*
X188491904Y-69010952D01*
X189063333Y-69582380D01*
X188444285Y-69582380D01*
G04 #@! TO.C,C1*
X206901142Y-93305333D02*
X206948761Y-93257714D01*
X206996380Y-93114857D01*
X206996380Y-93019619D01*
X206948761Y-92876761D01*
X206853523Y-92781523D01*
X206758285Y-92733904D01*
X206567809Y-92686285D01*
X206424952Y-92686285D01*
X206234476Y-92733904D01*
X206139238Y-92781523D01*
X206044000Y-92876761D01*
X205996380Y-93019619D01*
X205996380Y-93114857D01*
X206044000Y-93257714D01*
X206091619Y-93305333D01*
X206996380Y-94257714D02*
X206996380Y-93686285D01*
X206996380Y-93972000D02*
X205996380Y-93972000D01*
X206139238Y-93876761D01*
X206234476Y-93781523D01*
X206282095Y-93686285D01*
G04 #@! TO.C,Grove1*
D16*
X240030000Y-67945000D02*
X239987666Y-67860333D01*
X239987666Y-67733333D01*
X240030000Y-67606333D01*
X240114666Y-67521666D01*
X240199333Y-67479333D01*
X240368666Y-67437000D01*
X240495666Y-67437000D01*
X240665000Y-67479333D01*
X240749666Y-67521666D01*
X240834333Y-67606333D01*
X240876666Y-67733333D01*
X240876666Y-67818000D01*
X240834333Y-67945000D01*
X240792000Y-67987333D01*
X240495666Y-67987333D01*
X240495666Y-67818000D01*
X240876666Y-68368333D02*
X240284000Y-68368333D01*
X240453333Y-68368333D02*
X240368666Y-68410666D01*
X240326333Y-68453000D01*
X240284000Y-68537666D01*
X240284000Y-68622333D01*
X240876666Y-69045666D02*
X240834333Y-68961000D01*
X240792000Y-68918666D01*
X240707333Y-68876333D01*
X240453333Y-68876333D01*
X240368666Y-68918666D01*
X240326333Y-68961000D01*
X240284000Y-69045666D01*
X240284000Y-69172666D01*
X240326333Y-69257333D01*
X240368666Y-69299666D01*
X240453333Y-69342000D01*
X240707333Y-69342000D01*
X240792000Y-69299666D01*
X240834333Y-69257333D01*
X240876666Y-69172666D01*
X240876666Y-69045666D01*
X240284000Y-69638333D02*
X240876666Y-69850000D01*
X240284000Y-70061666D01*
X240834333Y-70739000D02*
X240876666Y-70654333D01*
X240876666Y-70485000D01*
X240834333Y-70400333D01*
X240749666Y-70358000D01*
X240411000Y-70358000D01*
X240326333Y-70400333D01*
X240284000Y-70485000D01*
X240284000Y-70654333D01*
X240326333Y-70739000D01*
X240411000Y-70781333D01*
X240495666Y-70781333D01*
X240580333Y-70358000D01*
X240876666Y-71628000D02*
X240876666Y-71120000D01*
X240876666Y-71374000D02*
X239987666Y-71374000D01*
X240114666Y-71289333D01*
X240199333Y-71204666D01*
X240241666Y-71120000D01*
X236389333Y-67331166D02*
X236431666Y-67458166D01*
X236431666Y-67669833D01*
X236389333Y-67754500D01*
X236347000Y-67796833D01*
X236262333Y-67839166D01*
X236177666Y-67839166D01*
X236093000Y-67796833D01*
X236050666Y-67754500D01*
X236008333Y-67669833D01*
X235966000Y-67500500D01*
X235923666Y-67415833D01*
X235881333Y-67373500D01*
X235796666Y-67331166D01*
X235712000Y-67331166D01*
X235627333Y-67373500D01*
X235585000Y-67415833D01*
X235542666Y-67500500D01*
X235542666Y-67712166D01*
X235585000Y-67839166D01*
X236431666Y-68220166D02*
X235542666Y-68220166D01*
X236177666Y-68516500D01*
X235542666Y-68812833D01*
X236431666Y-68812833D01*
X236431666Y-69236166D02*
X235542666Y-69236166D01*
X235542666Y-69447833D01*
X235585000Y-69574833D01*
X235669666Y-69659500D01*
X235754333Y-69701833D01*
X235923666Y-69744166D01*
X236050666Y-69744166D01*
X236220000Y-69701833D01*
X236304666Y-69659500D01*
X236389333Y-69574833D01*
X236431666Y-69447833D01*
X236431666Y-69236166D01*
X236431666Y-70844833D02*
X236431666Y-71014166D01*
X236389333Y-71098833D01*
X236347000Y-71141166D01*
X236220000Y-71225833D01*
X236050666Y-71268166D01*
X235712000Y-71268166D01*
X235627333Y-71225833D01*
X235585000Y-71183500D01*
X235542666Y-71098833D01*
X235542666Y-70929500D01*
X235585000Y-70844833D01*
X235627333Y-70802500D01*
X235712000Y-70760166D01*
X235923666Y-70760166D01*
X236008333Y-70802500D01*
X236050666Y-70844833D01*
X236093000Y-70929500D01*
X236093000Y-71098833D01*
X236050666Y-71183500D01*
X236008333Y-71225833D01*
X235923666Y-71268166D01*
X235542666Y-71818500D02*
X235542666Y-71903166D01*
X235585000Y-71987833D01*
X235627333Y-72030166D01*
X235712000Y-72072500D01*
X235881333Y-72114833D01*
X236093000Y-72114833D01*
X236262333Y-72072500D01*
X236347000Y-72030166D01*
X236389333Y-71987833D01*
X236431666Y-71903166D01*
X236431666Y-71818500D01*
X236389333Y-71733833D01*
X236347000Y-71691500D01*
X236262333Y-71649166D01*
X236093000Y-71606833D01*
X235881333Y-71606833D01*
X235712000Y-71649166D01*
X235627333Y-71691500D01*
X235585000Y-71733833D01*
X235542666Y-71818500D01*
G04 #@! TO.C,D8*
D15*
X206668380Y-81049904D02*
X205668380Y-81049904D01*
X205668380Y-81288000D01*
X205716000Y-81430857D01*
X205811238Y-81526095D01*
X205906476Y-81573714D01*
X206096952Y-81621333D01*
X206239809Y-81621333D01*
X206430285Y-81573714D01*
X206525523Y-81526095D01*
X206620761Y-81430857D01*
X206668380Y-81288000D01*
X206668380Y-81049904D01*
X206096952Y-82192761D02*
X206049333Y-82097523D01*
X206001714Y-82049904D01*
X205906476Y-82002285D01*
X205858857Y-82002285D01*
X205763619Y-82049904D01*
X205716000Y-82097523D01*
X205668380Y-82192761D01*
X205668380Y-82383238D01*
X205716000Y-82478476D01*
X205763619Y-82526095D01*
X205858857Y-82573714D01*
X205906476Y-82573714D01*
X206001714Y-82526095D01*
X206049333Y-82478476D01*
X206096952Y-82383238D01*
X206096952Y-82192761D01*
X206144571Y-82097523D01*
X206192190Y-82049904D01*
X206287428Y-82002285D01*
X206477904Y-82002285D01*
X206573142Y-82049904D01*
X206620761Y-82097523D01*
X206668380Y-82192761D01*
X206668380Y-82383238D01*
X206620761Y-82478476D01*
X206573142Y-82526095D01*
X206477904Y-82573714D01*
X206287428Y-82573714D01*
X206192190Y-82526095D01*
X206144571Y-82478476D01*
X206096952Y-82383238D01*
G04 #@! TO.C,R3*
X211398380Y-81113333D02*
X210922190Y-80780000D01*
X211398380Y-80541904D02*
X210398380Y-80541904D01*
X210398380Y-80922857D01*
X210446000Y-81018095D01*
X210493619Y-81065714D01*
X210588857Y-81113333D01*
X210731714Y-81113333D01*
X210826952Y-81065714D01*
X210874571Y-81018095D01*
X210922190Y-80922857D01*
X210922190Y-80541904D01*
X210398380Y-81446666D02*
X210398380Y-82065714D01*
X210779333Y-81732380D01*
X210779333Y-81875238D01*
X210826952Y-81970476D01*
X210874571Y-82018095D01*
X210969809Y-82065714D01*
X211207904Y-82065714D01*
X211303142Y-82018095D01*
X211350761Y-81970476D01*
X211398380Y-81875238D01*
X211398380Y-81589523D01*
X211350761Y-81494285D01*
X211303142Y-81446666D01*
G04 #@! TO.C,R2*
X169742380Y-72985333D02*
X169266190Y-72652000D01*
X169742380Y-72413904D02*
X168742380Y-72413904D01*
X168742380Y-72794857D01*
X168790000Y-72890095D01*
X168837619Y-72937714D01*
X168932857Y-72985333D01*
X169075714Y-72985333D01*
X169170952Y-72937714D01*
X169218571Y-72890095D01*
X169266190Y-72794857D01*
X169266190Y-72413904D01*
X168837619Y-73366285D02*
X168790000Y-73413904D01*
X168742380Y-73509142D01*
X168742380Y-73747238D01*
X168790000Y-73842476D01*
X168837619Y-73890095D01*
X168932857Y-73937714D01*
X169028095Y-73937714D01*
X169170952Y-73890095D01*
X169742380Y-73318666D01*
X169742380Y-73937714D01*
G04 #@! TO.C,R1*
X202762380Y-93813333D02*
X202286190Y-93480000D01*
X202762380Y-93241904D02*
X201762380Y-93241904D01*
X201762380Y-93622857D01*
X201810000Y-93718095D01*
X201857619Y-93765714D01*
X201952857Y-93813333D01*
X202095714Y-93813333D01*
X202190952Y-93765714D01*
X202238571Y-93718095D01*
X202286190Y-93622857D01*
X202286190Y-93241904D01*
X202762380Y-94765714D02*
X202762380Y-94194285D01*
X202762380Y-94480000D02*
X201762380Y-94480000D01*
X201905238Y-94384761D01*
X202000476Y-94289523D01*
X202048095Y-94194285D01*
G04 #@! TD*
M02*
