G04 #@! TF.GenerationSoftware,KiCad,Pcbnew,(5.0.1-3-g963ef8bb5)*
G04 #@! TF.CreationDate,2019-02-22T11:05:41+01:00*
G04 #@! TF.ProjectId,unicorn_pcb,756E69636F726E5F7063622E6B696361,rev?*
G04 #@! TF.SameCoordinates,Original*
G04 #@! TF.FileFunction,Soldermask,Top*
G04 #@! TF.FilePolarity,Negative*
%FSLAX46Y46*%
G04 Gerber Fmt 4.6, Leading zero omitted, Abs format (unit mm)*
G04 Created by KiCad (PCBNEW (5.0.1-3-g963ef8bb5)) date 2019 February 22, Friday 11:05:41*
%MOMM*%
%LPD*%
G01*
G04 APERTURE LIST*
%ADD10C,0.100000*%
G04 APERTURE END LIST*
D10*
G36*
X225462410Y-96511819D02*
X225423950Y-97613148D01*
X223822926Y-97557239D01*
X223861386Y-96455910D01*
X225462410Y-96511819D01*
X225462410Y-96511819D01*
G37*
G36*
X220565395Y-96340812D02*
X220526935Y-97442141D01*
X218925911Y-97386232D01*
X218964371Y-96284903D01*
X220565395Y-96340812D01*
X220565395Y-96340812D01*
G37*
G36*
X232947425Y-95987321D02*
X232431997Y-96284903D01*
X231560052Y-96788321D01*
X231560051Y-96788321D01*
X231009051Y-95833961D01*
X231702738Y-95433461D01*
X232396424Y-95032961D01*
X232396425Y-95032961D01*
X232947425Y-95987321D01*
X232947425Y-95987321D01*
G37*
G36*
X213368724Y-95154677D02*
X213083506Y-96219127D01*
X213083505Y-96219127D01*
X211536092Y-95804499D01*
X211821310Y-94740049D01*
X211821311Y-94740049D01*
X213368724Y-95154677D01*
X213368724Y-95154677D01*
G37*
G36*
X207332667Y-93537321D02*
X208635687Y-93886464D01*
X208350469Y-94950914D01*
X208350468Y-94950914D01*
X206803055Y-94536286D01*
X207088273Y-93471836D01*
X207088274Y-93471836D01*
X207332667Y-93537321D01*
X207332667Y-93537321D01*
G37*
G36*
X225574089Y-93313768D02*
X225535629Y-94415097D01*
X223934605Y-94359188D01*
X223973065Y-93257859D01*
X225574089Y-93313768D01*
X225574089Y-93313768D01*
G37*
G36*
X237190949Y-93537321D02*
X236586215Y-93886464D01*
X235803576Y-94338321D01*
X235803575Y-94338321D01*
X235252575Y-93383961D01*
X236413786Y-92713536D01*
X236639948Y-92582961D01*
X236639949Y-92582961D01*
X237190949Y-93537321D01*
X237190949Y-93537321D01*
G37*
G36*
X220677074Y-93142761D02*
X220638614Y-94244090D01*
X219037590Y-94188181D01*
X219043567Y-94017039D01*
X219076050Y-93086852D01*
X220677074Y-93142761D01*
X220677074Y-93142761D01*
G37*
G36*
X231347425Y-93216039D02*
X231056575Y-93383961D01*
X229960052Y-94017039D01*
X229960051Y-94017039D01*
X229409051Y-93062679D01*
X230239948Y-92582961D01*
X230796424Y-92261679D01*
X230796425Y-92261679D01*
X231347425Y-93216039D01*
X231347425Y-93216039D01*
G37*
G36*
X213436491Y-91859951D02*
X214196945Y-92063714D01*
X213911727Y-93128164D01*
X213911726Y-93128164D01*
X212364313Y-92713536D01*
X212649531Y-91649086D01*
X212649532Y-91649086D01*
X213436491Y-91859951D01*
X213436491Y-91859951D01*
G37*
G36*
X209353954Y-90766039D02*
X209463908Y-90795501D01*
X209178690Y-91859951D01*
X209178689Y-91859951D01*
X207631276Y-91445323D01*
X207916494Y-90380873D01*
X207916495Y-90380873D01*
X209353954Y-90766039D01*
X209353954Y-90766039D01*
G37*
G36*
X235590949Y-90766039D02*
X234897262Y-91166539D01*
X234203576Y-91567039D01*
X234203575Y-91567039D01*
X233652575Y-90612679D01*
X234346262Y-90212179D01*
X235039948Y-89811679D01*
X235039949Y-89811679D01*
X235590949Y-90766039D01*
X235590949Y-90766039D01*
G37*
G36*
X241791150Y-85880183D02*
X241458076Y-87447176D01*
X241458075Y-87447176D01*
X240380156Y-87218057D01*
X240472873Y-86781859D01*
X240713230Y-85651064D01*
X240713231Y-85651064D01*
X241791150Y-85880183D01*
X241791150Y-85880183D01*
G37*
G36*
X187351000Y-87151000D02*
X185749000Y-87151000D01*
X185749000Y-86049000D01*
X187351000Y-86049000D01*
X187351000Y-87151000D01*
X187351000Y-87151000D01*
G37*
G36*
X192251000Y-87151000D02*
X190649000Y-87151000D01*
X190649000Y-86049000D01*
X192251000Y-86049000D01*
X192251000Y-87151000D01*
X192251000Y-87151000D01*
G37*
G36*
X238661077Y-85214866D02*
X238328003Y-86781859D01*
X238328002Y-86781859D01*
X237250083Y-86552740D01*
X237357156Y-86049000D01*
X237583157Y-84985747D01*
X237583158Y-84985747D01*
X238661077Y-85214866D01*
X238661077Y-85214866D01*
G37*
G36*
X182077050Y-84520559D02*
X181297818Y-85299791D01*
X180165032Y-84167005D01*
X180944264Y-83387773D01*
X182077050Y-84520559D01*
X182077050Y-84520559D01*
G37*
G36*
X197834968Y-84167005D02*
X196702182Y-85299791D01*
X195922950Y-84520559D01*
X197055736Y-83387773D01*
X197834968Y-84167005D01*
X197834968Y-84167005D01*
G37*
G36*
X187351000Y-83951000D02*
X185749000Y-83951000D01*
X185749000Y-82849000D01*
X187351000Y-82849000D01*
X187351000Y-83951000D01*
X187351000Y-83951000D01*
G37*
G36*
X192251000Y-83951000D02*
X190649000Y-83951000D01*
X190649000Y-82849000D01*
X192251000Y-82849000D01*
X192251000Y-83951000D01*
X192251000Y-83951000D01*
G37*
G36*
X195572227Y-81904264D02*
X194439441Y-83037050D01*
X193660209Y-82257818D01*
X194792995Y-81125032D01*
X195572227Y-81904264D01*
X195572227Y-81904264D01*
G37*
G36*
X184339791Y-82257818D02*
X183560559Y-83037050D01*
X182427773Y-81904264D01*
X183207005Y-81125032D01*
X184339791Y-82257818D01*
X184339791Y-82257818D01*
G37*
G36*
X242496843Y-81020714D02*
X242809917Y-81087260D01*
X242476843Y-82654253D01*
X242476842Y-82654253D01*
X241398923Y-82425134D01*
X241504632Y-81927811D01*
X241731997Y-80858141D01*
X241731998Y-80858141D01*
X242496843Y-81020714D01*
X242496843Y-81020714D01*
G37*
G36*
X239667715Y-80419365D02*
X239679844Y-80421943D01*
X239346770Y-81988936D01*
X239346769Y-81988936D01*
X238268850Y-81759817D01*
X238382791Y-81223765D01*
X238601924Y-80192824D01*
X238601925Y-80192824D01*
X239667715Y-80419365D01*
X239667715Y-80419365D01*
G37*
G36*
X161949109Y-79906589D02*
X162140378Y-79985815D01*
X162312520Y-80100837D01*
X162458907Y-80247224D01*
X162573929Y-80419366D01*
X162653155Y-80610635D01*
X162693544Y-80813684D01*
X162693544Y-81020716D01*
X162653155Y-81223765D01*
X162573929Y-81415034D01*
X162458907Y-81587176D01*
X162312520Y-81733563D01*
X162140378Y-81848585D01*
X161949109Y-81927811D01*
X161746060Y-81968200D01*
X161539028Y-81968200D01*
X161335979Y-81927811D01*
X161144710Y-81848585D01*
X160972568Y-81733563D01*
X160826181Y-81587176D01*
X160711159Y-81415034D01*
X160631933Y-81223765D01*
X160591544Y-81020716D01*
X160591544Y-80813684D01*
X160631933Y-80610635D01*
X160711159Y-80419366D01*
X160826181Y-80247224D01*
X160972568Y-80100837D01*
X161144710Y-79985815D01*
X161335979Y-79906589D01*
X161539028Y-79866200D01*
X161746060Y-79866200D01*
X161949109Y-79906589D01*
X161949109Y-79906589D01*
G37*
G36*
X201299791Y-80702182D02*
X200167005Y-81834968D01*
X199387773Y-81055736D01*
X200520559Y-79922950D01*
X201299791Y-80702182D01*
X201299791Y-80702182D01*
G37*
G36*
X178612227Y-81055736D02*
X177832995Y-81834968D01*
X176700209Y-80702182D01*
X177479441Y-79922950D01*
X178612227Y-81055736D01*
X178612227Y-81055736D01*
G37*
G36*
X199037050Y-78439441D02*
X197904264Y-79572227D01*
X197125032Y-78792995D01*
X198257818Y-77660209D01*
X199037050Y-78439441D01*
X199037050Y-78439441D01*
G37*
G36*
X180874968Y-78792995D02*
X180095736Y-79572227D01*
X178962950Y-78439441D01*
X179742182Y-77660209D01*
X180874968Y-78792995D01*
X180874968Y-78792995D01*
G37*
G36*
X159056565Y-76459389D02*
X159247834Y-76538615D01*
X159419976Y-76653637D01*
X159566363Y-76800024D01*
X159681385Y-76972166D01*
X159760611Y-77163435D01*
X159801000Y-77366484D01*
X159801000Y-77573516D01*
X159760611Y-77776565D01*
X159681385Y-77967834D01*
X159566363Y-78139976D01*
X159419976Y-78286363D01*
X159247834Y-78401385D01*
X159056565Y-78480611D01*
X158853516Y-78521000D01*
X158646484Y-78521000D01*
X158443435Y-78480611D01*
X158252166Y-78401385D01*
X158080024Y-78286363D01*
X157933637Y-78139976D01*
X157818615Y-77967834D01*
X157739389Y-77776565D01*
X157699000Y-77573516D01*
X157699000Y-77366484D01*
X157739389Y-77163435D01*
X157818615Y-76972166D01*
X157933637Y-76800024D01*
X158080024Y-76653637D01*
X158252166Y-76538615D01*
X158443435Y-76459389D01*
X158646484Y-76419000D01*
X158853516Y-76419000D01*
X159056565Y-76459389D01*
X159056565Y-76459389D01*
G37*
G36*
X166928398Y-75728470D02*
X167119667Y-75807696D01*
X167291809Y-75922718D01*
X167438196Y-76069105D01*
X167553218Y-76241247D01*
X167632444Y-76432516D01*
X167672833Y-76635565D01*
X167672833Y-76842597D01*
X167632444Y-77045646D01*
X167553218Y-77236915D01*
X167438196Y-77409057D01*
X167291809Y-77555444D01*
X167119667Y-77670466D01*
X166928398Y-77749692D01*
X166725349Y-77790081D01*
X166518317Y-77790081D01*
X166315268Y-77749692D01*
X166123999Y-77670466D01*
X165951857Y-77555444D01*
X165805470Y-77409057D01*
X165690448Y-77236915D01*
X165611222Y-77045646D01*
X165570833Y-76842597D01*
X165570833Y-76635565D01*
X165611222Y-76432516D01*
X165690448Y-76241247D01*
X165805470Y-76069105D01*
X165951857Y-75922718D01*
X166123999Y-75807696D01*
X166315268Y-75728470D01*
X166518317Y-75688081D01*
X166725349Y-75688081D01*
X166928398Y-75728470D01*
X166928398Y-75728470D01*
G37*
G36*
X240031467Y-76383767D02*
X238946209Y-76575127D01*
X238668025Y-74997465D01*
X239753283Y-74806105D01*
X240031467Y-76383767D01*
X240031467Y-76383767D01*
G37*
G36*
X199951000Y-76251000D02*
X198849000Y-76251000D01*
X198849000Y-74649000D01*
X199951000Y-74649000D01*
X199951000Y-76251000D01*
X199951000Y-76251000D01*
G37*
G36*
X203151000Y-76251000D02*
X202049000Y-76251000D01*
X202049000Y-74649000D01*
X203151000Y-74649000D01*
X203151000Y-76251000D01*
X203151000Y-76251000D01*
G37*
G36*
X179151000Y-76251000D02*
X178049000Y-76251000D01*
X178049000Y-74649000D01*
X179151000Y-74649000D01*
X179151000Y-76251000D01*
X179151000Y-76251000D01*
G37*
G36*
X175951000Y-76251000D02*
X174849000Y-76251000D01*
X174849000Y-74649000D01*
X175951000Y-74649000D01*
X175951000Y-76251000D01*
X175951000Y-76251000D01*
G37*
G36*
X243182851Y-75828093D02*
X242097593Y-76019453D01*
X241819409Y-74441791D01*
X242904667Y-74250431D01*
X243182851Y-75828093D01*
X243182851Y-75828093D01*
G37*
G36*
X192251000Y-75151000D02*
X190649000Y-75151000D01*
X190649000Y-74049000D01*
X192251000Y-74049000D01*
X192251000Y-75151000D01*
X192251000Y-75151000D01*
G37*
G36*
X187351000Y-75151000D02*
X185749000Y-75151000D01*
X185749000Y-74049000D01*
X187351000Y-74049000D01*
X187351000Y-75151000D01*
X187351000Y-75151000D01*
G37*
G36*
X164035854Y-72281270D02*
X164227123Y-72360496D01*
X164399265Y-72475518D01*
X164545652Y-72621905D01*
X164660674Y-72794047D01*
X164739900Y-72985316D01*
X164780289Y-73188365D01*
X164780289Y-73395397D01*
X164739900Y-73598446D01*
X164660674Y-73789715D01*
X164545652Y-73961857D01*
X164399265Y-74108244D01*
X164227123Y-74223266D01*
X164035854Y-74302492D01*
X163832805Y-74342881D01*
X163625773Y-74342881D01*
X163422724Y-74302492D01*
X163231455Y-74223266D01*
X163059313Y-74108244D01*
X162912926Y-73961857D01*
X162797904Y-73789715D01*
X162718678Y-73598446D01*
X162678289Y-73395397D01*
X162678289Y-73188365D01*
X162718678Y-72985316D01*
X162797904Y-72794047D01*
X162912926Y-72621905D01*
X163059313Y-72475518D01*
X163231455Y-72360496D01*
X163422724Y-72281270D01*
X163625773Y-72240881D01*
X163832805Y-72240881D01*
X164035854Y-72281270D01*
X164035854Y-72281270D01*
G37*
G36*
X187351000Y-71951000D02*
X185749000Y-71951000D01*
X185749000Y-70849000D01*
X187351000Y-70849000D01*
X187351000Y-71951000D01*
X187351000Y-71951000D01*
G37*
G36*
X192251000Y-71951000D02*
X190649000Y-71951000D01*
X190649000Y-70849000D01*
X192251000Y-70849000D01*
X192251000Y-71951000D01*
X192251000Y-71951000D01*
G37*
G36*
X239180591Y-71558209D02*
X238095333Y-71749569D01*
X237817149Y-70171907D01*
X238902407Y-69980547D01*
X239180591Y-71558209D01*
X239180591Y-71558209D01*
G37*
G36*
X179151000Y-71351000D02*
X178049000Y-71351000D01*
X178049000Y-69749000D01*
X179151000Y-69749000D01*
X179151000Y-71351000D01*
X179151000Y-71351000D01*
G37*
G36*
X175951000Y-71351000D02*
X174849000Y-71351000D01*
X174849000Y-69749000D01*
X175951000Y-69749000D01*
X175951000Y-71351000D01*
X175951000Y-71351000D01*
G37*
G36*
X203151000Y-71351000D02*
X202049000Y-71351000D01*
X202049000Y-69749000D01*
X203151000Y-69749000D01*
X203151000Y-71351000D01*
X203151000Y-71351000D01*
G37*
G36*
X199951000Y-71351000D02*
X198849000Y-71351000D01*
X198849000Y-69749000D01*
X199951000Y-69749000D01*
X199951000Y-71351000D01*
X199951000Y-71351000D01*
G37*
G36*
X242331975Y-71002535D02*
X241246717Y-71193895D01*
X240968533Y-69616233D01*
X242053791Y-69424873D01*
X242331975Y-71002535D01*
X242331975Y-71002535D01*
G37*
G36*
X180874968Y-67207005D02*
X179742182Y-68339791D01*
X178962950Y-67560559D01*
X180095736Y-66427773D01*
X180874968Y-67207005D01*
X180874968Y-67207005D01*
G37*
G36*
X199037050Y-67560559D02*
X198257818Y-68339791D01*
X197125032Y-67207005D01*
X197904264Y-66427773D01*
X199037050Y-67560559D01*
X199037050Y-67560559D01*
G37*
G36*
X236786122Y-66164695D02*
X235941941Y-66873047D01*
X234912196Y-65645843D01*
X235756377Y-64937491D01*
X236786122Y-66164695D01*
X236786122Y-66164695D01*
G37*
G36*
X201299791Y-65297818D02*
X200520559Y-66077050D01*
X199387773Y-64944264D01*
X200167005Y-64165032D01*
X201299791Y-65297818D01*
X201299791Y-65297818D01*
G37*
G36*
X178612227Y-64944264D02*
X177479441Y-66077050D01*
X176700209Y-65297818D01*
X177832995Y-64165032D01*
X178612227Y-64944264D01*
X178612227Y-64944264D01*
G37*
G36*
X195572227Y-64095736D02*
X194792995Y-64874968D01*
X193660209Y-63742182D01*
X194439441Y-62962950D01*
X195572227Y-64095736D01*
X195572227Y-64095736D01*
G37*
G36*
X184339791Y-63742182D02*
X183207005Y-64874968D01*
X182427773Y-64095736D01*
X183560559Y-62962950D01*
X184339791Y-63742182D01*
X184339791Y-63742182D01*
G37*
G36*
X239237464Y-64107775D02*
X238393283Y-64816127D01*
X237363538Y-63588923D01*
X238207719Y-62880571D01*
X239237464Y-64107775D01*
X239237464Y-64107775D01*
G37*
G36*
X187351000Y-63151000D02*
X185749000Y-63151000D01*
X185749000Y-62049000D01*
X187351000Y-62049000D01*
X187351000Y-63151000D01*
X187351000Y-63151000D01*
G37*
G36*
X192251000Y-63151000D02*
X190649000Y-63151000D01*
X190649000Y-62049000D01*
X192251000Y-62049000D01*
X192251000Y-63151000D01*
X192251000Y-63151000D01*
G37*
G36*
X233636462Y-62411077D02*
X232792281Y-63119429D01*
X231762536Y-61892225D01*
X232606717Y-61183873D01*
X233636462Y-62411077D01*
X233636462Y-62411077D01*
G37*
G36*
X182077050Y-61479441D02*
X180944264Y-62612227D01*
X180165032Y-61832995D01*
X181297818Y-60700209D01*
X182077050Y-61479441D01*
X182077050Y-61479441D01*
G37*
G36*
X197834968Y-61832995D02*
X197055736Y-62612227D01*
X195922950Y-61479441D01*
X196702182Y-60700209D01*
X197834968Y-61832995D01*
X197834968Y-61832995D01*
G37*
G36*
X236087804Y-60354157D02*
X235243623Y-61062509D01*
X234213878Y-59835305D01*
X235058059Y-59126953D01*
X236087804Y-60354157D01*
X236087804Y-60354157D01*
G37*
G36*
X187351000Y-59951000D02*
X185749000Y-59951000D01*
X185749000Y-58849000D01*
X187351000Y-58849000D01*
X187351000Y-59951000D01*
X187351000Y-59951000D01*
G37*
G36*
X192251000Y-59951000D02*
X190649000Y-59951000D01*
X190649000Y-58849000D01*
X192251000Y-58849000D01*
X192251000Y-59951000D01*
X192251000Y-59951000D01*
G37*
M02*
