G04 #@! TF.GenerationSoftware,KiCad,Pcbnew,(5.0.1-3-g963ef8bb5)*
G04 #@! TF.CreationDate,2019-04-21T20:34:48+02:00*
G04 #@! TF.ProjectId,unicorn_pcb,756E69636F726E5F7063622E6B696361,rev?*
G04 #@! TF.SameCoordinates,Original*
G04 #@! TF.FileFunction,Legend,Top*
G04 #@! TF.FilePolarity,Positive*
%FSLAX46Y46*%
G04 Gerber Fmt 4.6, Leading zero omitted, Abs format (unit mm)*
G04 Created by KiCad (PCBNEW (5.0.1-3-g963ef8bb5)) date Sunday, 21 April 2019 at 20:34:48*
%MOMM*%
%LPD*%
G01*
G04 APERTURE LIST*
%ADD10C,0.120000*%
%ADD11C,0.010000*%
%ADD12C,0.150000*%
G04 APERTURE END LIST*
D10*
G04 #@! TO.C,SW1*
X163051376Y-81040457D02*
X166498576Y-78147913D01*
X159522670Y-78779764D02*
X160486852Y-79928830D01*
X162320457Y-73168624D02*
X158873257Y-76061168D01*
X165849163Y-75429317D02*
X164884981Y-74280250D01*
G04 #@! TO.C,D9*
X185350000Y-70250000D02*
X192650000Y-70250000D01*
X185350000Y-75750000D02*
X192650000Y-75750000D01*
X192650000Y-75750000D02*
X192650000Y-74600000D01*
G04 #@! TO.C,D17*
X185045483Y-63883604D02*
X179883604Y-69045483D01*
X181156396Y-59994517D02*
X175994517Y-65156396D01*
X175994517Y-65156396D02*
X176807689Y-65969569D01*
G04 #@! TO.C,D16*
X174250000Y-76650000D02*
X175400000Y-76650000D01*
X174250000Y-69350000D02*
X174250000Y-76650000D01*
X179750000Y-69350000D02*
X179750000Y-76650000D01*
G04 #@! TO.C,D15*
X179883604Y-76954517D02*
X185045483Y-82116396D01*
X175994517Y-80843604D02*
X181156396Y-86005483D01*
X181156396Y-86005483D02*
X181969569Y-85192311D01*
G04 #@! TO.C,D14*
X192650000Y-87750000D02*
X192650000Y-86600000D01*
X185350000Y-87750000D02*
X192650000Y-87750000D01*
X185350000Y-82250000D02*
X192650000Y-82250000D01*
G04 #@! TO.C,D13*
X192954517Y-82116396D02*
X198116396Y-76954517D01*
X196843604Y-86005483D02*
X202005483Y-80843604D01*
X202005483Y-80843604D02*
X201192311Y-80030431D01*
G04 #@! TO.C,D12*
X203750000Y-69350000D02*
X202600000Y-69350000D01*
X203750000Y-76650000D02*
X203750000Y-69350000D01*
X198250000Y-76650000D02*
X198250000Y-69350000D01*
G04 #@! TO.C,D11*
X198116396Y-69045483D02*
X192954517Y-63883604D01*
X202005483Y-65156396D02*
X196843604Y-59994517D01*
X196843604Y-59994517D02*
X196030431Y-60807689D01*
G04 #@! TO.C,D10*
X185350000Y-58250000D02*
X185350000Y-59400000D01*
X192650000Y-58250000D02*
X185350000Y-58250000D01*
X192650000Y-63750000D02*
X185350000Y-63750000D01*
G04 #@! TO.C,D2*
X218698197Y-92474292D02*
X218658063Y-93623592D01*
X225993750Y-92729058D02*
X218698197Y-92474292D01*
X225801803Y-98225708D02*
X218506250Y-97970942D01*
G04 #@! TO.C,D4*
X236581216Y-86818482D02*
X237706086Y-87057580D01*
X238098972Y-79678004D02*
X236581216Y-86818482D01*
X243478784Y-80821518D02*
X241961028Y-87961996D01*
G04 #@! TO.C,D1*
X213313877Y-96900986D02*
X206262618Y-95011607D01*
X214737382Y-91588393D02*
X207686123Y-89699014D01*
X207686123Y-89699014D02*
X207388481Y-90809829D01*
G04 #@! TO.C,D3*
X237835993Y-93856570D02*
X231514007Y-97506570D01*
X235085993Y-89093430D02*
X228764007Y-92743430D01*
X228764007Y-92743430D02*
X229339007Y-93739359D01*
G04 #@! TO.C,D5*
X242574405Y-68927919D02*
X243842037Y-76117016D01*
X237157963Y-69882984D02*
X238425595Y-77072081D01*
X238425595Y-77072081D02*
X239558123Y-76872385D01*
G04 #@! TO.C,D6*
X235739553Y-67563728D02*
X236620504Y-66824522D01*
X231047203Y-61971604D02*
X235739553Y-67563728D01*
X235260447Y-58436272D02*
X239952797Y-64028396D01*
D11*
G04 #@! TO.C,G\002A\002A\002A*
G36*
X172228531Y-49699295D02*
X172320402Y-49932325D01*
X172405363Y-50174794D01*
X172478036Y-50344250D01*
X172503354Y-50384285D01*
X172603987Y-50382273D01*
X172815588Y-50325129D01*
X173093161Y-50225109D01*
X173104668Y-50220523D01*
X173450405Y-50087491D01*
X173669301Y-50023237D01*
X173789794Y-50027581D01*
X173840321Y-50100340D01*
X173849499Y-50215796D01*
X173773495Y-50473754D01*
X173571411Y-50735499D01*
X173282134Y-50964183D01*
X172944550Y-51122959D01*
X172869525Y-51144382D01*
X172595910Y-51231562D01*
X172429738Y-51348077D01*
X172309211Y-51538227D01*
X172303393Y-51550216D01*
X172151766Y-51895980D01*
X172092380Y-52129763D01*
X172123944Y-52281422D01*
X172245167Y-52380811D01*
X172267002Y-52391249D01*
X172413281Y-52436584D01*
X172574769Y-52424380D01*
X172803499Y-52345584D01*
X172987136Y-52265955D01*
X173252895Y-52150113D01*
X173453791Y-52068897D01*
X173541559Y-52040970D01*
X173596449Y-52109321D01*
X173579067Y-52288859D01*
X173497934Y-52541307D01*
X173369544Y-52813844D01*
X173081553Y-53190466D01*
X172716319Y-53436952D01*
X172305162Y-53545218D01*
X171879400Y-53507178D01*
X171470352Y-53314746D01*
X171459362Y-53306999D01*
X171286426Y-53197086D01*
X171159215Y-53186145D01*
X170988197Y-53270364D01*
X170961958Y-53285810D01*
X170791697Y-53411393D01*
X170723211Y-53553446D01*
X170751936Y-53754524D01*
X170873310Y-54057184D01*
X170878120Y-54067805D01*
X170978314Y-54312070D01*
X171038430Y-54503907D01*
X171046154Y-54556267D01*
X170977935Y-54651075D01*
X170798088Y-54665644D01*
X170543829Y-54601660D01*
X170369756Y-54525620D01*
X170076249Y-54287981D01*
X169874379Y-53982440D01*
X169738549Y-53748982D01*
X169588544Y-53597457D01*
X169366333Y-53479964D01*
X169177260Y-53406987D01*
X168614517Y-53121348D01*
X168134298Y-52718914D01*
X167756215Y-52227871D01*
X167499881Y-51676404D01*
X167384911Y-51092699D01*
X167384310Y-50830435D01*
X167426886Y-50707551D01*
X167540464Y-50707068D01*
X167737010Y-50833089D01*
X167963537Y-51029142D01*
X168454242Y-51405771D01*
X168944630Y-51622993D01*
X169457035Y-51689783D01*
X169592884Y-51683900D01*
X170197086Y-51557248D01*
X170734275Y-51281450D01*
X171187642Y-50869674D01*
X171540374Y-50335087D01*
X171658874Y-50065639D01*
X171816843Y-49720613D01*
X171963518Y-49544734D01*
X172100285Y-49537721D01*
X172228531Y-49699295D01*
X172228531Y-49699295D01*
G37*
X172228531Y-49699295D02*
X172320402Y-49932325D01*
X172405363Y-50174794D01*
X172478036Y-50344250D01*
X172503354Y-50384285D01*
X172603987Y-50382273D01*
X172815588Y-50325129D01*
X173093161Y-50225109D01*
X173104668Y-50220523D01*
X173450405Y-50087491D01*
X173669301Y-50023237D01*
X173789794Y-50027581D01*
X173840321Y-50100340D01*
X173849499Y-50215796D01*
X173773495Y-50473754D01*
X173571411Y-50735499D01*
X173282134Y-50964183D01*
X172944550Y-51122959D01*
X172869525Y-51144382D01*
X172595910Y-51231562D01*
X172429738Y-51348077D01*
X172309211Y-51538227D01*
X172303393Y-51550216D01*
X172151766Y-51895980D01*
X172092380Y-52129763D01*
X172123944Y-52281422D01*
X172245167Y-52380811D01*
X172267002Y-52391249D01*
X172413281Y-52436584D01*
X172574769Y-52424380D01*
X172803499Y-52345584D01*
X172987136Y-52265955D01*
X173252895Y-52150113D01*
X173453791Y-52068897D01*
X173541559Y-52040970D01*
X173596449Y-52109321D01*
X173579067Y-52288859D01*
X173497934Y-52541307D01*
X173369544Y-52813844D01*
X173081553Y-53190466D01*
X172716319Y-53436952D01*
X172305162Y-53545218D01*
X171879400Y-53507178D01*
X171470352Y-53314746D01*
X171459362Y-53306999D01*
X171286426Y-53197086D01*
X171159215Y-53186145D01*
X170988197Y-53270364D01*
X170961958Y-53285810D01*
X170791697Y-53411393D01*
X170723211Y-53553446D01*
X170751936Y-53754524D01*
X170873310Y-54057184D01*
X170878120Y-54067805D01*
X170978314Y-54312070D01*
X171038430Y-54503907D01*
X171046154Y-54556267D01*
X170977935Y-54651075D01*
X170798088Y-54665644D01*
X170543829Y-54601660D01*
X170369756Y-54525620D01*
X170076249Y-54287981D01*
X169874379Y-53982440D01*
X169738549Y-53748982D01*
X169588544Y-53597457D01*
X169366333Y-53479964D01*
X169177260Y-53406987D01*
X168614517Y-53121348D01*
X168134298Y-52718914D01*
X167756215Y-52227871D01*
X167499881Y-51676404D01*
X167384911Y-51092699D01*
X167384310Y-50830435D01*
X167426886Y-50707551D01*
X167540464Y-50707068D01*
X167737010Y-50833089D01*
X167963537Y-51029142D01*
X168454242Y-51405771D01*
X168944630Y-51622993D01*
X169457035Y-51689783D01*
X169592884Y-51683900D01*
X170197086Y-51557248D01*
X170734275Y-51281450D01*
X171187642Y-50869674D01*
X171540374Y-50335087D01*
X171658874Y-50065639D01*
X171816843Y-49720613D01*
X171963518Y-49544734D01*
X172100285Y-49537721D01*
X172228531Y-49699295D01*
G36*
X162692519Y-58909406D02*
X162981034Y-59117346D01*
X163164520Y-59446660D01*
X163230723Y-59883234D01*
X163230769Y-59896284D01*
X163198424Y-60275958D01*
X163096609Y-60510689D01*
X162918155Y-60613598D01*
X162834888Y-60620903D01*
X162689055Y-60605975D01*
X162647573Y-60527472D01*
X162679648Y-60344816D01*
X162737228Y-59963312D01*
X162697836Y-59686992D01*
X162589157Y-59511595D01*
X162394840Y-59374052D01*
X162219719Y-59390956D01*
X162078530Y-59546911D01*
X161986006Y-59826523D01*
X161956522Y-60172581D01*
X161946982Y-60439286D01*
X161909765Y-60575418D01*
X161831974Y-60619659D01*
X161807057Y-60620903D01*
X161647154Y-60554654D01*
X161552207Y-60452156D01*
X161483527Y-60258279D01*
X161448123Y-59994383D01*
X161446823Y-59938238D01*
X161508330Y-59525896D01*
X161677377Y-59185703D01*
X161930755Y-58947228D01*
X162245256Y-58840041D01*
X162311226Y-58836956D01*
X162692519Y-58909406D01*
X162692519Y-58909406D01*
G37*
X162692519Y-58909406D02*
X162981034Y-59117346D01*
X163164520Y-59446660D01*
X163230723Y-59883234D01*
X163230769Y-59896284D01*
X163198424Y-60275958D01*
X163096609Y-60510689D01*
X162918155Y-60613598D01*
X162834888Y-60620903D01*
X162689055Y-60605975D01*
X162647573Y-60527472D01*
X162679648Y-60344816D01*
X162737228Y-59963312D01*
X162697836Y-59686992D01*
X162589157Y-59511595D01*
X162394840Y-59374052D01*
X162219719Y-59390956D01*
X162078530Y-59546911D01*
X161986006Y-59826523D01*
X161956522Y-60172581D01*
X161946982Y-60439286D01*
X161909765Y-60575418D01*
X161831974Y-60619659D01*
X161807057Y-60620903D01*
X161647154Y-60554654D01*
X161552207Y-60452156D01*
X161483527Y-60258279D01*
X161448123Y-59994383D01*
X161446823Y-59938238D01*
X161508330Y-59525896D01*
X161677377Y-59185703D01*
X161930755Y-58947228D01*
X162245256Y-58840041D01*
X162311226Y-58836956D01*
X162692519Y-58909406D01*
G36*
X158047378Y-59587715D02*
X158101675Y-59631352D01*
X158250846Y-59792957D01*
X158321148Y-59985276D01*
X158340025Y-60247239D01*
X158334240Y-60499334D01*
X158296742Y-60623846D01*
X158211884Y-60662327D01*
X158183334Y-60663378D01*
X158027257Y-60582662D01*
X157938315Y-60408528D01*
X157815490Y-60115469D01*
X157698907Y-59983438D01*
X157604542Y-60011233D01*
X157548373Y-60197654D01*
X157540839Y-60438389D01*
X157549848Y-60826859D01*
X157539982Y-61069292D01*
X157503634Y-61189179D01*
X157433200Y-61210008D01*
X157321075Y-61155268D01*
X157310833Y-61148810D01*
X157179275Y-60982036D01*
X157081025Y-60697734D01*
X157032106Y-60347390D01*
X157029432Y-60244555D01*
X157088221Y-59873289D01*
X157246518Y-59606470D01*
X157477215Y-59459600D01*
X157753204Y-59448180D01*
X158047378Y-59587715D01*
X158047378Y-59587715D01*
G37*
X158047378Y-59587715D02*
X158101675Y-59631352D01*
X158250846Y-59792957D01*
X158321148Y-59985276D01*
X158340025Y-60247239D01*
X158334240Y-60499334D01*
X158296742Y-60623846D01*
X158211884Y-60662327D01*
X158183334Y-60663378D01*
X158027257Y-60582662D01*
X157938315Y-60408528D01*
X157815490Y-60115469D01*
X157698907Y-59983438D01*
X157604542Y-60011233D01*
X157548373Y-60197654D01*
X157540839Y-60438389D01*
X157549848Y-60826859D01*
X157539982Y-61069292D01*
X157503634Y-61189179D01*
X157433200Y-61210008D01*
X157321075Y-61155268D01*
X157310833Y-61148810D01*
X157179275Y-60982036D01*
X157081025Y-60697734D01*
X157032106Y-60347390D01*
X157029432Y-60244555D01*
X157088221Y-59873289D01*
X157246518Y-59606470D01*
X157477215Y-59459600D01*
X157753204Y-59448180D01*
X158047378Y-59587715D01*
G36*
X167230587Y-61470082D02*
X167285405Y-61608521D01*
X167263692Y-61861200D01*
X167166423Y-62246078D01*
X167146393Y-62312980D01*
X166889914Y-62939915D01*
X166526408Y-63522932D01*
X166079949Y-64040738D01*
X165574610Y-64472040D01*
X165034465Y-64795545D01*
X164483589Y-64989960D01*
X164065135Y-65038294D01*
X163847297Y-65021585D01*
X163754317Y-64957304D01*
X163740468Y-64877943D01*
X163785006Y-64775083D01*
X163934354Y-64663723D01*
X164212118Y-64528532D01*
X164398830Y-64450333D01*
X165047172Y-64146252D01*
X165563928Y-63801181D01*
X165979511Y-63383828D01*
X166324334Y-62862903D01*
X166628811Y-62207116D01*
X166662869Y-62120985D01*
X166809352Y-61768071D01*
X166924327Y-61552447D01*
X167023987Y-61448336D01*
X167098260Y-61427926D01*
X167230587Y-61470082D01*
X167230587Y-61470082D01*
G37*
X167230587Y-61470082D02*
X167285405Y-61608521D01*
X167263692Y-61861200D01*
X167166423Y-62246078D01*
X167146393Y-62312980D01*
X166889914Y-62939915D01*
X166526408Y-63522932D01*
X166079949Y-64040738D01*
X165574610Y-64472040D01*
X165034465Y-64795545D01*
X164483589Y-64989960D01*
X164065135Y-65038294D01*
X163847297Y-65021585D01*
X163754317Y-64957304D01*
X163740468Y-64877943D01*
X163785006Y-64775083D01*
X163934354Y-64663723D01*
X164212118Y-64528532D01*
X164398830Y-64450333D01*
X165047172Y-64146252D01*
X165563928Y-63801181D01*
X165979511Y-63383828D01*
X166324334Y-62862903D01*
X166628811Y-62207116D01*
X166662869Y-62120985D01*
X166809352Y-61768071D01*
X166924327Y-61552447D01*
X167023987Y-61448336D01*
X167098260Y-61427926D01*
X167230587Y-61470082D01*
G36*
X177459995Y-19678240D02*
X178318585Y-19736353D01*
X179007189Y-19836959D01*
X179525091Y-19946622D01*
X180002004Y-20069926D01*
X180462352Y-20217624D01*
X180930559Y-20400474D01*
X181431048Y-20629230D01*
X181988243Y-20914647D01*
X182626568Y-21267481D01*
X183370447Y-21698488D01*
X183765729Y-21932463D01*
X184592463Y-22416040D01*
X185303843Y-22812882D01*
X185923226Y-23134361D01*
X186473971Y-23391849D01*
X186979435Y-23596717D01*
X187462975Y-23760336D01*
X187609230Y-23803646D01*
X188032115Y-23916308D01*
X188370497Y-23979026D01*
X188699271Y-24000656D01*
X189093334Y-23990053D01*
X189156560Y-23986581D01*
X189570068Y-23953484D01*
X189887848Y-23897007D01*
X190184009Y-23798222D01*
X190532665Y-23638203D01*
X190545471Y-23631883D01*
X191253527Y-23201331D01*
X191820813Y-22677070D01*
X192251578Y-22053909D01*
X192550067Y-21326660D01*
X192608625Y-21111405D01*
X192697698Y-20781202D01*
X192774487Y-20587323D01*
X192854796Y-20498531D01*
X192926975Y-20482107D01*
X193004320Y-20497308D01*
X193054666Y-20563916D01*
X193085495Y-20713435D01*
X193104291Y-20977371D01*
X193115146Y-21274292D01*
X193095040Y-22021651D01*
X192974479Y-22696446D01*
X192738094Y-23371641D01*
X192617147Y-23638376D01*
X192245783Y-24290806D01*
X191750575Y-24969700D01*
X191163911Y-25634749D01*
X190531918Y-26233821D01*
X190227279Y-26502242D01*
X189976404Y-26734354D01*
X189804159Y-26906348D01*
X189735412Y-26994413D01*
X189735117Y-26996741D01*
X189788251Y-27085785D01*
X189933535Y-27275047D01*
X190149789Y-27538163D01*
X190415834Y-27848771D01*
X190462149Y-27901733D01*
X190926030Y-28444489D01*
X191349920Y-28973705D01*
X191741413Y-29504588D01*
X192108105Y-30052346D01*
X192457589Y-30632184D01*
X192797461Y-31259311D01*
X193135317Y-31948933D01*
X193478750Y-32716257D01*
X193835355Y-33576491D01*
X194212728Y-34544840D01*
X194618464Y-35636513D01*
X195060157Y-36866716D01*
X195347967Y-37684448D01*
X195893570Y-39176429D01*
X196432803Y-40508944D01*
X196972488Y-41691912D01*
X197519450Y-42735252D01*
X198080513Y-43648884D01*
X198662499Y-44442729D01*
X199272234Y-45126705D01*
X199916541Y-45710733D01*
X200602244Y-46204733D01*
X201336166Y-46618623D01*
X201570782Y-46730493D01*
X202474845Y-47067990D01*
X203357127Y-47245819D01*
X204208214Y-47265267D01*
X205018692Y-47127618D01*
X205779150Y-46834158D01*
X206480172Y-46386173D01*
X206910904Y-46001240D01*
X207494596Y-45295952D01*
X207927240Y-44520101D01*
X208205038Y-43687877D01*
X208324191Y-42813471D01*
X208280901Y-41911075D01*
X208164335Y-41318114D01*
X208076389Y-40934529D01*
X208045621Y-40688038D01*
X208069687Y-40556603D01*
X208081723Y-40541321D01*
X208202030Y-40490564D01*
X208343919Y-40569510D01*
X208516174Y-40787647D01*
X208727582Y-41154463D01*
X208824223Y-41343235D01*
X209263767Y-42408980D01*
X209557593Y-43537058D01*
X209709082Y-44708347D01*
X209721616Y-45903726D01*
X209598578Y-47104074D01*
X209343349Y-48290268D01*
X208959312Y-49443189D01*
X208449848Y-50543714D01*
X207818340Y-51572722D01*
X207068170Y-52511092D01*
X206798870Y-52793868D01*
X205907661Y-53585451D01*
X204958492Y-54222293D01*
X203933825Y-54714673D01*
X202987291Y-55028134D01*
X202641907Y-55113159D01*
X202316753Y-55169788D01*
X201962196Y-55202993D01*
X201528602Y-55217742D01*
X201075920Y-55219540D01*
X200387392Y-55206129D01*
X199781172Y-55165860D01*
X199217642Y-55090469D01*
X198657183Y-54971690D01*
X198060176Y-54801256D01*
X197387005Y-54570902D01*
X196669741Y-54300262D01*
X196086304Y-54073679D01*
X196142835Y-54395284D01*
X196243855Y-54840543D01*
X196400134Y-55378492D01*
X196591394Y-55949633D01*
X196797360Y-56494471D01*
X196997756Y-56953508D01*
X197051146Y-57060565D01*
X197291811Y-57481040D01*
X197568516Y-57894509D01*
X197857462Y-58271771D01*
X198134849Y-58583626D01*
X198376879Y-58800874D01*
X198542931Y-58890914D01*
X198715240Y-58897061D01*
X199020675Y-58870495D01*
X199426452Y-58815096D01*
X199899785Y-58734745D01*
X199965168Y-58722556D01*
X201402276Y-58496061D01*
X202751032Y-58379673D01*
X204052403Y-58373310D01*
X205347358Y-58476890D01*
X206676866Y-58690328D01*
X206769373Y-58708793D01*
X208137864Y-59055312D01*
X209537962Y-59543252D01*
X210934836Y-60157661D01*
X212293656Y-60883589D01*
X213289276Y-61507249D01*
X213667828Y-61758582D01*
X213997075Y-61972315D01*
X214251217Y-62132082D01*
X214404461Y-62221519D01*
X214436098Y-62234810D01*
X214473586Y-62156237D01*
X214531289Y-61941793D01*
X214601657Y-61623222D01*
X214677140Y-61232269D01*
X214685239Y-61187285D01*
X214978000Y-59892837D01*
X215385030Y-58613029D01*
X215890073Y-57390070D01*
X216476874Y-56266167D01*
X216751992Y-55821237D01*
X217131336Y-55268183D01*
X217535439Y-54740367D01*
X217980848Y-54221418D01*
X218484111Y-53694962D01*
X219061774Y-53144627D01*
X219730385Y-52554038D01*
X220506490Y-51906824D01*
X221406636Y-51186610D01*
X221548830Y-51074839D01*
X222549566Y-50279082D01*
X223420252Y-49561815D01*
X224173742Y-48909637D01*
X224822891Y-48309148D01*
X225380553Y-47746944D01*
X225859584Y-47209625D01*
X226272836Y-46683790D01*
X226633165Y-46156036D01*
X226953424Y-45612961D01*
X227152661Y-45232503D01*
X227441882Y-44627246D01*
X227649640Y-44111340D01*
X227788320Y-43632509D01*
X227870306Y-43138476D01*
X227907983Y-42576965D01*
X227914457Y-42016890D01*
X227909397Y-41507292D01*
X227895097Y-41123730D01*
X227866282Y-40822384D01*
X227817677Y-40559434D01*
X227744007Y-40291064D01*
X227684355Y-40105518D01*
X227361401Y-39292130D01*
X226971887Y-38619835D01*
X226497761Y-38066898D01*
X225920969Y-37611583D01*
X225345270Y-37289313D01*
X224962437Y-37095756D01*
X224720321Y-36949847D01*
X224600733Y-36839106D01*
X224581454Y-36765193D01*
X224683955Y-36656495D01*
X224924687Y-36601734D01*
X225280478Y-36601789D01*
X225728156Y-36657540D01*
X226000884Y-36711320D01*
X227403918Y-37101195D01*
X228711733Y-37631166D01*
X229925862Y-38302309D01*
X231047837Y-39115701D01*
X232079193Y-40072419D01*
X233021463Y-41173540D01*
X233675196Y-42101839D01*
X234343647Y-43238574D01*
X234899532Y-44422690D01*
X235361238Y-45696380D01*
X235600547Y-46520559D01*
X235787111Y-47274237D01*
X235925886Y-47975034D01*
X236022525Y-48670409D01*
X236082681Y-49407826D01*
X236112009Y-50234745D01*
X236117225Y-50857940D01*
X236107540Y-51708805D01*
X236073910Y-52433949D01*
X236010309Y-53076604D01*
X235910712Y-53680003D01*
X235769094Y-54287376D01*
X235579429Y-54941955D01*
X235523261Y-55119725D01*
X235203844Y-56117209D01*
X236404096Y-56723788D01*
X237427432Y-57267518D01*
X238328721Y-57809102D01*
X239152340Y-58380587D01*
X239942665Y-59014020D01*
X240744073Y-59741449D01*
X241198748Y-60186309D01*
X242486104Y-61591762D01*
X243662255Y-63118727D01*
X244722249Y-64756141D01*
X245661137Y-66492940D01*
X246473968Y-68318062D01*
X247155791Y-70220445D01*
X247701655Y-72189026D01*
X248106611Y-74212741D01*
X248356788Y-76181654D01*
X248393171Y-76732409D01*
X248415352Y-77409210D01*
X248424059Y-78175604D01*
X248420022Y-78995140D01*
X248403969Y-79831367D01*
X248376629Y-80647833D01*
X248338730Y-81408086D01*
X248291001Y-82075674D01*
X248234170Y-82614146D01*
X248227191Y-82665385D01*
X247888653Y-84686009D01*
X247451337Y-86594297D01*
X246904485Y-88423232D01*
X246237336Y-90205801D01*
X245439132Y-91974989D01*
X244763650Y-93284114D01*
X243728906Y-95033218D01*
X242596469Y-96645429D01*
X241368009Y-98119466D01*
X240045195Y-99454046D01*
X238629699Y-100647887D01*
X237123190Y-101699707D01*
X235527338Y-102608225D01*
X233843813Y-103372159D01*
X232074285Y-103990228D01*
X230220425Y-104461148D01*
X230194170Y-104466630D01*
X229784131Y-104530652D01*
X229237009Y-104584675D01*
X228585356Y-104628148D01*
X227861726Y-104660520D01*
X227098671Y-104681240D01*
X226328746Y-104689757D01*
X225584503Y-104685521D01*
X224898496Y-104667981D01*
X224303277Y-104636587D01*
X223831400Y-104590786D01*
X223730103Y-104575997D01*
X222473163Y-104328459D01*
X221216771Y-103986332D01*
X219939675Y-103541494D01*
X218620623Y-102985823D01*
X217238366Y-102311199D01*
X215905072Y-101585594D01*
X214752843Y-100930983D01*
X212559686Y-100900617D01*
X210317114Y-100906985D01*
X208062386Y-100989829D01*
X205767662Y-101151473D01*
X203405098Y-101394239D01*
X200946855Y-101720452D01*
X198913983Y-102039506D01*
X198242671Y-102151207D01*
X197718468Y-102241454D01*
X197321306Y-102319063D01*
X197031111Y-102392849D01*
X196827815Y-102471630D01*
X196691344Y-102564222D01*
X196601630Y-102679440D01*
X196538600Y-102826101D01*
X196482184Y-103013020D01*
X196451059Y-103121344D01*
X196344365Y-103465926D01*
X196235889Y-103783988D01*
X196148923Y-104007276D01*
X196148137Y-104009030D01*
X196007667Y-104225823D01*
X195861588Y-104281241D01*
X195718569Y-104183207D01*
X195587275Y-103939645D01*
X195476374Y-103558479D01*
X195438065Y-103359873D01*
X195384641Y-103074466D01*
X195335519Y-102862582D01*
X195303570Y-102774417D01*
X195199607Y-102770472D01*
X194951528Y-102806067D01*
X194579274Y-102876582D01*
X194102790Y-102977392D01*
X193542016Y-103103876D01*
X192916896Y-103251411D01*
X192247373Y-103415373D01*
X191553389Y-103591142D01*
X190854887Y-103774092D01*
X190171810Y-103959604D01*
X190077641Y-103985768D01*
X189419402Y-104101243D01*
X188645146Y-104119932D01*
X187775224Y-104046391D01*
X186829988Y-103885173D01*
X185829789Y-103640831D01*
X184794978Y-103317919D01*
X183745907Y-102920991D01*
X182702927Y-102454600D01*
X182271781Y-102239198D01*
X181535698Y-101844258D01*
X180919496Y-101476147D01*
X180382331Y-101106608D01*
X179883364Y-100707386D01*
X179381753Y-100250223D01*
X179343006Y-100212928D01*
X179071897Y-99930437D01*
X178785895Y-99598099D01*
X178507899Y-99246871D01*
X178260804Y-98907712D01*
X178067509Y-98611582D01*
X177950910Y-98389440D01*
X177934566Y-98327027D01*
X178645361Y-98327027D01*
X178646022Y-98448431D01*
X178701524Y-98577159D01*
X178846066Y-98788997D01*
X179093031Y-99081048D01*
X179414158Y-99424949D01*
X179781190Y-99792339D01*
X180165867Y-100154855D01*
X180539931Y-100484135D01*
X180848197Y-100731675D01*
X181505648Y-101173527D01*
X182297309Y-101617002D01*
X183188294Y-102047212D01*
X184143718Y-102449266D01*
X185128694Y-102808277D01*
X186108337Y-103109354D01*
X186859712Y-103297378D01*
X187539249Y-103439931D01*
X188091131Y-103534605D01*
X188549861Y-103584224D01*
X188949939Y-103591610D01*
X189325870Y-103559586D01*
X189571875Y-103519306D01*
X189840400Y-103457361D01*
X190040252Y-103391177D01*
X190104987Y-103354578D01*
X190115860Y-103236738D01*
X190065096Y-102988934D01*
X189961596Y-102635767D01*
X189814259Y-102201839D01*
X189631986Y-101711750D01*
X189423677Y-101190103D01*
X189198230Y-100661499D01*
X188964547Y-100150540D01*
X188889665Y-99995150D01*
X188434482Y-99106852D01*
X187979272Y-98316594D01*
X187497222Y-97587119D01*
X186961514Y-96881169D01*
X186345336Y-96161489D01*
X185621870Y-95390819D01*
X185447619Y-95212732D01*
X184988121Y-94747909D01*
X184630711Y-94392269D01*
X184359745Y-94132500D01*
X184159581Y-93955289D01*
X184014575Y-93847323D01*
X183909082Y-93795291D01*
X183827460Y-93785880D01*
X183782252Y-93795525D01*
X183507729Y-93922301D01*
X183135665Y-94152482D01*
X182687355Y-94468049D01*
X182184094Y-94850983D01*
X181647178Y-95283265D01*
X181097902Y-95746876D01*
X180557563Y-96223798D01*
X180047454Y-96696011D01*
X179588872Y-97145498D01*
X179203113Y-97554238D01*
X178911471Y-97904214D01*
X178886004Y-97938414D01*
X178720454Y-98173989D01*
X178645361Y-98327027D01*
X177934566Y-98327027D01*
X177927090Y-98298480D01*
X177986463Y-98171301D01*
X178152784Y-97947073D01*
X178408359Y-97644206D01*
X178735496Y-97281107D01*
X179116499Y-96876185D01*
X179533675Y-96447848D01*
X179969330Y-96014504D01*
X180405769Y-95594561D01*
X180825300Y-95206428D01*
X181210227Y-94868512D01*
X181281935Y-94808215D01*
X182093747Y-94184418D01*
X183030899Y-93555348D01*
X184051516Y-92945797D01*
X185113720Y-92380557D01*
X186175634Y-91884419D01*
X186337124Y-91815461D01*
X186634907Y-91696897D01*
X187031856Y-91548490D01*
X187490920Y-91383057D01*
X187975049Y-91213413D01*
X188447193Y-91052376D01*
X188870302Y-90912762D01*
X189207327Y-90807389D01*
X189417193Y-90749961D01*
X189352311Y-90747259D01*
X189137687Y-90746526D01*
X188793466Y-90747651D01*
X188339791Y-90750522D01*
X187796809Y-90755029D01*
X187184663Y-90761059D01*
X186953648Y-90763555D01*
X185744388Y-90766843D01*
X184662045Y-90745593D01*
X183664881Y-90695790D01*
X182711155Y-90613418D01*
X181759129Y-90494462D01*
X180767065Y-90334908D01*
X179693224Y-90130740D01*
X179100588Y-90008133D01*
X178087535Y-89812945D01*
X177193537Y-89684075D01*
X176382544Y-89618510D01*
X175618501Y-89613232D01*
X174926688Y-89658967D01*
X173365572Y-89893581D01*
X171821288Y-90286898D01*
X170288674Y-90841081D01*
X168762571Y-91558290D01*
X167237819Y-92440689D01*
X165709257Y-93490439D01*
X165615357Y-93560251D01*
X165210488Y-93883053D01*
X164716470Y-94309995D01*
X164157060Y-94818260D01*
X163556016Y-95385031D01*
X162937095Y-95987491D01*
X162324055Y-96602825D01*
X161740654Y-97208215D01*
X161210648Y-97780845D01*
X161146631Y-97852000D01*
X160554850Y-98512194D01*
X159674461Y-98646977D01*
X159203629Y-98699064D01*
X158616173Y-98733276D01*
X157949452Y-98750278D01*
X157240825Y-98750735D01*
X156527654Y-98735314D01*
X155847296Y-98704679D01*
X155237111Y-98659497D01*
X154734460Y-98600434D01*
X154480937Y-98554433D01*
X153581404Y-98318790D01*
X152640164Y-98009425D01*
X151704536Y-97645412D01*
X150821840Y-97245831D01*
X150039394Y-96829758D01*
X149723746Y-96636521D01*
X149215617Y-96295942D01*
X148847366Y-96017486D01*
X148605965Y-95789217D01*
X148478382Y-95599198D01*
X148449499Y-95469225D01*
X148467054Y-95388526D01*
X148964531Y-95388526D01*
X149322140Y-95671512D01*
X149662028Y-95913299D01*
X150113924Y-96196397D01*
X150633286Y-96496102D01*
X151175572Y-96787710D01*
X151696239Y-97046516D01*
X152150746Y-97247817D01*
X152198674Y-97266916D01*
X153497953Y-97700321D01*
X154860618Y-98012014D01*
X156247473Y-98196722D01*
X157619322Y-98249172D01*
X158900557Y-98168465D01*
X159419588Y-98101496D01*
X159807991Y-98030620D01*
X160104527Y-97938769D01*
X160347958Y-97808877D01*
X160577045Y-97623878D01*
X160830549Y-97366706D01*
X160905392Y-97285751D01*
X161161832Y-96996567D01*
X161384074Y-96727952D01*
X161538698Y-96521087D01*
X161579412Y-96455201D01*
X161633178Y-96333033D01*
X161636125Y-96221309D01*
X161573559Y-96079746D01*
X161430787Y-95868062D01*
X161300524Y-95690652D01*
X161120239Y-95468979D01*
X160842973Y-95155106D01*
X160493284Y-94775552D01*
X160095735Y-94356833D01*
X159674884Y-93925466D01*
X159539101Y-93788888D01*
X158339963Y-92654697D01*
X157161577Y-91672521D01*
X156011125Y-90848207D01*
X155627759Y-90605031D01*
X155257233Y-90386247D01*
X154829932Y-90147265D01*
X154373860Y-89902260D01*
X153917025Y-89665409D01*
X153487431Y-89450889D01*
X153113085Y-89272876D01*
X152821993Y-89145546D01*
X152642160Y-89083076D01*
X152613271Y-89079097D01*
X152473630Y-89139795D01*
X152293455Y-89330828D01*
X152068446Y-89652508D01*
X151657042Y-90314470D01*
X151202164Y-91089532D01*
X150727703Y-91934819D01*
X150257549Y-92807459D01*
X149815594Y-93664576D01*
X149671462Y-93954045D01*
X148964531Y-95388526D01*
X148467054Y-95388526D01*
X148490335Y-95281507D01*
X148605933Y-94967266D01*
X148785923Y-94547009D01*
X149019937Y-94041248D01*
X149297608Y-93470490D01*
X149608566Y-92855245D01*
X149942443Y-92216023D01*
X150288871Y-91573334D01*
X150637482Y-90947686D01*
X150977906Y-90359589D01*
X151299777Y-89829552D01*
X151303972Y-89822849D01*
X152208267Y-88442145D01*
X152220292Y-88425214D01*
X152902867Y-88425214D01*
X152925631Y-88483315D01*
X153008852Y-88553684D01*
X153171732Y-88649930D01*
X153433469Y-88785666D01*
X153813265Y-88974500D01*
X154183612Y-89157416D01*
X155769526Y-90035151D01*
X157300434Y-91071633D01*
X158772239Y-92263516D01*
X160180843Y-93607454D01*
X161522149Y-95100102D01*
X161649899Y-95254350D01*
X162150300Y-95862919D01*
X163221471Y-94881786D01*
X164533782Y-93744044D01*
X165836213Y-92748527D01*
X167160848Y-91872822D01*
X168539775Y-91094520D01*
X168922408Y-90899737D01*
X170400241Y-90230425D01*
X171836594Y-89717734D01*
X173246089Y-89357917D01*
X174643349Y-89147226D01*
X176015719Y-89081822D01*
X176330060Y-89087135D01*
X176649109Y-89103555D01*
X176993490Y-89134110D01*
X177383828Y-89181826D01*
X177840749Y-89249728D01*
X178384876Y-89340843D01*
X179036834Y-89458197D01*
X179817249Y-89604815D01*
X180581822Y-89751773D01*
X181446224Y-89910205D01*
X182242807Y-90034942D01*
X183007918Y-90128728D01*
X183777903Y-90194309D01*
X184589109Y-90234429D01*
X185477881Y-90251834D01*
X186480566Y-90249268D01*
X187059197Y-90240949D01*
X187974992Y-90221159D01*
X188750903Y-90195515D01*
X189416897Y-90162286D01*
X190002939Y-90119745D01*
X190538996Y-90066163D01*
X190924415Y-90017940D01*
X191418827Y-89946244D01*
X191964850Y-89859128D01*
X192174563Y-89823335D01*
X195123801Y-89823335D01*
X195207302Y-89836939D01*
X195317484Y-89821320D01*
X195318799Y-89792322D01*
X195205103Y-89772043D01*
X195155978Y-89785615D01*
X195123801Y-89823335D01*
X192174563Y-89823335D01*
X192534597Y-89761886D01*
X193100178Y-89659810D01*
X193633704Y-89558192D01*
X194107286Y-89462325D01*
X194493036Y-89377503D01*
X194763064Y-89309017D01*
X194882124Y-89266857D01*
X194921424Y-89201673D01*
X194903104Y-89062736D01*
X194820281Y-88824478D01*
X194666069Y-88461332D01*
X194663836Y-88456290D01*
X194305024Y-87595576D01*
X194032428Y-86811054D01*
X193834636Y-86051940D01*
X193700235Y-85267447D01*
X193617812Y-84406789D01*
X193582028Y-83642308D01*
X193579724Y-82325814D01*
X193661439Y-81128982D01*
X193831723Y-80021304D01*
X194095125Y-78972275D01*
X194415728Y-78052664D01*
X194961085Y-76885063D01*
X195633651Y-75810312D01*
X196421351Y-74838443D01*
X197312111Y-73979483D01*
X198293857Y-73243463D01*
X199354516Y-72640410D01*
X200482014Y-72180356D01*
X201664278Y-71873328D01*
X201905330Y-71831314D01*
X202324841Y-71786972D01*
X202846377Y-71766060D01*
X203423973Y-71766996D01*
X204011665Y-71788196D01*
X204563489Y-71828078D01*
X205033482Y-71885059D01*
X205349441Y-71949911D01*
X205711572Y-72070130D01*
X205930129Y-72195038D01*
X206030873Y-72343159D01*
X206045485Y-72450446D01*
X206039659Y-72525988D01*
X206005025Y-72571587D01*
X205915849Y-72585942D01*
X205746394Y-72567748D01*
X205470927Y-72515702D01*
X205063713Y-72428501D01*
X204898662Y-72392364D01*
X204441647Y-72322112D01*
X203875446Y-72279646D01*
X203257063Y-72265190D01*
X202643503Y-72278967D01*
X202091771Y-72321201D01*
X201713044Y-72379844D01*
X200515687Y-72721347D01*
X199378089Y-73218622D01*
X198316073Y-73863321D01*
X197345465Y-74647094D01*
X197255054Y-74731835D01*
X196665314Y-75333122D01*
X196171067Y-75936765D01*
X195733997Y-76595486D01*
X195315787Y-77362009D01*
X195255320Y-77483445D01*
X194716051Y-78765825D01*
X194323262Y-80119819D01*
X194081412Y-81523793D01*
X193994962Y-82956109D01*
X194005520Y-83547726D01*
X194112064Y-84837338D01*
X194327860Y-86021609D01*
X194662854Y-87133051D01*
X195126989Y-88204177D01*
X195730210Y-89267499D01*
X195777870Y-89342432D01*
X196010329Y-89723968D01*
X196143531Y-89994114D01*
X196184660Y-90173903D01*
X196140902Y-90284370D01*
X196108280Y-90309680D01*
X195997486Y-90333545D01*
X195749974Y-90363992D01*
X195398632Y-90397643D01*
X194976349Y-90431123D01*
X194816524Y-90442267D01*
X193960172Y-90517070D01*
X193025039Y-90628466D01*
X192067594Y-90767935D01*
X191144310Y-90926957D01*
X190311656Y-91097011D01*
X190014026Y-91166851D01*
X189379992Y-91338348D01*
X188676557Y-91555507D01*
X187936175Y-91805996D01*
X187191302Y-92077479D01*
X186474393Y-92357625D01*
X185817901Y-92634097D01*
X185254283Y-92894564D01*
X184815992Y-93126692D01*
X184745687Y-93168966D01*
X184460217Y-93345396D01*
X185676466Y-94589002D01*
X186340483Y-95284454D01*
X186901299Y-95911857D01*
X187388926Y-96508612D01*
X187833378Y-97112120D01*
X188264668Y-97759783D01*
X188422604Y-98011136D01*
X188795096Y-98651363D01*
X189184914Y-99390256D01*
X189565709Y-100172920D01*
X189911126Y-100944458D01*
X190194813Y-101649975D01*
X190272170Y-101864047D01*
X190444483Y-102355472D01*
X190571403Y-102708345D01*
X190662153Y-102944997D01*
X190725953Y-103087760D01*
X190772024Y-103158964D01*
X190809587Y-103180941D01*
X190816125Y-103181392D01*
X190913122Y-103162718D01*
X191153246Y-103109743D01*
X191514356Y-103027553D01*
X191974307Y-102921231D01*
X192510956Y-102795863D01*
X192860247Y-102713545D01*
X195936044Y-102713545D01*
X196180364Y-102033946D01*
X196282156Y-101775419D01*
X196914220Y-101775419D01*
X196943099Y-101821572D01*
X197049429Y-101807301D01*
X197286520Y-101768563D01*
X197618009Y-101711470D01*
X197963570Y-101650063D01*
X200957530Y-101173045D01*
X204021840Y-100804394D01*
X207099366Y-100549671D01*
X210132971Y-100414439D01*
X210790694Y-100401246D01*
X213794432Y-100354803D01*
X213381664Y-100096969D01*
X212641577Y-99654001D01*
X211825622Y-99199153D01*
X210970211Y-98750460D01*
X210111759Y-98325959D01*
X209286676Y-97943684D01*
X208531378Y-97621673D01*
X207914381Y-97388949D01*
X206788228Y-97061689D01*
X205648833Y-96845695D01*
X204523671Y-96742192D01*
X203440216Y-96752403D01*
X202425942Y-96877553D01*
X201547585Y-97105346D01*
X200520592Y-97538302D01*
X199601603Y-98102224D01*
X198789043Y-98798243D01*
X198144399Y-99542558D01*
X197900469Y-99886317D01*
X197656496Y-100265018D01*
X197426145Y-100652741D01*
X197223078Y-101023563D01*
X197060960Y-101351565D01*
X196953452Y-101610824D01*
X196914220Y-101775419D01*
X196282156Y-101775419D01*
X196546278Y-101104617D01*
X196934382Y-100307043D01*
X197367290Y-99603081D01*
X197867611Y-98954586D01*
X198263274Y-98520234D01*
X199114063Y-97757952D01*
X200058919Y-97130712D01*
X201079713Y-96649717D01*
X201558046Y-96484265D01*
X202140863Y-96344597D01*
X202838324Y-96241866D01*
X203598401Y-96180052D01*
X204369064Y-96163138D01*
X205098283Y-96195108D01*
X205207018Y-96204965D01*
X205872523Y-96284750D01*
X206520500Y-96395189D01*
X207166068Y-96542587D01*
X207824349Y-96733249D01*
X208510464Y-96973478D01*
X209239535Y-97269580D01*
X210026681Y-97627860D01*
X210887024Y-98054621D01*
X211835685Y-98556169D01*
X212887785Y-99138809D01*
X214058444Y-99808844D01*
X214582943Y-100114230D01*
X215860627Y-100849172D01*
X217023637Y-101493080D01*
X218067473Y-102043630D01*
X218987634Y-102498497D01*
X219779618Y-102855355D01*
X220263006Y-103048459D01*
X221658173Y-103495647D01*
X223139845Y-103836653D01*
X224664993Y-104065856D01*
X226190592Y-104177635D01*
X227673616Y-104166367D01*
X228399528Y-104111449D01*
X229889459Y-103894828D01*
X231401429Y-103549195D01*
X232897391Y-103087305D01*
X234339297Y-102521916D01*
X235689103Y-101865781D01*
X236501554Y-101395126D01*
X237961342Y-100391583D01*
X239357976Y-99240849D01*
X240676195Y-97958743D01*
X241900735Y-96561085D01*
X243016335Y-95063692D01*
X243812456Y-93817509D01*
X244829795Y-91945445D01*
X245707484Y-89994722D01*
X246442736Y-87979969D01*
X247032761Y-85915817D01*
X247474769Y-83816895D01*
X247765971Y-81697832D01*
X247903579Y-79573259D01*
X247884801Y-77457805D01*
X247706850Y-75366100D01*
X247543296Y-74249866D01*
X247155217Y-72355360D01*
X246643183Y-70515332D01*
X246013736Y-68739540D01*
X245273416Y-67037744D01*
X244428765Y-65419705D01*
X243486324Y-63895180D01*
X242452634Y-62473929D01*
X241334235Y-61165713D01*
X240137669Y-59980289D01*
X238869477Y-58927418D01*
X237536200Y-58016860D01*
X236160201Y-57265957D01*
X234728989Y-56669322D01*
X233271167Y-56240260D01*
X231789604Y-55979025D01*
X230287172Y-55885869D01*
X228766742Y-55961043D01*
X227231185Y-56204799D01*
X226390970Y-56408168D01*
X224976111Y-56873753D01*
X223576860Y-57492754D01*
X222219409Y-58249017D01*
X220929951Y-59126388D01*
X219734682Y-60108713D01*
X218667465Y-61171379D01*
X217994796Y-61912513D01*
X218428814Y-61692580D01*
X218911754Y-61470552D01*
X219384469Y-61307295D01*
X219885297Y-61195673D01*
X220452579Y-61128552D01*
X221124655Y-61098794D01*
X221633779Y-61096097D01*
X222187788Y-61101547D01*
X222615704Y-61114125D01*
X222961319Y-61138622D01*
X223268423Y-61179833D01*
X223580808Y-61242552D01*
X223942265Y-61331572D01*
X224055810Y-61361227D01*
X225240821Y-61722375D01*
X226349144Y-62168821D01*
X227430122Y-62723181D01*
X228533100Y-63408076D01*
X228558890Y-63425390D01*
X229891425Y-64392673D01*
X231061658Y-65396444D01*
X232074793Y-66444769D01*
X232936033Y-67545710D01*
X233650582Y-68707332D01*
X234223642Y-69937698D01*
X234660418Y-71244874D01*
X234966113Y-72636922D01*
X235092648Y-73551167D01*
X235175707Y-75072987D01*
X235095451Y-76614688D01*
X234853953Y-78157263D01*
X234453288Y-79681703D01*
X234408770Y-79819565D01*
X233875873Y-81196437D01*
X233220751Y-82457289D01*
X232447758Y-83598485D01*
X231561250Y-84616387D01*
X230565582Y-85507356D01*
X229465107Y-86267756D01*
X228264182Y-86893949D01*
X226967161Y-87382297D01*
X225578399Y-87729163D01*
X224786448Y-87857077D01*
X224293238Y-87904259D01*
X223657911Y-87936964D01*
X222907595Y-87955616D01*
X222069418Y-87960637D01*
X221170507Y-87952451D01*
X220237992Y-87931483D01*
X219298998Y-87898154D01*
X218380655Y-87852889D01*
X217510091Y-87796111D01*
X216749164Y-87731618D01*
X215005526Y-87578876D01*
X213411324Y-87471610D01*
X211969030Y-87409863D01*
X210681112Y-87393676D01*
X209550041Y-87423090D01*
X208578286Y-87498147D01*
X207956856Y-87584185D01*
X206427625Y-87929956D01*
X204970676Y-88427696D01*
X203591416Y-89073190D01*
X202295253Y-89862224D01*
X201087592Y-90790583D01*
X199973841Y-91854052D01*
X198959407Y-93048415D01*
X198049697Y-94369459D01*
X197250118Y-95812968D01*
X197157847Y-96002508D01*
X196737691Y-96976065D01*
X196417919Y-97949367D01*
X196189857Y-98961269D01*
X196044832Y-100050621D01*
X195974171Y-101256277D01*
X195972654Y-101311873D01*
X195936044Y-102713545D01*
X192860247Y-102713545D01*
X193102160Y-102656533D01*
X193111873Y-102654235D01*
X193775948Y-102496725D01*
X194293060Y-102372088D01*
X194681588Y-102274120D01*
X194959913Y-102196615D01*
X195146415Y-102133367D01*
X195259475Y-102078172D01*
X195317473Y-102024824D01*
X195338790Y-101967117D01*
X195341806Y-101901399D01*
X195354771Y-101523408D01*
X195390155Y-101027202D01*
X195442693Y-100462198D01*
X195507121Y-99877810D01*
X195578174Y-99323454D01*
X195650586Y-98848544D01*
X195689721Y-98635953D01*
X196009398Y-97405418D01*
X196471042Y-96152032D01*
X197058182Y-94914284D01*
X197754344Y-93730666D01*
X197852900Y-93581425D01*
X198793678Y-92314442D01*
X199840194Y-91160173D01*
X200980405Y-90126984D01*
X202202272Y-89223242D01*
X203493754Y-88457312D01*
X204842808Y-87837559D01*
X206237395Y-87372350D01*
X207075190Y-87174052D01*
X207820030Y-87039132D01*
X208573723Y-86934548D01*
X209354663Y-86860199D01*
X210181248Y-86815986D01*
X211071872Y-86801809D01*
X212044931Y-86817568D01*
X213118820Y-86863163D01*
X214311936Y-86938493D01*
X215642673Y-87043460D01*
X216536789Y-87122634D01*
X217228278Y-87184914D01*
X217881997Y-87241767D01*
X218474420Y-87291301D01*
X218982019Y-87331624D01*
X219381268Y-87360844D01*
X219648639Y-87377070D01*
X219734422Y-87379782D01*
X219978604Y-87370888D01*
X220116086Y-87315560D01*
X220210011Y-87171595D01*
X220274168Y-87019063D01*
X220566005Y-86200020D01*
X220838544Y-85250653D01*
X221082701Y-84210232D01*
X221289394Y-83118025D01*
X221449539Y-82013301D01*
X221467902Y-81858361D01*
X221529055Y-81162163D01*
X221567703Y-80361164D01*
X221584547Y-79493422D01*
X221580290Y-78596994D01*
X221555634Y-77709936D01*
X221511281Y-76870305D01*
X221447934Y-76116159D01*
X221366295Y-75485554D01*
X221348350Y-75380477D01*
X220927309Y-73466488D01*
X220367432Y-71642662D01*
X219670428Y-69912864D01*
X218838001Y-68280959D01*
X218204085Y-67276980D01*
X218957860Y-67276980D01*
X218995318Y-67367014D01*
X219098097Y-67578329D01*
X219251800Y-67882170D01*
X219442032Y-68249779D01*
X219505517Y-68370947D01*
X220088150Y-69543960D01*
X220569463Y-70663645D01*
X220973134Y-71791750D01*
X221322840Y-72990019D01*
X221415883Y-73352812D01*
X221675328Y-74493109D01*
X221867518Y-75583669D01*
X221997203Y-76670946D01*
X222069134Y-77801392D01*
X222088061Y-79021460D01*
X222076121Y-79809007D01*
X222019845Y-81112424D01*
X221913098Y-82309554D01*
X221747012Y-83455962D01*
X221512715Y-84607217D01*
X221201338Y-85818884D01*
X221013327Y-86466890D01*
X220913184Y-86811400D01*
X220839246Y-87085812D01*
X220800326Y-87256104D01*
X220798803Y-87295150D01*
X220886643Y-87260104D01*
X221079606Y-87169336D01*
X221275567Y-87072625D01*
X221911224Y-86694281D01*
X222577421Y-86192320D01*
X223238620Y-85599646D01*
X223859282Y-84949166D01*
X224403869Y-84273786D01*
X224596900Y-83997335D01*
X225257789Y-82859575D01*
X225786805Y-81644459D01*
X226181692Y-80372716D01*
X226440195Y-79065078D01*
X226560058Y-77742275D01*
X226539026Y-76425036D01*
X226374843Y-75134093D01*
X226065253Y-73890176D01*
X225781623Y-73108528D01*
X225245241Y-71996981D01*
X224591552Y-70963338D01*
X223835864Y-70023134D01*
X222993486Y-69191906D01*
X222079725Y-68485190D01*
X221109890Y-67918520D01*
X220345307Y-67591283D01*
X219928656Y-67450631D01*
X219551986Y-67341996D01*
X219244903Y-67272083D01*
X219037016Y-67247602D01*
X218957933Y-67275257D01*
X218957860Y-67276980D01*
X218204085Y-67276980D01*
X217871858Y-66750810D01*
X217063048Y-65675418D01*
X216613513Y-65154550D01*
X216068391Y-64577939D01*
X215566670Y-64081884D01*
X216563010Y-64081884D01*
X216619135Y-64229874D01*
X216757939Y-64432292D01*
X216988455Y-64717526D01*
X217217566Y-64991640D01*
X217489679Y-65322074D01*
X217751120Y-65648340D01*
X217962495Y-65920909D01*
X218040347Y-66026096D01*
X218181720Y-66208397D01*
X218325857Y-66344884D01*
X218507315Y-66452862D01*
X218760649Y-66549636D01*
X219120416Y-66652509D01*
X219467559Y-66740766D01*
X220667292Y-67124476D01*
X221791829Y-67656876D01*
X222833723Y-68330848D01*
X223785527Y-69139277D01*
X224639795Y-70075044D01*
X225389083Y-71131034D01*
X226025942Y-72300129D01*
X226505442Y-73467451D01*
X226691843Y-74034360D01*
X226833399Y-74566751D01*
X226935511Y-75102890D01*
X227003580Y-75681038D01*
X227043008Y-76339458D01*
X227059196Y-77116415D01*
X227060352Y-77398495D01*
X227059832Y-77985349D01*
X227054470Y-78439624D01*
X227040550Y-78798638D01*
X227014359Y-79099709D01*
X226972181Y-79380152D01*
X226910301Y-79677287D01*
X226825004Y-80028429D01*
X226781414Y-80200558D01*
X226356634Y-81604055D01*
X225826088Y-82898445D01*
X225194653Y-84075811D01*
X224467206Y-85128234D01*
X223648624Y-86047797D01*
X222743784Y-86826579D01*
X222663728Y-86885539D01*
X222381205Y-87092407D01*
X222147512Y-87266113D01*
X221999838Y-87378912D01*
X221973579Y-87400414D01*
X221987260Y-87428948D01*
X222119323Y-87439849D01*
X222379553Y-87432601D01*
X222777732Y-87406688D01*
X223323644Y-87361593D01*
X224027073Y-87296799D01*
X224139800Y-87286019D01*
X225587827Y-87071818D01*
X226941392Y-86717775D01*
X228197269Y-86226430D01*
X229352233Y-85600322D01*
X230403058Y-84841993D01*
X231346518Y-83953981D01*
X232179387Y-82938827D01*
X232898440Y-81799070D01*
X233500450Y-80537251D01*
X233825094Y-79659967D01*
X234222667Y-78255847D01*
X234468889Y-76878370D01*
X234568665Y-75487479D01*
X234526902Y-74043117D01*
X234521583Y-73973795D01*
X234331471Y-72502180D01*
X233999764Y-71123373D01*
X233525530Y-69834898D01*
X232907839Y-68634278D01*
X232145761Y-67519037D01*
X232050936Y-67398787D01*
X231050298Y-66266572D01*
X229938473Y-65225215D01*
X228736232Y-64288412D01*
X227464345Y-63469855D01*
X226143584Y-62783239D01*
X224794719Y-62242255D01*
X223767663Y-61937957D01*
X223319332Y-61833844D01*
X222925444Y-61764974D01*
X222524554Y-61724332D01*
X222055219Y-61704903D01*
X221686392Y-61700337D01*
X221192437Y-61706312D01*
X220715753Y-61727540D01*
X220307314Y-61760885D01*
X220019733Y-61802859D01*
X219357450Y-62003857D01*
X218655615Y-62319818D01*
X217964442Y-62721454D01*
X217334142Y-63179476D01*
X216814929Y-63664598D01*
X216800377Y-63680611D01*
X216662664Y-63835640D01*
X216580531Y-63959935D01*
X216563010Y-64081884D01*
X215566670Y-64081884D01*
X215468024Y-63984353D01*
X214852753Y-63412556D01*
X214262920Y-62901314D01*
X214106726Y-62777947D01*
X215023294Y-62777947D01*
X215395729Y-63098711D01*
X215614157Y-63277017D01*
X215755187Y-63354715D01*
X215863785Y-63349069D01*
X215940102Y-63307701D01*
X216044154Y-63212473D01*
X216239780Y-63008061D01*
X216508526Y-62714740D01*
X216831935Y-62352782D01*
X217191553Y-61942462D01*
X217357981Y-61750105D01*
X218180038Y-60826981D01*
X218947917Y-60031488D01*
X219685666Y-59340437D01*
X220417331Y-58730639D01*
X220757235Y-58471948D01*
X222116640Y-57564097D01*
X223545749Y-56802084D01*
X225056521Y-56180707D01*
X226660918Y-55694763D01*
X227665218Y-55467687D01*
X228026418Y-55406309D01*
X228421838Y-55362724D01*
X228886156Y-55334772D01*
X229454049Y-55320296D01*
X230086288Y-55317010D01*
X230896837Y-55326137D01*
X231583191Y-55354626D01*
X232190428Y-55407253D01*
X232763625Y-55488793D01*
X233347860Y-55604023D01*
X233800728Y-55710550D01*
X234134901Y-55784874D01*
X234413516Y-55831488D01*
X234590019Y-55843125D01*
X234617797Y-55838098D01*
X234694386Y-55737910D01*
X234800906Y-55501533D01*
X234927721Y-55158009D01*
X235065198Y-54736378D01*
X235203701Y-54265681D01*
X235333595Y-53774959D01*
X235412541Y-53442642D01*
X235478551Y-53033729D01*
X235527747Y-52492611D01*
X235560130Y-51856149D01*
X235575701Y-51161203D01*
X235574462Y-50444635D01*
X235556411Y-49743305D01*
X235521552Y-49094074D01*
X235469884Y-48533802D01*
X235412413Y-48153303D01*
X235049767Y-46597786D01*
X234589755Y-45172418D01*
X234025584Y-43863606D01*
X233350460Y-42657754D01*
X232557591Y-41541268D01*
X231640182Y-40500553D01*
X231534869Y-40393629D01*
X230837471Y-39729625D01*
X230175828Y-39182742D01*
X229505872Y-38720121D01*
X228783537Y-38308904D01*
X228642141Y-38236593D01*
X228334456Y-38088805D01*
X227981945Y-37930445D01*
X227623667Y-37777689D01*
X227298681Y-37646717D01*
X227046048Y-37553708D01*
X226904826Y-37514838D01*
X226898905Y-37514548D01*
X226925708Y-37576925D01*
X227033133Y-37742172D01*
X227199562Y-37977462D01*
X227240987Y-38034059D01*
X227759298Y-38848582D01*
X228132711Y-39697318D01*
X228369677Y-40606969D01*
X228478648Y-41604236D01*
X228488084Y-41974415D01*
X228441733Y-42937564D01*
X228284193Y-43853302D01*
X228006721Y-44743643D01*
X227600578Y-45630599D01*
X227057020Y-46536186D01*
X226367307Y-47482415D01*
X226234676Y-47649169D01*
X225909499Y-48036708D01*
X225557625Y-48420160D01*
X225162126Y-48814822D01*
X224706076Y-49235988D01*
X224172549Y-49698954D01*
X223544617Y-50219015D01*
X222805354Y-50811467D01*
X222263877Y-51237339D01*
X221643778Y-51723023D01*
X221137181Y-52122305D01*
X220723233Y-52452780D01*
X220381085Y-52732045D01*
X220089885Y-52977693D01*
X219828783Y-53207322D01*
X219576928Y-53438526D01*
X219313468Y-53688901D01*
X219017554Y-53976042D01*
X219011683Y-53981772D01*
X218132797Y-54915137D01*
X217392312Y-55873067D01*
X216759681Y-56898099D01*
X216378753Y-57648255D01*
X215936575Y-58703909D01*
X215565310Y-59824180D01*
X215281408Y-60951408D01*
X215101319Y-62027933D01*
X215083619Y-62187887D01*
X215023294Y-62777947D01*
X214106726Y-62777947D01*
X213775920Y-62516668D01*
X212389794Y-61578494D01*
X210947309Y-60771532D01*
X209463633Y-60100520D01*
X207953937Y-59570199D01*
X206433389Y-59185309D01*
X204917159Y-58950590D01*
X203420416Y-58870780D01*
X202265218Y-58920073D01*
X201795415Y-58968798D01*
X201301145Y-59033314D01*
X200811032Y-59108333D01*
X200353706Y-59188568D01*
X199957792Y-59268734D01*
X199651917Y-59343543D01*
X199464709Y-59407710D01*
X199419398Y-59445621D01*
X199497772Y-59534344D01*
X199735389Y-59635957D01*
X200135999Y-59751835D01*
X200473364Y-59832693D01*
X201156744Y-59907873D01*
X201841551Y-59820357D01*
X202541495Y-59568133D01*
X202655462Y-59512532D01*
X203058936Y-59330003D01*
X203332146Y-59252800D01*
X203474899Y-59276942D01*
X203487001Y-59398447D01*
X203368258Y-59613337D01*
X203118477Y-59917629D01*
X202737462Y-60307344D01*
X202696109Y-60347063D01*
X201619638Y-61269325D01*
X200466364Y-62055899D01*
X199251991Y-62698656D01*
X197992221Y-63189465D01*
X196702760Y-63520197D01*
X196493912Y-63557856D01*
X195874294Y-63631946D01*
X195167871Y-63665482D01*
X194426114Y-63660057D01*
X193700497Y-63617262D01*
X193042490Y-63538692D01*
X192538462Y-63435478D01*
X191178612Y-62993926D01*
X189916514Y-62419196D01*
X188737625Y-61702863D01*
X187627402Y-60836503D01*
X186937346Y-60190580D01*
X185979922Y-59123358D01*
X185140863Y-57951122D01*
X184479148Y-56798160D01*
X184240367Y-56320140D01*
X184025510Y-55851464D01*
X183828589Y-55372338D01*
X183643615Y-54862970D01*
X183464599Y-54303564D01*
X183285553Y-53674329D01*
X183100487Y-52955470D01*
X182903413Y-52127195D01*
X182688342Y-51169708D01*
X182468163Y-50151737D01*
X182193436Y-48885494D01*
X181944430Y-47781775D01*
X181719872Y-46835364D01*
X181518491Y-46041045D01*
X181339013Y-45393600D01*
X181193538Y-44927334D01*
X181046817Y-44509333D01*
X180937276Y-44238197D01*
X180867314Y-44118017D01*
X180839333Y-44152884D01*
X180855730Y-44346887D01*
X180856613Y-44353010D01*
X180872771Y-44534567D01*
X180890988Y-44856912D01*
X180910054Y-45290963D01*
X180928759Y-45807638D01*
X180945891Y-46377858D01*
X180953855Y-46689130D01*
X180967242Y-47666027D01*
X180954356Y-48513325D01*
X180911585Y-49269805D01*
X180835317Y-49974249D01*
X180721942Y-50665440D01*
X180567848Y-51382159D01*
X180485592Y-51718068D01*
X180326151Y-52290112D01*
X180134371Y-52883066D01*
X179920397Y-53473867D01*
X179694373Y-54039448D01*
X179466446Y-54556747D01*
X179246761Y-55002699D01*
X179045461Y-55354240D01*
X178872693Y-55588306D01*
X178742341Y-55681222D01*
X178661107Y-55685342D01*
X178619814Y-55637080D01*
X178613663Y-55502848D01*
X178637855Y-55249057D01*
X178657391Y-55086661D01*
X178690540Y-54716752D01*
X178714513Y-54253886D01*
X178725840Y-53774910D01*
X178725847Y-53570067D01*
X178713772Y-53111428D01*
X178679140Y-52748276D01*
X178609579Y-52406504D01*
X178492715Y-52012005D01*
X178438217Y-51847373D01*
X178120099Y-51051426D01*
X177700508Y-50226101D01*
X177216567Y-49440290D01*
X176917550Y-49025251D01*
X176765149Y-48843990D01*
X176509947Y-48560230D01*
X176168904Y-48191987D01*
X175758980Y-47757275D01*
X175297132Y-47274109D01*
X174800321Y-46760504D01*
X174398445Y-46349331D01*
X173656916Y-45589973D01*
X173026535Y-44933152D01*
X172495788Y-44363848D01*
X172053160Y-43867040D01*
X171687136Y-43427708D01*
X171386202Y-43030830D01*
X171138844Y-42661388D01*
X170933547Y-42304359D01*
X170758797Y-41944724D01*
X170603079Y-41567463D01*
X170484934Y-41244193D01*
X170298071Y-40662971D01*
X170167320Y-40126861D01*
X170084329Y-39581819D01*
X170040744Y-38973798D01*
X170037485Y-38795524D01*
X170535278Y-38795524D01*
X170668304Y-39879424D01*
X170950496Y-40957798D01*
X170963901Y-40997492D01*
X171108141Y-41393098D01*
X171267127Y-41763262D01*
X171452623Y-42123405D01*
X171676397Y-42488949D01*
X171950214Y-42875316D01*
X172285841Y-43297926D01*
X172695044Y-43772201D01*
X173189589Y-44313564D01*
X173781243Y-44937434D01*
X174481770Y-45659234D01*
X174657864Y-45839024D01*
X175320553Y-46516587D01*
X175875524Y-47088746D01*
X176335688Y-47569739D01*
X176713955Y-47973804D01*
X177023238Y-48315180D01*
X177276449Y-48608104D01*
X177486497Y-48866814D01*
X177666295Y-49105549D01*
X177821429Y-49327680D01*
X178254280Y-50056526D01*
X178636010Y-50869602D01*
X178946179Y-51713478D01*
X179164346Y-52534725D01*
X179251031Y-53064464D01*
X179285889Y-53346383D01*
X179316329Y-53481724D01*
X179354257Y-53493024D01*
X179411582Y-53402819D01*
X179420689Y-53385559D01*
X179490188Y-53218167D01*
X179590886Y-52932190D01*
X179707506Y-52572462D01*
X179791234Y-52298079D01*
X180126109Y-50925154D01*
X180349242Y-49456856D01*
X180459519Y-47926760D01*
X180455827Y-46368440D01*
X180337050Y-44815471D01*
X180186174Y-43843311D01*
X180730435Y-43843311D01*
X180772910Y-43885786D01*
X180815385Y-43843311D01*
X180772910Y-43800836D01*
X180730435Y-43843311D01*
X180186174Y-43843311D01*
X180102075Y-43301428D01*
X180091554Y-43248662D01*
X179780407Y-41911804D01*
X179397858Y-40670149D01*
X178929074Y-39491964D01*
X178359225Y-38345515D01*
X177673479Y-37199070D01*
X176857007Y-36020894D01*
X176478660Y-35518227D01*
X176028994Y-34918052D01*
X175886432Y-34710949D01*
X176652843Y-34710949D01*
X176701687Y-34803724D01*
X176832662Y-34996232D01*
X177022432Y-35255005D01*
X177135534Y-35403261D01*
X177565982Y-35985113D01*
X178003893Y-36620980D01*
X178415444Y-37259238D01*
X178766812Y-37848264D01*
X178915804Y-38120425D01*
X179070414Y-38396640D01*
X179203512Y-38602214D01*
X179290775Y-38700334D01*
X179301274Y-38703846D01*
X179373828Y-38632541D01*
X179489252Y-38445295D01*
X179622980Y-38182114D01*
X179627275Y-38172910D01*
X179968583Y-37256610D01*
X180180758Y-36274135D01*
X180255686Y-35276415D01*
X180211762Y-34504814D01*
X180141878Y-33986447D01*
X180071513Y-33614015D01*
X179991021Y-33363798D01*
X179890754Y-33212080D01*
X179761063Y-33135143D01*
X179645557Y-33112880D01*
X179340497Y-33129263D01*
X178941239Y-33214761D01*
X178501299Y-33354538D01*
X178074189Y-33533761D01*
X178006282Y-33567299D01*
X177789742Y-33698546D01*
X177524847Y-33889605D01*
X177245854Y-34111530D01*
X176987022Y-34335373D01*
X176782609Y-34532185D01*
X176666872Y-34673019D01*
X176652843Y-34710949D01*
X175886432Y-34710949D01*
X175678429Y-34408779D01*
X175410236Y-33957018D01*
X175207687Y-33529376D01*
X175054052Y-33092461D01*
X174932603Y-32612881D01*
X174872065Y-32311371D01*
X174808035Y-32025658D01*
X174741896Y-31820230D01*
X174687596Y-31738075D01*
X174685994Y-31737960D01*
X174529834Y-31783896D01*
X174272799Y-31907905D01*
X173952255Y-32089291D01*
X173605568Y-32307356D01*
X173382274Y-32460117D01*
X172603961Y-33113823D01*
X171941607Y-33879223D01*
X171399959Y-34739570D01*
X170983758Y-35678120D01*
X170697749Y-36678126D01*
X170546674Y-37722842D01*
X170535278Y-38795524D01*
X170037485Y-38795524D01*
X170028231Y-38289362D01*
X170026756Y-37067854D01*
X169495820Y-37125433D01*
X169216438Y-37171233D01*
X168952015Y-37254874D01*
X168677769Y-37391731D01*
X168368920Y-37597180D01*
X168000686Y-37886596D01*
X167548286Y-38275355D01*
X167330843Y-38468712D01*
X166800176Y-38966082D01*
X166391993Y-39405261D01*
X166083825Y-39816683D01*
X165853205Y-40230783D01*
X165677663Y-40677995D01*
X165660555Y-40731139D01*
X165388139Y-41849378D01*
X165280795Y-42964172D01*
X165338894Y-44085312D01*
X165562807Y-45222590D01*
X165866800Y-46164511D01*
X166002930Y-46538568D01*
X166112739Y-46864687D01*
X166183668Y-47103965D01*
X166204014Y-47209035D01*
X166155887Y-47377497D01*
X166015649Y-47410670D01*
X165789508Y-47311825D01*
X165483673Y-47084233D01*
X165104355Y-46731165D01*
X164903733Y-46524160D01*
X164150670Y-45621966D01*
X163550639Y-44667493D01*
X163088864Y-43635048D01*
X162885677Y-43015050D01*
X162787917Y-42709505D01*
X162696730Y-42479334D01*
X162628106Y-42363395D01*
X162614749Y-42356689D01*
X162487567Y-42388685D01*
X162237519Y-42475750D01*
X161897240Y-42604501D01*
X161499362Y-42761554D01*
X161076520Y-42933525D01*
X160661347Y-43107031D01*
X160286478Y-43268688D01*
X159984545Y-43405111D01*
X159788183Y-43502918D01*
X159733883Y-43538186D01*
X159664301Y-43659949D01*
X159600774Y-43892033D01*
X159542264Y-44243993D01*
X159487730Y-44725385D01*
X159436131Y-45345764D01*
X159386428Y-46114683D01*
X159337580Y-47041699D01*
X159326100Y-47283779D01*
X159275364Y-48310011D01*
X159218994Y-49337886D01*
X159158533Y-50345490D01*
X159095526Y-51310906D01*
X159031518Y-52212220D01*
X158968053Y-53027516D01*
X158906675Y-53734879D01*
X158848929Y-54312393D01*
X158805272Y-54674415D01*
X158675644Y-55397286D01*
X158489159Y-55996088D01*
X158224134Y-56512972D01*
X157858888Y-56990086D01*
X157371737Y-57469581D01*
X157363772Y-57476668D01*
X156999186Y-57833855D01*
X156701720Y-58189744D01*
X156539119Y-58442821D01*
X156450943Y-58618553D01*
X156389301Y-58776115D01*
X156349855Y-58950005D01*
X156328271Y-59174722D01*
X156320211Y-59484767D01*
X156321340Y-59914638D01*
X156323694Y-60156782D01*
X156331158Y-60662980D01*
X156345716Y-61045666D01*
X156373980Y-61351227D01*
X156422559Y-61626050D01*
X156498063Y-61916523D01*
X156607104Y-62269031D01*
X156638638Y-62366906D01*
X156976519Y-63256875D01*
X157374887Y-64001200D01*
X157850571Y-64618433D01*
X158420404Y-65127126D01*
X159101215Y-65545830D01*
X159801396Y-65853038D01*
X160496437Y-66069044D01*
X161242900Y-66220538D01*
X161999628Y-66304628D01*
X162725463Y-66318424D01*
X163379248Y-66259033D01*
X163875832Y-66139311D01*
X164399994Y-65974907D01*
X165064877Y-65795556D01*
X165878250Y-65599342D01*
X166847886Y-65384350D01*
X167478261Y-65251678D01*
X168098797Y-65121838D01*
X168813289Y-64970139D01*
X169549922Y-64811956D01*
X170236883Y-64662666D01*
X170518124Y-64600838D01*
X171088335Y-64477566D01*
X171514895Y-64392472D01*
X171818982Y-64342527D01*
X172021773Y-64324707D01*
X172144447Y-64335986D01*
X172195883Y-64361108D01*
X172236751Y-64421165D01*
X172267934Y-64538048D01*
X172290622Y-64731617D01*
X172306009Y-65021734D01*
X172315284Y-65428261D01*
X172319641Y-65971060D01*
X172320402Y-66436779D01*
X172318576Y-67099649D01*
X172311861Y-67621353D01*
X172298396Y-68030600D01*
X172276323Y-68356098D01*
X172243783Y-68626553D01*
X172198916Y-68870674D01*
X172149151Y-69081060D01*
X171865734Y-69939830D01*
X171446290Y-70847116D01*
X170906244Y-71774443D01*
X170261024Y-72693335D01*
X170039475Y-72975233D01*
X169495747Y-73648962D01*
X169761252Y-74187377D01*
X169895477Y-74486594D01*
X169990946Y-74750992D01*
X170026756Y-74921432D01*
X169970636Y-75108362D01*
X169808503Y-75406333D01*
X169549700Y-75801648D01*
X169203566Y-76280613D01*
X168779444Y-76829530D01*
X168433770Y-77257044D01*
X167211547Y-78651621D01*
X165973110Y-79881247D01*
X164712461Y-80950561D01*
X163423600Y-81864205D01*
X162100529Y-82626820D01*
X160737251Y-83243045D01*
X160654296Y-83275368D01*
X160348721Y-83384190D01*
X159957032Y-83510431D01*
X159515347Y-83643961D01*
X159059783Y-83774648D01*
X158626456Y-83892362D01*
X158251484Y-83986973D01*
X157970984Y-84048349D01*
X157832674Y-84066828D01*
X157738237Y-84004122D01*
X157581435Y-83840720D01*
X157423438Y-83646783D01*
X157102933Y-83226510D01*
X156565113Y-83796628D01*
X156203140Y-84192059D01*
X155794401Y-84658300D01*
X155356569Y-85173303D01*
X154907317Y-85715023D01*
X154464318Y-86261415D01*
X154045245Y-86790433D01*
X153667771Y-87280031D01*
X153349568Y-87708164D01*
X153108309Y-88052785D01*
X152961916Y-88291372D01*
X152921362Y-88365770D01*
X152902867Y-88425214D01*
X152220292Y-88425214D01*
X153184849Y-87067169D01*
X154201767Y-85740033D01*
X155227072Y-84502846D01*
X155972194Y-83670231D01*
X156263876Y-83348238D01*
X156508182Y-83063497D01*
X156683839Y-82841962D01*
X156769575Y-82709583D01*
X156774582Y-82691370D01*
X156745485Y-82562196D01*
X156668226Y-82321319D01*
X156557854Y-82014738D01*
X156524736Y-81927718D01*
X156325855Y-81360175D01*
X156180632Y-80812775D01*
X156082364Y-80242474D01*
X156024347Y-79606226D01*
X155999878Y-78860984D01*
X155998244Y-78588694D01*
X156461751Y-78588694D01*
X156527650Y-79559555D01*
X156695549Y-80535564D01*
X156956391Y-81477979D01*
X157301120Y-82348058D01*
X157720683Y-83107059D01*
X157810527Y-83238937D01*
X157885321Y-83342817D01*
X157956327Y-83406326D01*
X158056608Y-83429765D01*
X158219230Y-83413435D01*
X158477256Y-83357636D01*
X158863752Y-83262669D01*
X158918891Y-83249013D01*
X160169910Y-82862058D01*
X161436120Y-82321644D01*
X162697058Y-81640430D01*
X163932266Y-80831073D01*
X165121283Y-79906233D01*
X166243649Y-78878567D01*
X166641117Y-78471443D01*
X167118472Y-77952682D01*
X167586650Y-77417255D01*
X168031542Y-76883714D01*
X168439038Y-76370611D01*
X168795031Y-75896498D01*
X169085411Y-75479928D01*
X169296070Y-75139452D01*
X169412899Y-74893623D01*
X169432107Y-74801471D01*
X169375414Y-74614634D01*
X169219120Y-74335363D01*
X168983902Y-73991220D01*
X168690440Y-73609768D01*
X168359411Y-73218568D01*
X168011492Y-72845181D01*
X167831218Y-72667641D01*
X167009956Y-71986378D01*
X166118225Y-71446407D01*
X165204292Y-71055606D01*
X164790242Y-70949485D01*
X164261169Y-70874555D01*
X163669431Y-70832850D01*
X163067385Y-70826404D01*
X162507387Y-70857250D01*
X162041794Y-70927422D01*
X162021935Y-70931998D01*
X161047221Y-71247233D01*
X160129674Y-71715691D01*
X159281960Y-72326629D01*
X158516745Y-73069301D01*
X157846694Y-73932964D01*
X157284473Y-74906873D01*
X157248151Y-74981674D01*
X157002959Y-75526202D01*
X156820496Y-76022656D01*
X156685010Y-76527988D01*
X156580748Y-77099153D01*
X156506906Y-77661721D01*
X156461751Y-78588694D01*
X155998244Y-78588694D01*
X155997983Y-78545318D01*
X156012029Y-77713365D01*
X156060727Y-77008219D01*
X156152819Y-76388776D01*
X156297045Y-75813931D01*
X156502145Y-75242580D01*
X156776861Y-74633617D01*
X156869526Y-74446639D01*
X157143956Y-73940119D01*
X157434611Y-73493740D01*
X157780058Y-73054134D01*
X158218865Y-72567929D01*
X158253760Y-72531102D01*
X158953026Y-71870351D01*
X159699932Y-71321007D01*
X160533139Y-70858525D01*
X161491305Y-70458362D01*
X161554805Y-70435369D01*
X161789044Y-70332776D01*
X162121246Y-70163314D01*
X162189047Y-70125916D01*
X163291290Y-70125916D01*
X163494642Y-70163125D01*
X164292782Y-70316825D01*
X164952659Y-70463767D01*
X165505035Y-70614418D01*
X165980673Y-70779243D01*
X166410333Y-70968710D01*
X166824779Y-71193282D01*
X167188536Y-71419893D01*
X167554231Y-71684358D01*
X167960421Y-72018070D01*
X168336359Y-72361856D01*
X168445067Y-72470887D01*
X168707493Y-72733411D01*
X168933309Y-72942955D01*
X169092954Y-73072988D01*
X169148801Y-73102466D01*
X169252759Y-73046139D01*
X169425076Y-72893350D01*
X169603206Y-72705017D01*
X170141760Y-72026236D01*
X170637867Y-71271369D01*
X171074020Y-70476023D01*
X171432715Y-69675807D01*
X171696446Y-68906331D01*
X171847708Y-68203204D01*
X171858288Y-68117726D01*
X171917598Y-67586789D01*
X171248264Y-67587290D01*
X170406574Y-67630823D01*
X169472362Y-67753462D01*
X168497648Y-67945017D01*
X167534448Y-68195297D01*
X166651486Y-68487849D01*
X166288243Y-68632789D01*
X165846662Y-68822925D01*
X165360894Y-69042042D01*
X164865094Y-69273927D01*
X164393413Y-69502365D01*
X163980006Y-69711142D01*
X163659025Y-69884042D01*
X163480917Y-69993096D01*
X163291290Y-70125916D01*
X162189047Y-70125916D01*
X162505916Y-69951138D01*
X162871527Y-69736254D01*
X164290367Y-68937496D01*
X165678213Y-68288615D01*
X167063371Y-67780272D01*
X168474147Y-67403130D01*
X169938847Y-67147849D01*
X171067391Y-67032404D01*
X171810703Y-66976889D01*
X171810703Y-65916917D01*
X171808850Y-65476649D01*
X171800751Y-65180220D01*
X171782593Y-65001584D01*
X171750565Y-64914698D01*
X171700856Y-64893517D01*
X171662040Y-64901188D01*
X171546237Y-64928603D01*
X171284347Y-64986512D01*
X170896575Y-65070576D01*
X170403125Y-65176456D01*
X169824203Y-65299814D01*
X169180012Y-65436311D01*
X168625084Y-65553350D01*
X167892738Y-65710036D01*
X167165712Y-65870275D01*
X166472941Y-66027348D01*
X165843359Y-66174539D01*
X165305901Y-66305130D01*
X164889504Y-66412402D01*
X164717391Y-66460547D01*
X164101311Y-66636299D01*
X163605748Y-66761915D01*
X163190521Y-66842413D01*
X162815449Y-66882814D01*
X162440352Y-66888137D01*
X162025049Y-66863401D01*
X161723667Y-66834537D01*
X160724628Y-66672565D01*
X159788247Y-66406759D01*
X158932406Y-66046943D01*
X158174987Y-65602939D01*
X157533871Y-65084570D01*
X157026941Y-64501659D01*
X156796068Y-64127739D01*
X156417155Y-63298169D01*
X156118821Y-62410003D01*
X155907254Y-61499026D01*
X155788645Y-60601020D01*
X155769183Y-59751770D01*
X155855057Y-58987058D01*
X155883861Y-58853982D01*
X155982038Y-58483703D01*
X156096181Y-58181519D01*
X156250799Y-57908739D01*
X156470402Y-57626673D01*
X156779500Y-57296627D01*
X157024715Y-57053010D01*
X157438407Y-56626623D01*
X157742540Y-56252008D01*
X157965781Y-55882152D01*
X158136800Y-55470041D01*
X158275714Y-55001525D01*
X158339585Y-54752074D01*
X158369208Y-54562467D01*
X158347693Y-54407343D01*
X158258153Y-54261339D01*
X158083700Y-54099093D01*
X157807446Y-53895243D01*
X157412503Y-53624426D01*
X157314221Y-53557568D01*
X156132065Y-52652568D01*
X155036580Y-51611430D01*
X154040037Y-50450758D01*
X153154705Y-49187157D01*
X152392856Y-47837232D01*
X151766759Y-46417587D01*
X151516727Y-45712207D01*
X151338604Y-45157782D01*
X151197676Y-44686515D01*
X151089124Y-44265683D01*
X151008127Y-43862565D01*
X150949866Y-43444437D01*
X150909521Y-42978577D01*
X150882273Y-42432262D01*
X150863302Y-41772771D01*
X150851857Y-41198181D01*
X150850541Y-41117564D01*
X151361812Y-41117564D01*
X151370353Y-41345954D01*
X151393719Y-41670828D01*
X151422714Y-41985425D01*
X151653692Y-43578732D01*
X152020611Y-45081023D01*
X152530404Y-46511835D01*
X153190002Y-47890708D01*
X153983346Y-49202830D01*
X154411678Y-49786278D01*
X154947172Y-50425130D01*
X155554261Y-51082622D01*
X156197379Y-51721991D01*
X156840962Y-52306473D01*
X157449444Y-52799303D01*
X157496650Y-52834490D01*
X158261193Y-53400201D01*
X158335551Y-53177128D01*
X158355741Y-52905015D01*
X158280491Y-52688649D01*
X158167444Y-52500679D01*
X157979212Y-52231479D01*
X157750272Y-51929594D01*
X157669660Y-51828595D01*
X156874751Y-50727289D01*
X156184282Y-49526641D01*
X155624789Y-48275186D01*
X155431677Y-47735319D01*
X155172412Y-46854741D01*
X154992815Y-46002243D01*
X154878272Y-45100613D01*
X154841368Y-44615904D01*
X154781459Y-43655794D01*
X155476481Y-43655794D01*
X155524764Y-44641526D01*
X155654947Y-45800019D01*
X155927370Y-46993064D01*
X156330678Y-48182587D01*
X156853517Y-49330516D01*
X157010111Y-49621927D01*
X157177354Y-49902301D01*
X157391129Y-50231320D01*
X157630354Y-50580007D01*
X157873949Y-50919386D01*
X158100830Y-51220480D01*
X158289917Y-51454314D01*
X158420126Y-51591910D01*
X158461066Y-51616221D01*
X158507146Y-51539031D01*
X158554161Y-51337681D01*
X158588532Y-51085284D01*
X158606639Y-50862845D01*
X158631263Y-50497934D01*
X158660791Y-50017783D01*
X158693612Y-49449625D01*
X158728114Y-48820695D01*
X158762686Y-48158223D01*
X158768248Y-48048328D01*
X158817042Y-47093250D01*
X158859498Y-46293739D01*
X158896547Y-45635619D01*
X158929118Y-45104712D01*
X158958139Y-44686843D01*
X158984540Y-44367833D01*
X159009249Y-44133506D01*
X159033197Y-43969685D01*
X159036882Y-43949793D01*
X159081597Y-43716477D01*
X157821902Y-43765733D01*
X157322389Y-43778215D01*
X156832750Y-43778041D01*
X156402007Y-43766035D01*
X156079187Y-43743022D01*
X156019344Y-43735391D01*
X155476481Y-43655794D01*
X154781459Y-43655794D01*
X154778261Y-43604551D01*
X154185534Y-43364691D01*
X153591056Y-43078097D01*
X153005855Y-42712482D01*
X152464526Y-42295758D01*
X152001668Y-41855839D01*
X151651877Y-41420636D01*
X151537855Y-41228532D01*
X151441005Y-41072381D01*
X151374205Y-41019229D01*
X151370073Y-41021845D01*
X151361812Y-41117564D01*
X150850541Y-41117564D01*
X150847956Y-40959296D01*
X152197170Y-40959296D01*
X152239252Y-41028719D01*
X152379106Y-41188928D01*
X152592208Y-41412772D01*
X152749229Y-41570486D01*
X153341468Y-42081052D01*
X153989891Y-42486295D01*
X154727714Y-42802947D01*
X155588153Y-43047739D01*
X155755184Y-43084730D01*
X156262208Y-43155408D01*
X156879982Y-43183910D01*
X157555309Y-43172639D01*
X158234993Y-43123998D01*
X158865836Y-43040391D01*
X159394643Y-42924221D01*
X159410721Y-42919573D01*
X160006985Y-42736616D01*
X160516389Y-42562526D01*
X160915095Y-42406162D01*
X161179263Y-42276385D01*
X161228956Y-42243785D01*
X161277577Y-42195346D01*
X161293073Y-42126824D01*
X161265838Y-42017442D01*
X161186266Y-41846426D01*
X161044749Y-41593000D01*
X160831681Y-41236390D01*
X160551381Y-40778459D01*
X160266438Y-40317081D01*
X159991588Y-39875552D01*
X159747239Y-39486401D01*
X159683020Y-39385395D01*
X160468695Y-39385395D01*
X160484608Y-39503079D01*
X160589472Y-39740996D01*
X160773289Y-40081267D01*
X161026059Y-40506015D01*
X161337783Y-40997360D01*
X161548523Y-41316053D01*
X161805107Y-41667296D01*
X162010149Y-41869396D01*
X162178452Y-41929621D01*
X162324815Y-41855240D01*
X162413525Y-41740803D01*
X162458570Y-41625426D01*
X162494389Y-41424974D01*
X162522497Y-41120489D01*
X162544409Y-40693014D01*
X162547030Y-40606369D01*
X163074663Y-40606369D01*
X163089946Y-41165998D01*
X163126954Y-41622842D01*
X163142584Y-41733480D01*
X163329047Y-42579501D01*
X163609588Y-43440167D01*
X163964065Y-44267409D01*
X164372337Y-45013159D01*
X164733692Y-45530849D01*
X164924433Y-45761723D01*
X165072649Y-45923297D01*
X165150006Y-45985010D01*
X165153672Y-45983842D01*
X165149321Y-45892167D01*
X165109478Y-45674597D01*
X165041672Y-45369603D01*
X164999052Y-45193999D01*
X164889232Y-44599478D01*
X164822618Y-43905191D01*
X164799205Y-43163044D01*
X164818986Y-42424943D01*
X164881957Y-41742792D01*
X164988111Y-41168497D01*
X164999502Y-41124916D01*
X165233479Y-40417131D01*
X165548648Y-39699689D01*
X165919019Y-39022081D01*
X166318602Y-38433798D01*
X166568917Y-38136377D01*
X167172943Y-37560220D01*
X167791408Y-37127372D01*
X168466779Y-36815029D01*
X169241522Y-36600387D01*
X169529504Y-36546557D01*
X170121041Y-36446887D01*
X170370531Y-35704443D01*
X170587269Y-35103914D01*
X170802866Y-34611741D01*
X171045255Y-34168890D01*
X171242396Y-33861706D01*
X171581728Y-33400363D01*
X171974875Y-32931539D01*
X172376908Y-32505555D01*
X172742901Y-32172736D01*
X172768616Y-32152166D01*
X173174359Y-31831445D01*
X172857423Y-31771987D01*
X172665365Y-31754953D01*
X172340514Y-31746475D01*
X171919766Y-31746686D01*
X171440020Y-31755723D01*
X171132641Y-31765684D01*
X170109732Y-31833161D01*
X169216858Y-31958764D01*
X168421347Y-32151707D01*
X167690527Y-32421205D01*
X166991726Y-32776473D01*
X166530122Y-33063784D01*
X165653684Y-33747187D01*
X164888564Y-34554058D01*
X164242257Y-35473379D01*
X163722259Y-36494132D01*
X163336064Y-37605297D01*
X163271377Y-37854348D01*
X163200638Y-38247375D01*
X163144090Y-38764458D01*
X163103241Y-39360231D01*
X163079596Y-39989324D01*
X163074663Y-40606369D01*
X162547030Y-40606369D01*
X162561637Y-40123591D01*
X162568596Y-39799015D01*
X162602546Y-38048364D01*
X162053517Y-38424244D01*
X161702535Y-38652008D01*
X161322474Y-38879469D01*
X161014620Y-39047408D01*
X160752095Y-39189060D01*
X160553615Y-39313056D01*
X160468695Y-39385395D01*
X159683020Y-39385395D01*
X159553799Y-39182153D01*
X159444962Y-39015063D01*
X159170362Y-38604207D01*
X158472424Y-39246885D01*
X157765225Y-39854101D01*
X157100557Y-40327278D01*
X156446766Y-40685225D01*
X155772194Y-40946750D01*
X155461249Y-41035963D01*
X155047053Y-41109548D01*
X154528260Y-41152425D01*
X153963593Y-41164363D01*
X153411777Y-41145128D01*
X152931534Y-41094488D01*
X152694380Y-41046931D01*
X152436374Y-40986706D01*
X152253968Y-40956699D01*
X152197170Y-40959296D01*
X150847956Y-40959296D01*
X150840520Y-40504133D01*
X150835302Y-39950918D01*
X150836945Y-39622294D01*
X151409000Y-39622294D01*
X151974300Y-39938428D01*
X152307428Y-40112752D01*
X152637795Y-40266116D01*
X152893984Y-40365370D01*
X152894382Y-40365494D01*
X153160222Y-40419685D01*
X153526435Y-40457351D01*
X153941980Y-40477465D01*
X154355818Y-40479001D01*
X154716908Y-40460931D01*
X154974210Y-40422227D01*
X155018891Y-40408249D01*
X155133658Y-40333078D01*
X155206399Y-40235566D01*
X156010506Y-40235566D01*
X156413782Y-40030952D01*
X156686946Y-39875642D01*
X157023587Y-39660907D01*
X157353215Y-39431813D01*
X157369231Y-39420067D01*
X157715040Y-39147497D01*
X158079367Y-38832029D01*
X158367066Y-38558031D01*
X158812728Y-38102266D01*
X158605244Y-37702220D01*
X158424234Y-37377140D01*
X158218096Y-37039704D01*
X158149953Y-36936094D01*
X158033832Y-36764550D01*
X158720811Y-36764550D01*
X158950379Y-37160787D01*
X159198823Y-37578785D01*
X159447359Y-37977978D01*
X159678798Y-38332718D01*
X159875956Y-38617356D01*
X160021644Y-38806244D01*
X160098228Y-38873746D01*
X160209163Y-38838000D01*
X160424792Y-38744170D01*
X160698972Y-38612366D01*
X160705934Y-38608880D01*
X161310403Y-38267801D01*
X161888839Y-37871396D01*
X162386880Y-37458798D01*
X162603100Y-37243207D01*
X162789488Y-37001797D01*
X163008870Y-36658337D01*
X163227929Y-36267203D01*
X163346190Y-36030485D01*
X163539807Y-35633634D01*
X163738749Y-35245625D01*
X163913917Y-34922362D01*
X163996281Y-34781470D01*
X164134998Y-34543539D01*
X164227215Y-34361441D01*
X164250167Y-34292509D01*
X164188354Y-34213738D01*
X164021558Y-34053458D01*
X163777744Y-33835947D01*
X163484878Y-33585481D01*
X163170926Y-33326337D01*
X162863853Y-33082792D01*
X162800906Y-33034410D01*
X162724381Y-33005875D01*
X162632049Y-33050013D01*
X162501756Y-33187348D01*
X162311350Y-33438405D01*
X162206257Y-33585333D01*
X161674485Y-34258367D01*
X161037233Y-34940614D01*
X160347227Y-35580382D01*
X159657194Y-36125977D01*
X159510406Y-36228381D01*
X158720811Y-36764550D01*
X158033832Y-36764550D01*
X157902146Y-36570014D01*
X157579541Y-37056038D01*
X157287849Y-37526948D01*
X156976055Y-38082769D01*
X156673779Y-38666446D01*
X156410641Y-39220925D01*
X156225686Y-39663885D01*
X156010506Y-40235566D01*
X155206399Y-40235566D01*
X155247268Y-40180780D01*
X155376064Y-39923404D01*
X155536391Y-39532998D01*
X155547723Y-39503821D01*
X155875274Y-38724956D01*
X156254210Y-37934252D01*
X156654711Y-37190338D01*
X157046958Y-36551846D01*
X157055754Y-36538706D01*
X157435090Y-35973248D01*
X156566448Y-34386540D01*
X156401228Y-34084404D01*
X157210802Y-34084404D01*
X157234022Y-34165217D01*
X157327687Y-34359509D01*
X157474277Y-34635404D01*
X157656275Y-34961026D01*
X157856160Y-35304497D01*
X158056416Y-35633942D01*
X158103844Y-35709364D01*
X158270642Y-35943757D01*
X158420454Y-36105289D01*
X158507882Y-36155351D01*
X158629709Y-36110388D01*
X158851081Y-35990323D01*
X159132288Y-35817396D01*
X159253975Y-35737506D01*
X159624863Y-35464271D01*
X160029839Y-35123382D01*
X160448734Y-34736550D01*
X160861381Y-34325487D01*
X161247614Y-33911905D01*
X161587267Y-33517517D01*
X161860171Y-33164034D01*
X162046159Y-32873168D01*
X162125066Y-32666631D01*
X162126245Y-32647807D01*
X163325837Y-32647807D01*
X163639340Y-32941373D01*
X163925353Y-33202561D01*
X164199587Y-33441542D01*
X164431509Y-33632870D01*
X164590590Y-33751099D01*
X164641668Y-33776756D01*
X164723455Y-33725822D01*
X164900579Y-33590389D01*
X165139370Y-33396510D01*
X165218087Y-33330769D01*
X165562072Y-33046917D01*
X165944049Y-32739634D01*
X166265109Y-32488023D01*
X166683198Y-32111644D01*
X166937372Y-31766967D01*
X167613012Y-31766967D01*
X167821724Y-31706036D01*
X168317930Y-31561189D01*
X168721902Y-31446646D01*
X169063271Y-31358779D01*
X169371671Y-31293957D01*
X169676732Y-31248550D01*
X170008089Y-31218929D01*
X170395372Y-31201464D01*
X170868215Y-31192526D01*
X171456249Y-31188484D01*
X172065552Y-31186200D01*
X174486622Y-31176896D01*
X174996321Y-30949745D01*
X175289245Y-30830809D01*
X175543259Y-30747832D01*
X175686258Y-30720578D01*
X175835413Y-30674811D01*
X176081094Y-30554164D01*
X176380305Y-30380716D01*
X176516463Y-30294258D01*
X177357319Y-29793691D01*
X178250866Y-29361049D01*
X179234952Y-28980062D01*
X180347426Y-28634462D01*
X180433111Y-28610615D01*
X180989251Y-28460529D01*
X181406989Y-28358432D01*
X181710054Y-28301536D01*
X181922178Y-28287050D01*
X182067090Y-28312184D01*
X182168522Y-28374147D01*
X182197383Y-28403177D01*
X182320645Y-28583156D01*
X182489935Y-28891277D01*
X182691302Y-29296725D01*
X182910794Y-29768679D01*
X183134461Y-30276324D01*
X183348352Y-30788841D01*
X183538516Y-31275412D01*
X183687785Y-31695485D01*
X183928015Y-32481465D01*
X184092781Y-33179628D01*
X184192321Y-33848857D01*
X184236875Y-34548033D01*
X184241698Y-34881104D01*
X184174552Y-36033272D01*
X183963773Y-37164922D01*
X183603173Y-38301296D01*
X183147654Y-39344379D01*
X182960933Y-39701039D01*
X182721936Y-40121263D01*
X182449833Y-40575049D01*
X182163790Y-41032398D01*
X181882978Y-41463308D01*
X181626565Y-41837779D01*
X181413719Y-42125810D01*
X181263609Y-42297401D01*
X181257084Y-42303279D01*
X181071535Y-42403487D01*
X180907644Y-42394765D01*
X180819339Y-42284387D01*
X180815385Y-42243706D01*
X180859910Y-42133786D01*
X180982414Y-41910997D01*
X181166295Y-41603607D01*
X181394948Y-41239884D01*
X181503046Y-41072979D01*
X182239539Y-39870184D01*
X182828279Y-38731894D01*
X183270436Y-37640837D01*
X183567181Y-36579739D01*
X183719684Y-35531329D01*
X183729117Y-34478335D01*
X183596650Y-33403483D01*
X183323454Y-32289502D01*
X182910699Y-31119119D01*
X182359557Y-29875061D01*
X182273944Y-29699164D01*
X182115979Y-29377916D01*
X181985595Y-29146810D01*
X181854570Y-28999119D01*
X181694681Y-28928116D01*
X181477707Y-28927076D01*
X181175424Y-28989271D01*
X180759612Y-29107977D01*
X180333922Y-29236794D01*
X179144219Y-29634258D01*
X178116512Y-30060574D01*
X177244804Y-30519210D01*
X176523100Y-31013634D01*
X175945401Y-31547314D01*
X175606109Y-31970963D01*
X175378075Y-32300018D01*
X175515311Y-32762300D01*
X175608598Y-33033893D01*
X175734485Y-33345462D01*
X175874371Y-33657505D01*
X176009649Y-33930519D01*
X176121717Y-34125000D01*
X176191971Y-34201447D01*
X176193113Y-34201505D01*
X176275111Y-34150198D01*
X176452886Y-34013328D01*
X176693706Y-33816470D01*
X176794916Y-33731275D01*
X177520507Y-33208309D01*
X178293610Y-32822640D01*
X179088792Y-32584461D01*
X179857518Y-32503983D01*
X180099180Y-32519834D01*
X180240305Y-32593099D01*
X180346422Y-32753995D01*
X180535437Y-33246320D01*
X180669115Y-33862076D01*
X180745925Y-34563538D01*
X180764336Y-35312983D01*
X180722820Y-36072688D01*
X180619845Y-36804929D01*
X180527447Y-37217224D01*
X180382978Y-37690430D01*
X180192358Y-38208042D01*
X179989772Y-38679544D01*
X179925983Y-38809859D01*
X179546566Y-39552995D01*
X179834966Y-40308732D01*
X179973224Y-40655498D01*
X180162347Y-41108299D01*
X180381789Y-41619005D01*
X180611005Y-42139488D01*
X180720716Y-42383627D01*
X180985060Y-42977522D01*
X181219848Y-43531197D01*
X181431134Y-44065183D01*
X181624970Y-44600014D01*
X181807406Y-45156221D01*
X181984496Y-45754338D01*
X182162291Y-46414896D01*
X182346842Y-47158429D01*
X182544202Y-48005468D01*
X182760423Y-48976546D01*
X183001556Y-50092197D01*
X183024689Y-50200406D01*
X183257318Y-51268676D01*
X183468309Y-52190291D01*
X183663407Y-52986277D01*
X183848357Y-53677658D01*
X184028905Y-54285458D01*
X184210793Y-54830702D01*
X184399768Y-55334414D01*
X184484652Y-55543513D01*
X185074020Y-56771400D01*
X185787663Y-57928607D01*
X186611195Y-59002017D01*
X187530233Y-59978509D01*
X188530392Y-60844965D01*
X189597288Y-61588266D01*
X190716537Y-62195292D01*
X191873754Y-62652925D01*
X192465621Y-62822498D01*
X193685485Y-63051836D01*
X194893842Y-63122872D01*
X196120792Y-63036256D01*
X196838668Y-62916859D01*
X197846810Y-62646243D01*
X198896546Y-62231911D01*
X199961789Y-61685983D01*
X201016452Y-61020580D01*
X201203345Y-60888918D01*
X201755519Y-60493478D01*
X200948495Y-60438473D01*
X200280661Y-60367439D01*
X199722263Y-60241334D01*
X199216262Y-60039027D01*
X198705620Y-59739387D01*
X198321050Y-59465062D01*
X197674162Y-58882988D01*
X197085520Y-58162057D01*
X196571619Y-57328098D01*
X196148955Y-56406946D01*
X195902718Y-55677756D01*
X195801826Y-55318005D01*
X195715273Y-54980912D01*
X195641939Y-54650300D01*
X195580707Y-54309993D01*
X195530458Y-53943813D01*
X195490072Y-53535586D01*
X195458432Y-53069134D01*
X195434419Y-52528280D01*
X195416913Y-51896849D01*
X195404797Y-51158664D01*
X195396952Y-50297549D01*
X195392258Y-49297327D01*
X195389797Y-48260702D01*
X195387744Y-47224305D01*
X195385095Y-46341997D01*
X195381327Y-45597971D01*
X195375913Y-44976416D01*
X195368327Y-44461523D01*
X195358045Y-44037482D01*
X195344541Y-43688485D01*
X195327288Y-43398721D01*
X195305762Y-43152381D01*
X195279437Y-42933656D01*
X195247787Y-42726737D01*
X195210286Y-42515814D01*
X195196349Y-42441639D01*
X194767241Y-40598983D01*
X194194100Y-38830426D01*
X193481265Y-37143630D01*
X192633079Y-35546261D01*
X191653881Y-34045983D01*
X190548011Y-32650458D01*
X189319812Y-31367352D01*
X188515970Y-30646160D01*
X187281490Y-29704065D01*
X185968341Y-28896400D01*
X184595136Y-28232345D01*
X183180489Y-27721079D01*
X181962208Y-27414066D01*
X180337258Y-27171196D01*
X178711720Y-27096518D01*
X177095675Y-27188734D01*
X175499205Y-27446549D01*
X173932390Y-27868665D01*
X172405314Y-28453788D01*
X171845124Y-28714890D01*
X171145674Y-29079835D01*
X170442536Y-29487981D01*
X169762204Y-29920873D01*
X169131168Y-30360058D01*
X168575923Y-30787082D01*
X168122961Y-31183491D01*
X167798775Y-31530831D01*
X167794167Y-31536666D01*
X167613012Y-31766967D01*
X166937372Y-31766967D01*
X166988187Y-31698060D01*
X167048363Y-31590580D01*
X167212251Y-31327211D01*
X167434609Y-31053300D01*
X167733091Y-30752110D01*
X168125354Y-30406904D01*
X168629053Y-30000942D01*
X169132037Y-29615194D01*
X169723940Y-29168283D01*
X169344411Y-29228537D01*
X168382163Y-29435704D01*
X167407531Y-29745285D01*
X166481730Y-30135044D01*
X165734372Y-30539989D01*
X165290209Y-30835086D01*
X164823799Y-31181169D01*
X164372399Y-31547348D01*
X163973267Y-31902728D01*
X163663661Y-32216417D01*
X163554390Y-32347556D01*
X163325837Y-32647807D01*
X162126245Y-32647807D01*
X162126422Y-32644994D01*
X162063870Y-32552231D01*
X161897480Y-32384406D01*
X161659153Y-32168639D01*
X161380788Y-31932050D01*
X161094286Y-31701760D01*
X160831546Y-31504889D01*
X160626219Y-31369568D01*
X160527826Y-31405784D01*
X160362837Y-31569448D01*
X160150445Y-31841361D01*
X160139999Y-31855948D01*
X159504384Y-32606228D01*
X158760284Y-33235144D01*
X157974982Y-33702592D01*
X157657000Y-33858852D01*
X157401671Y-33985833D01*
X157243896Y-34066099D01*
X157210802Y-34084404D01*
X156401228Y-34084404D01*
X156275770Y-33854983D01*
X155982938Y-33318445D01*
X155708561Y-32814757D01*
X155473244Y-32381751D01*
X155297595Y-32057258D01*
X155288162Y-32039761D01*
X154878516Y-31279690D01*
X154587610Y-31615012D01*
X154317376Y-31964188D01*
X154002043Y-32433376D01*
X153663427Y-32986423D01*
X153323346Y-33587175D01*
X153003617Y-34199479D01*
X152898609Y-34413879D01*
X152352395Y-35697337D01*
X151911393Y-37041225D01*
X151592147Y-38390480D01*
X151465331Y-39184307D01*
X151409000Y-39622294D01*
X150836945Y-39622294D01*
X150837509Y-39509537D01*
X150848445Y-39150993D01*
X150869416Y-38846287D01*
X150901728Y-38566421D01*
X150946685Y-38282396D01*
X150994855Y-38021061D01*
X151347876Y-36578568D01*
X151850204Y-35129614D01*
X152486236Y-33708607D01*
X153240368Y-32349956D01*
X154075149Y-31120253D01*
X155585284Y-31120253D01*
X155625092Y-31228125D01*
X155732218Y-31449104D01*
X155888214Y-31749638D01*
X156074633Y-32096170D01*
X156273027Y-32455147D01*
X156464949Y-32793012D01*
X156631951Y-33076211D01*
X156755586Y-33271189D01*
X156800991Y-33331558D01*
X156909870Y-33432220D01*
X157027038Y-33476028D01*
X157185625Y-33457541D01*
X157418762Y-33371318D01*
X157759581Y-33211920D01*
X157875391Y-33155123D01*
X158228388Y-32947794D01*
X158607300Y-32669614D01*
X158986347Y-32346327D01*
X159339752Y-32003679D01*
X159641735Y-31667417D01*
X159866518Y-31363285D01*
X159988323Y-31117029D01*
X160002676Y-31030552D01*
X159936608Y-30923931D01*
X159751373Y-30735728D01*
X159466422Y-30482600D01*
X159101210Y-30181200D01*
X158675187Y-29848184D01*
X158258114Y-29536856D01*
X157915224Y-29286407D01*
X157241015Y-29880414D01*
X156895680Y-30171009D01*
X156532228Y-30454613D01*
X156207450Y-30687733D01*
X156076045Y-30772541D01*
X155829277Y-30929215D01*
X155653043Y-31054026D01*
X155585287Y-31120091D01*
X155585284Y-31120253D01*
X154075149Y-31120253D01*
X154096997Y-31088070D01*
X154200788Y-30951475D01*
X154352573Y-30754899D01*
X154455241Y-30600808D01*
X154506112Y-30458087D01*
X154502507Y-30295623D01*
X154441744Y-30082302D01*
X154321143Y-29787010D01*
X154138023Y-29378634D01*
X154048180Y-29179998D01*
X153799436Y-28608809D01*
X153627826Y-28162021D01*
X153527247Y-27815920D01*
X153495419Y-27575633D01*
X153937904Y-27575633D01*
X154221872Y-28276361D01*
X154382273Y-28656110D01*
X154568907Y-29072973D01*
X154764545Y-29491189D01*
X154951957Y-29875000D01*
X155113913Y-30188647D01*
X155233184Y-30396370D01*
X155265433Y-30442227D01*
X155393123Y-30472044D01*
X155622430Y-30395809D01*
X155932331Y-30225053D01*
X156301806Y-29971308D01*
X156697295Y-29656738D01*
X156954907Y-29429707D01*
X157165050Y-29228024D01*
X157289793Y-29088513D01*
X157302136Y-29069593D01*
X157328887Y-29009206D01*
X157326479Y-28947571D01*
X157279010Y-28870829D01*
X157170578Y-28765119D01*
X156985281Y-28616582D01*
X156707218Y-28411358D01*
X156697696Y-28404568D01*
X158133779Y-28404568D01*
X158190175Y-28509824D01*
X158326849Y-28661549D01*
X158336236Y-28670448D01*
X158454265Y-28770718D01*
X158679941Y-28953019D01*
X158993829Y-29202285D01*
X159376494Y-29503451D01*
X159808502Y-29841453D01*
X160270416Y-30201223D01*
X160742803Y-30567698D01*
X161206228Y-30925810D01*
X161641255Y-31260496D01*
X162028449Y-31556690D01*
X162348377Y-31799325D01*
X162581602Y-31973337D01*
X162708691Y-32063660D01*
X162725644Y-32073008D01*
X162806509Y-32019852D01*
X162960706Y-31878969D01*
X163065443Y-31773469D01*
X163370693Y-31478622D01*
X163770043Y-31124458D01*
X164218075Y-30748621D01*
X164669373Y-30388752D01*
X165078519Y-30082494D01*
X165247335Y-29965093D01*
X165590409Y-29706814D01*
X165784160Y-29490391D01*
X165833091Y-29378111D01*
X165879275Y-29199120D01*
X165893271Y-29146990D01*
X166721170Y-29146990D01*
X167136103Y-28678094D01*
X168171970Y-28678094D01*
X168262832Y-28663276D01*
X168479399Y-28625353D01*
X168780217Y-28571613D01*
X168879933Y-28553633D01*
X169324136Y-28490257D01*
X169819528Y-28444866D01*
X170232160Y-28427880D01*
X170532948Y-28421520D01*
X170776180Y-28396951D01*
X171009086Y-28341377D01*
X171278898Y-28242001D01*
X171632850Y-28086027D01*
X171829935Y-27995000D01*
X173325708Y-27392379D01*
X174886935Y-26940420D01*
X176496463Y-26641320D01*
X178137137Y-26497277D01*
X179791807Y-26510486D01*
X181443317Y-26683145D01*
X181720859Y-26728228D01*
X183195677Y-27065259D01*
X184627959Y-27559945D01*
X186010351Y-28203726D01*
X187335502Y-28988040D01*
X188596061Y-29904326D01*
X189784675Y-30944023D01*
X190893993Y-32098570D01*
X191916663Y-33359406D01*
X192845334Y-34717971D01*
X193672654Y-36165701D01*
X194391270Y-37694038D01*
X194993831Y-39294420D01*
X195472986Y-40958285D01*
X195821383Y-42677073D01*
X195905190Y-43245769D01*
X195934509Y-43498629D01*
X195958665Y-43789562D01*
X195977943Y-44134224D01*
X195992633Y-44548274D01*
X196003021Y-45047369D01*
X196009396Y-45647166D01*
X196012043Y-46363322D01*
X196011251Y-47211496D01*
X196007308Y-48207345D01*
X196004794Y-48671159D01*
X195978930Y-53159207D01*
X196207497Y-53356223D01*
X196425551Y-53497326D01*
X196773128Y-53667586D01*
X197215247Y-53853673D01*
X197716929Y-54042258D01*
X198243195Y-54220012D01*
X198759064Y-54373605D01*
X199115386Y-54464298D01*
X199621851Y-54569411D01*
X200083104Y-54633491D01*
X200549744Y-54658880D01*
X201072369Y-54647922D01*
X201701575Y-54602958D01*
X201840468Y-54590477D01*
X202852354Y-54418262D01*
X203841501Y-54097818D01*
X204768597Y-53644424D01*
X205450836Y-53187308D01*
X206122407Y-52601440D01*
X206782094Y-51898327D01*
X207388664Y-51128071D01*
X207900887Y-50340773D01*
X208107075Y-49959699D01*
X208519077Y-48993503D01*
X208837754Y-47944714D01*
X209055389Y-46856923D01*
X209164263Y-45773719D01*
X209156658Y-44738694D01*
X209111460Y-44287312D01*
X209048139Y-43841294D01*
X208995183Y-43556719D01*
X208945938Y-43425989D01*
X208893749Y-43441500D01*
X208831962Y-43595654D01*
X208754297Y-43879366D01*
X208462587Y-44711990D01*
X208027467Y-45518125D01*
X207474835Y-46257141D01*
X206842404Y-46878606D01*
X206202718Y-47317386D01*
X205495642Y-47616847D01*
X204693232Y-47788656D01*
X204649250Y-47794210D01*
X203623019Y-47836679D01*
X202618320Y-47712259D01*
X201641357Y-47423265D01*
X200698332Y-46972016D01*
X199795449Y-46360828D01*
X199049022Y-45702374D01*
X198627308Y-45272197D01*
X198239039Y-44841691D01*
X197877360Y-44397394D01*
X197535415Y-43925847D01*
X197206349Y-43413589D01*
X196883306Y-42847157D01*
X196559431Y-42213093D01*
X196227867Y-41497934D01*
X195881760Y-40688221D01*
X195514253Y-39770492D01*
X195118492Y-38731287D01*
X194687620Y-37557145D01*
X194214783Y-36234605D01*
X194186736Y-36155351D01*
X193786049Y-35042766D01*
X193420069Y-34073237D01*
X193079006Y-33225853D01*
X192753069Y-32479700D01*
X192432469Y-31813867D01*
X192107415Y-31207440D01*
X191768119Y-30639506D01*
X191404788Y-30089154D01*
X191231443Y-29842503D01*
X190187366Y-28521117D01*
X189041453Y-27332673D01*
X187798905Y-26280815D01*
X186464922Y-25369184D01*
X185044703Y-24601423D01*
X183543448Y-23981175D01*
X182326066Y-23603866D01*
X182051717Y-23532166D01*
X181813571Y-23476937D01*
X181583879Y-23436089D01*
X181334895Y-23407534D01*
X181038871Y-23389184D01*
X180668060Y-23378949D01*
X180194714Y-23374740D01*
X179591085Y-23374470D01*
X179286288Y-23375041D01*
X178622513Y-23376918D01*
X178100303Y-23380985D01*
X177691324Y-23389674D01*
X177367239Y-23405419D01*
X177099716Y-23430652D01*
X176860419Y-23467807D01*
X176621013Y-23519315D01*
X176353164Y-23587609D01*
X176138826Y-23645285D01*
X174718672Y-24103939D01*
X173335807Y-24695710D01*
X172014333Y-25406162D01*
X170778352Y-26220860D01*
X169651964Y-27125368D01*
X168659272Y-28105249D01*
X168619974Y-28148829D01*
X168407208Y-28389239D01*
X168250630Y-28572479D01*
X168174659Y-28669702D01*
X168171970Y-28678094D01*
X167136103Y-28678094D01*
X167247384Y-28552341D01*
X167515268Y-28257835D01*
X167860515Y-27890086D01*
X168239446Y-27495078D01*
X168608384Y-27118794D01*
X168624090Y-27102999D01*
X169763845Y-26055237D01*
X170962006Y-25149076D01*
X172235107Y-24375466D01*
X173599687Y-23725360D01*
X175072279Y-23189710D01*
X176482943Y-22802907D01*
X176767265Y-22739438D01*
X177034298Y-22691558D01*
X177314844Y-22657128D01*
X177639706Y-22634008D01*
X178039686Y-22620057D01*
X178545588Y-22613135D01*
X179188214Y-22611102D01*
X179243813Y-22611087D01*
X179958479Y-22614193D01*
X180532825Y-22624810D01*
X180996330Y-22644577D01*
X181378472Y-22675130D01*
X181708729Y-22718104D01*
X181949126Y-22761270D01*
X183304500Y-23110281D01*
X184672304Y-23612304D01*
X186026404Y-24254889D01*
X187340665Y-25025582D01*
X188588949Y-25911932D01*
X188630769Y-25944619D01*
X188883152Y-26141228D01*
X189069194Y-26260212D01*
X189226437Y-26296479D01*
X189392423Y-26244936D01*
X189604696Y-26100491D01*
X189900797Y-25858051D01*
X190023230Y-25755736D01*
X190251642Y-25547048D01*
X190534863Y-25261839D01*
X190842763Y-24933625D01*
X191145215Y-24595921D01*
X191412089Y-24282241D01*
X191613258Y-24026103D01*
X191709332Y-23880100D01*
X191763862Y-23764901D01*
X191723750Y-23776913D01*
X191637612Y-23849178D01*
X191249117Y-24108783D01*
X190741303Y-24338108D01*
X190164142Y-24521235D01*
X189567606Y-24642244D01*
X189013044Y-24685226D01*
X188460772Y-24665891D01*
X187924161Y-24601375D01*
X187382734Y-24483960D01*
X186816013Y-24305930D01*
X186203522Y-24059567D01*
X185524785Y-23737155D01*
X184759324Y-23330975D01*
X183886662Y-22833311D01*
X183510879Y-22611589D01*
X182569053Y-22061812D01*
X181742558Y-21604445D01*
X181009526Y-21231689D01*
X180348088Y-20935748D01*
X179736374Y-20708821D01*
X179152515Y-20543112D01*
X178574642Y-20430821D01*
X177980885Y-20364151D01*
X177349376Y-20335304D01*
X177120067Y-20332717D01*
X176052985Y-20373342D01*
X175074008Y-20512188D01*
X174133390Y-20761303D01*
X173181385Y-21132731D01*
X172540030Y-21441802D01*
X171473838Y-22080863D01*
X170471468Y-22864422D01*
X169551749Y-23773142D01*
X168733510Y-24787686D01*
X168035582Y-25888718D01*
X167828731Y-26279948D01*
X167478548Y-27020699D01*
X167170697Y-27758530D01*
X166928191Y-28436760D01*
X166854327Y-28679766D01*
X166721170Y-29146990D01*
X165893271Y-29146990D01*
X165958504Y-28904034D01*
X166057942Y-28540345D01*
X166124975Y-28298137D01*
X166220652Y-27945128D01*
X166293335Y-27659526D01*
X166334382Y-27476423D01*
X166339359Y-27427597D01*
X166218240Y-27374434D01*
X165964657Y-27305448D01*
X165614507Y-27227624D01*
X165203688Y-27147950D01*
X164768097Y-27073413D01*
X164343632Y-27011001D01*
X163986119Y-26969561D01*
X162835449Y-26927735D01*
X161731728Y-27031175D01*
X160662484Y-27273902D01*
X160334694Y-27380603D01*
X159949489Y-27524175D01*
X159537268Y-27691027D01*
X159128431Y-27867566D01*
X158753376Y-28040200D01*
X158442502Y-28195335D01*
X158226209Y-28319380D01*
X158134895Y-28398742D01*
X158133779Y-28404568D01*
X156697696Y-28404568D01*
X156320486Y-28135586D01*
X155851082Y-27804867D01*
X155372814Y-27477304D01*
X155004572Y-27250957D01*
X154724448Y-27119995D01*
X154510532Y-27078585D01*
X154340916Y-27120898D01*
X154193691Y-27241101D01*
X154111632Y-27341913D01*
X153937904Y-27575633D01*
X153495419Y-27575633D01*
X153491598Y-27546791D01*
X153514777Y-27330922D01*
X153547339Y-27233566D01*
X153757328Y-26913419D01*
X154068484Y-26655498D01*
X154417495Y-26511922D01*
X154425962Y-26510285D01*
X154557995Y-26497886D01*
X154701824Y-26517747D01*
X154878309Y-26580552D01*
X155108307Y-26696987D01*
X155412678Y-26877735D01*
X155812280Y-27133481D01*
X156327972Y-27474910D01*
X156389873Y-27516280D01*
X157218168Y-28070177D01*
X158079485Y-27614847D01*
X159325171Y-27028347D01*
X160543836Y-26604310D01*
X161751025Y-26340715D01*
X162962283Y-26235543D01*
X164193152Y-26286775D01*
X165459178Y-26492390D01*
X165904575Y-26598177D01*
X166298122Y-26691584D01*
X166557984Y-26733714D01*
X166711441Y-26727664D01*
X166770200Y-26696378D01*
X166848284Y-26585885D01*
X166986098Y-26359195D01*
X167163676Y-26050155D01*
X167346734Y-25719014D01*
X167916698Y-24756540D01*
X168531768Y-23901092D01*
X169238937Y-23089807D01*
X169550575Y-22771077D01*
X170544031Y-21881109D01*
X171580430Y-21149668D01*
X172677199Y-20567312D01*
X173851766Y-20124594D01*
X174947340Y-19846309D01*
X175710245Y-19733366D01*
X176569172Y-19677293D01*
X177459995Y-19678240D01*
X177459995Y-19678240D01*
G37*
X177459995Y-19678240D02*
X178318585Y-19736353D01*
X179007189Y-19836959D01*
X179525091Y-19946622D01*
X180002004Y-20069926D01*
X180462352Y-20217624D01*
X180930559Y-20400474D01*
X181431048Y-20629230D01*
X181988243Y-20914647D01*
X182626568Y-21267481D01*
X183370447Y-21698488D01*
X183765729Y-21932463D01*
X184592463Y-22416040D01*
X185303843Y-22812882D01*
X185923226Y-23134361D01*
X186473971Y-23391849D01*
X186979435Y-23596717D01*
X187462975Y-23760336D01*
X187609230Y-23803646D01*
X188032115Y-23916308D01*
X188370497Y-23979026D01*
X188699271Y-24000656D01*
X189093334Y-23990053D01*
X189156560Y-23986581D01*
X189570068Y-23953484D01*
X189887848Y-23897007D01*
X190184009Y-23798222D01*
X190532665Y-23638203D01*
X190545471Y-23631883D01*
X191253527Y-23201331D01*
X191820813Y-22677070D01*
X192251578Y-22053909D01*
X192550067Y-21326660D01*
X192608625Y-21111405D01*
X192697698Y-20781202D01*
X192774487Y-20587323D01*
X192854796Y-20498531D01*
X192926975Y-20482107D01*
X193004320Y-20497308D01*
X193054666Y-20563916D01*
X193085495Y-20713435D01*
X193104291Y-20977371D01*
X193115146Y-21274292D01*
X193095040Y-22021651D01*
X192974479Y-22696446D01*
X192738094Y-23371641D01*
X192617147Y-23638376D01*
X192245783Y-24290806D01*
X191750575Y-24969700D01*
X191163911Y-25634749D01*
X190531918Y-26233821D01*
X190227279Y-26502242D01*
X189976404Y-26734354D01*
X189804159Y-26906348D01*
X189735412Y-26994413D01*
X189735117Y-26996741D01*
X189788251Y-27085785D01*
X189933535Y-27275047D01*
X190149789Y-27538163D01*
X190415834Y-27848771D01*
X190462149Y-27901733D01*
X190926030Y-28444489D01*
X191349920Y-28973705D01*
X191741413Y-29504588D01*
X192108105Y-30052346D01*
X192457589Y-30632184D01*
X192797461Y-31259311D01*
X193135317Y-31948933D01*
X193478750Y-32716257D01*
X193835355Y-33576491D01*
X194212728Y-34544840D01*
X194618464Y-35636513D01*
X195060157Y-36866716D01*
X195347967Y-37684448D01*
X195893570Y-39176429D01*
X196432803Y-40508944D01*
X196972488Y-41691912D01*
X197519450Y-42735252D01*
X198080513Y-43648884D01*
X198662499Y-44442729D01*
X199272234Y-45126705D01*
X199916541Y-45710733D01*
X200602244Y-46204733D01*
X201336166Y-46618623D01*
X201570782Y-46730493D01*
X202474845Y-47067990D01*
X203357127Y-47245819D01*
X204208214Y-47265267D01*
X205018692Y-47127618D01*
X205779150Y-46834158D01*
X206480172Y-46386173D01*
X206910904Y-46001240D01*
X207494596Y-45295952D01*
X207927240Y-44520101D01*
X208205038Y-43687877D01*
X208324191Y-42813471D01*
X208280901Y-41911075D01*
X208164335Y-41318114D01*
X208076389Y-40934529D01*
X208045621Y-40688038D01*
X208069687Y-40556603D01*
X208081723Y-40541321D01*
X208202030Y-40490564D01*
X208343919Y-40569510D01*
X208516174Y-40787647D01*
X208727582Y-41154463D01*
X208824223Y-41343235D01*
X209263767Y-42408980D01*
X209557593Y-43537058D01*
X209709082Y-44708347D01*
X209721616Y-45903726D01*
X209598578Y-47104074D01*
X209343349Y-48290268D01*
X208959312Y-49443189D01*
X208449848Y-50543714D01*
X207818340Y-51572722D01*
X207068170Y-52511092D01*
X206798870Y-52793868D01*
X205907661Y-53585451D01*
X204958492Y-54222293D01*
X203933825Y-54714673D01*
X202987291Y-55028134D01*
X202641907Y-55113159D01*
X202316753Y-55169788D01*
X201962196Y-55202993D01*
X201528602Y-55217742D01*
X201075920Y-55219540D01*
X200387392Y-55206129D01*
X199781172Y-55165860D01*
X199217642Y-55090469D01*
X198657183Y-54971690D01*
X198060176Y-54801256D01*
X197387005Y-54570902D01*
X196669741Y-54300262D01*
X196086304Y-54073679D01*
X196142835Y-54395284D01*
X196243855Y-54840543D01*
X196400134Y-55378492D01*
X196591394Y-55949633D01*
X196797360Y-56494471D01*
X196997756Y-56953508D01*
X197051146Y-57060565D01*
X197291811Y-57481040D01*
X197568516Y-57894509D01*
X197857462Y-58271771D01*
X198134849Y-58583626D01*
X198376879Y-58800874D01*
X198542931Y-58890914D01*
X198715240Y-58897061D01*
X199020675Y-58870495D01*
X199426452Y-58815096D01*
X199899785Y-58734745D01*
X199965168Y-58722556D01*
X201402276Y-58496061D01*
X202751032Y-58379673D01*
X204052403Y-58373310D01*
X205347358Y-58476890D01*
X206676866Y-58690328D01*
X206769373Y-58708793D01*
X208137864Y-59055312D01*
X209537962Y-59543252D01*
X210934836Y-60157661D01*
X212293656Y-60883589D01*
X213289276Y-61507249D01*
X213667828Y-61758582D01*
X213997075Y-61972315D01*
X214251217Y-62132082D01*
X214404461Y-62221519D01*
X214436098Y-62234810D01*
X214473586Y-62156237D01*
X214531289Y-61941793D01*
X214601657Y-61623222D01*
X214677140Y-61232269D01*
X214685239Y-61187285D01*
X214978000Y-59892837D01*
X215385030Y-58613029D01*
X215890073Y-57390070D01*
X216476874Y-56266167D01*
X216751992Y-55821237D01*
X217131336Y-55268183D01*
X217535439Y-54740367D01*
X217980848Y-54221418D01*
X218484111Y-53694962D01*
X219061774Y-53144627D01*
X219730385Y-52554038D01*
X220506490Y-51906824D01*
X221406636Y-51186610D01*
X221548830Y-51074839D01*
X222549566Y-50279082D01*
X223420252Y-49561815D01*
X224173742Y-48909637D01*
X224822891Y-48309148D01*
X225380553Y-47746944D01*
X225859584Y-47209625D01*
X226272836Y-46683790D01*
X226633165Y-46156036D01*
X226953424Y-45612961D01*
X227152661Y-45232503D01*
X227441882Y-44627246D01*
X227649640Y-44111340D01*
X227788320Y-43632509D01*
X227870306Y-43138476D01*
X227907983Y-42576965D01*
X227914457Y-42016890D01*
X227909397Y-41507292D01*
X227895097Y-41123730D01*
X227866282Y-40822384D01*
X227817677Y-40559434D01*
X227744007Y-40291064D01*
X227684355Y-40105518D01*
X227361401Y-39292130D01*
X226971887Y-38619835D01*
X226497761Y-38066898D01*
X225920969Y-37611583D01*
X225345270Y-37289313D01*
X224962437Y-37095756D01*
X224720321Y-36949847D01*
X224600733Y-36839106D01*
X224581454Y-36765193D01*
X224683955Y-36656495D01*
X224924687Y-36601734D01*
X225280478Y-36601789D01*
X225728156Y-36657540D01*
X226000884Y-36711320D01*
X227403918Y-37101195D01*
X228711733Y-37631166D01*
X229925862Y-38302309D01*
X231047837Y-39115701D01*
X232079193Y-40072419D01*
X233021463Y-41173540D01*
X233675196Y-42101839D01*
X234343647Y-43238574D01*
X234899532Y-44422690D01*
X235361238Y-45696380D01*
X235600547Y-46520559D01*
X235787111Y-47274237D01*
X235925886Y-47975034D01*
X236022525Y-48670409D01*
X236082681Y-49407826D01*
X236112009Y-50234745D01*
X236117225Y-50857940D01*
X236107540Y-51708805D01*
X236073910Y-52433949D01*
X236010309Y-53076604D01*
X235910712Y-53680003D01*
X235769094Y-54287376D01*
X235579429Y-54941955D01*
X235523261Y-55119725D01*
X235203844Y-56117209D01*
X236404096Y-56723788D01*
X237427432Y-57267518D01*
X238328721Y-57809102D01*
X239152340Y-58380587D01*
X239942665Y-59014020D01*
X240744073Y-59741449D01*
X241198748Y-60186309D01*
X242486104Y-61591762D01*
X243662255Y-63118727D01*
X244722249Y-64756141D01*
X245661137Y-66492940D01*
X246473968Y-68318062D01*
X247155791Y-70220445D01*
X247701655Y-72189026D01*
X248106611Y-74212741D01*
X248356788Y-76181654D01*
X248393171Y-76732409D01*
X248415352Y-77409210D01*
X248424059Y-78175604D01*
X248420022Y-78995140D01*
X248403969Y-79831367D01*
X248376629Y-80647833D01*
X248338730Y-81408086D01*
X248291001Y-82075674D01*
X248234170Y-82614146D01*
X248227191Y-82665385D01*
X247888653Y-84686009D01*
X247451337Y-86594297D01*
X246904485Y-88423232D01*
X246237336Y-90205801D01*
X245439132Y-91974989D01*
X244763650Y-93284114D01*
X243728906Y-95033218D01*
X242596469Y-96645429D01*
X241368009Y-98119466D01*
X240045195Y-99454046D01*
X238629699Y-100647887D01*
X237123190Y-101699707D01*
X235527338Y-102608225D01*
X233843813Y-103372159D01*
X232074285Y-103990228D01*
X230220425Y-104461148D01*
X230194170Y-104466630D01*
X229784131Y-104530652D01*
X229237009Y-104584675D01*
X228585356Y-104628148D01*
X227861726Y-104660520D01*
X227098671Y-104681240D01*
X226328746Y-104689757D01*
X225584503Y-104685521D01*
X224898496Y-104667981D01*
X224303277Y-104636587D01*
X223831400Y-104590786D01*
X223730103Y-104575997D01*
X222473163Y-104328459D01*
X221216771Y-103986332D01*
X219939675Y-103541494D01*
X218620623Y-102985823D01*
X217238366Y-102311199D01*
X215905072Y-101585594D01*
X214752843Y-100930983D01*
X212559686Y-100900617D01*
X210317114Y-100906985D01*
X208062386Y-100989829D01*
X205767662Y-101151473D01*
X203405098Y-101394239D01*
X200946855Y-101720452D01*
X198913983Y-102039506D01*
X198242671Y-102151207D01*
X197718468Y-102241454D01*
X197321306Y-102319063D01*
X197031111Y-102392849D01*
X196827815Y-102471630D01*
X196691344Y-102564222D01*
X196601630Y-102679440D01*
X196538600Y-102826101D01*
X196482184Y-103013020D01*
X196451059Y-103121344D01*
X196344365Y-103465926D01*
X196235889Y-103783988D01*
X196148923Y-104007276D01*
X196148137Y-104009030D01*
X196007667Y-104225823D01*
X195861588Y-104281241D01*
X195718569Y-104183207D01*
X195587275Y-103939645D01*
X195476374Y-103558479D01*
X195438065Y-103359873D01*
X195384641Y-103074466D01*
X195335519Y-102862582D01*
X195303570Y-102774417D01*
X195199607Y-102770472D01*
X194951528Y-102806067D01*
X194579274Y-102876582D01*
X194102790Y-102977392D01*
X193542016Y-103103876D01*
X192916896Y-103251411D01*
X192247373Y-103415373D01*
X191553389Y-103591142D01*
X190854887Y-103774092D01*
X190171810Y-103959604D01*
X190077641Y-103985768D01*
X189419402Y-104101243D01*
X188645146Y-104119932D01*
X187775224Y-104046391D01*
X186829988Y-103885173D01*
X185829789Y-103640831D01*
X184794978Y-103317919D01*
X183745907Y-102920991D01*
X182702927Y-102454600D01*
X182271781Y-102239198D01*
X181535698Y-101844258D01*
X180919496Y-101476147D01*
X180382331Y-101106608D01*
X179883364Y-100707386D01*
X179381753Y-100250223D01*
X179343006Y-100212928D01*
X179071897Y-99930437D01*
X178785895Y-99598099D01*
X178507899Y-99246871D01*
X178260804Y-98907712D01*
X178067509Y-98611582D01*
X177950910Y-98389440D01*
X177934566Y-98327027D01*
X178645361Y-98327027D01*
X178646022Y-98448431D01*
X178701524Y-98577159D01*
X178846066Y-98788997D01*
X179093031Y-99081048D01*
X179414158Y-99424949D01*
X179781190Y-99792339D01*
X180165867Y-100154855D01*
X180539931Y-100484135D01*
X180848197Y-100731675D01*
X181505648Y-101173527D01*
X182297309Y-101617002D01*
X183188294Y-102047212D01*
X184143718Y-102449266D01*
X185128694Y-102808277D01*
X186108337Y-103109354D01*
X186859712Y-103297378D01*
X187539249Y-103439931D01*
X188091131Y-103534605D01*
X188549861Y-103584224D01*
X188949939Y-103591610D01*
X189325870Y-103559586D01*
X189571875Y-103519306D01*
X189840400Y-103457361D01*
X190040252Y-103391177D01*
X190104987Y-103354578D01*
X190115860Y-103236738D01*
X190065096Y-102988934D01*
X189961596Y-102635767D01*
X189814259Y-102201839D01*
X189631986Y-101711750D01*
X189423677Y-101190103D01*
X189198230Y-100661499D01*
X188964547Y-100150540D01*
X188889665Y-99995150D01*
X188434482Y-99106852D01*
X187979272Y-98316594D01*
X187497222Y-97587119D01*
X186961514Y-96881169D01*
X186345336Y-96161489D01*
X185621870Y-95390819D01*
X185447619Y-95212732D01*
X184988121Y-94747909D01*
X184630711Y-94392269D01*
X184359745Y-94132500D01*
X184159581Y-93955289D01*
X184014575Y-93847323D01*
X183909082Y-93795291D01*
X183827460Y-93785880D01*
X183782252Y-93795525D01*
X183507729Y-93922301D01*
X183135665Y-94152482D01*
X182687355Y-94468049D01*
X182184094Y-94850983D01*
X181647178Y-95283265D01*
X181097902Y-95746876D01*
X180557563Y-96223798D01*
X180047454Y-96696011D01*
X179588872Y-97145498D01*
X179203113Y-97554238D01*
X178911471Y-97904214D01*
X178886004Y-97938414D01*
X178720454Y-98173989D01*
X178645361Y-98327027D01*
X177934566Y-98327027D01*
X177927090Y-98298480D01*
X177986463Y-98171301D01*
X178152784Y-97947073D01*
X178408359Y-97644206D01*
X178735496Y-97281107D01*
X179116499Y-96876185D01*
X179533675Y-96447848D01*
X179969330Y-96014504D01*
X180405769Y-95594561D01*
X180825300Y-95206428D01*
X181210227Y-94868512D01*
X181281935Y-94808215D01*
X182093747Y-94184418D01*
X183030899Y-93555348D01*
X184051516Y-92945797D01*
X185113720Y-92380557D01*
X186175634Y-91884419D01*
X186337124Y-91815461D01*
X186634907Y-91696897D01*
X187031856Y-91548490D01*
X187490920Y-91383057D01*
X187975049Y-91213413D01*
X188447193Y-91052376D01*
X188870302Y-90912762D01*
X189207327Y-90807389D01*
X189417193Y-90749961D01*
X189352311Y-90747259D01*
X189137687Y-90746526D01*
X188793466Y-90747651D01*
X188339791Y-90750522D01*
X187796809Y-90755029D01*
X187184663Y-90761059D01*
X186953648Y-90763555D01*
X185744388Y-90766843D01*
X184662045Y-90745593D01*
X183664881Y-90695790D01*
X182711155Y-90613418D01*
X181759129Y-90494462D01*
X180767065Y-90334908D01*
X179693224Y-90130740D01*
X179100588Y-90008133D01*
X178087535Y-89812945D01*
X177193537Y-89684075D01*
X176382544Y-89618510D01*
X175618501Y-89613232D01*
X174926688Y-89658967D01*
X173365572Y-89893581D01*
X171821288Y-90286898D01*
X170288674Y-90841081D01*
X168762571Y-91558290D01*
X167237819Y-92440689D01*
X165709257Y-93490439D01*
X165615357Y-93560251D01*
X165210488Y-93883053D01*
X164716470Y-94309995D01*
X164157060Y-94818260D01*
X163556016Y-95385031D01*
X162937095Y-95987491D01*
X162324055Y-96602825D01*
X161740654Y-97208215D01*
X161210648Y-97780845D01*
X161146631Y-97852000D01*
X160554850Y-98512194D01*
X159674461Y-98646977D01*
X159203629Y-98699064D01*
X158616173Y-98733276D01*
X157949452Y-98750278D01*
X157240825Y-98750735D01*
X156527654Y-98735314D01*
X155847296Y-98704679D01*
X155237111Y-98659497D01*
X154734460Y-98600434D01*
X154480937Y-98554433D01*
X153581404Y-98318790D01*
X152640164Y-98009425D01*
X151704536Y-97645412D01*
X150821840Y-97245831D01*
X150039394Y-96829758D01*
X149723746Y-96636521D01*
X149215617Y-96295942D01*
X148847366Y-96017486D01*
X148605965Y-95789217D01*
X148478382Y-95599198D01*
X148449499Y-95469225D01*
X148467054Y-95388526D01*
X148964531Y-95388526D01*
X149322140Y-95671512D01*
X149662028Y-95913299D01*
X150113924Y-96196397D01*
X150633286Y-96496102D01*
X151175572Y-96787710D01*
X151696239Y-97046516D01*
X152150746Y-97247817D01*
X152198674Y-97266916D01*
X153497953Y-97700321D01*
X154860618Y-98012014D01*
X156247473Y-98196722D01*
X157619322Y-98249172D01*
X158900557Y-98168465D01*
X159419588Y-98101496D01*
X159807991Y-98030620D01*
X160104527Y-97938769D01*
X160347958Y-97808877D01*
X160577045Y-97623878D01*
X160830549Y-97366706D01*
X160905392Y-97285751D01*
X161161832Y-96996567D01*
X161384074Y-96727952D01*
X161538698Y-96521087D01*
X161579412Y-96455201D01*
X161633178Y-96333033D01*
X161636125Y-96221309D01*
X161573559Y-96079746D01*
X161430787Y-95868062D01*
X161300524Y-95690652D01*
X161120239Y-95468979D01*
X160842973Y-95155106D01*
X160493284Y-94775552D01*
X160095735Y-94356833D01*
X159674884Y-93925466D01*
X159539101Y-93788888D01*
X158339963Y-92654697D01*
X157161577Y-91672521D01*
X156011125Y-90848207D01*
X155627759Y-90605031D01*
X155257233Y-90386247D01*
X154829932Y-90147265D01*
X154373860Y-89902260D01*
X153917025Y-89665409D01*
X153487431Y-89450889D01*
X153113085Y-89272876D01*
X152821993Y-89145546D01*
X152642160Y-89083076D01*
X152613271Y-89079097D01*
X152473630Y-89139795D01*
X152293455Y-89330828D01*
X152068446Y-89652508D01*
X151657042Y-90314470D01*
X151202164Y-91089532D01*
X150727703Y-91934819D01*
X150257549Y-92807459D01*
X149815594Y-93664576D01*
X149671462Y-93954045D01*
X148964531Y-95388526D01*
X148467054Y-95388526D01*
X148490335Y-95281507D01*
X148605933Y-94967266D01*
X148785923Y-94547009D01*
X149019937Y-94041248D01*
X149297608Y-93470490D01*
X149608566Y-92855245D01*
X149942443Y-92216023D01*
X150288871Y-91573334D01*
X150637482Y-90947686D01*
X150977906Y-90359589D01*
X151299777Y-89829552D01*
X151303972Y-89822849D01*
X152208267Y-88442145D01*
X152220292Y-88425214D01*
X152902867Y-88425214D01*
X152925631Y-88483315D01*
X153008852Y-88553684D01*
X153171732Y-88649930D01*
X153433469Y-88785666D01*
X153813265Y-88974500D01*
X154183612Y-89157416D01*
X155769526Y-90035151D01*
X157300434Y-91071633D01*
X158772239Y-92263516D01*
X160180843Y-93607454D01*
X161522149Y-95100102D01*
X161649899Y-95254350D01*
X162150300Y-95862919D01*
X163221471Y-94881786D01*
X164533782Y-93744044D01*
X165836213Y-92748527D01*
X167160848Y-91872822D01*
X168539775Y-91094520D01*
X168922408Y-90899737D01*
X170400241Y-90230425D01*
X171836594Y-89717734D01*
X173246089Y-89357917D01*
X174643349Y-89147226D01*
X176015719Y-89081822D01*
X176330060Y-89087135D01*
X176649109Y-89103555D01*
X176993490Y-89134110D01*
X177383828Y-89181826D01*
X177840749Y-89249728D01*
X178384876Y-89340843D01*
X179036834Y-89458197D01*
X179817249Y-89604815D01*
X180581822Y-89751773D01*
X181446224Y-89910205D01*
X182242807Y-90034942D01*
X183007918Y-90128728D01*
X183777903Y-90194309D01*
X184589109Y-90234429D01*
X185477881Y-90251834D01*
X186480566Y-90249268D01*
X187059197Y-90240949D01*
X187974992Y-90221159D01*
X188750903Y-90195515D01*
X189416897Y-90162286D01*
X190002939Y-90119745D01*
X190538996Y-90066163D01*
X190924415Y-90017940D01*
X191418827Y-89946244D01*
X191964850Y-89859128D01*
X192174563Y-89823335D01*
X195123801Y-89823335D01*
X195207302Y-89836939D01*
X195317484Y-89821320D01*
X195318799Y-89792322D01*
X195205103Y-89772043D01*
X195155978Y-89785615D01*
X195123801Y-89823335D01*
X192174563Y-89823335D01*
X192534597Y-89761886D01*
X193100178Y-89659810D01*
X193633704Y-89558192D01*
X194107286Y-89462325D01*
X194493036Y-89377503D01*
X194763064Y-89309017D01*
X194882124Y-89266857D01*
X194921424Y-89201673D01*
X194903104Y-89062736D01*
X194820281Y-88824478D01*
X194666069Y-88461332D01*
X194663836Y-88456290D01*
X194305024Y-87595576D01*
X194032428Y-86811054D01*
X193834636Y-86051940D01*
X193700235Y-85267447D01*
X193617812Y-84406789D01*
X193582028Y-83642308D01*
X193579724Y-82325814D01*
X193661439Y-81128982D01*
X193831723Y-80021304D01*
X194095125Y-78972275D01*
X194415728Y-78052664D01*
X194961085Y-76885063D01*
X195633651Y-75810312D01*
X196421351Y-74838443D01*
X197312111Y-73979483D01*
X198293857Y-73243463D01*
X199354516Y-72640410D01*
X200482014Y-72180356D01*
X201664278Y-71873328D01*
X201905330Y-71831314D01*
X202324841Y-71786972D01*
X202846377Y-71766060D01*
X203423973Y-71766996D01*
X204011665Y-71788196D01*
X204563489Y-71828078D01*
X205033482Y-71885059D01*
X205349441Y-71949911D01*
X205711572Y-72070130D01*
X205930129Y-72195038D01*
X206030873Y-72343159D01*
X206045485Y-72450446D01*
X206039659Y-72525988D01*
X206005025Y-72571587D01*
X205915849Y-72585942D01*
X205746394Y-72567748D01*
X205470927Y-72515702D01*
X205063713Y-72428501D01*
X204898662Y-72392364D01*
X204441647Y-72322112D01*
X203875446Y-72279646D01*
X203257063Y-72265190D01*
X202643503Y-72278967D01*
X202091771Y-72321201D01*
X201713044Y-72379844D01*
X200515687Y-72721347D01*
X199378089Y-73218622D01*
X198316073Y-73863321D01*
X197345465Y-74647094D01*
X197255054Y-74731835D01*
X196665314Y-75333122D01*
X196171067Y-75936765D01*
X195733997Y-76595486D01*
X195315787Y-77362009D01*
X195255320Y-77483445D01*
X194716051Y-78765825D01*
X194323262Y-80119819D01*
X194081412Y-81523793D01*
X193994962Y-82956109D01*
X194005520Y-83547726D01*
X194112064Y-84837338D01*
X194327860Y-86021609D01*
X194662854Y-87133051D01*
X195126989Y-88204177D01*
X195730210Y-89267499D01*
X195777870Y-89342432D01*
X196010329Y-89723968D01*
X196143531Y-89994114D01*
X196184660Y-90173903D01*
X196140902Y-90284370D01*
X196108280Y-90309680D01*
X195997486Y-90333545D01*
X195749974Y-90363992D01*
X195398632Y-90397643D01*
X194976349Y-90431123D01*
X194816524Y-90442267D01*
X193960172Y-90517070D01*
X193025039Y-90628466D01*
X192067594Y-90767935D01*
X191144310Y-90926957D01*
X190311656Y-91097011D01*
X190014026Y-91166851D01*
X189379992Y-91338348D01*
X188676557Y-91555507D01*
X187936175Y-91805996D01*
X187191302Y-92077479D01*
X186474393Y-92357625D01*
X185817901Y-92634097D01*
X185254283Y-92894564D01*
X184815992Y-93126692D01*
X184745687Y-93168966D01*
X184460217Y-93345396D01*
X185676466Y-94589002D01*
X186340483Y-95284454D01*
X186901299Y-95911857D01*
X187388926Y-96508612D01*
X187833378Y-97112120D01*
X188264668Y-97759783D01*
X188422604Y-98011136D01*
X188795096Y-98651363D01*
X189184914Y-99390256D01*
X189565709Y-100172920D01*
X189911126Y-100944458D01*
X190194813Y-101649975D01*
X190272170Y-101864047D01*
X190444483Y-102355472D01*
X190571403Y-102708345D01*
X190662153Y-102944997D01*
X190725953Y-103087760D01*
X190772024Y-103158964D01*
X190809587Y-103180941D01*
X190816125Y-103181392D01*
X190913122Y-103162718D01*
X191153246Y-103109743D01*
X191514356Y-103027553D01*
X191974307Y-102921231D01*
X192510956Y-102795863D01*
X192860247Y-102713545D01*
X195936044Y-102713545D01*
X196180364Y-102033946D01*
X196282156Y-101775419D01*
X196914220Y-101775419D01*
X196943099Y-101821572D01*
X197049429Y-101807301D01*
X197286520Y-101768563D01*
X197618009Y-101711470D01*
X197963570Y-101650063D01*
X200957530Y-101173045D01*
X204021840Y-100804394D01*
X207099366Y-100549671D01*
X210132971Y-100414439D01*
X210790694Y-100401246D01*
X213794432Y-100354803D01*
X213381664Y-100096969D01*
X212641577Y-99654001D01*
X211825622Y-99199153D01*
X210970211Y-98750460D01*
X210111759Y-98325959D01*
X209286676Y-97943684D01*
X208531378Y-97621673D01*
X207914381Y-97388949D01*
X206788228Y-97061689D01*
X205648833Y-96845695D01*
X204523671Y-96742192D01*
X203440216Y-96752403D01*
X202425942Y-96877553D01*
X201547585Y-97105346D01*
X200520592Y-97538302D01*
X199601603Y-98102224D01*
X198789043Y-98798243D01*
X198144399Y-99542558D01*
X197900469Y-99886317D01*
X197656496Y-100265018D01*
X197426145Y-100652741D01*
X197223078Y-101023563D01*
X197060960Y-101351565D01*
X196953452Y-101610824D01*
X196914220Y-101775419D01*
X196282156Y-101775419D01*
X196546278Y-101104617D01*
X196934382Y-100307043D01*
X197367290Y-99603081D01*
X197867611Y-98954586D01*
X198263274Y-98520234D01*
X199114063Y-97757952D01*
X200058919Y-97130712D01*
X201079713Y-96649717D01*
X201558046Y-96484265D01*
X202140863Y-96344597D01*
X202838324Y-96241866D01*
X203598401Y-96180052D01*
X204369064Y-96163138D01*
X205098283Y-96195108D01*
X205207018Y-96204965D01*
X205872523Y-96284750D01*
X206520500Y-96395189D01*
X207166068Y-96542587D01*
X207824349Y-96733249D01*
X208510464Y-96973478D01*
X209239535Y-97269580D01*
X210026681Y-97627860D01*
X210887024Y-98054621D01*
X211835685Y-98556169D01*
X212887785Y-99138809D01*
X214058444Y-99808844D01*
X214582943Y-100114230D01*
X215860627Y-100849172D01*
X217023637Y-101493080D01*
X218067473Y-102043630D01*
X218987634Y-102498497D01*
X219779618Y-102855355D01*
X220263006Y-103048459D01*
X221658173Y-103495647D01*
X223139845Y-103836653D01*
X224664993Y-104065856D01*
X226190592Y-104177635D01*
X227673616Y-104166367D01*
X228399528Y-104111449D01*
X229889459Y-103894828D01*
X231401429Y-103549195D01*
X232897391Y-103087305D01*
X234339297Y-102521916D01*
X235689103Y-101865781D01*
X236501554Y-101395126D01*
X237961342Y-100391583D01*
X239357976Y-99240849D01*
X240676195Y-97958743D01*
X241900735Y-96561085D01*
X243016335Y-95063692D01*
X243812456Y-93817509D01*
X244829795Y-91945445D01*
X245707484Y-89994722D01*
X246442736Y-87979969D01*
X247032761Y-85915817D01*
X247474769Y-83816895D01*
X247765971Y-81697832D01*
X247903579Y-79573259D01*
X247884801Y-77457805D01*
X247706850Y-75366100D01*
X247543296Y-74249866D01*
X247155217Y-72355360D01*
X246643183Y-70515332D01*
X246013736Y-68739540D01*
X245273416Y-67037744D01*
X244428765Y-65419705D01*
X243486324Y-63895180D01*
X242452634Y-62473929D01*
X241334235Y-61165713D01*
X240137669Y-59980289D01*
X238869477Y-58927418D01*
X237536200Y-58016860D01*
X236160201Y-57265957D01*
X234728989Y-56669322D01*
X233271167Y-56240260D01*
X231789604Y-55979025D01*
X230287172Y-55885869D01*
X228766742Y-55961043D01*
X227231185Y-56204799D01*
X226390970Y-56408168D01*
X224976111Y-56873753D01*
X223576860Y-57492754D01*
X222219409Y-58249017D01*
X220929951Y-59126388D01*
X219734682Y-60108713D01*
X218667465Y-61171379D01*
X217994796Y-61912513D01*
X218428814Y-61692580D01*
X218911754Y-61470552D01*
X219384469Y-61307295D01*
X219885297Y-61195673D01*
X220452579Y-61128552D01*
X221124655Y-61098794D01*
X221633779Y-61096097D01*
X222187788Y-61101547D01*
X222615704Y-61114125D01*
X222961319Y-61138622D01*
X223268423Y-61179833D01*
X223580808Y-61242552D01*
X223942265Y-61331572D01*
X224055810Y-61361227D01*
X225240821Y-61722375D01*
X226349144Y-62168821D01*
X227430122Y-62723181D01*
X228533100Y-63408076D01*
X228558890Y-63425390D01*
X229891425Y-64392673D01*
X231061658Y-65396444D01*
X232074793Y-66444769D01*
X232936033Y-67545710D01*
X233650582Y-68707332D01*
X234223642Y-69937698D01*
X234660418Y-71244874D01*
X234966113Y-72636922D01*
X235092648Y-73551167D01*
X235175707Y-75072987D01*
X235095451Y-76614688D01*
X234853953Y-78157263D01*
X234453288Y-79681703D01*
X234408770Y-79819565D01*
X233875873Y-81196437D01*
X233220751Y-82457289D01*
X232447758Y-83598485D01*
X231561250Y-84616387D01*
X230565582Y-85507356D01*
X229465107Y-86267756D01*
X228264182Y-86893949D01*
X226967161Y-87382297D01*
X225578399Y-87729163D01*
X224786448Y-87857077D01*
X224293238Y-87904259D01*
X223657911Y-87936964D01*
X222907595Y-87955616D01*
X222069418Y-87960637D01*
X221170507Y-87952451D01*
X220237992Y-87931483D01*
X219298998Y-87898154D01*
X218380655Y-87852889D01*
X217510091Y-87796111D01*
X216749164Y-87731618D01*
X215005526Y-87578876D01*
X213411324Y-87471610D01*
X211969030Y-87409863D01*
X210681112Y-87393676D01*
X209550041Y-87423090D01*
X208578286Y-87498147D01*
X207956856Y-87584185D01*
X206427625Y-87929956D01*
X204970676Y-88427696D01*
X203591416Y-89073190D01*
X202295253Y-89862224D01*
X201087592Y-90790583D01*
X199973841Y-91854052D01*
X198959407Y-93048415D01*
X198049697Y-94369459D01*
X197250118Y-95812968D01*
X197157847Y-96002508D01*
X196737691Y-96976065D01*
X196417919Y-97949367D01*
X196189857Y-98961269D01*
X196044832Y-100050621D01*
X195974171Y-101256277D01*
X195972654Y-101311873D01*
X195936044Y-102713545D01*
X192860247Y-102713545D01*
X193102160Y-102656533D01*
X193111873Y-102654235D01*
X193775948Y-102496725D01*
X194293060Y-102372088D01*
X194681588Y-102274120D01*
X194959913Y-102196615D01*
X195146415Y-102133367D01*
X195259475Y-102078172D01*
X195317473Y-102024824D01*
X195338790Y-101967117D01*
X195341806Y-101901399D01*
X195354771Y-101523408D01*
X195390155Y-101027202D01*
X195442693Y-100462198D01*
X195507121Y-99877810D01*
X195578174Y-99323454D01*
X195650586Y-98848544D01*
X195689721Y-98635953D01*
X196009398Y-97405418D01*
X196471042Y-96152032D01*
X197058182Y-94914284D01*
X197754344Y-93730666D01*
X197852900Y-93581425D01*
X198793678Y-92314442D01*
X199840194Y-91160173D01*
X200980405Y-90126984D01*
X202202272Y-89223242D01*
X203493754Y-88457312D01*
X204842808Y-87837559D01*
X206237395Y-87372350D01*
X207075190Y-87174052D01*
X207820030Y-87039132D01*
X208573723Y-86934548D01*
X209354663Y-86860199D01*
X210181248Y-86815986D01*
X211071872Y-86801809D01*
X212044931Y-86817568D01*
X213118820Y-86863163D01*
X214311936Y-86938493D01*
X215642673Y-87043460D01*
X216536789Y-87122634D01*
X217228278Y-87184914D01*
X217881997Y-87241767D01*
X218474420Y-87291301D01*
X218982019Y-87331624D01*
X219381268Y-87360844D01*
X219648639Y-87377070D01*
X219734422Y-87379782D01*
X219978604Y-87370888D01*
X220116086Y-87315560D01*
X220210011Y-87171595D01*
X220274168Y-87019063D01*
X220566005Y-86200020D01*
X220838544Y-85250653D01*
X221082701Y-84210232D01*
X221289394Y-83118025D01*
X221449539Y-82013301D01*
X221467902Y-81858361D01*
X221529055Y-81162163D01*
X221567703Y-80361164D01*
X221584547Y-79493422D01*
X221580290Y-78596994D01*
X221555634Y-77709936D01*
X221511281Y-76870305D01*
X221447934Y-76116159D01*
X221366295Y-75485554D01*
X221348350Y-75380477D01*
X220927309Y-73466488D01*
X220367432Y-71642662D01*
X219670428Y-69912864D01*
X218838001Y-68280959D01*
X218204085Y-67276980D01*
X218957860Y-67276980D01*
X218995318Y-67367014D01*
X219098097Y-67578329D01*
X219251800Y-67882170D01*
X219442032Y-68249779D01*
X219505517Y-68370947D01*
X220088150Y-69543960D01*
X220569463Y-70663645D01*
X220973134Y-71791750D01*
X221322840Y-72990019D01*
X221415883Y-73352812D01*
X221675328Y-74493109D01*
X221867518Y-75583669D01*
X221997203Y-76670946D01*
X222069134Y-77801392D01*
X222088061Y-79021460D01*
X222076121Y-79809007D01*
X222019845Y-81112424D01*
X221913098Y-82309554D01*
X221747012Y-83455962D01*
X221512715Y-84607217D01*
X221201338Y-85818884D01*
X221013327Y-86466890D01*
X220913184Y-86811400D01*
X220839246Y-87085812D01*
X220800326Y-87256104D01*
X220798803Y-87295150D01*
X220886643Y-87260104D01*
X221079606Y-87169336D01*
X221275567Y-87072625D01*
X221911224Y-86694281D01*
X222577421Y-86192320D01*
X223238620Y-85599646D01*
X223859282Y-84949166D01*
X224403869Y-84273786D01*
X224596900Y-83997335D01*
X225257789Y-82859575D01*
X225786805Y-81644459D01*
X226181692Y-80372716D01*
X226440195Y-79065078D01*
X226560058Y-77742275D01*
X226539026Y-76425036D01*
X226374843Y-75134093D01*
X226065253Y-73890176D01*
X225781623Y-73108528D01*
X225245241Y-71996981D01*
X224591552Y-70963338D01*
X223835864Y-70023134D01*
X222993486Y-69191906D01*
X222079725Y-68485190D01*
X221109890Y-67918520D01*
X220345307Y-67591283D01*
X219928656Y-67450631D01*
X219551986Y-67341996D01*
X219244903Y-67272083D01*
X219037016Y-67247602D01*
X218957933Y-67275257D01*
X218957860Y-67276980D01*
X218204085Y-67276980D01*
X217871858Y-66750810D01*
X217063048Y-65675418D01*
X216613513Y-65154550D01*
X216068391Y-64577939D01*
X215566670Y-64081884D01*
X216563010Y-64081884D01*
X216619135Y-64229874D01*
X216757939Y-64432292D01*
X216988455Y-64717526D01*
X217217566Y-64991640D01*
X217489679Y-65322074D01*
X217751120Y-65648340D01*
X217962495Y-65920909D01*
X218040347Y-66026096D01*
X218181720Y-66208397D01*
X218325857Y-66344884D01*
X218507315Y-66452862D01*
X218760649Y-66549636D01*
X219120416Y-66652509D01*
X219467559Y-66740766D01*
X220667292Y-67124476D01*
X221791829Y-67656876D01*
X222833723Y-68330848D01*
X223785527Y-69139277D01*
X224639795Y-70075044D01*
X225389083Y-71131034D01*
X226025942Y-72300129D01*
X226505442Y-73467451D01*
X226691843Y-74034360D01*
X226833399Y-74566751D01*
X226935511Y-75102890D01*
X227003580Y-75681038D01*
X227043008Y-76339458D01*
X227059196Y-77116415D01*
X227060352Y-77398495D01*
X227059832Y-77985349D01*
X227054470Y-78439624D01*
X227040550Y-78798638D01*
X227014359Y-79099709D01*
X226972181Y-79380152D01*
X226910301Y-79677287D01*
X226825004Y-80028429D01*
X226781414Y-80200558D01*
X226356634Y-81604055D01*
X225826088Y-82898445D01*
X225194653Y-84075811D01*
X224467206Y-85128234D01*
X223648624Y-86047797D01*
X222743784Y-86826579D01*
X222663728Y-86885539D01*
X222381205Y-87092407D01*
X222147512Y-87266113D01*
X221999838Y-87378912D01*
X221973579Y-87400414D01*
X221987260Y-87428948D01*
X222119323Y-87439849D01*
X222379553Y-87432601D01*
X222777732Y-87406688D01*
X223323644Y-87361593D01*
X224027073Y-87296799D01*
X224139800Y-87286019D01*
X225587827Y-87071818D01*
X226941392Y-86717775D01*
X228197269Y-86226430D01*
X229352233Y-85600322D01*
X230403058Y-84841993D01*
X231346518Y-83953981D01*
X232179387Y-82938827D01*
X232898440Y-81799070D01*
X233500450Y-80537251D01*
X233825094Y-79659967D01*
X234222667Y-78255847D01*
X234468889Y-76878370D01*
X234568665Y-75487479D01*
X234526902Y-74043117D01*
X234521583Y-73973795D01*
X234331471Y-72502180D01*
X233999764Y-71123373D01*
X233525530Y-69834898D01*
X232907839Y-68634278D01*
X232145761Y-67519037D01*
X232050936Y-67398787D01*
X231050298Y-66266572D01*
X229938473Y-65225215D01*
X228736232Y-64288412D01*
X227464345Y-63469855D01*
X226143584Y-62783239D01*
X224794719Y-62242255D01*
X223767663Y-61937957D01*
X223319332Y-61833844D01*
X222925444Y-61764974D01*
X222524554Y-61724332D01*
X222055219Y-61704903D01*
X221686392Y-61700337D01*
X221192437Y-61706312D01*
X220715753Y-61727540D01*
X220307314Y-61760885D01*
X220019733Y-61802859D01*
X219357450Y-62003857D01*
X218655615Y-62319818D01*
X217964442Y-62721454D01*
X217334142Y-63179476D01*
X216814929Y-63664598D01*
X216800377Y-63680611D01*
X216662664Y-63835640D01*
X216580531Y-63959935D01*
X216563010Y-64081884D01*
X215566670Y-64081884D01*
X215468024Y-63984353D01*
X214852753Y-63412556D01*
X214262920Y-62901314D01*
X214106726Y-62777947D01*
X215023294Y-62777947D01*
X215395729Y-63098711D01*
X215614157Y-63277017D01*
X215755187Y-63354715D01*
X215863785Y-63349069D01*
X215940102Y-63307701D01*
X216044154Y-63212473D01*
X216239780Y-63008061D01*
X216508526Y-62714740D01*
X216831935Y-62352782D01*
X217191553Y-61942462D01*
X217357981Y-61750105D01*
X218180038Y-60826981D01*
X218947917Y-60031488D01*
X219685666Y-59340437D01*
X220417331Y-58730639D01*
X220757235Y-58471948D01*
X222116640Y-57564097D01*
X223545749Y-56802084D01*
X225056521Y-56180707D01*
X226660918Y-55694763D01*
X227665218Y-55467687D01*
X228026418Y-55406309D01*
X228421838Y-55362724D01*
X228886156Y-55334772D01*
X229454049Y-55320296D01*
X230086288Y-55317010D01*
X230896837Y-55326137D01*
X231583191Y-55354626D01*
X232190428Y-55407253D01*
X232763625Y-55488793D01*
X233347860Y-55604023D01*
X233800728Y-55710550D01*
X234134901Y-55784874D01*
X234413516Y-55831488D01*
X234590019Y-55843125D01*
X234617797Y-55838098D01*
X234694386Y-55737910D01*
X234800906Y-55501533D01*
X234927721Y-55158009D01*
X235065198Y-54736378D01*
X235203701Y-54265681D01*
X235333595Y-53774959D01*
X235412541Y-53442642D01*
X235478551Y-53033729D01*
X235527747Y-52492611D01*
X235560130Y-51856149D01*
X235575701Y-51161203D01*
X235574462Y-50444635D01*
X235556411Y-49743305D01*
X235521552Y-49094074D01*
X235469884Y-48533802D01*
X235412413Y-48153303D01*
X235049767Y-46597786D01*
X234589755Y-45172418D01*
X234025584Y-43863606D01*
X233350460Y-42657754D01*
X232557591Y-41541268D01*
X231640182Y-40500553D01*
X231534869Y-40393629D01*
X230837471Y-39729625D01*
X230175828Y-39182742D01*
X229505872Y-38720121D01*
X228783537Y-38308904D01*
X228642141Y-38236593D01*
X228334456Y-38088805D01*
X227981945Y-37930445D01*
X227623667Y-37777689D01*
X227298681Y-37646717D01*
X227046048Y-37553708D01*
X226904826Y-37514838D01*
X226898905Y-37514548D01*
X226925708Y-37576925D01*
X227033133Y-37742172D01*
X227199562Y-37977462D01*
X227240987Y-38034059D01*
X227759298Y-38848582D01*
X228132711Y-39697318D01*
X228369677Y-40606969D01*
X228478648Y-41604236D01*
X228488084Y-41974415D01*
X228441733Y-42937564D01*
X228284193Y-43853302D01*
X228006721Y-44743643D01*
X227600578Y-45630599D01*
X227057020Y-46536186D01*
X226367307Y-47482415D01*
X226234676Y-47649169D01*
X225909499Y-48036708D01*
X225557625Y-48420160D01*
X225162126Y-48814822D01*
X224706076Y-49235988D01*
X224172549Y-49698954D01*
X223544617Y-50219015D01*
X222805354Y-50811467D01*
X222263877Y-51237339D01*
X221643778Y-51723023D01*
X221137181Y-52122305D01*
X220723233Y-52452780D01*
X220381085Y-52732045D01*
X220089885Y-52977693D01*
X219828783Y-53207322D01*
X219576928Y-53438526D01*
X219313468Y-53688901D01*
X219017554Y-53976042D01*
X219011683Y-53981772D01*
X218132797Y-54915137D01*
X217392312Y-55873067D01*
X216759681Y-56898099D01*
X216378753Y-57648255D01*
X215936575Y-58703909D01*
X215565310Y-59824180D01*
X215281408Y-60951408D01*
X215101319Y-62027933D01*
X215083619Y-62187887D01*
X215023294Y-62777947D01*
X214106726Y-62777947D01*
X213775920Y-62516668D01*
X212389794Y-61578494D01*
X210947309Y-60771532D01*
X209463633Y-60100520D01*
X207953937Y-59570199D01*
X206433389Y-59185309D01*
X204917159Y-58950590D01*
X203420416Y-58870780D01*
X202265218Y-58920073D01*
X201795415Y-58968798D01*
X201301145Y-59033314D01*
X200811032Y-59108333D01*
X200353706Y-59188568D01*
X199957792Y-59268734D01*
X199651917Y-59343543D01*
X199464709Y-59407710D01*
X199419398Y-59445621D01*
X199497772Y-59534344D01*
X199735389Y-59635957D01*
X200135999Y-59751835D01*
X200473364Y-59832693D01*
X201156744Y-59907873D01*
X201841551Y-59820357D01*
X202541495Y-59568133D01*
X202655462Y-59512532D01*
X203058936Y-59330003D01*
X203332146Y-59252800D01*
X203474899Y-59276942D01*
X203487001Y-59398447D01*
X203368258Y-59613337D01*
X203118477Y-59917629D01*
X202737462Y-60307344D01*
X202696109Y-60347063D01*
X201619638Y-61269325D01*
X200466364Y-62055899D01*
X199251991Y-62698656D01*
X197992221Y-63189465D01*
X196702760Y-63520197D01*
X196493912Y-63557856D01*
X195874294Y-63631946D01*
X195167871Y-63665482D01*
X194426114Y-63660057D01*
X193700497Y-63617262D01*
X193042490Y-63538692D01*
X192538462Y-63435478D01*
X191178612Y-62993926D01*
X189916514Y-62419196D01*
X188737625Y-61702863D01*
X187627402Y-60836503D01*
X186937346Y-60190580D01*
X185979922Y-59123358D01*
X185140863Y-57951122D01*
X184479148Y-56798160D01*
X184240367Y-56320140D01*
X184025510Y-55851464D01*
X183828589Y-55372338D01*
X183643615Y-54862970D01*
X183464599Y-54303564D01*
X183285553Y-53674329D01*
X183100487Y-52955470D01*
X182903413Y-52127195D01*
X182688342Y-51169708D01*
X182468163Y-50151737D01*
X182193436Y-48885494D01*
X181944430Y-47781775D01*
X181719872Y-46835364D01*
X181518491Y-46041045D01*
X181339013Y-45393600D01*
X181193538Y-44927334D01*
X181046817Y-44509333D01*
X180937276Y-44238197D01*
X180867314Y-44118017D01*
X180839333Y-44152884D01*
X180855730Y-44346887D01*
X180856613Y-44353010D01*
X180872771Y-44534567D01*
X180890988Y-44856912D01*
X180910054Y-45290963D01*
X180928759Y-45807638D01*
X180945891Y-46377858D01*
X180953855Y-46689130D01*
X180967242Y-47666027D01*
X180954356Y-48513325D01*
X180911585Y-49269805D01*
X180835317Y-49974249D01*
X180721942Y-50665440D01*
X180567848Y-51382159D01*
X180485592Y-51718068D01*
X180326151Y-52290112D01*
X180134371Y-52883066D01*
X179920397Y-53473867D01*
X179694373Y-54039448D01*
X179466446Y-54556747D01*
X179246761Y-55002699D01*
X179045461Y-55354240D01*
X178872693Y-55588306D01*
X178742341Y-55681222D01*
X178661107Y-55685342D01*
X178619814Y-55637080D01*
X178613663Y-55502848D01*
X178637855Y-55249057D01*
X178657391Y-55086661D01*
X178690540Y-54716752D01*
X178714513Y-54253886D01*
X178725840Y-53774910D01*
X178725847Y-53570067D01*
X178713772Y-53111428D01*
X178679140Y-52748276D01*
X178609579Y-52406504D01*
X178492715Y-52012005D01*
X178438217Y-51847373D01*
X178120099Y-51051426D01*
X177700508Y-50226101D01*
X177216567Y-49440290D01*
X176917550Y-49025251D01*
X176765149Y-48843990D01*
X176509947Y-48560230D01*
X176168904Y-48191987D01*
X175758980Y-47757275D01*
X175297132Y-47274109D01*
X174800321Y-46760504D01*
X174398445Y-46349331D01*
X173656916Y-45589973D01*
X173026535Y-44933152D01*
X172495788Y-44363848D01*
X172053160Y-43867040D01*
X171687136Y-43427708D01*
X171386202Y-43030830D01*
X171138844Y-42661388D01*
X170933547Y-42304359D01*
X170758797Y-41944724D01*
X170603079Y-41567463D01*
X170484934Y-41244193D01*
X170298071Y-40662971D01*
X170167320Y-40126861D01*
X170084329Y-39581819D01*
X170040744Y-38973798D01*
X170037485Y-38795524D01*
X170535278Y-38795524D01*
X170668304Y-39879424D01*
X170950496Y-40957798D01*
X170963901Y-40997492D01*
X171108141Y-41393098D01*
X171267127Y-41763262D01*
X171452623Y-42123405D01*
X171676397Y-42488949D01*
X171950214Y-42875316D01*
X172285841Y-43297926D01*
X172695044Y-43772201D01*
X173189589Y-44313564D01*
X173781243Y-44937434D01*
X174481770Y-45659234D01*
X174657864Y-45839024D01*
X175320553Y-46516587D01*
X175875524Y-47088746D01*
X176335688Y-47569739D01*
X176713955Y-47973804D01*
X177023238Y-48315180D01*
X177276449Y-48608104D01*
X177486497Y-48866814D01*
X177666295Y-49105549D01*
X177821429Y-49327680D01*
X178254280Y-50056526D01*
X178636010Y-50869602D01*
X178946179Y-51713478D01*
X179164346Y-52534725D01*
X179251031Y-53064464D01*
X179285889Y-53346383D01*
X179316329Y-53481724D01*
X179354257Y-53493024D01*
X179411582Y-53402819D01*
X179420689Y-53385559D01*
X179490188Y-53218167D01*
X179590886Y-52932190D01*
X179707506Y-52572462D01*
X179791234Y-52298079D01*
X180126109Y-50925154D01*
X180349242Y-49456856D01*
X180459519Y-47926760D01*
X180455827Y-46368440D01*
X180337050Y-44815471D01*
X180186174Y-43843311D01*
X180730435Y-43843311D01*
X180772910Y-43885786D01*
X180815385Y-43843311D01*
X180772910Y-43800836D01*
X180730435Y-43843311D01*
X180186174Y-43843311D01*
X180102075Y-43301428D01*
X180091554Y-43248662D01*
X179780407Y-41911804D01*
X179397858Y-40670149D01*
X178929074Y-39491964D01*
X178359225Y-38345515D01*
X177673479Y-37199070D01*
X176857007Y-36020894D01*
X176478660Y-35518227D01*
X176028994Y-34918052D01*
X175886432Y-34710949D01*
X176652843Y-34710949D01*
X176701687Y-34803724D01*
X176832662Y-34996232D01*
X177022432Y-35255005D01*
X177135534Y-35403261D01*
X177565982Y-35985113D01*
X178003893Y-36620980D01*
X178415444Y-37259238D01*
X178766812Y-37848264D01*
X178915804Y-38120425D01*
X179070414Y-38396640D01*
X179203512Y-38602214D01*
X179290775Y-38700334D01*
X179301274Y-38703846D01*
X179373828Y-38632541D01*
X179489252Y-38445295D01*
X179622980Y-38182114D01*
X179627275Y-38172910D01*
X179968583Y-37256610D01*
X180180758Y-36274135D01*
X180255686Y-35276415D01*
X180211762Y-34504814D01*
X180141878Y-33986447D01*
X180071513Y-33614015D01*
X179991021Y-33363798D01*
X179890754Y-33212080D01*
X179761063Y-33135143D01*
X179645557Y-33112880D01*
X179340497Y-33129263D01*
X178941239Y-33214761D01*
X178501299Y-33354538D01*
X178074189Y-33533761D01*
X178006282Y-33567299D01*
X177789742Y-33698546D01*
X177524847Y-33889605D01*
X177245854Y-34111530D01*
X176987022Y-34335373D01*
X176782609Y-34532185D01*
X176666872Y-34673019D01*
X176652843Y-34710949D01*
X175886432Y-34710949D01*
X175678429Y-34408779D01*
X175410236Y-33957018D01*
X175207687Y-33529376D01*
X175054052Y-33092461D01*
X174932603Y-32612881D01*
X174872065Y-32311371D01*
X174808035Y-32025658D01*
X174741896Y-31820230D01*
X174687596Y-31738075D01*
X174685994Y-31737960D01*
X174529834Y-31783896D01*
X174272799Y-31907905D01*
X173952255Y-32089291D01*
X173605568Y-32307356D01*
X173382274Y-32460117D01*
X172603961Y-33113823D01*
X171941607Y-33879223D01*
X171399959Y-34739570D01*
X170983758Y-35678120D01*
X170697749Y-36678126D01*
X170546674Y-37722842D01*
X170535278Y-38795524D01*
X170037485Y-38795524D01*
X170028231Y-38289362D01*
X170026756Y-37067854D01*
X169495820Y-37125433D01*
X169216438Y-37171233D01*
X168952015Y-37254874D01*
X168677769Y-37391731D01*
X168368920Y-37597180D01*
X168000686Y-37886596D01*
X167548286Y-38275355D01*
X167330843Y-38468712D01*
X166800176Y-38966082D01*
X166391993Y-39405261D01*
X166083825Y-39816683D01*
X165853205Y-40230783D01*
X165677663Y-40677995D01*
X165660555Y-40731139D01*
X165388139Y-41849378D01*
X165280795Y-42964172D01*
X165338894Y-44085312D01*
X165562807Y-45222590D01*
X165866800Y-46164511D01*
X166002930Y-46538568D01*
X166112739Y-46864687D01*
X166183668Y-47103965D01*
X166204014Y-47209035D01*
X166155887Y-47377497D01*
X166015649Y-47410670D01*
X165789508Y-47311825D01*
X165483673Y-47084233D01*
X165104355Y-46731165D01*
X164903733Y-46524160D01*
X164150670Y-45621966D01*
X163550639Y-44667493D01*
X163088864Y-43635048D01*
X162885677Y-43015050D01*
X162787917Y-42709505D01*
X162696730Y-42479334D01*
X162628106Y-42363395D01*
X162614749Y-42356689D01*
X162487567Y-42388685D01*
X162237519Y-42475750D01*
X161897240Y-42604501D01*
X161499362Y-42761554D01*
X161076520Y-42933525D01*
X160661347Y-43107031D01*
X160286478Y-43268688D01*
X159984545Y-43405111D01*
X159788183Y-43502918D01*
X159733883Y-43538186D01*
X159664301Y-43659949D01*
X159600774Y-43892033D01*
X159542264Y-44243993D01*
X159487730Y-44725385D01*
X159436131Y-45345764D01*
X159386428Y-46114683D01*
X159337580Y-47041699D01*
X159326100Y-47283779D01*
X159275364Y-48310011D01*
X159218994Y-49337886D01*
X159158533Y-50345490D01*
X159095526Y-51310906D01*
X159031518Y-52212220D01*
X158968053Y-53027516D01*
X158906675Y-53734879D01*
X158848929Y-54312393D01*
X158805272Y-54674415D01*
X158675644Y-55397286D01*
X158489159Y-55996088D01*
X158224134Y-56512972D01*
X157858888Y-56990086D01*
X157371737Y-57469581D01*
X157363772Y-57476668D01*
X156999186Y-57833855D01*
X156701720Y-58189744D01*
X156539119Y-58442821D01*
X156450943Y-58618553D01*
X156389301Y-58776115D01*
X156349855Y-58950005D01*
X156328271Y-59174722D01*
X156320211Y-59484767D01*
X156321340Y-59914638D01*
X156323694Y-60156782D01*
X156331158Y-60662980D01*
X156345716Y-61045666D01*
X156373980Y-61351227D01*
X156422559Y-61626050D01*
X156498063Y-61916523D01*
X156607104Y-62269031D01*
X156638638Y-62366906D01*
X156976519Y-63256875D01*
X157374887Y-64001200D01*
X157850571Y-64618433D01*
X158420404Y-65127126D01*
X159101215Y-65545830D01*
X159801396Y-65853038D01*
X160496437Y-66069044D01*
X161242900Y-66220538D01*
X161999628Y-66304628D01*
X162725463Y-66318424D01*
X163379248Y-66259033D01*
X163875832Y-66139311D01*
X164399994Y-65974907D01*
X165064877Y-65795556D01*
X165878250Y-65599342D01*
X166847886Y-65384350D01*
X167478261Y-65251678D01*
X168098797Y-65121838D01*
X168813289Y-64970139D01*
X169549922Y-64811956D01*
X170236883Y-64662666D01*
X170518124Y-64600838D01*
X171088335Y-64477566D01*
X171514895Y-64392472D01*
X171818982Y-64342527D01*
X172021773Y-64324707D01*
X172144447Y-64335986D01*
X172195883Y-64361108D01*
X172236751Y-64421165D01*
X172267934Y-64538048D01*
X172290622Y-64731617D01*
X172306009Y-65021734D01*
X172315284Y-65428261D01*
X172319641Y-65971060D01*
X172320402Y-66436779D01*
X172318576Y-67099649D01*
X172311861Y-67621353D01*
X172298396Y-68030600D01*
X172276323Y-68356098D01*
X172243783Y-68626553D01*
X172198916Y-68870674D01*
X172149151Y-69081060D01*
X171865734Y-69939830D01*
X171446290Y-70847116D01*
X170906244Y-71774443D01*
X170261024Y-72693335D01*
X170039475Y-72975233D01*
X169495747Y-73648962D01*
X169761252Y-74187377D01*
X169895477Y-74486594D01*
X169990946Y-74750992D01*
X170026756Y-74921432D01*
X169970636Y-75108362D01*
X169808503Y-75406333D01*
X169549700Y-75801648D01*
X169203566Y-76280613D01*
X168779444Y-76829530D01*
X168433770Y-77257044D01*
X167211547Y-78651621D01*
X165973110Y-79881247D01*
X164712461Y-80950561D01*
X163423600Y-81864205D01*
X162100529Y-82626820D01*
X160737251Y-83243045D01*
X160654296Y-83275368D01*
X160348721Y-83384190D01*
X159957032Y-83510431D01*
X159515347Y-83643961D01*
X159059783Y-83774648D01*
X158626456Y-83892362D01*
X158251484Y-83986973D01*
X157970984Y-84048349D01*
X157832674Y-84066828D01*
X157738237Y-84004122D01*
X157581435Y-83840720D01*
X157423438Y-83646783D01*
X157102933Y-83226510D01*
X156565113Y-83796628D01*
X156203140Y-84192059D01*
X155794401Y-84658300D01*
X155356569Y-85173303D01*
X154907317Y-85715023D01*
X154464318Y-86261415D01*
X154045245Y-86790433D01*
X153667771Y-87280031D01*
X153349568Y-87708164D01*
X153108309Y-88052785D01*
X152961916Y-88291372D01*
X152921362Y-88365770D01*
X152902867Y-88425214D01*
X152220292Y-88425214D01*
X153184849Y-87067169D01*
X154201767Y-85740033D01*
X155227072Y-84502846D01*
X155972194Y-83670231D01*
X156263876Y-83348238D01*
X156508182Y-83063497D01*
X156683839Y-82841962D01*
X156769575Y-82709583D01*
X156774582Y-82691370D01*
X156745485Y-82562196D01*
X156668226Y-82321319D01*
X156557854Y-82014738D01*
X156524736Y-81927718D01*
X156325855Y-81360175D01*
X156180632Y-80812775D01*
X156082364Y-80242474D01*
X156024347Y-79606226D01*
X155999878Y-78860984D01*
X155998244Y-78588694D01*
X156461751Y-78588694D01*
X156527650Y-79559555D01*
X156695549Y-80535564D01*
X156956391Y-81477979D01*
X157301120Y-82348058D01*
X157720683Y-83107059D01*
X157810527Y-83238937D01*
X157885321Y-83342817D01*
X157956327Y-83406326D01*
X158056608Y-83429765D01*
X158219230Y-83413435D01*
X158477256Y-83357636D01*
X158863752Y-83262669D01*
X158918891Y-83249013D01*
X160169910Y-82862058D01*
X161436120Y-82321644D01*
X162697058Y-81640430D01*
X163932266Y-80831073D01*
X165121283Y-79906233D01*
X166243649Y-78878567D01*
X166641117Y-78471443D01*
X167118472Y-77952682D01*
X167586650Y-77417255D01*
X168031542Y-76883714D01*
X168439038Y-76370611D01*
X168795031Y-75896498D01*
X169085411Y-75479928D01*
X169296070Y-75139452D01*
X169412899Y-74893623D01*
X169432107Y-74801471D01*
X169375414Y-74614634D01*
X169219120Y-74335363D01*
X168983902Y-73991220D01*
X168690440Y-73609768D01*
X168359411Y-73218568D01*
X168011492Y-72845181D01*
X167831218Y-72667641D01*
X167009956Y-71986378D01*
X166118225Y-71446407D01*
X165204292Y-71055606D01*
X164790242Y-70949485D01*
X164261169Y-70874555D01*
X163669431Y-70832850D01*
X163067385Y-70826404D01*
X162507387Y-70857250D01*
X162041794Y-70927422D01*
X162021935Y-70931998D01*
X161047221Y-71247233D01*
X160129674Y-71715691D01*
X159281960Y-72326629D01*
X158516745Y-73069301D01*
X157846694Y-73932964D01*
X157284473Y-74906873D01*
X157248151Y-74981674D01*
X157002959Y-75526202D01*
X156820496Y-76022656D01*
X156685010Y-76527988D01*
X156580748Y-77099153D01*
X156506906Y-77661721D01*
X156461751Y-78588694D01*
X155998244Y-78588694D01*
X155997983Y-78545318D01*
X156012029Y-77713365D01*
X156060727Y-77008219D01*
X156152819Y-76388776D01*
X156297045Y-75813931D01*
X156502145Y-75242580D01*
X156776861Y-74633617D01*
X156869526Y-74446639D01*
X157143956Y-73940119D01*
X157434611Y-73493740D01*
X157780058Y-73054134D01*
X158218865Y-72567929D01*
X158253760Y-72531102D01*
X158953026Y-71870351D01*
X159699932Y-71321007D01*
X160533139Y-70858525D01*
X161491305Y-70458362D01*
X161554805Y-70435369D01*
X161789044Y-70332776D01*
X162121246Y-70163314D01*
X162189047Y-70125916D01*
X163291290Y-70125916D01*
X163494642Y-70163125D01*
X164292782Y-70316825D01*
X164952659Y-70463767D01*
X165505035Y-70614418D01*
X165980673Y-70779243D01*
X166410333Y-70968710D01*
X166824779Y-71193282D01*
X167188536Y-71419893D01*
X167554231Y-71684358D01*
X167960421Y-72018070D01*
X168336359Y-72361856D01*
X168445067Y-72470887D01*
X168707493Y-72733411D01*
X168933309Y-72942955D01*
X169092954Y-73072988D01*
X169148801Y-73102466D01*
X169252759Y-73046139D01*
X169425076Y-72893350D01*
X169603206Y-72705017D01*
X170141760Y-72026236D01*
X170637867Y-71271369D01*
X171074020Y-70476023D01*
X171432715Y-69675807D01*
X171696446Y-68906331D01*
X171847708Y-68203204D01*
X171858288Y-68117726D01*
X171917598Y-67586789D01*
X171248264Y-67587290D01*
X170406574Y-67630823D01*
X169472362Y-67753462D01*
X168497648Y-67945017D01*
X167534448Y-68195297D01*
X166651486Y-68487849D01*
X166288243Y-68632789D01*
X165846662Y-68822925D01*
X165360894Y-69042042D01*
X164865094Y-69273927D01*
X164393413Y-69502365D01*
X163980006Y-69711142D01*
X163659025Y-69884042D01*
X163480917Y-69993096D01*
X163291290Y-70125916D01*
X162189047Y-70125916D01*
X162505916Y-69951138D01*
X162871527Y-69736254D01*
X164290367Y-68937496D01*
X165678213Y-68288615D01*
X167063371Y-67780272D01*
X168474147Y-67403130D01*
X169938847Y-67147849D01*
X171067391Y-67032404D01*
X171810703Y-66976889D01*
X171810703Y-65916917D01*
X171808850Y-65476649D01*
X171800751Y-65180220D01*
X171782593Y-65001584D01*
X171750565Y-64914698D01*
X171700856Y-64893517D01*
X171662040Y-64901188D01*
X171546237Y-64928603D01*
X171284347Y-64986512D01*
X170896575Y-65070576D01*
X170403125Y-65176456D01*
X169824203Y-65299814D01*
X169180012Y-65436311D01*
X168625084Y-65553350D01*
X167892738Y-65710036D01*
X167165712Y-65870275D01*
X166472941Y-66027348D01*
X165843359Y-66174539D01*
X165305901Y-66305130D01*
X164889504Y-66412402D01*
X164717391Y-66460547D01*
X164101311Y-66636299D01*
X163605748Y-66761915D01*
X163190521Y-66842413D01*
X162815449Y-66882814D01*
X162440352Y-66888137D01*
X162025049Y-66863401D01*
X161723667Y-66834537D01*
X160724628Y-66672565D01*
X159788247Y-66406759D01*
X158932406Y-66046943D01*
X158174987Y-65602939D01*
X157533871Y-65084570D01*
X157026941Y-64501659D01*
X156796068Y-64127739D01*
X156417155Y-63298169D01*
X156118821Y-62410003D01*
X155907254Y-61499026D01*
X155788645Y-60601020D01*
X155769183Y-59751770D01*
X155855057Y-58987058D01*
X155883861Y-58853982D01*
X155982038Y-58483703D01*
X156096181Y-58181519D01*
X156250799Y-57908739D01*
X156470402Y-57626673D01*
X156779500Y-57296627D01*
X157024715Y-57053010D01*
X157438407Y-56626623D01*
X157742540Y-56252008D01*
X157965781Y-55882152D01*
X158136800Y-55470041D01*
X158275714Y-55001525D01*
X158339585Y-54752074D01*
X158369208Y-54562467D01*
X158347693Y-54407343D01*
X158258153Y-54261339D01*
X158083700Y-54099093D01*
X157807446Y-53895243D01*
X157412503Y-53624426D01*
X157314221Y-53557568D01*
X156132065Y-52652568D01*
X155036580Y-51611430D01*
X154040037Y-50450758D01*
X153154705Y-49187157D01*
X152392856Y-47837232D01*
X151766759Y-46417587D01*
X151516727Y-45712207D01*
X151338604Y-45157782D01*
X151197676Y-44686515D01*
X151089124Y-44265683D01*
X151008127Y-43862565D01*
X150949866Y-43444437D01*
X150909521Y-42978577D01*
X150882273Y-42432262D01*
X150863302Y-41772771D01*
X150851857Y-41198181D01*
X150850541Y-41117564D01*
X151361812Y-41117564D01*
X151370353Y-41345954D01*
X151393719Y-41670828D01*
X151422714Y-41985425D01*
X151653692Y-43578732D01*
X152020611Y-45081023D01*
X152530404Y-46511835D01*
X153190002Y-47890708D01*
X153983346Y-49202830D01*
X154411678Y-49786278D01*
X154947172Y-50425130D01*
X155554261Y-51082622D01*
X156197379Y-51721991D01*
X156840962Y-52306473D01*
X157449444Y-52799303D01*
X157496650Y-52834490D01*
X158261193Y-53400201D01*
X158335551Y-53177128D01*
X158355741Y-52905015D01*
X158280491Y-52688649D01*
X158167444Y-52500679D01*
X157979212Y-52231479D01*
X157750272Y-51929594D01*
X157669660Y-51828595D01*
X156874751Y-50727289D01*
X156184282Y-49526641D01*
X155624789Y-48275186D01*
X155431677Y-47735319D01*
X155172412Y-46854741D01*
X154992815Y-46002243D01*
X154878272Y-45100613D01*
X154841368Y-44615904D01*
X154781459Y-43655794D01*
X155476481Y-43655794D01*
X155524764Y-44641526D01*
X155654947Y-45800019D01*
X155927370Y-46993064D01*
X156330678Y-48182587D01*
X156853517Y-49330516D01*
X157010111Y-49621927D01*
X157177354Y-49902301D01*
X157391129Y-50231320D01*
X157630354Y-50580007D01*
X157873949Y-50919386D01*
X158100830Y-51220480D01*
X158289917Y-51454314D01*
X158420126Y-51591910D01*
X158461066Y-51616221D01*
X158507146Y-51539031D01*
X158554161Y-51337681D01*
X158588532Y-51085284D01*
X158606639Y-50862845D01*
X158631263Y-50497934D01*
X158660791Y-50017783D01*
X158693612Y-49449625D01*
X158728114Y-48820695D01*
X158762686Y-48158223D01*
X158768248Y-48048328D01*
X158817042Y-47093250D01*
X158859498Y-46293739D01*
X158896547Y-45635619D01*
X158929118Y-45104712D01*
X158958139Y-44686843D01*
X158984540Y-44367833D01*
X159009249Y-44133506D01*
X159033197Y-43969685D01*
X159036882Y-43949793D01*
X159081597Y-43716477D01*
X157821902Y-43765733D01*
X157322389Y-43778215D01*
X156832750Y-43778041D01*
X156402007Y-43766035D01*
X156079187Y-43743022D01*
X156019344Y-43735391D01*
X155476481Y-43655794D01*
X154781459Y-43655794D01*
X154778261Y-43604551D01*
X154185534Y-43364691D01*
X153591056Y-43078097D01*
X153005855Y-42712482D01*
X152464526Y-42295758D01*
X152001668Y-41855839D01*
X151651877Y-41420636D01*
X151537855Y-41228532D01*
X151441005Y-41072381D01*
X151374205Y-41019229D01*
X151370073Y-41021845D01*
X151361812Y-41117564D01*
X150850541Y-41117564D01*
X150847956Y-40959296D01*
X152197170Y-40959296D01*
X152239252Y-41028719D01*
X152379106Y-41188928D01*
X152592208Y-41412772D01*
X152749229Y-41570486D01*
X153341468Y-42081052D01*
X153989891Y-42486295D01*
X154727714Y-42802947D01*
X155588153Y-43047739D01*
X155755184Y-43084730D01*
X156262208Y-43155408D01*
X156879982Y-43183910D01*
X157555309Y-43172639D01*
X158234993Y-43123998D01*
X158865836Y-43040391D01*
X159394643Y-42924221D01*
X159410721Y-42919573D01*
X160006985Y-42736616D01*
X160516389Y-42562526D01*
X160915095Y-42406162D01*
X161179263Y-42276385D01*
X161228956Y-42243785D01*
X161277577Y-42195346D01*
X161293073Y-42126824D01*
X161265838Y-42017442D01*
X161186266Y-41846426D01*
X161044749Y-41593000D01*
X160831681Y-41236390D01*
X160551381Y-40778459D01*
X160266438Y-40317081D01*
X159991588Y-39875552D01*
X159747239Y-39486401D01*
X159683020Y-39385395D01*
X160468695Y-39385395D01*
X160484608Y-39503079D01*
X160589472Y-39740996D01*
X160773289Y-40081267D01*
X161026059Y-40506015D01*
X161337783Y-40997360D01*
X161548523Y-41316053D01*
X161805107Y-41667296D01*
X162010149Y-41869396D01*
X162178452Y-41929621D01*
X162324815Y-41855240D01*
X162413525Y-41740803D01*
X162458570Y-41625426D01*
X162494389Y-41424974D01*
X162522497Y-41120489D01*
X162544409Y-40693014D01*
X162547030Y-40606369D01*
X163074663Y-40606369D01*
X163089946Y-41165998D01*
X163126954Y-41622842D01*
X163142584Y-41733480D01*
X163329047Y-42579501D01*
X163609588Y-43440167D01*
X163964065Y-44267409D01*
X164372337Y-45013159D01*
X164733692Y-45530849D01*
X164924433Y-45761723D01*
X165072649Y-45923297D01*
X165150006Y-45985010D01*
X165153672Y-45983842D01*
X165149321Y-45892167D01*
X165109478Y-45674597D01*
X165041672Y-45369603D01*
X164999052Y-45193999D01*
X164889232Y-44599478D01*
X164822618Y-43905191D01*
X164799205Y-43163044D01*
X164818986Y-42424943D01*
X164881957Y-41742792D01*
X164988111Y-41168497D01*
X164999502Y-41124916D01*
X165233479Y-40417131D01*
X165548648Y-39699689D01*
X165919019Y-39022081D01*
X166318602Y-38433798D01*
X166568917Y-38136377D01*
X167172943Y-37560220D01*
X167791408Y-37127372D01*
X168466779Y-36815029D01*
X169241522Y-36600387D01*
X169529504Y-36546557D01*
X170121041Y-36446887D01*
X170370531Y-35704443D01*
X170587269Y-35103914D01*
X170802866Y-34611741D01*
X171045255Y-34168890D01*
X171242396Y-33861706D01*
X171581728Y-33400363D01*
X171974875Y-32931539D01*
X172376908Y-32505555D01*
X172742901Y-32172736D01*
X172768616Y-32152166D01*
X173174359Y-31831445D01*
X172857423Y-31771987D01*
X172665365Y-31754953D01*
X172340514Y-31746475D01*
X171919766Y-31746686D01*
X171440020Y-31755723D01*
X171132641Y-31765684D01*
X170109732Y-31833161D01*
X169216858Y-31958764D01*
X168421347Y-32151707D01*
X167690527Y-32421205D01*
X166991726Y-32776473D01*
X166530122Y-33063784D01*
X165653684Y-33747187D01*
X164888564Y-34554058D01*
X164242257Y-35473379D01*
X163722259Y-36494132D01*
X163336064Y-37605297D01*
X163271377Y-37854348D01*
X163200638Y-38247375D01*
X163144090Y-38764458D01*
X163103241Y-39360231D01*
X163079596Y-39989324D01*
X163074663Y-40606369D01*
X162547030Y-40606369D01*
X162561637Y-40123591D01*
X162568596Y-39799015D01*
X162602546Y-38048364D01*
X162053517Y-38424244D01*
X161702535Y-38652008D01*
X161322474Y-38879469D01*
X161014620Y-39047408D01*
X160752095Y-39189060D01*
X160553615Y-39313056D01*
X160468695Y-39385395D01*
X159683020Y-39385395D01*
X159553799Y-39182153D01*
X159444962Y-39015063D01*
X159170362Y-38604207D01*
X158472424Y-39246885D01*
X157765225Y-39854101D01*
X157100557Y-40327278D01*
X156446766Y-40685225D01*
X155772194Y-40946750D01*
X155461249Y-41035963D01*
X155047053Y-41109548D01*
X154528260Y-41152425D01*
X153963593Y-41164363D01*
X153411777Y-41145128D01*
X152931534Y-41094488D01*
X152694380Y-41046931D01*
X152436374Y-40986706D01*
X152253968Y-40956699D01*
X152197170Y-40959296D01*
X150847956Y-40959296D01*
X150840520Y-40504133D01*
X150835302Y-39950918D01*
X150836945Y-39622294D01*
X151409000Y-39622294D01*
X151974300Y-39938428D01*
X152307428Y-40112752D01*
X152637795Y-40266116D01*
X152893984Y-40365370D01*
X152894382Y-40365494D01*
X153160222Y-40419685D01*
X153526435Y-40457351D01*
X153941980Y-40477465D01*
X154355818Y-40479001D01*
X154716908Y-40460931D01*
X154974210Y-40422227D01*
X155018891Y-40408249D01*
X155133658Y-40333078D01*
X155206399Y-40235566D01*
X156010506Y-40235566D01*
X156413782Y-40030952D01*
X156686946Y-39875642D01*
X157023587Y-39660907D01*
X157353215Y-39431813D01*
X157369231Y-39420067D01*
X157715040Y-39147497D01*
X158079367Y-38832029D01*
X158367066Y-38558031D01*
X158812728Y-38102266D01*
X158605244Y-37702220D01*
X158424234Y-37377140D01*
X158218096Y-37039704D01*
X158149953Y-36936094D01*
X158033832Y-36764550D01*
X158720811Y-36764550D01*
X158950379Y-37160787D01*
X159198823Y-37578785D01*
X159447359Y-37977978D01*
X159678798Y-38332718D01*
X159875956Y-38617356D01*
X160021644Y-38806244D01*
X160098228Y-38873746D01*
X160209163Y-38838000D01*
X160424792Y-38744170D01*
X160698972Y-38612366D01*
X160705934Y-38608880D01*
X161310403Y-38267801D01*
X161888839Y-37871396D01*
X162386880Y-37458798D01*
X162603100Y-37243207D01*
X162789488Y-37001797D01*
X163008870Y-36658337D01*
X163227929Y-36267203D01*
X163346190Y-36030485D01*
X163539807Y-35633634D01*
X163738749Y-35245625D01*
X163913917Y-34922362D01*
X163996281Y-34781470D01*
X164134998Y-34543539D01*
X164227215Y-34361441D01*
X164250167Y-34292509D01*
X164188354Y-34213738D01*
X164021558Y-34053458D01*
X163777744Y-33835947D01*
X163484878Y-33585481D01*
X163170926Y-33326337D01*
X162863853Y-33082792D01*
X162800906Y-33034410D01*
X162724381Y-33005875D01*
X162632049Y-33050013D01*
X162501756Y-33187348D01*
X162311350Y-33438405D01*
X162206257Y-33585333D01*
X161674485Y-34258367D01*
X161037233Y-34940614D01*
X160347227Y-35580382D01*
X159657194Y-36125977D01*
X159510406Y-36228381D01*
X158720811Y-36764550D01*
X158033832Y-36764550D01*
X157902146Y-36570014D01*
X157579541Y-37056038D01*
X157287849Y-37526948D01*
X156976055Y-38082769D01*
X156673779Y-38666446D01*
X156410641Y-39220925D01*
X156225686Y-39663885D01*
X156010506Y-40235566D01*
X155206399Y-40235566D01*
X155247268Y-40180780D01*
X155376064Y-39923404D01*
X155536391Y-39532998D01*
X155547723Y-39503821D01*
X155875274Y-38724956D01*
X156254210Y-37934252D01*
X156654711Y-37190338D01*
X157046958Y-36551846D01*
X157055754Y-36538706D01*
X157435090Y-35973248D01*
X156566448Y-34386540D01*
X156401228Y-34084404D01*
X157210802Y-34084404D01*
X157234022Y-34165217D01*
X157327687Y-34359509D01*
X157474277Y-34635404D01*
X157656275Y-34961026D01*
X157856160Y-35304497D01*
X158056416Y-35633942D01*
X158103844Y-35709364D01*
X158270642Y-35943757D01*
X158420454Y-36105289D01*
X158507882Y-36155351D01*
X158629709Y-36110388D01*
X158851081Y-35990323D01*
X159132288Y-35817396D01*
X159253975Y-35737506D01*
X159624863Y-35464271D01*
X160029839Y-35123382D01*
X160448734Y-34736550D01*
X160861381Y-34325487D01*
X161247614Y-33911905D01*
X161587267Y-33517517D01*
X161860171Y-33164034D01*
X162046159Y-32873168D01*
X162125066Y-32666631D01*
X162126245Y-32647807D01*
X163325837Y-32647807D01*
X163639340Y-32941373D01*
X163925353Y-33202561D01*
X164199587Y-33441542D01*
X164431509Y-33632870D01*
X164590590Y-33751099D01*
X164641668Y-33776756D01*
X164723455Y-33725822D01*
X164900579Y-33590389D01*
X165139370Y-33396510D01*
X165218087Y-33330769D01*
X165562072Y-33046917D01*
X165944049Y-32739634D01*
X166265109Y-32488023D01*
X166683198Y-32111644D01*
X166937372Y-31766967D01*
X167613012Y-31766967D01*
X167821724Y-31706036D01*
X168317930Y-31561189D01*
X168721902Y-31446646D01*
X169063271Y-31358779D01*
X169371671Y-31293957D01*
X169676732Y-31248550D01*
X170008089Y-31218929D01*
X170395372Y-31201464D01*
X170868215Y-31192526D01*
X171456249Y-31188484D01*
X172065552Y-31186200D01*
X174486622Y-31176896D01*
X174996321Y-30949745D01*
X175289245Y-30830809D01*
X175543259Y-30747832D01*
X175686258Y-30720578D01*
X175835413Y-30674811D01*
X176081094Y-30554164D01*
X176380305Y-30380716D01*
X176516463Y-30294258D01*
X177357319Y-29793691D01*
X178250866Y-29361049D01*
X179234952Y-28980062D01*
X180347426Y-28634462D01*
X180433111Y-28610615D01*
X180989251Y-28460529D01*
X181406989Y-28358432D01*
X181710054Y-28301536D01*
X181922178Y-28287050D01*
X182067090Y-28312184D01*
X182168522Y-28374147D01*
X182197383Y-28403177D01*
X182320645Y-28583156D01*
X182489935Y-28891277D01*
X182691302Y-29296725D01*
X182910794Y-29768679D01*
X183134461Y-30276324D01*
X183348352Y-30788841D01*
X183538516Y-31275412D01*
X183687785Y-31695485D01*
X183928015Y-32481465D01*
X184092781Y-33179628D01*
X184192321Y-33848857D01*
X184236875Y-34548033D01*
X184241698Y-34881104D01*
X184174552Y-36033272D01*
X183963773Y-37164922D01*
X183603173Y-38301296D01*
X183147654Y-39344379D01*
X182960933Y-39701039D01*
X182721936Y-40121263D01*
X182449833Y-40575049D01*
X182163790Y-41032398D01*
X181882978Y-41463308D01*
X181626565Y-41837779D01*
X181413719Y-42125810D01*
X181263609Y-42297401D01*
X181257084Y-42303279D01*
X181071535Y-42403487D01*
X180907644Y-42394765D01*
X180819339Y-42284387D01*
X180815385Y-42243706D01*
X180859910Y-42133786D01*
X180982414Y-41910997D01*
X181166295Y-41603607D01*
X181394948Y-41239884D01*
X181503046Y-41072979D01*
X182239539Y-39870184D01*
X182828279Y-38731894D01*
X183270436Y-37640837D01*
X183567181Y-36579739D01*
X183719684Y-35531329D01*
X183729117Y-34478335D01*
X183596650Y-33403483D01*
X183323454Y-32289502D01*
X182910699Y-31119119D01*
X182359557Y-29875061D01*
X182273944Y-29699164D01*
X182115979Y-29377916D01*
X181985595Y-29146810D01*
X181854570Y-28999119D01*
X181694681Y-28928116D01*
X181477707Y-28927076D01*
X181175424Y-28989271D01*
X180759612Y-29107977D01*
X180333922Y-29236794D01*
X179144219Y-29634258D01*
X178116512Y-30060574D01*
X177244804Y-30519210D01*
X176523100Y-31013634D01*
X175945401Y-31547314D01*
X175606109Y-31970963D01*
X175378075Y-32300018D01*
X175515311Y-32762300D01*
X175608598Y-33033893D01*
X175734485Y-33345462D01*
X175874371Y-33657505D01*
X176009649Y-33930519D01*
X176121717Y-34125000D01*
X176191971Y-34201447D01*
X176193113Y-34201505D01*
X176275111Y-34150198D01*
X176452886Y-34013328D01*
X176693706Y-33816470D01*
X176794916Y-33731275D01*
X177520507Y-33208309D01*
X178293610Y-32822640D01*
X179088792Y-32584461D01*
X179857518Y-32503983D01*
X180099180Y-32519834D01*
X180240305Y-32593099D01*
X180346422Y-32753995D01*
X180535437Y-33246320D01*
X180669115Y-33862076D01*
X180745925Y-34563538D01*
X180764336Y-35312983D01*
X180722820Y-36072688D01*
X180619845Y-36804929D01*
X180527447Y-37217224D01*
X180382978Y-37690430D01*
X180192358Y-38208042D01*
X179989772Y-38679544D01*
X179925983Y-38809859D01*
X179546566Y-39552995D01*
X179834966Y-40308732D01*
X179973224Y-40655498D01*
X180162347Y-41108299D01*
X180381789Y-41619005D01*
X180611005Y-42139488D01*
X180720716Y-42383627D01*
X180985060Y-42977522D01*
X181219848Y-43531197D01*
X181431134Y-44065183D01*
X181624970Y-44600014D01*
X181807406Y-45156221D01*
X181984496Y-45754338D01*
X182162291Y-46414896D01*
X182346842Y-47158429D01*
X182544202Y-48005468D01*
X182760423Y-48976546D01*
X183001556Y-50092197D01*
X183024689Y-50200406D01*
X183257318Y-51268676D01*
X183468309Y-52190291D01*
X183663407Y-52986277D01*
X183848357Y-53677658D01*
X184028905Y-54285458D01*
X184210793Y-54830702D01*
X184399768Y-55334414D01*
X184484652Y-55543513D01*
X185074020Y-56771400D01*
X185787663Y-57928607D01*
X186611195Y-59002017D01*
X187530233Y-59978509D01*
X188530392Y-60844965D01*
X189597288Y-61588266D01*
X190716537Y-62195292D01*
X191873754Y-62652925D01*
X192465621Y-62822498D01*
X193685485Y-63051836D01*
X194893842Y-63122872D01*
X196120792Y-63036256D01*
X196838668Y-62916859D01*
X197846810Y-62646243D01*
X198896546Y-62231911D01*
X199961789Y-61685983D01*
X201016452Y-61020580D01*
X201203345Y-60888918D01*
X201755519Y-60493478D01*
X200948495Y-60438473D01*
X200280661Y-60367439D01*
X199722263Y-60241334D01*
X199216262Y-60039027D01*
X198705620Y-59739387D01*
X198321050Y-59465062D01*
X197674162Y-58882988D01*
X197085520Y-58162057D01*
X196571619Y-57328098D01*
X196148955Y-56406946D01*
X195902718Y-55677756D01*
X195801826Y-55318005D01*
X195715273Y-54980912D01*
X195641939Y-54650300D01*
X195580707Y-54309993D01*
X195530458Y-53943813D01*
X195490072Y-53535586D01*
X195458432Y-53069134D01*
X195434419Y-52528280D01*
X195416913Y-51896849D01*
X195404797Y-51158664D01*
X195396952Y-50297549D01*
X195392258Y-49297327D01*
X195389797Y-48260702D01*
X195387744Y-47224305D01*
X195385095Y-46341997D01*
X195381327Y-45597971D01*
X195375913Y-44976416D01*
X195368327Y-44461523D01*
X195358045Y-44037482D01*
X195344541Y-43688485D01*
X195327288Y-43398721D01*
X195305762Y-43152381D01*
X195279437Y-42933656D01*
X195247787Y-42726737D01*
X195210286Y-42515814D01*
X195196349Y-42441639D01*
X194767241Y-40598983D01*
X194194100Y-38830426D01*
X193481265Y-37143630D01*
X192633079Y-35546261D01*
X191653881Y-34045983D01*
X190548011Y-32650458D01*
X189319812Y-31367352D01*
X188515970Y-30646160D01*
X187281490Y-29704065D01*
X185968341Y-28896400D01*
X184595136Y-28232345D01*
X183180489Y-27721079D01*
X181962208Y-27414066D01*
X180337258Y-27171196D01*
X178711720Y-27096518D01*
X177095675Y-27188734D01*
X175499205Y-27446549D01*
X173932390Y-27868665D01*
X172405314Y-28453788D01*
X171845124Y-28714890D01*
X171145674Y-29079835D01*
X170442536Y-29487981D01*
X169762204Y-29920873D01*
X169131168Y-30360058D01*
X168575923Y-30787082D01*
X168122961Y-31183491D01*
X167798775Y-31530831D01*
X167794167Y-31536666D01*
X167613012Y-31766967D01*
X166937372Y-31766967D01*
X166988187Y-31698060D01*
X167048363Y-31590580D01*
X167212251Y-31327211D01*
X167434609Y-31053300D01*
X167733091Y-30752110D01*
X168125354Y-30406904D01*
X168629053Y-30000942D01*
X169132037Y-29615194D01*
X169723940Y-29168283D01*
X169344411Y-29228537D01*
X168382163Y-29435704D01*
X167407531Y-29745285D01*
X166481730Y-30135044D01*
X165734372Y-30539989D01*
X165290209Y-30835086D01*
X164823799Y-31181169D01*
X164372399Y-31547348D01*
X163973267Y-31902728D01*
X163663661Y-32216417D01*
X163554390Y-32347556D01*
X163325837Y-32647807D01*
X162126245Y-32647807D01*
X162126422Y-32644994D01*
X162063870Y-32552231D01*
X161897480Y-32384406D01*
X161659153Y-32168639D01*
X161380788Y-31932050D01*
X161094286Y-31701760D01*
X160831546Y-31504889D01*
X160626219Y-31369568D01*
X160527826Y-31405784D01*
X160362837Y-31569448D01*
X160150445Y-31841361D01*
X160139999Y-31855948D01*
X159504384Y-32606228D01*
X158760284Y-33235144D01*
X157974982Y-33702592D01*
X157657000Y-33858852D01*
X157401671Y-33985833D01*
X157243896Y-34066099D01*
X157210802Y-34084404D01*
X156401228Y-34084404D01*
X156275770Y-33854983D01*
X155982938Y-33318445D01*
X155708561Y-32814757D01*
X155473244Y-32381751D01*
X155297595Y-32057258D01*
X155288162Y-32039761D01*
X154878516Y-31279690D01*
X154587610Y-31615012D01*
X154317376Y-31964188D01*
X154002043Y-32433376D01*
X153663427Y-32986423D01*
X153323346Y-33587175D01*
X153003617Y-34199479D01*
X152898609Y-34413879D01*
X152352395Y-35697337D01*
X151911393Y-37041225D01*
X151592147Y-38390480D01*
X151465331Y-39184307D01*
X151409000Y-39622294D01*
X150836945Y-39622294D01*
X150837509Y-39509537D01*
X150848445Y-39150993D01*
X150869416Y-38846287D01*
X150901728Y-38566421D01*
X150946685Y-38282396D01*
X150994855Y-38021061D01*
X151347876Y-36578568D01*
X151850204Y-35129614D01*
X152486236Y-33708607D01*
X153240368Y-32349956D01*
X154075149Y-31120253D01*
X155585284Y-31120253D01*
X155625092Y-31228125D01*
X155732218Y-31449104D01*
X155888214Y-31749638D01*
X156074633Y-32096170D01*
X156273027Y-32455147D01*
X156464949Y-32793012D01*
X156631951Y-33076211D01*
X156755586Y-33271189D01*
X156800991Y-33331558D01*
X156909870Y-33432220D01*
X157027038Y-33476028D01*
X157185625Y-33457541D01*
X157418762Y-33371318D01*
X157759581Y-33211920D01*
X157875391Y-33155123D01*
X158228388Y-32947794D01*
X158607300Y-32669614D01*
X158986347Y-32346327D01*
X159339752Y-32003679D01*
X159641735Y-31667417D01*
X159866518Y-31363285D01*
X159988323Y-31117029D01*
X160002676Y-31030552D01*
X159936608Y-30923931D01*
X159751373Y-30735728D01*
X159466422Y-30482600D01*
X159101210Y-30181200D01*
X158675187Y-29848184D01*
X158258114Y-29536856D01*
X157915224Y-29286407D01*
X157241015Y-29880414D01*
X156895680Y-30171009D01*
X156532228Y-30454613D01*
X156207450Y-30687733D01*
X156076045Y-30772541D01*
X155829277Y-30929215D01*
X155653043Y-31054026D01*
X155585287Y-31120091D01*
X155585284Y-31120253D01*
X154075149Y-31120253D01*
X154096997Y-31088070D01*
X154200788Y-30951475D01*
X154352573Y-30754899D01*
X154455241Y-30600808D01*
X154506112Y-30458087D01*
X154502507Y-30295623D01*
X154441744Y-30082302D01*
X154321143Y-29787010D01*
X154138023Y-29378634D01*
X154048180Y-29179998D01*
X153799436Y-28608809D01*
X153627826Y-28162021D01*
X153527247Y-27815920D01*
X153495419Y-27575633D01*
X153937904Y-27575633D01*
X154221872Y-28276361D01*
X154382273Y-28656110D01*
X154568907Y-29072973D01*
X154764545Y-29491189D01*
X154951957Y-29875000D01*
X155113913Y-30188647D01*
X155233184Y-30396370D01*
X155265433Y-30442227D01*
X155393123Y-30472044D01*
X155622430Y-30395809D01*
X155932331Y-30225053D01*
X156301806Y-29971308D01*
X156697295Y-29656738D01*
X156954907Y-29429707D01*
X157165050Y-29228024D01*
X157289793Y-29088513D01*
X157302136Y-29069593D01*
X157328887Y-29009206D01*
X157326479Y-28947571D01*
X157279010Y-28870829D01*
X157170578Y-28765119D01*
X156985281Y-28616582D01*
X156707218Y-28411358D01*
X156697696Y-28404568D01*
X158133779Y-28404568D01*
X158190175Y-28509824D01*
X158326849Y-28661549D01*
X158336236Y-28670448D01*
X158454265Y-28770718D01*
X158679941Y-28953019D01*
X158993829Y-29202285D01*
X159376494Y-29503451D01*
X159808502Y-29841453D01*
X160270416Y-30201223D01*
X160742803Y-30567698D01*
X161206228Y-30925810D01*
X161641255Y-31260496D01*
X162028449Y-31556690D01*
X162348377Y-31799325D01*
X162581602Y-31973337D01*
X162708691Y-32063660D01*
X162725644Y-32073008D01*
X162806509Y-32019852D01*
X162960706Y-31878969D01*
X163065443Y-31773469D01*
X163370693Y-31478622D01*
X163770043Y-31124458D01*
X164218075Y-30748621D01*
X164669373Y-30388752D01*
X165078519Y-30082494D01*
X165247335Y-29965093D01*
X165590409Y-29706814D01*
X165784160Y-29490391D01*
X165833091Y-29378111D01*
X165879275Y-29199120D01*
X165893271Y-29146990D01*
X166721170Y-29146990D01*
X167136103Y-28678094D01*
X168171970Y-28678094D01*
X168262832Y-28663276D01*
X168479399Y-28625353D01*
X168780217Y-28571613D01*
X168879933Y-28553633D01*
X169324136Y-28490257D01*
X169819528Y-28444866D01*
X170232160Y-28427880D01*
X170532948Y-28421520D01*
X170776180Y-28396951D01*
X171009086Y-28341377D01*
X171278898Y-28242001D01*
X171632850Y-28086027D01*
X171829935Y-27995000D01*
X173325708Y-27392379D01*
X174886935Y-26940420D01*
X176496463Y-26641320D01*
X178137137Y-26497277D01*
X179791807Y-26510486D01*
X181443317Y-26683145D01*
X181720859Y-26728228D01*
X183195677Y-27065259D01*
X184627959Y-27559945D01*
X186010351Y-28203726D01*
X187335502Y-28988040D01*
X188596061Y-29904326D01*
X189784675Y-30944023D01*
X190893993Y-32098570D01*
X191916663Y-33359406D01*
X192845334Y-34717971D01*
X193672654Y-36165701D01*
X194391270Y-37694038D01*
X194993831Y-39294420D01*
X195472986Y-40958285D01*
X195821383Y-42677073D01*
X195905190Y-43245769D01*
X195934509Y-43498629D01*
X195958665Y-43789562D01*
X195977943Y-44134224D01*
X195992633Y-44548274D01*
X196003021Y-45047369D01*
X196009396Y-45647166D01*
X196012043Y-46363322D01*
X196011251Y-47211496D01*
X196007308Y-48207345D01*
X196004794Y-48671159D01*
X195978930Y-53159207D01*
X196207497Y-53356223D01*
X196425551Y-53497326D01*
X196773128Y-53667586D01*
X197215247Y-53853673D01*
X197716929Y-54042258D01*
X198243195Y-54220012D01*
X198759064Y-54373605D01*
X199115386Y-54464298D01*
X199621851Y-54569411D01*
X200083104Y-54633491D01*
X200549744Y-54658880D01*
X201072369Y-54647922D01*
X201701575Y-54602958D01*
X201840468Y-54590477D01*
X202852354Y-54418262D01*
X203841501Y-54097818D01*
X204768597Y-53644424D01*
X205450836Y-53187308D01*
X206122407Y-52601440D01*
X206782094Y-51898327D01*
X207388664Y-51128071D01*
X207900887Y-50340773D01*
X208107075Y-49959699D01*
X208519077Y-48993503D01*
X208837754Y-47944714D01*
X209055389Y-46856923D01*
X209164263Y-45773719D01*
X209156658Y-44738694D01*
X209111460Y-44287312D01*
X209048139Y-43841294D01*
X208995183Y-43556719D01*
X208945938Y-43425989D01*
X208893749Y-43441500D01*
X208831962Y-43595654D01*
X208754297Y-43879366D01*
X208462587Y-44711990D01*
X208027467Y-45518125D01*
X207474835Y-46257141D01*
X206842404Y-46878606D01*
X206202718Y-47317386D01*
X205495642Y-47616847D01*
X204693232Y-47788656D01*
X204649250Y-47794210D01*
X203623019Y-47836679D01*
X202618320Y-47712259D01*
X201641357Y-47423265D01*
X200698332Y-46972016D01*
X199795449Y-46360828D01*
X199049022Y-45702374D01*
X198627308Y-45272197D01*
X198239039Y-44841691D01*
X197877360Y-44397394D01*
X197535415Y-43925847D01*
X197206349Y-43413589D01*
X196883306Y-42847157D01*
X196559431Y-42213093D01*
X196227867Y-41497934D01*
X195881760Y-40688221D01*
X195514253Y-39770492D01*
X195118492Y-38731287D01*
X194687620Y-37557145D01*
X194214783Y-36234605D01*
X194186736Y-36155351D01*
X193786049Y-35042766D01*
X193420069Y-34073237D01*
X193079006Y-33225853D01*
X192753069Y-32479700D01*
X192432469Y-31813867D01*
X192107415Y-31207440D01*
X191768119Y-30639506D01*
X191404788Y-30089154D01*
X191231443Y-29842503D01*
X190187366Y-28521117D01*
X189041453Y-27332673D01*
X187798905Y-26280815D01*
X186464922Y-25369184D01*
X185044703Y-24601423D01*
X183543448Y-23981175D01*
X182326066Y-23603866D01*
X182051717Y-23532166D01*
X181813571Y-23476937D01*
X181583879Y-23436089D01*
X181334895Y-23407534D01*
X181038871Y-23389184D01*
X180668060Y-23378949D01*
X180194714Y-23374740D01*
X179591085Y-23374470D01*
X179286288Y-23375041D01*
X178622513Y-23376918D01*
X178100303Y-23380985D01*
X177691324Y-23389674D01*
X177367239Y-23405419D01*
X177099716Y-23430652D01*
X176860419Y-23467807D01*
X176621013Y-23519315D01*
X176353164Y-23587609D01*
X176138826Y-23645285D01*
X174718672Y-24103939D01*
X173335807Y-24695710D01*
X172014333Y-25406162D01*
X170778352Y-26220860D01*
X169651964Y-27125368D01*
X168659272Y-28105249D01*
X168619974Y-28148829D01*
X168407208Y-28389239D01*
X168250630Y-28572479D01*
X168174659Y-28669702D01*
X168171970Y-28678094D01*
X167136103Y-28678094D01*
X167247384Y-28552341D01*
X167515268Y-28257835D01*
X167860515Y-27890086D01*
X168239446Y-27495078D01*
X168608384Y-27118794D01*
X168624090Y-27102999D01*
X169763845Y-26055237D01*
X170962006Y-25149076D01*
X172235107Y-24375466D01*
X173599687Y-23725360D01*
X175072279Y-23189710D01*
X176482943Y-22802907D01*
X176767265Y-22739438D01*
X177034298Y-22691558D01*
X177314844Y-22657128D01*
X177639706Y-22634008D01*
X178039686Y-22620057D01*
X178545588Y-22613135D01*
X179188214Y-22611102D01*
X179243813Y-22611087D01*
X179958479Y-22614193D01*
X180532825Y-22624810D01*
X180996330Y-22644577D01*
X181378472Y-22675130D01*
X181708729Y-22718104D01*
X181949126Y-22761270D01*
X183304500Y-23110281D01*
X184672304Y-23612304D01*
X186026404Y-24254889D01*
X187340665Y-25025582D01*
X188588949Y-25911932D01*
X188630769Y-25944619D01*
X188883152Y-26141228D01*
X189069194Y-26260212D01*
X189226437Y-26296479D01*
X189392423Y-26244936D01*
X189604696Y-26100491D01*
X189900797Y-25858051D01*
X190023230Y-25755736D01*
X190251642Y-25547048D01*
X190534863Y-25261839D01*
X190842763Y-24933625D01*
X191145215Y-24595921D01*
X191412089Y-24282241D01*
X191613258Y-24026103D01*
X191709332Y-23880100D01*
X191763862Y-23764901D01*
X191723750Y-23776913D01*
X191637612Y-23849178D01*
X191249117Y-24108783D01*
X190741303Y-24338108D01*
X190164142Y-24521235D01*
X189567606Y-24642244D01*
X189013044Y-24685226D01*
X188460772Y-24665891D01*
X187924161Y-24601375D01*
X187382734Y-24483960D01*
X186816013Y-24305930D01*
X186203522Y-24059567D01*
X185524785Y-23737155D01*
X184759324Y-23330975D01*
X183886662Y-22833311D01*
X183510879Y-22611589D01*
X182569053Y-22061812D01*
X181742558Y-21604445D01*
X181009526Y-21231689D01*
X180348088Y-20935748D01*
X179736374Y-20708821D01*
X179152515Y-20543112D01*
X178574642Y-20430821D01*
X177980885Y-20364151D01*
X177349376Y-20335304D01*
X177120067Y-20332717D01*
X176052985Y-20373342D01*
X175074008Y-20512188D01*
X174133390Y-20761303D01*
X173181385Y-21132731D01*
X172540030Y-21441802D01*
X171473838Y-22080863D01*
X170471468Y-22864422D01*
X169551749Y-23773142D01*
X168733510Y-24787686D01*
X168035582Y-25888718D01*
X167828731Y-26279948D01*
X167478548Y-27020699D01*
X167170697Y-27758530D01*
X166928191Y-28436760D01*
X166854327Y-28679766D01*
X166721170Y-29146990D01*
X165893271Y-29146990D01*
X165958504Y-28904034D01*
X166057942Y-28540345D01*
X166124975Y-28298137D01*
X166220652Y-27945128D01*
X166293335Y-27659526D01*
X166334382Y-27476423D01*
X166339359Y-27427597D01*
X166218240Y-27374434D01*
X165964657Y-27305448D01*
X165614507Y-27227624D01*
X165203688Y-27147950D01*
X164768097Y-27073413D01*
X164343632Y-27011001D01*
X163986119Y-26969561D01*
X162835449Y-26927735D01*
X161731728Y-27031175D01*
X160662484Y-27273902D01*
X160334694Y-27380603D01*
X159949489Y-27524175D01*
X159537268Y-27691027D01*
X159128431Y-27867566D01*
X158753376Y-28040200D01*
X158442502Y-28195335D01*
X158226209Y-28319380D01*
X158134895Y-28398742D01*
X158133779Y-28404568D01*
X156697696Y-28404568D01*
X156320486Y-28135586D01*
X155851082Y-27804867D01*
X155372814Y-27477304D01*
X155004572Y-27250957D01*
X154724448Y-27119995D01*
X154510532Y-27078585D01*
X154340916Y-27120898D01*
X154193691Y-27241101D01*
X154111632Y-27341913D01*
X153937904Y-27575633D01*
X153495419Y-27575633D01*
X153491598Y-27546791D01*
X153514777Y-27330922D01*
X153547339Y-27233566D01*
X153757328Y-26913419D01*
X154068484Y-26655498D01*
X154417495Y-26511922D01*
X154425962Y-26510285D01*
X154557995Y-26497886D01*
X154701824Y-26517747D01*
X154878309Y-26580552D01*
X155108307Y-26696987D01*
X155412678Y-26877735D01*
X155812280Y-27133481D01*
X156327972Y-27474910D01*
X156389873Y-27516280D01*
X157218168Y-28070177D01*
X158079485Y-27614847D01*
X159325171Y-27028347D01*
X160543836Y-26604310D01*
X161751025Y-26340715D01*
X162962283Y-26235543D01*
X164193152Y-26286775D01*
X165459178Y-26492390D01*
X165904575Y-26598177D01*
X166298122Y-26691584D01*
X166557984Y-26733714D01*
X166711441Y-26727664D01*
X166770200Y-26696378D01*
X166848284Y-26585885D01*
X166986098Y-26359195D01*
X167163676Y-26050155D01*
X167346734Y-25719014D01*
X167916698Y-24756540D01*
X168531768Y-23901092D01*
X169238937Y-23089807D01*
X169550575Y-22771077D01*
X170544031Y-21881109D01*
X171580430Y-21149668D01*
X172677199Y-20567312D01*
X173851766Y-20124594D01*
X174947340Y-19846309D01*
X175710245Y-19733366D01*
X176569172Y-19677293D01*
X177459995Y-19678240D01*
G04 #@! TO.C,SW1*
D12*
X159192852Y-75015966D02*
X159332896Y-74960618D01*
X159515287Y-74807573D01*
X159557635Y-74709877D01*
X159563504Y-74642790D01*
X159538765Y-74539224D01*
X159477547Y-74466268D01*
X159379851Y-74423920D01*
X159312763Y-74418050D01*
X159209198Y-74442790D01*
X159032676Y-74528747D01*
X158929110Y-74553487D01*
X158862023Y-74547618D01*
X158764327Y-74505270D01*
X158703109Y-74432313D01*
X158678369Y-74328748D01*
X158684239Y-74261661D01*
X158726586Y-74163964D01*
X158908978Y-74010920D01*
X159049022Y-73955571D01*
X159273761Y-73704830D02*
X160098940Y-74317830D01*
X159785719Y-73648220D01*
X160390767Y-74072959D01*
X159930371Y-73153870D01*
X161266246Y-73338344D02*
X160828506Y-73705651D01*
X161047376Y-73521998D02*
X160404589Y-72755953D01*
X160423459Y-72926606D01*
X160411720Y-73060781D01*
X160369372Y-73158477D01*
G04 #@! TO.C,D9*
X188261904Y-74112380D02*
X188261904Y-73112380D01*
X188500000Y-73112380D01*
X188642857Y-73160000D01*
X188738095Y-73255238D01*
X188785714Y-73350476D01*
X188833333Y-73540952D01*
X188833333Y-73683809D01*
X188785714Y-73874285D01*
X188738095Y-73969523D01*
X188642857Y-74064761D01*
X188500000Y-74112380D01*
X188261904Y-74112380D01*
X189309523Y-74112380D02*
X189500000Y-74112380D01*
X189595238Y-74064761D01*
X189642857Y-74017142D01*
X189738095Y-73874285D01*
X189785714Y-73683809D01*
X189785714Y-73302857D01*
X189738095Y-73207619D01*
X189690476Y-73160000D01*
X189595238Y-73112380D01*
X189404761Y-73112380D01*
X189309523Y-73160000D01*
X189261904Y-73207619D01*
X189214285Y-73302857D01*
X189214285Y-73540952D01*
X189261904Y-73636190D01*
X189309523Y-73683809D01*
X189404761Y-73731428D01*
X189595238Y-73731428D01*
X189690476Y-73683809D01*
X189738095Y-73636190D01*
X189785714Y-73540952D01*
X185135714Y-71852380D02*
X184564285Y-71852380D01*
X184850000Y-71852380D02*
X184850000Y-70852380D01*
X184754761Y-70995238D01*
X184659523Y-71090476D01*
X184564285Y-71138095D01*
G04 #@! TO.C,D17*
X180161251Y-65448511D02*
X179454145Y-64741404D01*
X179622503Y-64573045D01*
X179757190Y-64505702D01*
X179891877Y-64505702D01*
X179992893Y-64539374D01*
X180161251Y-64640389D01*
X180262267Y-64741404D01*
X180363282Y-64909763D01*
X180396954Y-65010778D01*
X180396954Y-65145465D01*
X180329610Y-65280152D01*
X180161251Y-65448511D01*
X181238748Y-64371015D02*
X180834687Y-64775076D01*
X181036717Y-64573045D02*
X180329610Y-63865938D01*
X180363282Y-64034297D01*
X180363282Y-64168984D01*
X180329610Y-64270000D01*
X180767343Y-63428206D02*
X181238748Y-62956801D01*
X181642809Y-63966954D01*
X185107776Y-62834729D02*
X184703715Y-63238790D01*
X184905745Y-63036759D02*
X184198638Y-62329652D01*
X184232310Y-62498011D01*
X184232310Y-62632698D01*
X184198638Y-62733713D01*
G04 #@! TO.C,D16*
X177922380Y-74214285D02*
X176922380Y-74214285D01*
X176922380Y-73976190D01*
X176970000Y-73833333D01*
X177065238Y-73738095D01*
X177160476Y-73690476D01*
X177350952Y-73642857D01*
X177493809Y-73642857D01*
X177684285Y-73690476D01*
X177779523Y-73738095D01*
X177874761Y-73833333D01*
X177922380Y-73976190D01*
X177922380Y-74214285D01*
X177922380Y-72690476D02*
X177922380Y-73261904D01*
X177922380Y-72976190D02*
X176922380Y-72976190D01*
X177065238Y-73071428D01*
X177160476Y-73166666D01*
X177208095Y-73261904D01*
X176922380Y-71833333D02*
X176922380Y-72023809D01*
X176970000Y-72119047D01*
X177017619Y-72166666D01*
X177160476Y-72261904D01*
X177350952Y-72309523D01*
X177731904Y-72309523D01*
X177827142Y-72261904D01*
X177874761Y-72214285D01*
X177922380Y-72119047D01*
X177922380Y-71928571D01*
X177874761Y-71833333D01*
X177827142Y-71785714D01*
X177731904Y-71738095D01*
X177493809Y-71738095D01*
X177398571Y-71785714D01*
X177350952Y-71833333D01*
X177303333Y-71928571D01*
X177303333Y-72119047D01*
X177350952Y-72214285D01*
X177398571Y-72261904D01*
X177493809Y-72309523D01*
X179052380Y-68564285D02*
X179052380Y-69135714D01*
X179052380Y-68850000D02*
X178052380Y-68850000D01*
X178195238Y-68945238D01*
X178290476Y-69040476D01*
X178338095Y-69135714D01*
G04 #@! TO.C,D15*
X179521488Y-81141251D02*
X180228595Y-80434145D01*
X180396954Y-80602503D01*
X180464297Y-80737190D01*
X180464297Y-80871877D01*
X180430625Y-80972893D01*
X180329610Y-81141251D01*
X180228595Y-81242267D01*
X180060236Y-81343282D01*
X179959221Y-81376954D01*
X179824534Y-81376954D01*
X179689847Y-81309610D01*
X179521488Y-81141251D01*
X180598984Y-82218748D02*
X180194923Y-81814687D01*
X180396954Y-82016717D02*
X181104061Y-81309610D01*
X180935702Y-81343282D01*
X180801015Y-81343282D01*
X180700000Y-81309610D01*
X181945854Y-82151404D02*
X181609137Y-81814687D01*
X181238748Y-82117732D01*
X181306091Y-82117732D01*
X181407106Y-82151404D01*
X181575465Y-82319763D01*
X181609137Y-82420778D01*
X181609137Y-82488122D01*
X181575465Y-82589137D01*
X181407106Y-82757496D01*
X181306091Y-82791167D01*
X181238748Y-82791167D01*
X181137732Y-82757496D01*
X180969374Y-82589137D01*
X180935702Y-82488122D01*
X180935702Y-82420778D01*
X178599026Y-77936048D02*
X178194965Y-77531987D01*
X178396996Y-77734017D02*
X179104103Y-77026910D01*
X178935744Y-77060582D01*
X178801057Y-77060582D01*
X178700042Y-77026910D01*
G04 #@! TO.C,D14*
X187785714Y-85362380D02*
X187785714Y-84362380D01*
X188023809Y-84362380D01*
X188166666Y-84410000D01*
X188261904Y-84505238D01*
X188309523Y-84600476D01*
X188357142Y-84790952D01*
X188357142Y-84933809D01*
X188309523Y-85124285D01*
X188261904Y-85219523D01*
X188166666Y-85314761D01*
X188023809Y-85362380D01*
X187785714Y-85362380D01*
X189309523Y-85362380D02*
X188738095Y-85362380D01*
X189023809Y-85362380D02*
X189023809Y-84362380D01*
X188928571Y-84505238D01*
X188833333Y-84600476D01*
X188738095Y-84648095D01*
X190166666Y-84695714D02*
X190166666Y-85362380D01*
X189928571Y-84314761D02*
X189690476Y-85029047D01*
X190309523Y-85029047D01*
X185135714Y-83852380D02*
X184564285Y-83852380D01*
X184850000Y-83852380D02*
X184850000Y-82852380D01*
X184754761Y-82995238D01*
X184659523Y-83090476D01*
X184564285Y-83138095D01*
G04 #@! TO.C,D13*
X196301251Y-82858511D02*
X195594145Y-82151404D01*
X195762503Y-81983045D01*
X195897190Y-81915702D01*
X196031877Y-81915702D01*
X196132893Y-81949374D01*
X196301251Y-82050389D01*
X196402267Y-82151404D01*
X196503282Y-82319763D01*
X196536954Y-82420778D01*
X196536954Y-82555465D01*
X196469610Y-82690152D01*
X196301251Y-82858511D01*
X197378748Y-81781015D02*
X196974687Y-82185076D01*
X197176717Y-81983045D02*
X196469610Y-81275938D01*
X196503282Y-81444297D01*
X196503282Y-81578984D01*
X196469610Y-81680000D01*
X196907343Y-80838206D02*
X197345076Y-80400473D01*
X197378748Y-80905549D01*
X197479763Y-80804534D01*
X197580778Y-80770862D01*
X197648122Y-80770862D01*
X197749137Y-80804534D01*
X197917496Y-80972893D01*
X197951167Y-81073908D01*
X197951167Y-81141251D01*
X197917496Y-81242267D01*
X197715465Y-81444297D01*
X197614450Y-81477969D01*
X197547106Y-81477969D01*
X193936048Y-83400973D02*
X193531987Y-83805034D01*
X193734017Y-83603003D02*
X193026910Y-82895896D01*
X193060582Y-83064255D01*
X193060582Y-83198942D01*
X193026910Y-83299957D01*
G04 #@! TO.C,D12*
X201792380Y-74214285D02*
X200792380Y-74214285D01*
X200792380Y-73976190D01*
X200840000Y-73833333D01*
X200935238Y-73738095D01*
X201030476Y-73690476D01*
X201220952Y-73642857D01*
X201363809Y-73642857D01*
X201554285Y-73690476D01*
X201649523Y-73738095D01*
X201744761Y-73833333D01*
X201792380Y-73976190D01*
X201792380Y-74214285D01*
X201792380Y-72690476D02*
X201792380Y-73261904D01*
X201792380Y-72976190D02*
X200792380Y-72976190D01*
X200935238Y-73071428D01*
X201030476Y-73166666D01*
X201078095Y-73261904D01*
X200887619Y-72309523D02*
X200840000Y-72261904D01*
X200792380Y-72166666D01*
X200792380Y-71928571D01*
X200840000Y-71833333D01*
X200887619Y-71785714D01*
X200982857Y-71738095D01*
X201078095Y-71738095D01*
X201220952Y-71785714D01*
X201792380Y-72357142D01*
X201792380Y-71738095D01*
X199852380Y-76864285D02*
X199852380Y-77435714D01*
X199852380Y-77150000D02*
X198852380Y-77150000D01*
X198995238Y-77245238D01*
X199090476Y-77340476D01*
X199138095Y-77435714D01*
G04 #@! TO.C,D11*
X195823645Y-63893409D02*
X196530752Y-63186303D01*
X196699111Y-63354661D01*
X196766454Y-63489348D01*
X196766454Y-63624035D01*
X196732782Y-63725051D01*
X196631767Y-63893409D01*
X196530752Y-63994425D01*
X196362393Y-64095440D01*
X196261378Y-64129112D01*
X196126691Y-64129112D01*
X195992004Y-64061768D01*
X195823645Y-63893409D01*
X196901141Y-64970906D02*
X196497080Y-64566845D01*
X196699111Y-64768875D02*
X197406218Y-64061768D01*
X197237859Y-64095440D01*
X197103172Y-64095440D01*
X197002157Y-64061768D01*
X197574576Y-65644341D02*
X197170515Y-65240280D01*
X197372546Y-65442310D02*
X198079653Y-64735203D01*
X197911294Y-64768875D01*
X197776607Y-64768875D01*
X197675592Y-64735203D01*
X199165270Y-69107776D02*
X198761209Y-68703715D01*
X198963240Y-68905745D02*
X199670347Y-68198638D01*
X199501988Y-68232310D01*
X199367301Y-68232310D01*
X199266286Y-68198638D01*
G04 #@! TO.C,D10*
X187785714Y-61492380D02*
X187785714Y-60492380D01*
X188023809Y-60492380D01*
X188166666Y-60540000D01*
X188261904Y-60635238D01*
X188309523Y-60730476D01*
X188357142Y-60920952D01*
X188357142Y-61063809D01*
X188309523Y-61254285D01*
X188261904Y-61349523D01*
X188166666Y-61444761D01*
X188023809Y-61492380D01*
X187785714Y-61492380D01*
X189309523Y-61492380D02*
X188738095Y-61492380D01*
X189023809Y-61492380D02*
X189023809Y-60492380D01*
X188928571Y-60635238D01*
X188833333Y-60730476D01*
X188738095Y-60778095D01*
X189928571Y-60492380D02*
X190023809Y-60492380D01*
X190119047Y-60540000D01*
X190166666Y-60587619D01*
X190214285Y-60682857D01*
X190261904Y-60873333D01*
X190261904Y-61111428D01*
X190214285Y-61301904D01*
X190166666Y-61397142D01*
X190119047Y-61444761D01*
X190023809Y-61492380D01*
X189928571Y-61492380D01*
X189833333Y-61444761D01*
X189785714Y-61397142D01*
X189738095Y-61301904D01*
X189690476Y-61111428D01*
X189690476Y-60873333D01*
X189738095Y-60682857D01*
X189785714Y-60587619D01*
X189833333Y-60540000D01*
X189928571Y-60492380D01*
X193435714Y-63052380D02*
X192864285Y-63052380D01*
X193150000Y-63052380D02*
X193150000Y-62052380D01*
X193054761Y-62195238D01*
X192959523Y-62290476D01*
X192864285Y-62338095D01*
G04 #@! TO.C,D2*
X221496566Y-95776346D02*
X221531466Y-94776955D01*
X221769416Y-94785264D01*
X221910524Y-94837840D01*
X222002380Y-94936344D01*
X222046647Y-95033186D01*
X222087589Y-95225208D01*
X222082603Y-95367978D01*
X222028366Y-95556676D01*
X221977452Y-95650194D01*
X221878948Y-95742051D01*
X221734516Y-95784655D01*
X221496566Y-95776346D01*
X222479943Y-94905373D02*
X222529194Y-94859444D01*
X222626036Y-94815178D01*
X222863987Y-94823488D01*
X222957505Y-94874401D01*
X223003433Y-94923653D01*
X223047699Y-95020495D01*
X223044375Y-95115675D01*
X222991800Y-95256784D01*
X222400777Y-95807921D01*
X223019447Y-95829526D01*
X226611385Y-97555934D02*
X226040304Y-97535992D01*
X226325845Y-97545963D02*
X226360744Y-96546572D01*
X226260578Y-96686018D01*
X226162075Y-96777875D01*
X226065233Y-96822141D01*
G04 #@! TO.C,D4*
X240319036Y-84636021D02*
X239340889Y-84428109D01*
X239390391Y-84195217D01*
X239466672Y-84065382D01*
X239579630Y-83992026D01*
X239682687Y-83965249D01*
X239878901Y-83958273D01*
X240018637Y-83987974D01*
X240195050Y-84074155D01*
X240278306Y-84140535D01*
X240351662Y-84253493D01*
X240368539Y-84403129D01*
X240319036Y-84636021D01*
X239963955Y-83100059D02*
X240616053Y-83238667D01*
X239541824Y-83253747D02*
X240190998Y-83635148D01*
X240319705Y-83029628D01*
X242959768Y-79907930D02*
X242840962Y-80466872D01*
X242900365Y-80187401D02*
X241922217Y-79979489D01*
X242042152Y-80102348D01*
X242115507Y-80215306D01*
X242142285Y-80318363D01*
G04 #@! TO.C,D1*
X209669969Y-93545933D02*
X209928788Y-92580007D01*
X210158771Y-92641631D01*
X210284436Y-92724601D01*
X210351779Y-92841244D01*
X210373126Y-92945561D01*
X210369824Y-93141872D01*
X210332850Y-93279861D01*
X210237554Y-93451522D01*
X210166908Y-93531191D01*
X210050266Y-93598534D01*
X209899952Y-93607556D01*
X209669969Y-93545933D01*
X211141856Y-93940324D02*
X210589899Y-93792427D01*
X210865878Y-93866375D02*
X211124697Y-92900450D01*
X210995730Y-93013790D01*
X210879087Y-93081133D01*
X210774770Y-93102480D01*
X214253376Y-96430494D02*
X213701418Y-96282598D01*
X213977397Y-96356546D02*
X214236216Y-95390620D01*
X214107249Y-95503960D01*
X213990606Y-95571304D01*
X213886289Y-95592651D01*
G04 #@! TO.C,D3*
X232886981Y-94060821D02*
X232386981Y-93194795D01*
X232593177Y-93075747D01*
X232740705Y-93045558D01*
X232870802Y-93080418D01*
X232959661Y-93139087D01*
X233096138Y-93280235D01*
X233167567Y-93403952D01*
X233221565Y-93592719D01*
X233227945Y-93699007D01*
X233193086Y-93829105D01*
X233093177Y-93941773D01*
X232886981Y-94060821D01*
X233170528Y-92742414D02*
X233706639Y-92432890D01*
X233608440Y-92929471D01*
X233732157Y-92858043D01*
X233838446Y-92851663D01*
X233903494Y-92869093D01*
X233992353Y-92927762D01*
X234111400Y-93133959D01*
X234117780Y-93240247D01*
X234100350Y-93305295D01*
X234041681Y-93394154D01*
X233794245Y-93537011D01*
X233687957Y-93543391D01*
X233622908Y-93525961D01*
X238167631Y-92859557D02*
X237672759Y-93145271D01*
X237920195Y-93002414D02*
X237420195Y-92136388D01*
X237409145Y-92307725D01*
X237374285Y-92437823D01*
X237315616Y-92526681D01*
G04 #@! TO.C,D5*
X239926322Y-72351673D02*
X240911130Y-72178025D01*
X240952475Y-72412503D01*
X240930386Y-72561458D01*
X240853133Y-72671787D01*
X240767611Y-72735221D01*
X240588297Y-72815192D01*
X240447610Y-72839999D01*
X240251759Y-72826180D01*
X240149699Y-72795822D01*
X240039370Y-72718569D01*
X239967667Y-72586151D01*
X239926322Y-72351673D01*
X241167468Y-73631788D02*
X241084778Y-73162832D01*
X240607553Y-73198626D01*
X240662718Y-73237253D01*
X240726151Y-73322775D01*
X240767496Y-73557253D01*
X240737138Y-73659313D01*
X240698512Y-73714478D01*
X240612990Y-73777912D01*
X240378512Y-73819256D01*
X240276451Y-73788899D01*
X240221287Y-73750272D01*
X240157853Y-73664750D01*
X240116508Y-73430272D01*
X240146866Y-73328212D01*
X240185493Y-73273047D01*
X240959157Y-68995139D02*
X240859929Y-68432392D01*
X240909543Y-68713766D02*
X241894351Y-68540117D01*
X241737126Y-68471133D01*
X241626797Y-68393880D01*
X241563364Y-68308358D01*
G04 #@! TO.C,D6*
X234679017Y-62725371D02*
X235445062Y-62082583D01*
X235598106Y-62264975D01*
X235653455Y-62405018D01*
X235641716Y-62539193D01*
X235599368Y-62636889D01*
X235484064Y-62795803D01*
X235374629Y-62887630D01*
X235198107Y-62973587D01*
X235094541Y-62998327D01*
X234960367Y-62986588D01*
X234832062Y-62907762D01*
X234679017Y-62725371D01*
X236363330Y-63176932D02*
X236240894Y-63031019D01*
X236143198Y-62988671D01*
X236076110Y-62982802D01*
X235905458Y-63001672D01*
X235728935Y-63087630D01*
X235437109Y-63332501D01*
X235394761Y-63430197D01*
X235388892Y-63497284D01*
X235413632Y-63600850D01*
X235536067Y-63746763D01*
X235633763Y-63789111D01*
X235700851Y-63794980D01*
X235804416Y-63770241D01*
X235986808Y-63617196D01*
X236029155Y-63519500D01*
X236035025Y-63452413D01*
X236010285Y-63348847D01*
X235887850Y-63202934D01*
X235790153Y-63160586D01*
X235723066Y-63154717D01*
X235619501Y-63179456D01*
X233895212Y-59302109D02*
X233527905Y-58864370D01*
X233711559Y-59083239D02*
X234477603Y-58440452D01*
X234306950Y-58459322D01*
X234172776Y-58447583D01*
X234075080Y-58405236D01*
G04 #@! TD*
M02*
