G04 #@! TF.GenerationSoftware,KiCad,Pcbnew,(5.0.1-3-g963ef8bb5)*
G04 #@! TF.CreationDate,2019-02-22T11:05:41+01:00*
G04 #@! TF.ProjectId,unicorn_pcb,756E69636F726E5F7063622E6B696361,rev?*
G04 #@! TF.SameCoordinates,Original*
G04 #@! TF.FileFunction,Soldermask,Bot*
G04 #@! TF.FilePolarity,Negative*
%FSLAX46Y46*%
G04 Gerber Fmt 4.6, Leading zero omitted, Abs format (unit mm)*
G04 Created by KiCad (PCBNEW (5.0.1-3-g963ef8bb5)) date 2019 February 22, Friday 11:05:41*
%MOMM*%
%LPD*%
G01*
G04 APERTURE LIST*
%ADD10C,0.100000*%
G04 APERTURE END LIST*
D10*
G36*
X197247000Y-96131000D02*
X195945000Y-96131000D01*
X195945000Y-95129000D01*
X197247000Y-95129000D01*
X197247000Y-96131000D01*
X197247000Y-96131000D01*
G37*
G36*
X205499562Y-94200181D02*
X205534477Y-94210773D01*
X205566665Y-94227978D01*
X205594873Y-94251127D01*
X205618022Y-94279335D01*
X205635227Y-94311523D01*
X205645819Y-94346438D01*
X205650000Y-94388895D01*
X205650000Y-95530105D01*
X205645819Y-95572562D01*
X205635227Y-95607477D01*
X205618022Y-95639665D01*
X205594873Y-95667873D01*
X205566665Y-95691022D01*
X205534477Y-95708227D01*
X205499562Y-95718819D01*
X205457105Y-95723000D01*
X203990895Y-95723000D01*
X203948438Y-95718819D01*
X203913523Y-95708227D01*
X203881335Y-95691022D01*
X203853127Y-95667873D01*
X203829978Y-95639665D01*
X203812773Y-95607477D01*
X203802181Y-95572562D01*
X203798000Y-95530105D01*
X203798000Y-94388895D01*
X203802181Y-94346438D01*
X203812773Y-94311523D01*
X203829978Y-94279335D01*
X203853127Y-94251127D01*
X203881335Y-94227978D01*
X203913523Y-94210773D01*
X203948438Y-94200181D01*
X203990895Y-94196000D01*
X205457105Y-94196000D01*
X205499562Y-94200181D01*
X205499562Y-94200181D01*
G37*
G36*
X201248677Y-94383465D02*
X201286364Y-94394898D01*
X201321103Y-94413466D01*
X201351548Y-94438452D01*
X201376534Y-94468897D01*
X201395102Y-94503636D01*
X201406535Y-94541323D01*
X201411000Y-94586661D01*
X201411000Y-95423339D01*
X201406535Y-95468677D01*
X201395102Y-95506364D01*
X201376534Y-95541103D01*
X201351548Y-95571548D01*
X201321103Y-95596534D01*
X201286364Y-95615102D01*
X201248677Y-95626535D01*
X201203339Y-95631000D01*
X200116661Y-95631000D01*
X200071323Y-95626535D01*
X200033636Y-95615102D01*
X199998897Y-95596534D01*
X199968452Y-95571548D01*
X199943466Y-95541103D01*
X199924898Y-95506364D01*
X199913465Y-95468677D01*
X199909000Y-95423339D01*
X199909000Y-94586661D01*
X199913465Y-94541323D01*
X199924898Y-94503636D01*
X199943466Y-94468897D01*
X199968452Y-94438452D01*
X199998897Y-94413466D01*
X200033636Y-94394898D01*
X200071323Y-94383465D01*
X200116661Y-94379000D01*
X201203339Y-94379000D01*
X201248677Y-94383465D01*
X201248677Y-94383465D01*
G37*
G36*
X201248677Y-92333465D02*
X201286364Y-92344898D01*
X201321103Y-92363466D01*
X201351548Y-92388452D01*
X201376534Y-92418897D01*
X201395102Y-92453636D01*
X201406535Y-92491323D01*
X201411000Y-92536661D01*
X201411000Y-93373339D01*
X201406535Y-93418677D01*
X201395102Y-93456364D01*
X201376534Y-93491103D01*
X201351548Y-93521548D01*
X201321103Y-93546534D01*
X201286364Y-93565102D01*
X201248677Y-93576535D01*
X201203339Y-93581000D01*
X200116661Y-93581000D01*
X200071323Y-93576535D01*
X200033636Y-93565102D01*
X199998897Y-93546534D01*
X199968452Y-93521548D01*
X199943466Y-93491103D01*
X199924898Y-93456364D01*
X199913465Y-93418677D01*
X199909000Y-93373339D01*
X199909000Y-92536661D01*
X199913465Y-92491323D01*
X199924898Y-92453636D01*
X199943466Y-92418897D01*
X199968452Y-92388452D01*
X199998897Y-92363466D01*
X200033636Y-92344898D01*
X200071323Y-92333465D01*
X200116661Y-92329000D01*
X201203339Y-92329000D01*
X201248677Y-92333465D01*
X201248677Y-92333465D01*
G37*
G36*
X197247000Y-92831000D02*
X195945000Y-92831000D01*
X195945000Y-91829000D01*
X197247000Y-91829000D01*
X197247000Y-92831000D01*
X197247000Y-92831000D01*
G37*
G36*
X205499562Y-91225181D02*
X205534477Y-91235773D01*
X205566665Y-91252978D01*
X205594873Y-91276127D01*
X205618022Y-91304335D01*
X205635227Y-91336523D01*
X205645819Y-91371438D01*
X205650000Y-91413895D01*
X205650000Y-92555105D01*
X205645819Y-92597562D01*
X205635227Y-92632477D01*
X205618022Y-92664665D01*
X205594873Y-92692873D01*
X205566665Y-92716022D01*
X205534477Y-92733227D01*
X205499562Y-92743819D01*
X205457105Y-92748000D01*
X203990895Y-92748000D01*
X203948438Y-92743819D01*
X203913523Y-92733227D01*
X203881335Y-92716022D01*
X203853127Y-92692873D01*
X203829978Y-92664665D01*
X203812773Y-92632477D01*
X203802181Y-92597562D01*
X203798000Y-92555105D01*
X203798000Y-91413895D01*
X203802181Y-91371438D01*
X203812773Y-91336523D01*
X203829978Y-91304335D01*
X203853127Y-91276127D01*
X203881335Y-91252978D01*
X203913523Y-91235773D01*
X203948438Y-91225181D01*
X203990895Y-91221000D01*
X205457105Y-91221000D01*
X205499562Y-91225181D01*
X205499562Y-91225181D01*
G37*
G36*
X193733806Y-88987423D02*
X192427806Y-91249481D01*
X191473446Y-90698481D01*
X192779446Y-88436423D01*
X193733806Y-88987423D01*
X193733806Y-88987423D01*
G37*
G36*
X189334397Y-86447423D02*
X188028397Y-88709481D01*
X187074037Y-88158481D01*
X188380037Y-85896423D01*
X189334397Y-86447423D01*
X189334397Y-86447423D01*
G37*
G36*
X193189102Y-84850879D02*
X191883102Y-87112937D01*
X190928742Y-86561937D01*
X192234742Y-84299879D01*
X193189102Y-84850879D01*
X193189102Y-84850879D01*
G37*
G36*
X184934988Y-83907423D02*
X183628988Y-86169481D01*
X182674628Y-85618481D01*
X183980628Y-83356423D01*
X184934988Y-83907423D01*
X184934988Y-83907423D01*
G37*
G36*
X188789693Y-82310879D02*
X187483693Y-84572937D01*
X186529333Y-84021937D01*
X187835333Y-81759879D01*
X188789693Y-82310879D01*
X188789693Y-82310879D01*
G37*
G36*
X204867000Y-83939000D02*
X203565000Y-83939000D01*
X203565000Y-82937000D01*
X204867000Y-82937000D01*
X204867000Y-83939000D01*
X204867000Y-83939000D01*
G37*
G36*
X180535579Y-81367423D02*
X179229579Y-83629481D01*
X178275219Y-83078481D01*
X179581219Y-80816423D01*
X180535579Y-81367423D01*
X180535579Y-81367423D01*
G37*
G36*
X209884677Y-81683465D02*
X209922364Y-81694898D01*
X209957103Y-81713466D01*
X209987548Y-81738452D01*
X210012534Y-81768897D01*
X210031102Y-81803636D01*
X210042535Y-81841323D01*
X210047000Y-81886661D01*
X210047000Y-82723339D01*
X210042535Y-82768677D01*
X210031102Y-82806364D01*
X210012534Y-82841103D01*
X209987548Y-82871548D01*
X209957103Y-82896534D01*
X209922364Y-82915102D01*
X209884677Y-82926535D01*
X209839339Y-82931000D01*
X208752661Y-82931000D01*
X208707323Y-82926535D01*
X208669636Y-82915102D01*
X208634897Y-82896534D01*
X208604452Y-82871548D01*
X208579466Y-82841103D01*
X208560898Y-82806364D01*
X208549465Y-82768677D01*
X208545000Y-82723339D01*
X208545000Y-81886661D01*
X208549465Y-81841323D01*
X208560898Y-81803636D01*
X208579466Y-81768897D01*
X208604452Y-81738452D01*
X208634897Y-81713466D01*
X208669636Y-81694898D01*
X208707323Y-81683465D01*
X208752661Y-81679000D01*
X209839339Y-81679000D01*
X209884677Y-81683465D01*
X209884677Y-81683465D01*
G37*
G36*
X184390284Y-79770879D02*
X183084284Y-82032937D01*
X182129924Y-81481937D01*
X183435924Y-79219879D01*
X184390284Y-79770879D01*
X184390284Y-79770879D01*
G37*
G36*
X161949109Y-79906589D02*
X162140378Y-79985815D01*
X162312520Y-80100837D01*
X162458907Y-80247224D01*
X162573929Y-80419366D01*
X162653155Y-80610635D01*
X162693544Y-80813684D01*
X162693544Y-81020716D01*
X162653155Y-81223765D01*
X162573929Y-81415034D01*
X162458907Y-81587176D01*
X162312520Y-81733563D01*
X162140378Y-81848585D01*
X161949109Y-81927811D01*
X161746060Y-81968200D01*
X161539028Y-81968200D01*
X161335979Y-81927811D01*
X161144710Y-81848585D01*
X160972568Y-81733563D01*
X160826181Y-81587176D01*
X160711159Y-81415034D01*
X160631933Y-81223765D01*
X160591544Y-81020716D01*
X160591544Y-80813684D01*
X160631933Y-80610635D01*
X160711159Y-80419366D01*
X160826181Y-80247224D01*
X160972568Y-80100837D01*
X161144710Y-79985815D01*
X161335979Y-79906589D01*
X161539028Y-79866200D01*
X161746060Y-79866200D01*
X161949109Y-79906589D01*
X161949109Y-79906589D01*
G37*
G36*
X176136170Y-78827423D02*
X174830170Y-81089481D01*
X173875810Y-80538481D01*
X175181810Y-78276423D01*
X176136170Y-78827423D01*
X176136170Y-78827423D01*
G37*
G36*
X209884677Y-79633465D02*
X209922364Y-79644898D01*
X209957103Y-79663466D01*
X209987548Y-79688452D01*
X210012534Y-79718897D01*
X210031102Y-79753636D01*
X210042535Y-79791323D01*
X210047000Y-79836661D01*
X210047000Y-80673339D01*
X210042535Y-80718677D01*
X210031102Y-80756364D01*
X210012534Y-80791103D01*
X209987548Y-80821548D01*
X209957103Y-80846534D01*
X209922364Y-80865102D01*
X209884677Y-80876535D01*
X209839339Y-80881000D01*
X208752661Y-80881000D01*
X208707323Y-80876535D01*
X208669636Y-80865102D01*
X208634897Y-80846534D01*
X208604452Y-80821548D01*
X208579466Y-80791103D01*
X208560898Y-80756364D01*
X208549465Y-80718677D01*
X208545000Y-80673339D01*
X208545000Y-79836661D01*
X208549465Y-79791323D01*
X208560898Y-79753636D01*
X208579466Y-79718897D01*
X208604452Y-79688452D01*
X208634897Y-79663466D01*
X208669636Y-79644898D01*
X208707323Y-79633465D01*
X208752661Y-79629000D01*
X209839339Y-79629000D01*
X209884677Y-79633465D01*
X209884677Y-79633465D01*
G37*
G36*
X204867000Y-80639000D02*
X203565000Y-80639000D01*
X203565000Y-79637000D01*
X204867000Y-79637000D01*
X204867000Y-80639000D01*
X204867000Y-80639000D01*
G37*
G36*
X179990875Y-77230879D02*
X178684875Y-79492937D01*
X177730515Y-78941937D01*
X179036515Y-76679879D01*
X179990875Y-77230879D01*
X179990875Y-77230879D01*
G37*
G36*
X159056565Y-76459389D02*
X159247834Y-76538615D01*
X159419976Y-76653637D01*
X159566363Y-76800024D01*
X159681385Y-76972166D01*
X159760611Y-77163435D01*
X159801000Y-77366484D01*
X159801000Y-77573516D01*
X159760611Y-77776565D01*
X159681385Y-77967834D01*
X159566363Y-78139976D01*
X159419976Y-78286363D01*
X159247834Y-78401385D01*
X159056565Y-78480611D01*
X158853516Y-78521000D01*
X158646484Y-78521000D01*
X158443435Y-78480611D01*
X158252166Y-78401385D01*
X158080024Y-78286363D01*
X157933637Y-78139976D01*
X157818615Y-77967834D01*
X157739389Y-77776565D01*
X157699000Y-77573516D01*
X157699000Y-77366484D01*
X157739389Y-77163435D01*
X157818615Y-76972166D01*
X157933637Y-76800024D01*
X158080024Y-76653637D01*
X158252166Y-76538615D01*
X158443435Y-76459389D01*
X158646484Y-76419000D01*
X158853516Y-76419000D01*
X159056565Y-76459389D01*
X159056565Y-76459389D01*
G37*
G36*
X166928398Y-75728470D02*
X167119667Y-75807696D01*
X167291809Y-75922718D01*
X167438196Y-76069105D01*
X167553218Y-76241247D01*
X167632444Y-76432516D01*
X167672833Y-76635565D01*
X167672833Y-76842597D01*
X167632444Y-77045646D01*
X167553218Y-77236915D01*
X167438196Y-77409057D01*
X167291809Y-77555444D01*
X167119667Y-77670466D01*
X166928398Y-77749692D01*
X166725349Y-77790081D01*
X166518317Y-77790081D01*
X166315268Y-77749692D01*
X166123999Y-77670466D01*
X165951857Y-77555444D01*
X165805470Y-77409057D01*
X165690448Y-77236915D01*
X165611222Y-77045646D01*
X165570833Y-76842597D01*
X165570833Y-76635565D01*
X165611222Y-76432516D01*
X165690448Y-76241247D01*
X165805470Y-76069105D01*
X165951857Y-75922718D01*
X166123999Y-75807696D01*
X166315268Y-75728470D01*
X166518317Y-75688081D01*
X166725349Y-75688081D01*
X166928398Y-75728470D01*
X166928398Y-75728470D01*
G37*
G36*
X175591466Y-74690879D02*
X174285466Y-76952937D01*
X173331106Y-76401937D01*
X174637106Y-74139879D01*
X175591466Y-74690879D01*
X175591466Y-74690879D01*
G37*
G36*
X240089890Y-76047800D02*
X236988150Y-76047800D01*
X236988150Y-74447200D01*
X240089890Y-74447200D01*
X240089890Y-76047800D01*
X240089890Y-76047800D01*
G37*
G36*
X168228677Y-73555465D02*
X168266364Y-73566898D01*
X168301103Y-73585466D01*
X168331548Y-73610452D01*
X168356534Y-73640897D01*
X168375102Y-73675636D01*
X168386535Y-73713323D01*
X168391000Y-73758661D01*
X168391000Y-74595339D01*
X168386535Y-74640677D01*
X168375102Y-74678364D01*
X168356534Y-74713103D01*
X168331548Y-74743548D01*
X168301103Y-74768534D01*
X168266364Y-74787102D01*
X168228677Y-74798535D01*
X168183339Y-74803000D01*
X167096661Y-74803000D01*
X167051323Y-74798535D01*
X167013636Y-74787102D01*
X166978897Y-74768534D01*
X166948452Y-74743548D01*
X166923466Y-74713103D01*
X166904898Y-74678364D01*
X166893465Y-74640677D01*
X166889000Y-74595339D01*
X166889000Y-73758661D01*
X166893465Y-73713323D01*
X166904898Y-73675636D01*
X166923466Y-73640897D01*
X166948452Y-73610452D01*
X166978897Y-73585466D01*
X167013636Y-73566898D01*
X167051323Y-73555465D01*
X167096661Y-73551000D01*
X168183339Y-73551000D01*
X168228677Y-73555465D01*
X168228677Y-73555465D01*
G37*
G36*
X164035854Y-72281270D02*
X164227123Y-72360496D01*
X164399265Y-72475518D01*
X164545652Y-72621905D01*
X164660674Y-72794047D01*
X164739900Y-72985316D01*
X164780289Y-73188365D01*
X164780289Y-73395397D01*
X164739900Y-73598446D01*
X164660674Y-73789715D01*
X164545652Y-73961857D01*
X164399265Y-74108244D01*
X164227123Y-74223266D01*
X164035854Y-74302492D01*
X163832805Y-74342881D01*
X163625773Y-74342881D01*
X163422724Y-74302492D01*
X163231455Y-74223266D01*
X163059313Y-74108244D01*
X162912926Y-73961857D01*
X162797904Y-73789715D01*
X162718678Y-73598446D01*
X162678289Y-73395397D01*
X162678289Y-73188365D01*
X162718678Y-72985316D01*
X162797904Y-72794047D01*
X162912926Y-72621905D01*
X163059313Y-72475518D01*
X163231455Y-72360496D01*
X163422724Y-72281270D01*
X163625773Y-72240881D01*
X163832805Y-72240881D01*
X164035854Y-72281270D01*
X164035854Y-72281270D01*
G37*
G36*
X232461000Y-73404930D02*
X229620880Y-73404930D01*
X229620880Y-72294550D01*
X232461000Y-72294550D01*
X232461000Y-73404930D01*
X232461000Y-73404930D01*
G37*
G36*
X168228677Y-71505465D02*
X168266364Y-71516898D01*
X168301103Y-71535466D01*
X168331548Y-71560452D01*
X168356534Y-71590897D01*
X168375102Y-71625636D01*
X168386535Y-71663323D01*
X168391000Y-71708661D01*
X168391000Y-72545339D01*
X168386535Y-72590677D01*
X168375102Y-72628364D01*
X168356534Y-72663103D01*
X168331548Y-72693548D01*
X168301103Y-72718534D01*
X168266364Y-72737102D01*
X168228677Y-72748535D01*
X168183339Y-72753000D01*
X167096661Y-72753000D01*
X167051323Y-72748535D01*
X167013636Y-72737102D01*
X166978897Y-72718534D01*
X166948452Y-72693548D01*
X166923466Y-72663103D01*
X166904898Y-72628364D01*
X166893465Y-72590677D01*
X166889000Y-72545339D01*
X166889000Y-71708661D01*
X166893465Y-71663323D01*
X166904898Y-71625636D01*
X166923466Y-71590897D01*
X166948452Y-71560452D01*
X166978897Y-71535466D01*
X167013636Y-71516898D01*
X167051323Y-71505465D01*
X167096661Y-71501000D01*
X168183339Y-71501000D01*
X168228677Y-71505465D01*
X168228677Y-71505465D01*
G37*
G36*
X232461000Y-71403410D02*
X229620880Y-71403410D01*
X229620880Y-70293030D01*
X232461000Y-70293030D01*
X232461000Y-71403410D01*
X232461000Y-71403410D01*
G37*
G36*
X203034102Y-67798839D02*
X201728102Y-70060897D01*
X200773742Y-69509897D01*
X202079742Y-67247839D01*
X203034102Y-67798839D01*
X203034102Y-67798839D01*
G37*
G36*
X232461000Y-69406970D02*
X229620880Y-69406970D01*
X229620880Y-68296590D01*
X232461000Y-68296590D01*
X232461000Y-69406970D01*
X232461000Y-69406970D01*
G37*
G36*
X206888806Y-66202295D02*
X205582806Y-68464353D01*
X204628446Y-67913353D01*
X205934446Y-65651295D01*
X206888806Y-66202295D01*
X206888806Y-66202295D01*
G37*
G36*
X188355562Y-66388181D02*
X188390477Y-66398773D01*
X188422665Y-66415978D01*
X188450873Y-66439127D01*
X188474022Y-66467335D01*
X188491227Y-66499523D01*
X188501819Y-66534438D01*
X188506000Y-66576895D01*
X188506000Y-68043105D01*
X188501819Y-68085562D01*
X188491227Y-68120477D01*
X188474022Y-68152665D01*
X188450873Y-68180873D01*
X188422665Y-68204022D01*
X188390477Y-68221227D01*
X188355562Y-68231819D01*
X188313105Y-68236000D01*
X187171895Y-68236000D01*
X187129438Y-68231819D01*
X187094523Y-68221227D01*
X187062335Y-68204022D01*
X187034127Y-68180873D01*
X187010978Y-68152665D01*
X186993773Y-68120477D01*
X186983181Y-68085562D01*
X186979000Y-68043105D01*
X186979000Y-66576895D01*
X186983181Y-66534438D01*
X186993773Y-66499523D01*
X187010978Y-66467335D01*
X187034127Y-66439127D01*
X187062335Y-66415978D01*
X187094523Y-66398773D01*
X187129438Y-66388181D01*
X187171895Y-66384000D01*
X188313105Y-66384000D01*
X188355562Y-66388181D01*
X188355562Y-66388181D01*
G37*
G36*
X191330562Y-66388181D02*
X191365477Y-66398773D01*
X191397665Y-66415978D01*
X191425873Y-66439127D01*
X191449022Y-66467335D01*
X191466227Y-66499523D01*
X191476819Y-66534438D01*
X191481000Y-66576895D01*
X191481000Y-68043105D01*
X191476819Y-68085562D01*
X191466227Y-68120477D01*
X191449022Y-68152665D01*
X191425873Y-68180873D01*
X191397665Y-68204022D01*
X191365477Y-68221227D01*
X191330562Y-68231819D01*
X191288105Y-68236000D01*
X190146895Y-68236000D01*
X190104438Y-68231819D01*
X190069523Y-68221227D01*
X190037335Y-68204022D01*
X190009127Y-68180873D01*
X189985978Y-68152665D01*
X189968773Y-68120477D01*
X189958181Y-68085562D01*
X189954000Y-68043105D01*
X189954000Y-66576895D01*
X189958181Y-66534438D01*
X189968773Y-66499523D01*
X189985978Y-66467335D01*
X190009127Y-66439127D01*
X190037335Y-66415978D01*
X190069523Y-66398773D01*
X190104438Y-66388181D01*
X190146895Y-66384000D01*
X191288105Y-66384000D01*
X191330562Y-66388181D01*
X191330562Y-66388181D01*
G37*
G36*
X198634693Y-65258839D02*
X197328693Y-67520897D01*
X196374333Y-66969897D01*
X197680333Y-64707839D01*
X198634693Y-65258839D01*
X198634693Y-65258839D01*
G37*
G36*
X232461000Y-67405450D02*
X229620880Y-67405450D01*
X229620880Y-66295070D01*
X232461000Y-66295070D01*
X232461000Y-67405450D01*
X232461000Y-67405450D01*
G37*
G36*
X202489397Y-63662295D02*
X201183397Y-65924353D01*
X200229037Y-65373353D01*
X201535037Y-63111295D01*
X202489397Y-63662295D01*
X202489397Y-63662295D01*
G37*
G36*
X240089890Y-65252800D02*
X236988150Y-65252800D01*
X236988150Y-63652200D01*
X240089890Y-63652200D01*
X240089890Y-65252800D01*
X240089890Y-65252800D01*
G37*
G36*
X194235284Y-62718839D02*
X192929284Y-64980897D01*
X191974924Y-64429897D01*
X193280924Y-62167839D01*
X194235284Y-62718839D01*
X194235284Y-62718839D01*
G37*
G36*
X198089988Y-61122295D02*
X196783988Y-63384353D01*
X195829628Y-62833353D01*
X197135628Y-60571295D01*
X198089988Y-61122295D01*
X198089988Y-61122295D01*
G37*
G36*
X189835875Y-60178839D02*
X188529875Y-62440897D01*
X187575515Y-61889897D01*
X188881515Y-59627839D01*
X189835875Y-60178839D01*
X189835875Y-60178839D01*
G37*
G36*
X193690579Y-58582295D02*
X192384579Y-60844353D01*
X191430219Y-60293353D01*
X192736219Y-58031295D01*
X193690579Y-58582295D01*
X193690579Y-58582295D01*
G37*
G36*
X185436466Y-57638839D02*
X184130466Y-59900897D01*
X183176106Y-59349897D01*
X184482106Y-57087839D01*
X185436466Y-57638839D01*
X185436466Y-57638839D01*
G37*
G36*
X189291170Y-56042295D02*
X187985170Y-58304353D01*
X187030810Y-57753353D01*
X188336810Y-55491295D01*
X189291170Y-56042295D01*
X189291170Y-56042295D01*
G37*
M02*
